<?xml version="1.0" encoding="UTF-8" standalone="no"?>
<!DOCTYPE svg PUBLIC "-//W3C//DTD SVG 1.1//EN"
 "http://www.w3.org/Graphics/SVG/1.1/DTD/svg11.dtd">
<!-- Generated by graphviz version 2.38.0 (20140413.2041)
 -->
<!-- Title: libereDonneesImageRGB Pages: 1 -->
<svg width="356pt" height="123pt"
 viewBox="0.00 0.00 356.00 122.53" xmlns="http://www.w3.org/2000/svg" xmlns:xlink="http://www.w3.org/1999/xlink">
<g id="graph0" class="graph" transform="scale(1 1) rotate(0) translate(4 118.531)">
<title>libereDonneesImageRGB</title>
<!-- Node1 -->
<g id="node1" class="node"><title>Node1</title>
<polygon fill="#bfbfbf" stroke="black" points="0,-57.5 0,-76.5 125,-76.5 125,-57.5 0,-57.5"/>
<text text-anchor="middle" x="62.5" y="-64.5" font-family="Helvetica,sans-Serif" font-size="10.00">libereDonneesImageRGB</text>
</g>
<!-- Node2 -->
<g id="node2" class="node"><title>Node2</title>
<g id="a_node2"><a xlink:href="main_8c.html#a0ddf1224851353fc92bfbff6f499fa97" target="_top" xlink:title="Main du programme. ">
<polygon fill="none" stroke="black" points="310,-57.5 310,-76.5 348,-76.5 348,-57.5 310,-57.5"/>
<text text-anchor="middle" x="329" y="-64.5" font-family="Helvetica,sans-Serif" font-size="10.00">main</text>
</a>
</g>
</g>
<!-- Node1&#45;&gt;Node2 -->
<g id="edge1" class="edge"><title>Node1&#45;&gt;Node2</title>
<path fill="none" stroke="midnightblue" d="M91.2181,-80.999C110.297,-89.8265 136.521,-100.398 161,-105 210.358,-114.279 226.12,-120.158 274,-105 291.486,-99.464 308.209,-86.0043 318.291,-76.688"/>
<polygon fill="midnightblue" stroke="midnightblue" points="92.473,-77.7201 81.9394,-76.5827 89.4646,-84.0407 92.473,-77.7201"/>
</g>
<!-- Node3 -->
<g id="node3" class="node"><title>Node3</title>
<g id="a_node3"><a xlink:href="prototype_8h.html#af5bd2a3aefd76f19566fbdd4bf3a13f1" target="_top" xlink:title="Charge une nouvelle image. ">
<polygon fill="none" stroke="black" points="180.5,-76.5 180.5,-95.5 254.5,-95.5 254.5,-76.5 180.5,-76.5"/>
<text text-anchor="middle" x="217.5" y="-83.5" font-family="Helvetica,sans-Serif" font-size="10.00">changeimage</text>
</a>
</g>
</g>
<!-- Node1&#45;&gt;Node3 -->
<g id="edge2" class="edge"><title>Node1&#45;&gt;Node3</title>
<path fill="none" stroke="midnightblue" d="M135.485,-75.9393C151.096,-77.8779 166.959,-79.8478 180.461,-81.5245"/>
<polygon fill="midnightblue" stroke="midnightblue" points="135.645,-72.4324 125.29,-74.6733 134.782,-79.379 135.645,-72.4324"/>
</g>
<!-- Node4 -->
<g id="node4" class="node"><title>Node4</title>
<g id="a_node4"><a xlink:href="quaternaire_8c.html#a1d1e77f95b9ad72f9f8059a412ee8365" target="_top" xlink:title="Réalise tout les niveau de zoom d&#39;un arbre RGB. ">
<polygon fill="none" stroke="black" points="161,-38.5 161,-57.5 274,-57.5 274,-38.5 161,-38.5"/>
<text text-anchor="middle" x="217.5" y="-45.5" font-family="Helvetica,sans-Serif" font-size="10.00">tousLesZoomsCouleur</text>
</a>
</g>
</g>
<!-- Node1&#45;&gt;Node4 -->
<g id="edge4" class="edge"><title>Node1&#45;&gt;Node4</title>
<path fill="none" stroke="midnightblue" d="M135.315,-58.0818C143.909,-57.0146 152.581,-55.9377 160.897,-54.905"/>
<polygon fill="midnightblue" stroke="midnightblue" points="134.782,-54.621 125.29,-59.3267 135.645,-61.5676 134.782,-54.621"/>
</g>
<!-- Node5 -->
<g id="node5" class="node"><title>Node5</title>
<g id="a_node5"><a xlink:href="quaternaire_8c.html#ad8bb52314936ad1d1ad641c305d7792d" target="_top" xlink:title="Réalise tout les niveau de zoom d&#39;un arbre NG. ">
<polygon fill="none" stroke="black" points="170,-0.5 170,-19.5 265,-19.5 265,-0.5 170,-0.5"/>
<text text-anchor="middle" x="217.5" y="-7.5" font-family="Helvetica,sans-Serif" font-size="10.00">tousLesZoomsNG</text>
</a>
</g>
</g>
<!-- Node1&#45;&gt;Node5 -->
<g id="edge6" class="edge"><title>Node1&#45;&gt;Node5</title>
<path fill="none" stroke="midnightblue" d="M96.7479,-53.6448C115.536,-46.198 139.497,-36.8669 161,-29 169.704,-25.8157 179.232,-22.4944 187.9,-19.5359"/>
<polygon fill="midnightblue" stroke="midnightblue" points="95.433,-50.401 87.435,-57.3495 98.0205,-56.9052 95.433,-50.401"/>
</g>
<!-- Node3&#45;&gt;Node2 -->
<g id="edge3" class="edge"><title>Node3&#45;&gt;Node2</title>
<path fill="none" stroke="midnightblue" d="M264.85,-77.9576C280.656,-75.2149 297.419,-72.3063 309.699,-70.1755"/>
<polygon fill="midnightblue" stroke="midnightblue" points="263.912,-74.5679 254.658,-79.726 265.109,-81.4648 263.912,-74.5679"/>
</g>
<!-- Node4&#45;&gt;Node2 -->
<g id="edge5" class="edge"><title>Node4&#45;&gt;Node2</title>
<path fill="none" stroke="midnightblue" d="M283.566,-59.2901C293.057,-60.9369 302.119,-62.5092 309.554,-63.7994"/>
<polygon fill="midnightblue" stroke="midnightblue" points="284.022,-55.8169 273.571,-57.5557 282.825,-62.7138 284.022,-55.8169"/>
</g>
<!-- Node5&#45;&gt;Node2 -->
<g id="edge7" class="edge"><title>Node5&#45;&gt;Node2</title>
<path fill="none" stroke="midnightblue" d="M261.11,-23.1913C265.537,-24.9732 269.909,-26.9139 274,-29 289.523,-36.915 305.65,-48.8274 316.191,-57.2"/>
<polygon fill="midnightblue" stroke="midnightblue" points="262.011,-19.791 251.418,-19.5497 259.548,-26.3436 262.011,-19.791"/>
</g>
</g>
</svg>
