<?xml version="1.0" encoding="UTF-8" standalone="no"?>
<!DOCTYPE svg PUBLIC "-//W3C//DTD SVG 1.1//EN"
 "http://www.w3.org/Graphics/SVG/1.1/DTD/svg11.dtd">
<!-- Generated by graphviz version 2.38.0 (20140413.2041)
 -->
<!-- Title: lisBMPRGB Pages: 1 -->
<svg width="261pt" height="47pt"
 viewBox="0.00 0.00 261.00 47.00" xmlns="http://www.w3.org/2000/svg" xmlns:xlink="http://www.w3.org/1999/xlink">
<g id="graph0" class="graph" transform="scale(1 1) rotate(0) translate(4 43)">
<title>lisBMPRGB</title>
<!-- Node1 -->
<g id="node1" class="node"><title>Node1</title>
<polygon fill="#bfbfbf" stroke="black" points="0,-19.5 0,-38.5 69,-38.5 69,-19.5 0,-19.5"/>
<text text-anchor="middle" x="34.5" y="-26.5" font-family="Helvetica,sans-Serif" font-size="10.00">lisBMPRGB</text>
</g>
<!-- Node2 -->
<g id="node2" class="node"><title>Node2</title>
<g id="a_node2"><a xlink:href="main_8c.html#a0ddf1224851353fc92bfbff6f499fa97" target="_top" xlink:title="Main du programme. ">
<polygon fill="none" stroke="black" points="215,-19.5 215,-38.5 253,-38.5 253,-19.5 215,-19.5"/>
<text text-anchor="middle" x="234" y="-26.5" font-family="Helvetica,sans-Serif" font-size="10.00">main</text>
</a>
</g>
</g>
<!-- Node1&#45;&gt;Node2 -->
<g id="edge1" class="edge"><title>Node1&#45;&gt;Node2</title>
<path fill="none" stroke="midnightblue" d="M79.078,-29C121.582,-29 184.166,-29 214.782,-29"/>
<polygon fill="midnightblue" stroke="midnightblue" points="79.0032,-25.5001 69.0032,-29 79.0031,-32.5001 79.0032,-25.5001"/>
</g>
<!-- Node3 -->
<g id="node3" class="node"><title>Node3</title>
<g id="a_node3"><a xlink:href="prototype_8h.html#af5bd2a3aefd76f19566fbdd4bf3a13f1" target="_top" xlink:title="Charge une nouvelle image. ">
<polygon fill="none" stroke="black" points="105,-0.5 105,-19.5 179,-19.5 179,-0.5 105,-0.5"/>
<text text-anchor="middle" x="142" y="-7.5" font-family="Helvetica,sans-Serif" font-size="10.00">changeimage</text>
</a>
</g>
</g>
<!-- Node1&#45;&gt;Node3 -->
<g id="edge2" class="edge"><title>Node1&#45;&gt;Node3</title>
<path fill="none" stroke="midnightblue" d="M79.2819,-21.1151C87.7502,-19.59 96.5362,-18.0077 104.732,-16.5317"/>
<polygon fill="midnightblue" stroke="midnightblue" points="78.3922,-17.7189 69.1709,-22.936 79.633,-24.6081 78.3922,-17.7189"/>
</g>
<!-- Node3&#45;&gt;Node2 -->
<g id="edge3" class="edge"><title>Node3&#45;&gt;Node2</title>
<path fill="none" stroke="midnightblue" d="M189.032,-19.7178C198.242,-21.6623 207.395,-23.5946 214.946,-25.1886"/>
<polygon fill="midnightblue" stroke="midnightblue" points="189.595,-16.2597 179.088,-17.6185 188.149,-23.1087 189.595,-16.2597"/>
</g>
</g>
</svg>
