<?xml version="1.0" encoding="UTF-8" standalone="no"?>
<!DOCTYPE svg PUBLIC "-//W3C//DTD SVG 1.1//EN"
 "http://www.w3.org/Graphics/SVG/1.1/DTD/svg11.dtd">
<!-- Generated by graphviz version 2.38.0 (20140413.2041)
 -->
<!-- Title: ecrisBMPRGB_Dans Pages: 1 -->
<svg width="339pt" height="81pt"
 viewBox="0.00 0.00 339.00 80.55" xmlns="http://www.w3.org/2000/svg" xmlns:xlink="http://www.w3.org/1999/xlink">
<g id="graph0" class="graph" transform="scale(1 1) rotate(0) translate(4 76.5456)">
<title>ecrisBMPRGB_Dans</title>
<!-- Node1 -->
<g id="node1" class="node"><title>Node1</title>
<polygon fill="#bfbfbf" stroke="black" points="0,-38.5 0,-57.5 108,-57.5 108,-38.5 0,-38.5"/>
<text text-anchor="middle" x="54" y="-45.5" font-family="Helvetica,sans-Serif" font-size="10.00">ecrisBMPRGB_Dans</text>
</g>
<!-- Node2 -->
<g id="node2" class="node"><title>Node2</title>
<g id="a_node2"><a xlink:href="main_8c.html#a0ddf1224851353fc92bfbff6f499fa97" target="_top" xlink:title="Main du programme. ">
<polygon fill="none" stroke="black" points="293,-38.5 293,-57.5 331,-57.5 331,-38.5 293,-38.5"/>
<text text-anchor="middle" x="312" y="-45.5" font-family="Helvetica,sans-Serif" font-size="10.00">main</text>
</a>
</g>
</g>
<!-- Node1&#45;&gt;Node2 -->
<g id="edge1" class="edge"><title>Node1&#45;&gt;Node2</title>
<path fill="none" stroke="midnightblue" d="M101.241,-59.7981C114.914,-62.7624 129.977,-65.5198 144,-67 193.945,-72.2718 207.495,-75.4552 257,-67 269.344,-64.8918 282.618,-60.2561 292.917,-56.0917"/>
<polygon fill="midnightblue" stroke="midnightblue" points="101.621,-56.2961 91.0962,-57.5088 100.08,-63.1243 101.621,-56.2961"/>
</g>
<!-- Node3 -->
<g id="node3" class="node"><title>Node3</title>
<g id="a_node3"><a xlink:href="quaternaire_8c.html#a1d1e77f95b9ad72f9f8059a412ee8365" target="_top" xlink:title="Réalise tout les niveau de zoom d&#39;un arbre RGB. ">
<polygon fill="none" stroke="black" points="144,-38.5 144,-57.5 257,-57.5 257,-38.5 144,-38.5"/>
<text text-anchor="middle" x="200.5" y="-45.5" font-family="Helvetica,sans-Serif" font-size="10.00">tousLesZoomsCouleur</text>
</a>
</g>
</g>
<!-- Node1&#45;&gt;Node3 -->
<g id="edge2" class="edge"><title>Node1&#45;&gt;Node3</title>
<path fill="none" stroke="midnightblue" d="M118.578,-48C127.016,-48 135.615,-48 143.904,-48"/>
<polygon fill="midnightblue" stroke="midnightblue" points="118.396,-44.5001 108.396,-48 118.396,-51.5001 118.396,-44.5001"/>
</g>
<!-- Node4 -->
<g id="node4" class="node"><title>Node4</title>
<g id="a_node4"><a xlink:href="quaternaire_8c.html#ad8bb52314936ad1d1ad641c305d7792d" target="_top" xlink:title="Réalise tout les niveau de zoom d&#39;un arbre NG. ">
<polygon fill="none" stroke="black" points="153,-0.5 153,-19.5 248,-19.5 248,-0.5 153,-0.5"/>
<text text-anchor="middle" x="200.5" y="-7.5" font-family="Helvetica,sans-Serif" font-size="10.00">tousLesZoomsNG</text>
</a>
</g>
</g>
<!-- Node1&#45;&gt;Node4 -->
<g id="edge4" class="edge"><title>Node1&#45;&gt;Node4</title>
<path fill="none" stroke="midnightblue" d="M101.333,-35.8157C121.394,-30.54 144.529,-24.4562 163.299,-19.5201"/>
<polygon fill="midnightblue" stroke="midnightblue" points="100.244,-32.4827 91.4635,-38.411 102.025,-39.2526 100.244,-32.4827"/>
</g>
<!-- Node3&#45;&gt;Node2 -->
<g id="edge3" class="edge"><title>Node3&#45;&gt;Node2</title>
<path fill="none" stroke="midnightblue" d="M267.416,-48C276.707,-48 285.55,-48 292.813,-48"/>
<polygon fill="midnightblue" stroke="midnightblue" points="267.212,-44.5001 257.212,-48 267.212,-51.5001 267.212,-44.5001"/>
</g>
<!-- Node4&#45;&gt;Node2 -->
<g id="edge5" class="edge"><title>Node4&#45;&gt;Node2</title>
<path fill="none" stroke="midnightblue" d="M239.257,-22.8779C245.198,-24.9178 251.268,-27.0104 257,-29 268.83,-33.1061 282.096,-37.773 292.519,-41.4539"/>
<polygon fill="midnightblue" stroke="midnightblue" points="240.06,-19.4532 229.466,-19.5221 237.791,-26.0751 240.06,-19.4532"/>
</g>
</g>
</svg>
