<?xml version="1.0" encoding="UTF-8" standalone="no"?>
<!DOCTYPE svg PUBLIC "-//W3C//DTD SVG 1.1//EN"
 "http://www.w3.org/Graphics/SVG/1.1/DTD/svg11.dtd">
<!-- Generated by graphviz version 2.38.0 (20140413.2041)
 -->
<!-- Title: minimun Pages: 1 -->
<svg width="594pt" height="118pt"
 viewBox="0.00 0.00 594.00 118.08" xmlns="http://www.w3.org/2000/svg" xmlns:xlink="http://www.w3.org/1999/xlink">
<g id="graph0" class="graph" transform="scale(1 1) rotate(0) translate(4 114.078)">
<title>minimun</title>
<!-- Node1 -->
<g id="node1" class="node"><title>Node1</title>
<polygon fill="#bfbfbf" stroke="black" points="0,-57.5 0,-76.5 53,-76.5 53,-57.5 0,-57.5"/>
<text text-anchor="middle" x="26.5" y="-64.5" font-family="Helvetica,sans-Serif" font-size="10.00">minimun</text>
</g>
<!-- Node2 -->
<g id="node2" class="node"><title>Node2</title>
<g id="a_node2"><a xlink:href="prototype_8h.html#a68194757508adc5f0ed956fd55c364b2" target="_top" xlink:title="Calcul la distance entre des pixel de couleur différente. ">
<polygon fill="none" stroke="black" points="194,-76.5 194,-95.5 274,-95.5 274,-76.5 194,-76.5"/>
<text text-anchor="middle" x="234" y="-83.5" font-family="Helvetica,sans-Serif" font-size="10.00">calculDistance</text>
</a>
</g>
</g>
<!-- Node1&#45;&gt;Node2 -->
<g id="edge1" class="edge"><title>Node1&#45;&gt;Node2</title>
<path fill="none" stroke="midnightblue" d="M46.7947,-82.8066C58.2913,-91.1849 73.6065,-100.628 89,-105 129.388,-116.471 178.153,-104.984 207.314,-95.5494"/>
<polygon fill="midnightblue" stroke="midnightblue" points="48.8814,-79.9963 38.8095,-76.7088 44.633,-85.5597 48.8814,-79.9963"/>
</g>
<!-- Node5 -->
<g id="node5" class="node"><title>Node5</title>
<g id="a_node5"><a xlink:href="prototype_8h.html#af97439a39d7834efdf9efa7b02e7fd09" target="_top" xlink:title="Calcul le minimum entre quatre nombres. ">
<polygon fill="none" stroke="black" points="94,-76.5 94,-95.5 153,-95.5 153,-76.5 94,-76.5"/>
<text text-anchor="middle" x="123.5" y="-83.5" font-family="Helvetica,sans-Serif" font-size="10.00">minimun4</text>
</a>
</g>
</g>
<!-- Node1&#45;&gt;Node5 -->
<g id="edge4" class="edge"><title>Node1&#45;&gt;Node5</title>
<path fill="none" stroke="midnightblue" d="M63.5713,-74.2143C73.604,-76.2208 84.3599,-78.372 93.9003,-80.2801"/>
<polygon fill="midnightblue" stroke="midnightblue" points="63.9514,-70.721 53.4592,-72.1918 62.5785,-77.5851 63.9514,-70.721"/>
</g>
<!-- Node6 -->
<g id="node6" class="node"><title>Node6</title>
<g id="a_node6"><a xlink:href="prototype_8h.html#ac122956f44b6acde5f27e0b3b9bd957f" target="_top" xlink:title="Calcul le minimum entre cinq nombres. ">
<polygon fill="none" stroke="black" points="94,-38.5 94,-57.5 153,-57.5 153,-38.5 94,-38.5"/>
<text text-anchor="middle" x="123.5" y="-45.5" font-family="Helvetica,sans-Serif" font-size="10.00">minimun5</text>
</a>
</g>
</g>
<!-- Node1&#45;&gt;Node6 -->
<g id="edge6" class="edge"><title>Node1&#45;&gt;Node6</title>
<path fill="none" stroke="midnightblue" d="M63.5713,-59.7857C73.604,-57.7792 84.3599,-55.628 93.9003,-53.7199"/>
<polygon fill="midnightblue" stroke="midnightblue" points="62.5785,-56.4149 53.4592,-61.8082 63.9514,-63.279 62.5785,-56.4149"/>
</g>
<!-- Node7 -->
<g id="node7" class="node"><title>Node7</title>
<g id="a_node7"><a xlink:href="prototype_8h.html#a4a2ee6333feee58bf91682ccfad34847" target="_top" xlink:title="Calcul le minimum dans un tableau. ">
<polygon fill="none" stroke="black" points="89,-0.5 89,-19.5 158,-19.5 158,-0.5 89,-0.5"/>
<text text-anchor="middle" x="123.5" y="-7.5" font-family="Helvetica,sans-Serif" font-size="10.00">minimunTab</text>
</a>
</g>
</g>
<!-- Node1&#45;&gt;Node7 -->
<g id="edge8" class="edge"><title>Node1&#45;&gt;Node7</title>
<path fill="none" stroke="midnightblue" d="M51.0933,-52.1351C62.4854,-45.0312 76.3888,-36.4689 89,-29 94.2928,-25.8654 100.108,-22.5299 105.386,-19.5428"/>
<polygon fill="midnightblue" stroke="midnightblue" points="49.1878,-49.1987 42.568,-57.4709 52.9015,-55.1324 49.1878,-49.1987"/>
</g>
<!-- Node3 -->
<g id="node3" class="node"><title>Node3</title>
<g id="a_node3"><a xlink:href="prototype_8h.html#a01267e9e283e046820857af7c1044fcb" target="_top" xlink:title="Fonction d&#39;appel du calcul distance. ">
<polygon fill="none" stroke="black" points="420,-76.5 420,-95.5 512,-95.5 512,-76.5 420,-76.5"/>
<text text-anchor="middle" x="466" y="-83.5" font-family="Helvetica,sans-Serif" font-size="10.00">fctCalculDistance</text>
</a>
</g>
</g>
<!-- Node2&#45;&gt;Node3 -->
<g id="edge2" class="edge"><title>Node2&#45;&gt;Node3</title>
<path fill="none" stroke="midnightblue" d="M284.128,-86C324.344,-86 380.776,-86 419.866,-86"/>
<polygon fill="midnightblue" stroke="midnightblue" points="284.016,-82.5001 274.016,-86 284.016,-89.5001 284.016,-82.5001"/>
</g>
<!-- Node4 -->
<g id="node4" class="node"><title>Node4</title>
<g id="a_node4"><a xlink:href="main_8c.html#a0ddf1224851353fc92bfbff6f499fa97" target="_top" xlink:title="Main du programme. ">
<polygon fill="none" stroke="black" points="548,-38.5 548,-57.5 586,-57.5 586,-38.5 548,-38.5"/>
<text text-anchor="middle" x="567" y="-45.5" font-family="Helvetica,sans-Serif" font-size="10.00">main</text>
</a>
</g>
</g>
<!-- Node3&#45;&gt;Node4 -->
<g id="edge3" class="edge"><title>Node3&#45;&gt;Node4</title>
<path fill="none" stroke="midnightblue" d="M501.377,-72.8049C517.032,-66.796 534.919,-59.9302 547.899,-54.9477"/>
<polygon fill="midnightblue" stroke="midnightblue" points="500.064,-69.5599 491.982,-76.411 502.572,-76.095 500.064,-69.5599"/>
</g>
<!-- Node5&#45;&gt;Node2 -->
<g id="edge5" class="edge"><title>Node5&#45;&gt;Node2</title>
<path fill="none" stroke="midnightblue" d="M163.027,-86C172.971,-86 183.687,-86 193.671,-86"/>
<polygon fill="midnightblue" stroke="midnightblue" points="163.007,-82.5001 153.007,-86 163.007,-89.5001 163.007,-82.5001"/>
</g>
<!-- Node6&#45;&gt;Node2 -->
<g id="edge7" class="edge"><title>Node6&#45;&gt;Node2</title>
<path fill="none" stroke="midnightblue" d="M161.538,-60.9718C175.993,-66.0344 192.267,-71.7341 205.63,-76.4141"/>
<polygon fill="midnightblue" stroke="midnightblue" points="162.474,-57.5912 151.879,-57.589 160.16,-64.1978 162.474,-57.5912"/>
</g>
<!-- Node8 -->
<g id="node8" class="node"><title>Node8</title>
<g id="a_node8"><a xlink:href="prototype_8h.html#ab531caf4f703d24457c882c4efd213ae" target="_top" xlink:title="Effectue une érosion sur une case de la matrice sur une dimension variable. ">
<polygon fill="none" stroke="black" points="198.5,-0.5 198.5,-19.5 269.5,-19.5 269.5,-0.5 198.5,-0.5"/>
<text text-anchor="middle" x="234" y="-7.5" font-family="Helvetica,sans-Serif" font-size="10.00">erosionCase</text>
</a>
</g>
</g>
<!-- Node7&#45;&gt;Node8 -->
<g id="edge9" class="edge"><title>Node7&#45;&gt;Node8</title>
<path fill="none" stroke="midnightblue" d="M168.342,-10C178.265,-10 188.67,-10 198.161,-10"/>
<polygon fill="midnightblue" stroke="midnightblue" points="168.235,-6.5001 158.235,-10 168.235,-13.5001 168.235,-6.5001"/>
</g>
<!-- Node9 -->
<g id="node9" class="node"><title>Node9</title>
<g id="a_node9"><a xlink:href="prototype_8h.html#a74f1cee58a0cba69e6279032f98b1aad" target="_top" xlink:title="Effectue un gradient sur une case de la matrice sur une dimension variable. ">
<polygon fill="none" stroke="black" points="310,-38.5 310,-57.5 384,-57.5 384,-38.5 310,-38.5"/>
<text text-anchor="middle" x="347" y="-45.5" font-family="Helvetica,sans-Serif" font-size="10.00">gradientCase</text>
</a>
</g>
</g>
<!-- Node8&#45;&gt;Node9 -->
<g id="edge10" class="edge"><title>Node8&#45;&gt;Node9</title>
<path fill="none" stroke="midnightblue" d="M272.891,-22.9718C287.68,-28.0344 304.329,-33.7341 317.999,-38.4141"/>
<polygon fill="midnightblue" stroke="midnightblue" points="273.605,-19.5166 263.01,-19.589 271.337,-26.1393 273.605,-19.5166"/>
</g>
<!-- Node11 -->
<g id="node11" class="node"><title>Node11</title>
<g id="a_node11"><a xlink:href="prototype_8h.html#aefec5606a1765b0f347de969a995d551" target="_top" xlink:title="Effectue une érosion sur une image avec un outil de dimension variable. ">
<polygon fill="none" stroke="black" points="313,-0.5 313,-19.5 381,-19.5 381,-0.5 313,-0.5"/>
<text text-anchor="middle" x="347" y="-7.5" font-family="Helvetica,sans-Serif" font-size="10.00">filtreErosion</text>
</a>
</g>
</g>
<!-- Node8&#45;&gt;Node11 -->
<g id="edge13" class="edge"><title>Node8&#45;&gt;Node11</title>
<path fill="none" stroke="midnightblue" d="M279.796,-10C290.768,-10 302.321,-10 312.649,-10"/>
<polygon fill="midnightblue" stroke="midnightblue" points="279.513,-6.5001 269.513,-10 279.513,-13.5001 279.513,-6.5001"/>
</g>
<!-- Node10 -->
<g id="node10" class="node"><title>Node10</title>
<g id="a_node10"><a xlink:href="prototype_8h.html#adc93fe086109c5c8b7c2c4f3848b0c96" target="_top" xlink:title="Effectue un gradient sur une image avec un outil de dimension variable. ">
<polygon fill="none" stroke="black" points="430.5,-38.5 430.5,-57.5 501.5,-57.5 501.5,-38.5 430.5,-38.5"/>
<text text-anchor="middle" x="466" y="-45.5" font-family="Helvetica,sans-Serif" font-size="10.00">filtreGradient</text>
</a>
</g>
</g>
<!-- Node9&#45;&gt;Node10 -->
<g id="edge11" class="edge"><title>Node9&#45;&gt;Node10</title>
<path fill="none" stroke="midnightblue" d="M394.391,-48C406.419,-48 419.162,-48 430.462,-48"/>
<polygon fill="midnightblue" stroke="midnightblue" points="394.059,-44.5001 384.059,-48 394.059,-51.5001 394.059,-44.5001"/>
</g>
<!-- Node10&#45;&gt;Node4 -->
<g id="edge12" class="edge"><title>Node10&#45;&gt;Node4</title>
<path fill="none" stroke="midnightblue" d="M511.73,-48C524.526,-48 537.751,-48 547.943,-48"/>
<polygon fill="midnightblue" stroke="midnightblue" points="511.625,-44.5001 501.625,-48 511.625,-51.5001 511.625,-44.5001"/>
</g>
<!-- Node11&#45;&gt;Node4 -->
<g id="edge14" class="edge"><title>Node11&#45;&gt;Node4</title>
<path fill="none" stroke="midnightblue" d="M391.352,-12.3788C424.675,-14.8411 471.678,-19.6936 512,-29 524.202,-31.8162 537.474,-36.4629 547.807,-40.456"/>
<polygon fill="midnightblue" stroke="midnightblue" points="391.258,-8.86384 381.039,-11.6607 390.772,-15.8469 391.258,-8.86384"/>
</g>
</g>
</svg>
