<?xml version="1.0" encoding="UTF-8" standalone="no"?>
<!DOCTYPE svg PUBLIC "-//W3C//DTD SVG 1.1//EN"
 "http://www.w3.org/Graphics/SVG/1.1/DTD/svg11.dtd">
<!-- Generated by graphviz version 2.38.0 (20140413.2041)
 -->
<!-- Title: maximun Pages: 1 -->
<svg width="581pt" height="66pt"
 viewBox="0.00 0.00 581.00 66.00" xmlns="http://www.w3.org/2000/svg" xmlns:xlink="http://www.w3.org/1999/xlink">
<g id="graph0" class="graph" transform="scale(1 1) rotate(0) translate(4 62)">
<title>maximun</title>
<!-- Node1 -->
<g id="node1" class="node"><title>Node1</title>
<polygon fill="#bfbfbf" stroke="black" points="0,-19.5 0,-38.5 56,-38.5 56,-19.5 0,-19.5"/>
<text text-anchor="middle" x="28" y="-26.5" font-family="Helvetica,sans-Serif" font-size="10.00">maximun</text>
</g>
<!-- Node2 -->
<g id="node2" class="node"><title>Node2</title>
<g id="a_node2"><a xlink:href="prototype_8h.html#abd278d2e0312f40a659ad8b3fc134569" target="_top" xlink:title="Calcul le maximum dans un tableau. ">
<polygon fill="none" stroke="black" points="92,-19.5 92,-38.5 164,-38.5 164,-19.5 92,-19.5"/>
<text text-anchor="middle" x="128" y="-26.5" font-family="Helvetica,sans-Serif" font-size="10.00">maximunTab</text>
</a>
</g>
</g>
<!-- Node1&#45;&gt;Node2 -->
<g id="edge1" class="edge"><title>Node1&#45;&gt;Node2</title>
<path fill="none" stroke="midnightblue" d="M66.0692,-29C74.5605,-29 83.5609,-29 91.9635,-29"/>
<polygon fill="midnightblue" stroke="midnightblue" points="66.0384,-25.5001 56.0384,-29 66.0383,-32.5001 66.0384,-25.5001"/>
</g>
<!-- Node3 -->
<g id="node3" class="node"><title>Node3</title>
<g id="a_node3"><a xlink:href="prototype_8h.html#a34cb964e90c76c1fee8f98999589ebcb" target="_top" xlink:title="Effectue une dilatation sur une case de la matrice sur une dimension variable. ">
<polygon fill="none" stroke="black" points="200,-19.5 200,-38.5 278,-38.5 278,-19.5 200,-19.5"/>
<text text-anchor="middle" x="239" y="-26.5" font-family="Helvetica,sans-Serif" font-size="10.00">dilatationCase</text>
</a>
</g>
</g>
<!-- Node2&#45;&gt;Node3 -->
<g id="edge2" class="edge"><title>Node2&#45;&gt;Node3</title>
<path fill="none" stroke="midnightblue" d="M174.29,-29C182.827,-29 191.676,-29 199.963,-29"/>
<polygon fill="midnightblue" stroke="midnightblue" points="174.088,-25.5001 164.088,-29 174.088,-32.5001 174.088,-25.5001"/>
</g>
<!-- Node4 -->
<g id="node4" class="node"><title>Node4</title>
<g id="a_node4"><a xlink:href="prototype_8h.html#a74f1cee58a0cba69e6279032f98b1aad" target="_top" xlink:title="Effectue un gradient sur une case de la matrice sur une dimension variable. ">
<polygon fill="none" stroke="black" points="314,-38.5 314,-57.5 388,-57.5 388,-38.5 314,-38.5"/>
<text text-anchor="middle" x="351" y="-45.5" font-family="Helvetica,sans-Serif" font-size="10.00">gradientCase</text>
</a>
</g>
</g>
<!-- Node3&#45;&gt;Node4 -->
<g id="edge3" class="edge"><title>Node3&#45;&gt;Node4</title>
<path fill="none" stroke="midnightblue" d="M288.11,-37.31C296.717,-38.7965 305.552,-40.3226 313.754,-41.7394"/>
<polygon fill="midnightblue" stroke="midnightblue" points="288.614,-33.8452 278.164,-35.592 287.422,-40.743 288.614,-33.8452"/>
</g>
<!-- Node7 -->
<g id="node7" class="node"><title>Node7</title>
<g id="a_node7"><a xlink:href="prototype_8h.html#a6f751ddca5503443e6f1667ae4f1895c" target="_top" xlink:title="Effectue une dilatation sur une image avec un outil de dimension variable. ">
<polygon fill="none" stroke="black" points="424,-0.5 424,-19.5 499,-19.5 499,-0.5 424,-0.5"/>
<text text-anchor="middle" x="461.5" y="-7.5" font-family="Helvetica,sans-Serif" font-size="10.00">filtreDilatation</text>
</a>
</g>
</g>
<!-- Node3&#45;&gt;Node7 -->
<g id="edge6" class="edge"><title>Node3&#45;&gt;Node7</title>
<path fill="none" stroke="midnightblue" d="M288.157,-24.8504C329.013,-21.3299 386.75,-16.3549 423.909,-13.153"/>
<polygon fill="midnightblue" stroke="midnightblue" points="287.819,-21.3665 278.156,-25.7121 288.42,-28.3406 287.819,-21.3665"/>
</g>
<!-- Node5 -->
<g id="node5" class="node"><title>Node5</title>
<g id="a_node5"><a xlink:href="prototype_8h.html#adc93fe086109c5c8b7c2c4f3848b0c96" target="_top" xlink:title="Effectue un gradient sur une image avec un outil de dimension variable. ">
<polygon fill="none" stroke="black" points="426,-38.5 426,-57.5 497,-57.5 497,-38.5 426,-38.5"/>
<text text-anchor="middle" x="461.5" y="-45.5" font-family="Helvetica,sans-Serif" font-size="10.00">filtreGradient</text>
</a>
</g>
</g>
<!-- Node4&#45;&gt;Node5 -->
<g id="edge4" class="edge"><title>Node4&#45;&gt;Node5</title>
<path fill="none" stroke="midnightblue" d="M398.393,-48C407.653,-48 417.226,-48 426,-48"/>
<polygon fill="midnightblue" stroke="midnightblue" points="398.129,-44.5001 388.129,-48 398.129,-51.5001 398.129,-44.5001"/>
</g>
<!-- Node6 -->
<g id="node6" class="node"><title>Node6</title>
<g id="a_node6"><a xlink:href="main_8c.html#a0ddf1224851353fc92bfbff6f499fa97" target="_top" xlink:title="Main du programme. ">
<polygon fill="none" stroke="black" points="535,-19.5 535,-38.5 573,-38.5 573,-19.5 535,-19.5"/>
<text text-anchor="middle" x="554" y="-26.5" font-family="Helvetica,sans-Serif" font-size="10.00">main</text>
</a>
</g>
</g>
<!-- Node5&#45;&gt;Node6 -->
<g id="edge5" class="edge"><title>Node5&#45;&gt;Node6</title>
<path fill="none" stroke="midnightblue" d="M507.261,-38.6026C516.969,-36.5646 526.706,-34.5203 534.686,-32.8449"/>
<polygon fill="midnightblue" stroke="midnightblue" points="506.298,-35.2284 497.231,-40.7084 507.737,-42.079 506.298,-35.2284"/>
</g>
<!-- Node7&#45;&gt;Node6 -->
<g id="edge7" class="edge"><title>Node7&#45;&gt;Node6</title>
<path fill="none" stroke="midnightblue" d="M509.018,-19.7662C518.247,-21.7037 527.405,-23.6265 534.956,-25.2118"/>
<polygon fill="midnightblue" stroke="midnightblue" points="509.555,-16.3027 499.049,-17.6733 508.116,-23.1533 509.555,-16.3027"/>
</g>
</g>
</svg>
