<?xml version="1.0" encoding="UTF-8" standalone="no"?>
<!DOCTYPE svg PUBLIC "-//W3C//DTD SVG 1.1//EN"
 "http://www.w3.org/Graphics/SVG/1.1/DTD/svg11.dtd">
<!-- Generated by graphviz version 2.38.0 (20140413.2041)
 -->
<!-- Title: calculDistance Pages: 1 -->
<svg width="322pt" height="142pt"
 viewBox="0.00 0.00 322.00 142.00" xmlns="http://www.w3.org/2000/svg" xmlns:xlink="http://www.w3.org/1999/xlink">
<g id="graph0" class="graph" transform="scale(1 1) rotate(0) translate(4 138)">
<title>calculDistance</title>
<!-- Node1 -->
<g id="node1" class="node"><title>Node1</title>
<polygon fill="#bfbfbf" stroke="black" points="0,-57.5 0,-76.5 80,-76.5 80,-57.5 0,-57.5"/>
<text text-anchor="middle" x="40" y="-64.5" font-family="Helvetica,sans-Serif" font-size="10.00">calculDistance</text>
</g>
<!-- Node2 -->
<g id="node2" class="node"><title>Node2</title>
<g id="a_node2"><a xlink:href="_caldist_8c.html#a6666598676080036d2f11e3fad54f2b0" target="_top" xlink:title="Copie une matrice. ">
<polygon fill="none" stroke="black" points="116,-114.5 116,-133.5 188,-133.5 188,-114.5 116,-114.5"/>
<text text-anchor="middle" x="152" y="-121.5" font-family="Helvetica,sans-Serif" font-size="10.00">copieMatrice</text>
</a>
</g>
</g>
<!-- Node1&#45;&gt;Node2 -->
<g id="edge1" class="edge"><title>Node1&#45;&gt;Node2</title>
<path fill="none" stroke="midnightblue" d="M59.66,-76.6693C77.228,-85.7727 103.75,-99.5157 123.695,-109.851"/>
<polygon fill="midnightblue" stroke="midnightblue" points="122.126,-112.98 132.616,-114.474 125.347,-106.765 122.126,-112.98"/>
</g>
<!-- Node4 -->
<g id="node4" class="node"><title>Node4</title>
<g id="a_node4"><a xlink:href="_caldist_8c.html#ac122956f44b6acde5f27e0b3b9bd957f" target="_top" xlink:title="Calcul le minimum entre cinq nombres. ">
<polygon fill="none" stroke="black" points="122.5,-76.5 122.5,-95.5 181.5,-95.5 181.5,-76.5 122.5,-76.5"/>
<text text-anchor="middle" x="152" y="-83.5" font-family="Helvetica,sans-Serif" font-size="10.00">minimun5</text>
</a>
</g>
</g>
<!-- Node1&#45;&gt;Node4 -->
<g id="edge3" class="edge"><title>Node1&#45;&gt;Node4</title>
<path fill="none" stroke="midnightblue" d="M80.0916,-73.7522C90.5586,-75.5601 101.867,-77.5133 112.312,-79.3175"/>
<polygon fill="midnightblue" stroke="midnightblue" points="111.956,-82.8078 122.406,-81.0611 113.148,-75.91 111.956,-82.8078"/>
</g>
<!-- Node5 -->
<g id="node5" class="node"><title>Node5</title>
<g id="a_node5"><a xlink:href="_caldist_8c.html#a318af6561ba341de02889ad9dabdac2b" target="_top" xlink:title="Calcul le minimum entre deux nombres. ">
<polygon fill="none" stroke="black" points="242.5,-38.5 242.5,-57.5 295.5,-57.5 295.5,-38.5 242.5,-38.5"/>
<text text-anchor="middle" x="269" y="-45.5" font-family="Helvetica,sans-Serif" font-size="10.00">minimun</text>
</a>
</g>
</g>
<!-- Node1&#45;&gt;Node5 -->
<g id="edge7" class="edge"><title>Node1&#45;&gt;Node5</title>
<path fill="none" stroke="midnightblue" d="M80.0227,-63.7338C122.703,-60.1614 190.539,-54.4836 231.989,-51.0142"/>
<polygon fill="midnightblue" stroke="midnightblue" points="232.506,-54.4832 242.179,-50.1612 231.922,-47.5076 232.506,-54.4832"/>
</g>
<!-- Node6 -->
<g id="node6" class="node"><title>Node6</title>
<g id="a_node6"><a xlink:href="_caldist_8c.html#af97439a39d7834efdf9efa7b02e7fd09" target="_top" xlink:title="Calcul le minimum entre quatre nombres. ">
<polygon fill="none" stroke="black" points="122.5,-0.5 122.5,-19.5 181.5,-19.5 181.5,-0.5 122.5,-0.5"/>
<text text-anchor="middle" x="152" y="-7.5" font-family="Helvetica,sans-Serif" font-size="10.00">minimun4</text>
</a>
</g>
</g>
<!-- Node1&#45;&gt;Node6 -->
<g id="edge5" class="edge"><title>Node1&#45;&gt;Node6</title>
<path fill="none" stroke="midnightblue" d="M59.66,-57.3307C77.228,-48.2273 103.75,-34.4843 123.695,-24.1487"/>
<polygon fill="midnightblue" stroke="midnightblue" points="125.347,-27.2349 132.616,-19.5265 122.126,-21.0198 125.347,-27.2349"/>
</g>
<!-- Node3 -->
<g id="node3" class="node"><title>Node3</title>
<g id="a_node3"><a xlink:href="partie1_8c.html#a74146446548f74f43dcabaeea7b55493" target="_top" xlink:title="Retour une matrice de dimension haut * larg. ">
<polygon fill="none" stroke="black" points="224,-114.5 224,-133.5 314,-133.5 314,-114.5 224,-114.5"/>
<text text-anchor="middle" x="269" y="-121.5" font-family="Helvetica,sans-Serif" font-size="10.00">allocationMatrice</text>
</a>
</g>
</g>
<!-- Node2&#45;&gt;Node3 -->
<g id="edge2" class="edge"><title>Node2&#45;&gt;Node3</title>
<path fill="none" stroke="midnightblue" d="M188.129,-124C196.2,-124 204.967,-124 213.639,-124"/>
<polygon fill="midnightblue" stroke="midnightblue" points="213.728,-127.5 223.728,-124 213.728,-120.5 213.728,-127.5"/>
</g>
<!-- Node4&#45;&gt;Node5 -->
<g id="edge4" class="edge"><title>Node4&#45;&gt;Node5</title>
<path fill="none" stroke="midnightblue" d="M181.723,-76.509C197.149,-71.4117 216.298,-65.0841 232.634,-59.686"/>
<polygon fill="midnightblue" stroke="midnightblue" points="233.987,-62.9252 242.384,-56.4644 231.791,-56.2787 233.987,-62.9252"/>
</g>
<!-- Node6&#45;&gt;Node5 -->
<g id="edge6" class="edge"><title>Node6&#45;&gt;Node5</title>
<path fill="none" stroke="midnightblue" d="M181.723,-19.491C197.149,-24.5883 216.298,-30.9159 232.634,-36.314"/>
<polygon fill="midnightblue" stroke="midnightblue" points="231.791,-39.7213 242.384,-39.5356 233.987,-33.0748 231.791,-39.7213"/>
</g>
</g>
</svg>
