<?xml version="1.0" encoding="UTF-8" standalone="no"?>
<!DOCTYPE svg PUBLIC "-//W3C//DTD SVG 1.1//EN"
 "http://www.w3.org/Graphics/SVG/1.1/DTD/svg11.dtd">
<!-- Generated by graphviz version 2.38.0 (20140413.2041)
 -->
<!-- Title: copieMatrice Pages: 1 -->
<svg width="398pt" height="28pt"
 viewBox="0.00 0.00 398.00 28.00" xmlns="http://www.w3.org/2000/svg" xmlns:xlink="http://www.w3.org/1999/xlink">
<g id="graph0" class="graph" transform="scale(1 1) rotate(0) translate(4 24)">
<title>copieMatrice</title>
<!-- Node1 -->
<g id="node1" class="node"><title>Node1</title>
<polygon fill="#bfbfbf" stroke="black" points="0,-0.5 0,-19.5 72,-19.5 72,-0.5 0,-0.5"/>
<text text-anchor="middle" x="36" y="-7.5" font-family="Helvetica,sans-Serif" font-size="10.00">copieMatrice</text>
</g>
<!-- Node2 -->
<g id="node2" class="node"><title>Node2</title>
<g id="a_node2"><a xlink:href="prototype_8h.html#a68194757508adc5f0ed956fd55c364b2" target="_top" xlink:title="Calcul la distance entre des pixel de couleur différente. ">
<polygon fill="none" stroke="black" points="108,-0.5 108,-19.5 188,-19.5 188,-0.5 108,-0.5"/>
<text text-anchor="middle" x="148" y="-7.5" font-family="Helvetica,sans-Serif" font-size="10.00">calculDistance</text>
</a>
</g>
</g>
<!-- Node1&#45;&gt;Node2 -->
<g id="edge1" class="edge"><title>Node1&#45;&gt;Node2</title>
<path fill="none" stroke="midnightblue" d="M82.1913,-10C90.6339,-10 99.3951,-10 107.644,-10"/>
<polygon fill="midnightblue" stroke="midnightblue" points="82.1072,-6.5001 72.1071,-10 82.1071,-13.5001 82.1072,-6.5001"/>
</g>
<!-- Node3 -->
<g id="node3" class="node"><title>Node3</title>
<g id="a_node3"><a xlink:href="prototype_8h.html#a01267e9e283e046820857af7c1044fcb" target="_top" xlink:title="Fonction d&#39;appel du calcul distance. ">
<polygon fill="none" stroke="black" points="224,-0.5 224,-19.5 316,-19.5 316,-0.5 224,-0.5"/>
<text text-anchor="middle" x="270" y="-7.5" font-family="Helvetica,sans-Serif" font-size="10.00">fctCalculDistance</text>
</a>
</g>
</g>
<!-- Node2&#45;&gt;Node3 -->
<g id="edge2" class="edge"><title>Node2&#45;&gt;Node3</title>
<path fill="none" stroke="midnightblue" d="M198.368,-10C206.783,-10 215.487,-10 223.788,-10"/>
<polygon fill="midnightblue" stroke="midnightblue" points="198.293,-6.5001 188.292,-10 198.292,-13.5001 198.293,-6.5001"/>
</g>
<!-- Node4 -->
<g id="node4" class="node"><title>Node4</title>
<g id="a_node4"><a xlink:href="main_8c.html#a0ddf1224851353fc92bfbff6f499fa97" target="_top" xlink:title="Main du programme. ">
<polygon fill="none" stroke="black" points="352,-0.5 352,-19.5 390,-19.5 390,-0.5 352,-0.5"/>
<text text-anchor="middle" x="371" y="-7.5" font-family="Helvetica,sans-Serif" font-size="10.00">main</text>
</a>
</g>
</g>
<!-- Node3&#45;&gt;Node4 -->
<g id="edge3" class="edge"><title>Node3&#45;&gt;Node4</title>
<path fill="none" stroke="midnightblue" d="M326.251,-10C335.514,-10 344.506,-10 351.903,-10"/>
<polygon fill="midnightblue" stroke="midnightblue" points="326.154,-6.5001 316.154,-10 326.154,-13.5001 326.154,-6.5001"/>
</g>
</g>
</svg>
