<?xml version="1.0" encoding="UTF-8" standalone="no"?>
<!DOCTYPE svg PUBLIC "-//W3C//DTD SVG 1.1//EN"
 "http://www.w3.org/Graphics/SVG/1.1/DTD/svg11.dtd">
<!-- Generated by graphviz version 2.38.0 (20140413.2041)
 -->
<!-- Title: little32VersNatif Pages: 1 -->
<svg width="382pt" height="47pt"
 viewBox="0.00 0.00 382.00 47.00" xmlns="http://www.w3.org/2000/svg" xmlns:xlink="http://www.w3.org/1999/xlink">
<g id="graph0" class="graph" transform="scale(1 1) rotate(0) translate(4 43)">
<title>little32VersNatif</title>
<!-- Node1 -->
<g id="node1" class="node"><title>Node1</title>
<polygon fill="#bfbfbf" stroke="black" points="0,-19.5 0,-38.5 85,-38.5 85,-19.5 0,-19.5"/>
<text text-anchor="middle" x="42.5" y="-26.5" font-family="Helvetica,sans-Serif" font-size="10.00">little32VersNatif</text>
</g>
<!-- Node2 -->
<g id="node2" class="node"><title>Node2</title>
<g id="a_node2"><a xlink:href="_bmp_lib_8h.html#a88225a02f0f5ad840bd46145410bbb6e" target="_top" xlink:title="lisBMPRGB">
<polygon fill="none" stroke="black" points="121,-19.5 121,-38.5 190,-38.5 190,-19.5 121,-19.5"/>
<text text-anchor="middle" x="155.5" y="-26.5" font-family="Helvetica,sans-Serif" font-size="10.00">lisBMPRGB</text>
</a>
</g>
</g>
<!-- Node1&#45;&gt;Node2 -->
<g id="edge1" class="edge"><title>Node1&#45;&gt;Node2</title>
<path fill="none" stroke="midnightblue" d="M95.2742,-29C103.992,-29 112.834,-29 120.933,-29"/>
<polygon fill="midnightblue" stroke="midnightblue" points="95.1481,-25.5001 85.1481,-29 95.1481,-32.5001 95.1481,-25.5001"/>
</g>
<!-- Node3 -->
<g id="node3" class="node"><title>Node3</title>
<g id="a_node3"><a xlink:href="main_8c.html#a0ddf1224851353fc92bfbff6f499fa97" target="_top" xlink:title="Main du programme. ">
<polygon fill="none" stroke="black" points="336,-19.5 336,-38.5 374,-38.5 374,-19.5 336,-19.5"/>
<text text-anchor="middle" x="355" y="-26.5" font-family="Helvetica,sans-Serif" font-size="10.00">main</text>
</a>
</g>
</g>
<!-- Node2&#45;&gt;Node3 -->
<g id="edge2" class="edge"><title>Node2&#45;&gt;Node3</title>
<path fill="none" stroke="midnightblue" d="M200.078,-29C242.582,-29 305.166,-29 335.782,-29"/>
<polygon fill="midnightblue" stroke="midnightblue" points="200.003,-25.5001 190.003,-29 200.003,-32.5001 200.003,-25.5001"/>
</g>
<!-- Node4 -->
<g id="node4" class="node"><title>Node4</title>
<g id="a_node4"><a xlink:href="prototype_8h.html#af5bd2a3aefd76f19566fbdd4bf3a13f1" target="_top" xlink:title="Charge une nouvelle image. ">
<polygon fill="none" stroke="black" points="226,-0.5 226,-19.5 300,-19.5 300,-0.5 226,-0.5"/>
<text text-anchor="middle" x="263" y="-7.5" font-family="Helvetica,sans-Serif" font-size="10.00">changeimage</text>
</a>
</g>
</g>
<!-- Node2&#45;&gt;Node4 -->
<g id="edge3" class="edge"><title>Node2&#45;&gt;Node4</title>
<path fill="none" stroke="midnightblue" d="M200.282,-21.1151C208.75,-19.59 217.536,-18.0077 225.732,-16.5317"/>
<polygon fill="midnightblue" stroke="midnightblue" points="199.392,-17.7189 190.171,-22.936 200.633,-24.6081 199.392,-17.7189"/>
</g>
<!-- Node4&#45;&gt;Node3 -->
<g id="edge4" class="edge"><title>Node4&#45;&gt;Node3</title>
<path fill="none" stroke="midnightblue" d="M310.032,-19.7178C319.242,-21.6623 328.395,-23.5946 335.946,-25.1886"/>
<polygon fill="midnightblue" stroke="midnightblue" points="310.595,-16.2597 300.088,-17.6185 309.149,-23.1087 310.595,-16.2597"/>
</g>
</g>
</svg>
