<?xml version="1.0" encoding="UTF-8" standalone="no"?>
<!DOCTYPE svg PUBLIC "-//W3C//DTD SVG 1.1//EN"
 "http://www.w3.org/Graphics/SVG/1.1/DTD/svg11.dtd">
<!-- Generated by graphviz version 2.38.0 (20140413.2041)
 -->
<!-- Title: C:/Users/cbongiorno/Documents/Mes Documents/M1/Vision Industrielle/TD2&#45;Traitement image/OutilsLib.c Pages: 1 -->
<svg width="172pt" height="117pt"
 viewBox="0.00 0.00 172.00 117.00" xmlns="http://www.w3.org/2000/svg" xmlns:xlink="http://www.w3.org/1999/xlink">
<g id="graph0" class="graph" transform="scale(1 1) rotate(0) translate(4 113)">
<title>C:/Users/cbongiorno/Documents/Mes Documents/M1/Vision Industrielle/TD2&#45;Traitement image/OutilsLib.c</title>
<!-- Node1 -->
<g id="node1" class="node"><title>Node1</title>
<polygon fill="#bfbfbf" stroke="black" points="0,-56.5 0,-108.5 164,-108.5 164,-56.5 0,-56.5"/>
<text text-anchor="start" x="8" y="-96.5" font-family="Helvetica,sans-Serif" font-size="10.00">C:/Users/cbongiorno</text>
<text text-anchor="start" x="8" y="-85.5" font-family="Helvetica,sans-Serif" font-size="10.00">/Documents/Mes Documents</text>
<text text-anchor="start" x="8" y="-74.5" font-family="Helvetica,sans-Serif" font-size="10.00">/M1/Vision Industrielle</text>
<text text-anchor="middle" x="82" y="-63.5" font-family="Helvetica,sans-Serif" font-size="10.00">/TD2&#45;Traitement image/OutilsLib.c</text>
</g>
<!-- Node2 -->
<g id="node2" class="node"><title>Node2</title>
<g id="a_node2"><a xlink:href="_outils_lib_8h.html" target="_top" xlink:title="OutilsLib.h">
<polygon fill="none" stroke="black" points="11.5,-0.5 11.5,-19.5 74.5,-19.5 74.5,-0.5 11.5,-0.5"/>
<text text-anchor="middle" x="43" y="-7.5" font-family="Helvetica,sans-Serif" font-size="10.00">OutilsLib.h</text>
</a>
</g>
</g>
<!-- Node1&#45;&gt;Node2 -->
<g id="edge1" class="edge"><title>Node1&#45;&gt;Node2</title>
<path fill="none" stroke="midnightblue" d="M68.1402,-56.4458C63.0417,-47.2292 57.3803,-36.9951 52.7227,-28.5757"/>
<polygon fill="midnightblue" stroke="midnightblue" points="55.7136,-26.7516 47.8103,-19.6955 49.5883,-30.1401 55.7136,-26.7516"/>
</g>
<!-- Node3 -->
<g id="node3" class="node"><title>Node3</title>
<polygon fill="none" stroke="#bfbfbf" points="93,-0.5 93,-19.5 149,-19.5 149,-0.5 93,-0.5"/>
<text text-anchor="middle" x="121" y="-7.5" font-family="Helvetica,sans-Serif" font-size="10.00">stdbool.h</text>
</g>
<!-- Node1&#45;&gt;Node3 -->
<g id="edge2" class="edge"><title>Node1&#45;&gt;Node3</title>
<path fill="none" stroke="midnightblue" d="M95.8598,-56.4458C100.958,-47.2292 106.62,-36.9951 111.277,-28.5757"/>
<polygon fill="midnightblue" stroke="midnightblue" points="114.412,-30.1401 116.19,-19.6955 108.286,-26.7516 114.412,-30.1401"/>
</g>
</g>
</svg>
