<?xml version="1.0" encoding="UTF-8" standalone="no"?>
<!DOCTYPE svg PUBLIC "-//W3C//DTD SVG 1.1//EN"
 "http://www.w3.org/Graphics/SVG/1.1/DTD/svg11.dtd">
<!-- Generated by graphviz version 2.38.0 (20140413.2041)
 -->
<!-- Title: C:/Users/cbongiorno/Documents/Mes Documents/M1/Vision Industrielle/TD2&#45;Traitement image/OutilsLib.h Pages: 1 -->
<svg width="1219pt" height="239pt"
 viewBox="0.00 0.00 1218.50 239.00" xmlns="http://www.w3.org/2000/svg" xmlns:xlink="http://www.w3.org/1999/xlink">
<g id="graph0" class="graph" transform="scale(1 1) rotate(0) translate(4 235)">
<title>C:/Users/cbongiorno/Documents/Mes Documents/M1/Vision Industrielle/TD2&#45;Traitement image/OutilsLib.h</title>
<!-- Node1 -->
<g id="node1" class="node"><title>Node1</title>
<polygon fill="#bfbfbf" stroke="black" points="504,-178.5 504,-230.5 668,-230.5 668,-178.5 504,-178.5"/>
<text text-anchor="start" x="512" y="-218.5" font-family="Helvetica,sans-Serif" font-size="10.00">C:/Users/cbongiorno</text>
<text text-anchor="start" x="512" y="-207.5" font-family="Helvetica,sans-Serif" font-size="10.00">/Documents/Mes Documents</text>
<text text-anchor="start" x="512" y="-196.5" font-family="Helvetica,sans-Serif" font-size="10.00">/M1/Vision Industrielle</text>
<text text-anchor="middle" x="586" y="-185.5" font-family="Helvetica,sans-Serif" font-size="10.00">/TD2&#45;Traitement image/OutilsLib.h</text>
</g>
<!-- Node2 -->
<g id="node2" class="node"><title>Node2</title>
<g id="a_node2"><a xlink:href="_bmp_lib_8c.html" target="_top" xlink:title="C:/Users/cbongiorno\l/Documents/Mes Documents\l/M1/Vision Industrielle\l/TD2&#45;Traitement image/BmpLib.c">
<polygon fill="none" stroke="black" points="325.5,-89.5 325.5,-141.5 484.5,-141.5 484.5,-89.5 325.5,-89.5"/>
<text text-anchor="start" x="333.5" y="-129.5" font-family="Helvetica,sans-Serif" font-size="10.00">C:/Users/cbongiorno</text>
<text text-anchor="start" x="333.5" y="-118.5" font-family="Helvetica,sans-Serif" font-size="10.00">/Documents/Mes Documents</text>
<text text-anchor="start" x="333.5" y="-107.5" font-family="Helvetica,sans-Serif" font-size="10.00">/M1/Vision Industrielle</text>
<text text-anchor="middle" x="405" y="-96.5" font-family="Helvetica,sans-Serif" font-size="10.00">/TD2&#45;Traitement image/BmpLib.c</text>
</a>
</g>
</g>
<!-- Node1&#45;&gt;Node2 -->
<g id="edge1" class="edge"><title>Node1&#45;&gt;Node2</title>
<path fill="none" stroke="midnightblue" d="M524.454,-173.917C502.603,-163.414 478.234,-151.701 457.235,-141.607"/>
<polygon fill="midnightblue" stroke="midnightblue" points="523.118,-177.158 533.647,-178.336 526.151,-170.849 523.118,-177.158"/>
</g>
<!-- Node3 -->
<g id="node3" class="node"><title>Node3</title>
<g id="a_node3"><a xlink:href="prototype_8h.html" target="_top" xlink:title="Prototype des fonctions. ">
<polygon fill="none" stroke="black" points="502.5,-89.5 502.5,-141.5 669.5,-141.5 669.5,-89.5 502.5,-89.5"/>
<text text-anchor="start" x="510.5" y="-129.5" font-family="Helvetica,sans-Serif" font-size="10.00">C:/Users/cbongiorno</text>
<text text-anchor="start" x="510.5" y="-118.5" font-family="Helvetica,sans-Serif" font-size="10.00">/Documents/Mes Documents</text>
<text text-anchor="start" x="510.5" y="-107.5" font-family="Helvetica,sans-Serif" font-size="10.00">/M1/Vision Industrielle</text>
<text text-anchor="middle" x="586" y="-96.5" font-family="Helvetica,sans-Serif" font-size="10.00">/TD2&#45;Traitement image/prototype.h</text>
</a>
</g>
</g>
<!-- Node1&#45;&gt;Node3 -->
<g id="edge2" class="edge"><title>Node1&#45;&gt;Node3</title>
<path fill="none" stroke="midnightblue" d="M586,-168.191C586,-159.282 586,-149.899 586,-141.607"/>
<polygon fill="midnightblue" stroke="midnightblue" points="582.5,-168.336 586,-178.336 589.5,-168.336 582.5,-168.336"/>
</g>
<!-- Node11 -->
<g id="node11" class="node"><title>Node11</title>
<g id="a_node11"><a xlink:href="_outils_lib_8c.html" target="_top" xlink:title="C:/Users/cbongiorno\l/Documents/Mes Documents\l/M1/Vision Industrielle\l/TD2&#45;Traitement image/OutilsLib.c">
<polygon fill="none" stroke="black" points="688,-89.5 688,-141.5 852,-141.5 852,-89.5 688,-89.5"/>
<text text-anchor="start" x="696" y="-129.5" font-family="Helvetica,sans-Serif" font-size="10.00">C:/Users/cbongiorno</text>
<text text-anchor="start" x="696" y="-118.5" font-family="Helvetica,sans-Serif" font-size="10.00">/Documents/Mes Documents</text>
<text text-anchor="start" x="696" y="-107.5" font-family="Helvetica,sans-Serif" font-size="10.00">/M1/Vision Industrielle</text>
<text text-anchor="middle" x="770" y="-96.5" font-family="Helvetica,sans-Serif" font-size="10.00">/TD2&#45;Traitement image/OutilsLib.c</text>
</a>
</g>
</g>
<!-- Node1&#45;&gt;Node11 -->
<g id="edge10" class="edge"><title>Node1&#45;&gt;Node11</title>
<path fill="none" stroke="midnightblue" d="M648.269,-174.058C670.558,-163.519 695.457,-151.746 716.899,-141.607"/>
<polygon fill="midnightblue" stroke="midnightblue" points="646.765,-170.897 639.22,-178.336 649.757,-177.226 646.765,-170.897"/>
</g>
<!-- Node4 -->
<g id="node4" class="node"><title>Node4</title>
<g id="a_node4"><a xlink:href="_caldist_8c.html" target="_top" xlink:title="Partie Calcul distance. ">
<polygon fill="none" stroke="black" points="0,-0.5 0,-52.5 156,-52.5 156,-0.5 0,-0.5"/>
<text text-anchor="start" x="8" y="-40.5" font-family="Helvetica,sans-Serif" font-size="10.00">C:/Users/cbongiorno</text>
<text text-anchor="start" x="8" y="-29.5" font-family="Helvetica,sans-Serif" font-size="10.00">/Documents/Mes Documents</text>
<text text-anchor="start" x="8" y="-18.5" font-family="Helvetica,sans-Serif" font-size="10.00">/M1/Vision Industrielle</text>
<text text-anchor="middle" x="78" y="-7.5" font-family="Helvetica,sans-Serif" font-size="10.00">/TD2&#45;Traitement image/Caldist.c</text>
</a>
</g>
</g>
<!-- Node3&#45;&gt;Node4 -->
<g id="edge3" class="edge"><title>Node3&#45;&gt;Node4</title>
<path fill="none" stroke="midnightblue" d="M492.317,-89.0252C347.088,-62.4072 305.58,-81.0901 165,-53 162.067,-52.414 159.091,-51.7746 156.093,-51.0928"/>
<polygon fill="midnightblue" stroke="midnightblue" points="492.021,-92.5306 502.495,-90.9329 493.311,-85.6504 492.021,-92.5306"/>
</g>
<!-- Node5 -->
<g id="node5" class="node"><title>Node5</title>
<g id="a_node5"><a xlink:href="filtres_8c.html" target="_top" xlink:title="Fonctions de filtrages d&#39;image (v2) ">
<polygon fill="none" stroke="black" points="174.5,-0.5 174.5,-52.5 323.5,-52.5 323.5,-0.5 174.5,-0.5"/>
<text text-anchor="start" x="182.5" y="-40.5" font-family="Helvetica,sans-Serif" font-size="10.00">C:/Users/cbongiorno</text>
<text text-anchor="start" x="182.5" y="-29.5" font-family="Helvetica,sans-Serif" font-size="10.00">/Documents/Mes Documents</text>
<text text-anchor="start" x="182.5" y="-18.5" font-family="Helvetica,sans-Serif" font-size="10.00">/M1/Vision Industrielle</text>
<text text-anchor="middle" x="249" y="-7.5" font-family="Helvetica,sans-Serif" font-size="10.00">/TD2&#45;Traitement image/filtres.c</text>
</a>
</g>
</g>
<!-- Node3&#45;&gt;Node5 -->
<g id="edge4" class="edge"><title>Node3&#45;&gt;Node5</title>
<path fill="none" stroke="midnightblue" d="M492.346,-88.8978C420.12,-71.3062 399.831,-70.974 332,-53 329.231,-52.2664 326.417,-51.5012 323.578,-50.7131"/>
<polygon fill="midnightblue" stroke="midnightblue" points="491.851,-92.3804 502.398,-91.3749 493.526,-85.5837 491.851,-92.3804"/>
</g>
<!-- Node6 -->
<g id="node6" class="node"><title>Node6</title>
<g id="a_node6"><a xlink:href="main_8c.html" target="_top" xlink:title="Main du programme. ">
<polygon fill="none" stroke="black" points="341.5,-0.5 341.5,-52.5 488.5,-52.5 488.5,-0.5 341.5,-0.5"/>
<text text-anchor="start" x="349.5" y="-40.5" font-family="Helvetica,sans-Serif" font-size="10.00">C:/Users/cbongiorno</text>
<text text-anchor="start" x="349.5" y="-29.5" font-family="Helvetica,sans-Serif" font-size="10.00">/Documents/Mes Documents</text>
<text text-anchor="start" x="349.5" y="-18.5" font-family="Helvetica,sans-Serif" font-size="10.00">/M1/Vision Industrielle</text>
<text text-anchor="middle" x="415" y="-7.5" font-family="Helvetica,sans-Serif" font-size="10.00">/TD2&#45;Traitement image/main.c</text>
</a>
</g>
</g>
<!-- Node3&#45;&gt;Node6 -->
<g id="edge5" class="edge"><title>Node3&#45;&gt;Node6</title>
<path fill="none" stroke="midnightblue" d="M527.578,-84.7763C507.005,-74.3094 484.1,-62.656 464.349,-52.6075"/>
<polygon fill="midnightblue" stroke="midnightblue" points="526.04,-87.9208 536.54,-89.336 529.214,-81.6819 526.04,-87.9208"/>
</g>
<!-- Node7 -->
<g id="node7" class="node"><title>Node7</title>
<g id="a_node7"><a xlink:href="median_8c.html" target="_top" xlink:title="Partie sur les couleurs médianes. ">
<polygon fill="none" stroke="black" points="507,-0.5 507,-52.5 665,-52.5 665,-0.5 507,-0.5"/>
<text text-anchor="start" x="515" y="-40.5" font-family="Helvetica,sans-Serif" font-size="10.00">C:/Users/cbongiorno</text>
<text text-anchor="start" x="515" y="-29.5" font-family="Helvetica,sans-Serif" font-size="10.00">/Documents/Mes Documents</text>
<text text-anchor="start" x="515" y="-18.5" font-family="Helvetica,sans-Serif" font-size="10.00">/M1/Vision Industrielle</text>
<text text-anchor="middle" x="586" y="-7.5" font-family="Helvetica,sans-Serif" font-size="10.00">/TD2&#45;Traitement image/median.c</text>
</a>
</g>
</g>
<!-- Node3&#45;&gt;Node7 -->
<g id="edge6" class="edge"><title>Node3&#45;&gt;Node7</title>
<path fill="none" stroke="midnightblue" d="M586,-79.1908C586,-70.2824 586,-60.8986 586,-52.6075"/>
<polygon fill="midnightblue" stroke="midnightblue" points="582.5,-79.336 586,-89.336 589.5,-79.336 582.5,-79.336"/>
</g>
<!-- Node8 -->
<g id="node8" class="node"><title>Node8</title>
<g id="a_node8"><a xlink:href="partie1_8c.html" target="_top" xlink:title="Fonctions de base pour les matrices. ">
<polygon fill="none" stroke="black" points="683.5,-0.5 683.5,-52.5 838.5,-52.5 838.5,-0.5 683.5,-0.5"/>
<text text-anchor="start" x="691.5" y="-40.5" font-family="Helvetica,sans-Serif" font-size="10.00">C:/Users/cbongiorno</text>
<text text-anchor="start" x="691.5" y="-29.5" font-family="Helvetica,sans-Serif" font-size="10.00">/Documents/Mes Documents</text>
<text text-anchor="start" x="691.5" y="-18.5" font-family="Helvetica,sans-Serif" font-size="10.00">/M1/Vision Industrielle</text>
<text text-anchor="middle" x="761" y="-7.5" font-family="Helvetica,sans-Serif" font-size="10.00">/TD2&#45;Traitement image/partie1.c</text>
</a>
</g>
</g>
<!-- Node3&#45;&gt;Node8 -->
<g id="edge7" class="edge"><title>Node3&#45;&gt;Node8</title>
<path fill="none" stroke="midnightblue" d="M645.789,-84.7763C666.843,-74.3094 690.284,-62.656 710.497,-52.6075"/>
<polygon fill="midnightblue" stroke="midnightblue" points="644.014,-81.7502 636.617,-89.336 647.13,-88.0184 644.014,-81.7502"/>
</g>
<!-- Node9 -->
<g id="node9" class="node"><title>Node9</title>
<g id="a_node9"><a xlink:href="quaternaire_8c.html" target="_top" xlink:title="Partie sur les arbres quaternaires. ">
<polygon fill="none" stroke="black" points="857,-0.5 857,-52.5 1031,-52.5 1031,-0.5 857,-0.5"/>
<text text-anchor="start" x="865" y="-40.5" font-family="Helvetica,sans-Serif" font-size="10.00">C:/Users/cbongiorno</text>
<text text-anchor="start" x="865" y="-29.5" font-family="Helvetica,sans-Serif" font-size="10.00">/Documents/Mes Documents</text>
<text text-anchor="start" x="865" y="-18.5" font-family="Helvetica,sans-Serif" font-size="10.00">/M1/Vision Industrielle</text>
<text text-anchor="middle" x="944" y="-7.5" font-family="Helvetica,sans-Serif" font-size="10.00">/TD2&#45;Traitement image/quaternaire.c</text>
</a>
</g>
</g>
<!-- Node3&#45;&gt;Node9 -->
<g id="edge8" class="edge"><title>Node3&#45;&gt;Node9</title>
<path fill="none" stroke="midnightblue" d="M679.615,-88.9137C755.326,-70.8106 776.374,-70.1305 848,-53 850.935,-52.298 853.917,-51.5729 856.927,-50.831"/>
<polygon fill="midnightblue" stroke="midnightblue" points="678.491,-85.5845 669.592,-91.3347 680.135,-92.3888 678.491,-85.5845"/>
</g>
<!-- Node10 -->
<g id="node10" class="node"><title>Node10</title>
<g id="a_node10"><a xlink:href="transfnb_8c.html" target="_top" xlink:title="Fonctions de transformation d&#39;une image en NB (v2) ">
<polygon fill="none" stroke="black" points="1049.5,-0.5 1049.5,-52.5 1210.5,-52.5 1210.5,-0.5 1049.5,-0.5"/>
<text text-anchor="start" x="1057.5" y="-40.5" font-family="Helvetica,sans-Serif" font-size="10.00">C:/Users/cbongiorno</text>
<text text-anchor="start" x="1057.5" y="-29.5" font-family="Helvetica,sans-Serif" font-size="10.00">/Documents/Mes Documents</text>
<text text-anchor="start" x="1057.5" y="-18.5" font-family="Helvetica,sans-Serif" font-size="10.00">/M1/Vision Industrielle</text>
<text text-anchor="middle" x="1130" y="-7.5" font-family="Helvetica,sans-Serif" font-size="10.00">/TD2&#45;Traitement image/transfnb.c</text>
</a>
</g>
</g>
<!-- Node3&#45;&gt;Node10 -->
<g id="edge9" class="edge"><title>Node3&#45;&gt;Node10</title>
<path fill="none" stroke="midnightblue" d="M679.919,-88.9844C839.388,-60.5194 884.842,-82.4775 1040,-53 1043.03,-52.4241 1046.11,-51.7932 1049.21,-51.1187"/>
<polygon fill="midnightblue" stroke="midnightblue" points="678.96,-85.6015 669.75,-90.8396 680.216,-92.4879 678.96,-85.6015"/>
</g>
</g>
</svg>
