<?xml version="1.0" encoding="UTF-8" standalone="no"?>
<!DOCTYPE svg PUBLIC "-//W3C//DTD SVG 1.1//EN"
 "http://www.w3.org/Graphics/SVG/1.1/DTD/svg11.dtd">
<!-- Generated by graphviz version 2.38.0 (20140413.2041)
 -->
<!-- Title: natif32VersLittle Pages: 1 -->
<svg width="461pt" height="81pt"
 viewBox="0.00 0.00 461.00 80.55" xmlns="http://www.w3.org/2000/svg" xmlns:xlink="http://www.w3.org/1999/xlink">
<g id="graph0" class="graph" transform="scale(1 1) rotate(0) translate(4 76.5456)">
<title>natif32VersLittle</title>
<!-- Node1 -->
<g id="node1" class="node"><title>Node1</title>
<polygon fill="#bfbfbf" stroke="black" points="0,-38.5 0,-57.5 86,-57.5 86,-38.5 0,-38.5"/>
<text text-anchor="middle" x="43" y="-45.5" font-family="Helvetica,sans-Serif" font-size="10.00">natif32VersLittle</text>
</g>
<!-- Node2 -->
<g id="node2" class="node"><title>Node2</title>
<g id="a_node2"><a xlink:href="_bmp_lib_8h.html#abf1da9548a3aa2a96715f9b5fd7525ab" target="_top" xlink:title="ecrisBMPRGB_Dans">
<polygon fill="none" stroke="black" points="122,-38.5 122,-57.5 230,-57.5 230,-38.5 122,-38.5"/>
<text text-anchor="middle" x="176" y="-45.5" font-family="Helvetica,sans-Serif" font-size="10.00">ecrisBMPRGB_Dans</text>
</a>
</g>
</g>
<!-- Node1&#45;&gt;Node2 -->
<g id="edge1" class="edge"><title>Node1&#45;&gt;Node2</title>
<path fill="none" stroke="midnightblue" d="M96.2601,-48C104.688,-48 113.422,-48 121.871,-48"/>
<polygon fill="midnightblue" stroke="midnightblue" points="96.1703,-44.5001 86.1703,-48 96.1703,-51.5001 96.1703,-44.5001"/>
</g>
<!-- Node3 -->
<g id="node3" class="node"><title>Node3</title>
<g id="a_node3"><a xlink:href="main_8c.html#a0ddf1224851353fc92bfbff6f499fa97" target="_top" xlink:title="Main du programme. ">
<polygon fill="none" stroke="black" points="415,-38.5 415,-57.5 453,-57.5 453,-38.5 415,-38.5"/>
<text text-anchor="middle" x="434" y="-45.5" font-family="Helvetica,sans-Serif" font-size="10.00">main</text>
</a>
</g>
</g>
<!-- Node2&#45;&gt;Node3 -->
<g id="edge2" class="edge"><title>Node2&#45;&gt;Node3</title>
<path fill="none" stroke="midnightblue" d="M223.241,-59.7981C236.914,-62.7624 251.977,-65.5198 266,-67 315.945,-72.2718 329.495,-75.4552 379,-67 391.344,-64.8918 404.618,-60.2561 414.917,-56.0917"/>
<polygon fill="midnightblue" stroke="midnightblue" points="223.621,-56.2961 213.096,-57.5088 222.08,-63.1243 223.621,-56.2961"/>
</g>
<!-- Node4 -->
<g id="node4" class="node"><title>Node4</title>
<g id="a_node4"><a xlink:href="quaternaire_8c.html#a1d1e77f95b9ad72f9f8059a412ee8365" target="_top" xlink:title="Réalise tout les niveau de zoom d&#39;un arbre RGB. ">
<polygon fill="none" stroke="black" points="266,-38.5 266,-57.5 379,-57.5 379,-38.5 266,-38.5"/>
<text text-anchor="middle" x="322.5" y="-45.5" font-family="Helvetica,sans-Serif" font-size="10.00">tousLesZoomsCouleur</text>
</a>
</g>
</g>
<!-- Node2&#45;&gt;Node4 -->
<g id="edge3" class="edge"><title>Node2&#45;&gt;Node4</title>
<path fill="none" stroke="midnightblue" d="M240.578,-48C249.016,-48 257.615,-48 265.904,-48"/>
<polygon fill="midnightblue" stroke="midnightblue" points="240.396,-44.5001 230.396,-48 240.396,-51.5001 240.396,-44.5001"/>
</g>
<!-- Node5 -->
<g id="node5" class="node"><title>Node5</title>
<g id="a_node5"><a xlink:href="quaternaire_8c.html#ad8bb52314936ad1d1ad641c305d7792d" target="_top" xlink:title="Réalise tout les niveau de zoom d&#39;un arbre NG. ">
<polygon fill="none" stroke="black" points="275,-0.5 275,-19.5 370,-19.5 370,-0.5 275,-0.5"/>
<text text-anchor="middle" x="322.5" y="-7.5" font-family="Helvetica,sans-Serif" font-size="10.00">tousLesZoomsNG</text>
</a>
</g>
</g>
<!-- Node2&#45;&gt;Node5 -->
<g id="edge5" class="edge"><title>Node2&#45;&gt;Node5</title>
<path fill="none" stroke="midnightblue" d="M223.333,-35.8157C243.394,-30.54 266.529,-24.4562 285.299,-19.5201"/>
<polygon fill="midnightblue" stroke="midnightblue" points="222.244,-32.4827 213.463,-38.411 224.025,-39.2526 222.244,-32.4827"/>
</g>
<!-- Node4&#45;&gt;Node3 -->
<g id="edge4" class="edge"><title>Node4&#45;&gt;Node3</title>
<path fill="none" stroke="midnightblue" d="M389.416,-48C398.707,-48 407.55,-48 414.813,-48"/>
<polygon fill="midnightblue" stroke="midnightblue" points="389.212,-44.5001 379.212,-48 389.212,-51.5001 389.212,-44.5001"/>
</g>
<!-- Node5&#45;&gt;Node3 -->
<g id="edge6" class="edge"><title>Node5&#45;&gt;Node3</title>
<path fill="none" stroke="midnightblue" d="M361.257,-22.8779C367.198,-24.9178 373.268,-27.0104 379,-29 390.83,-33.1061 404.096,-37.773 414.519,-41.4539"/>
<polygon fill="midnightblue" stroke="midnightblue" points="362.06,-19.4532 351.466,-19.5221 359.791,-26.0751 362.06,-19.4532"/>
</g>
</g>
</svg>
