<?xml version="1.0" encoding="UTF-8" standalone="no"?>
<!DOCTYPE svg PUBLIC "-//W3C//DTD SVG 1.1//EN"
 "http://www.w3.org/Graphics/SVG/1.1/DTD/svg11.dtd">
<!-- Generated by graphviz version 2.38.0 (20140413.2041)
 -->
<!-- Title: convolution Pages: 1 -->
<svg width="269pt" height="218pt"
 viewBox="0.00 0.00 269.00 218.00" xmlns="http://www.w3.org/2000/svg" xmlns:xlink="http://www.w3.org/1999/xlink">
<g id="graph0" class="graph" transform="scale(1 1) rotate(0) translate(4 214)">
<title>convolution</title>
<!-- Node1 -->
<g id="node1" class="node"><title>Node1</title>
<polygon fill="#bfbfbf" stroke="black" points="0,-95.5 0,-114.5 65,-114.5 65,-95.5 0,-95.5"/>
<text text-anchor="middle" x="32.5" y="-102.5" font-family="Helvetica,sans-Serif" font-size="10.00">convolution</text>
</g>
<!-- Node2 -->
<g id="node2" class="node"><title>Node2</title>
<g id="a_node2"><a xlink:href="prototype_8h.html#a19db973ff01975a8fb9d826104b72b63" target="_top" xlink:title="Outil de filtrage pour une convolution, pour effectuer une pondération moyenneur. ...">
<polygon fill="none" stroke="black" points="106,-190.5 106,-209.5 182,-209.5 182,-190.5 106,-190.5"/>
<text text-anchor="middle" x="144" y="-197.5" font-family="Helvetica,sans-Serif" font-size="10.00">filtrePondMoy</text>
</a>
</g>
</g>
<!-- Node1&#45;&gt;Node2 -->
<g id="edge1" class="edge"><title>Node1&#45;&gt;Node2</title>
<path fill="none" stroke="midnightblue" d="M45.9817,-122.957C58.3729,-139.729 78.6986,-164.579 101,-181 105.898,-184.606 111.589,-187.746 117.171,-190.378"/>
<polygon fill="midnightblue" stroke="midnightblue" points="48.6327,-120.648 39.9519,-114.574 42.9502,-124.736 48.6327,-120.648"/>
</g>
<!-- Node4 -->
<g id="node4" class="node"><title>Node4</title>
<g id="a_node4"><a xlink:href="prototype_8h.html#ab30046d2ef364b8b529041e0f143228b" target="_top" xlink:title="Outil de filtrage pour une convolution, pour effectuer une pondération de Gauss. ">
<polygon fill="none" stroke="black" points="101,-152.5 101,-171.5 187,-171.5 187,-152.5 101,-152.5"/>
<text text-anchor="middle" x="144" y="-159.5" font-family="Helvetica,sans-Serif" font-size="10.00">filtrePondGauss</text>
</a>
</g>
</g>
<!-- Node1&#45;&gt;Node4 -->
<g id="edge3" class="edge"><title>Node1&#45;&gt;Node4</title>
<path fill="none" stroke="midnightblue" d="M58.6218,-119.837C71.2036,-127.089 86.7551,-135.786 101,-143 107.426,-146.254 114.524,-149.569 121.029,-152.499"/>
<polygon fill="midnightblue" stroke="midnightblue" points="60.0545,-116.622 49.6502,-114.621 56.5364,-122.673 60.0545,-116.622"/>
</g>
<!-- Node5 -->
<g id="node5" class="node"><title>Node5</title>
<g id="a_node5"><a xlink:href="prototype_8h.html#a31b55f7a91e23cbfe20cf35cec74c64c" target="_top" xlink:title="Outil de filtrage pour une convolution, pour effectuer un gradient de Roberts. ">
<polygon fill="none" stroke="black" points="102,-114.5 102,-133.5 186,-133.5 186,-114.5 102,-114.5"/>
<text text-anchor="middle" x="144" y="-121.5" font-family="Helvetica,sans-Serif" font-size="10.00">filtreGraRoberts</text>
</a>
</g>
</g>
<!-- Node1&#45;&gt;Node5 -->
<g id="edge5" class="edge"><title>Node1&#45;&gt;Node5</title>
<path fill="none" stroke="midnightblue" d="M75.0938,-112.217C83.7777,-113.724 92.931,-115.312 101.608,-116.818"/>
<polygon fill="midnightblue" stroke="midnightblue" points="75.6231,-108.757 65.1719,-110.496 74.4263,-115.654 75.6231,-108.757"/>
</g>
<!-- Node6 -->
<g id="node6" class="node"><title>Node6</title>
<g id="a_node6"><a xlink:href="prototype_8h.html#acb7c60914c3fdac39f1dad89e0bacf86" target="_top" xlink:title="Outil de filtrage pour une convolution, pour effectuer une pondération de Prewitt. ">
<polygon fill="none" stroke="black" points="104,-76.5 104,-95.5 184,-95.5 184,-76.5 104,-76.5"/>
<text text-anchor="middle" x="144" y="-83.5" font-family="Helvetica,sans-Serif" font-size="10.00">filtreGraPrewitt</text>
</a>
</g>
</g>
<!-- Node1&#45;&gt;Node6 -->
<g id="edge7" class="edge"><title>Node1&#45;&gt;Node6</title>
<path fill="none" stroke="midnightblue" d="M75.0624,-97.7883C84.4268,-96.1634 94.3384,-94.4436 103.611,-92.8347"/>
<polygon fill="midnightblue" stroke="midnightblue" points="74.4263,-94.3462 65.1719,-99.5044 75.6231,-101.243 74.4263,-94.3462"/>
</g>
<!-- Node7 -->
<g id="node7" class="node"><title>Node7</title>
<g id="a_node7"><a xlink:href="prototype_8h.html#a0c820e8e1fe7ece1952da9541bc1e7ef" target="_top" xlink:title="Outil de filtrage pour une convolution, pour effectuer une pondération de Sobel. ">
<polygon fill="none" stroke="black" points="106.5,-38.5 106.5,-57.5 181.5,-57.5 181.5,-38.5 106.5,-38.5"/>
<text text-anchor="middle" x="144" y="-45.5" font-family="Helvetica,sans-Serif" font-size="10.00">filtreGraSobel</text>
</a>
</g>
</g>
<!-- Node1&#45;&gt;Node7 -->
<g id="edge9" class="edge"><title>Node1&#45;&gt;Node7</title>
<path fill="none" stroke="midnightblue" d="M58.6218,-90.1629C71.2036,-82.9108 86.7551,-74.2142 101,-67 107.426,-63.7458 114.524,-60.4313 121.029,-57.5012"/>
<polygon fill="midnightblue" stroke="midnightblue" points="56.5364,-87.3267 49.6502,-95.3785 60.0545,-93.3784 56.5364,-87.3267"/>
</g>
<!-- Node8 -->
<g id="node8" class="node"><title>Node8</title>
<g id="a_node8"><a xlink:href="prototype_8h.html#a695691e0c840ff86d9c9f68efe9f8a2e" target="_top" xlink:title="Outil de filtrage pour une convolution, pour effectuer un Laplacien. ">
<polygon fill="none" stroke="black" points="106,-0.5 106,-19.5 182,-19.5 182,-0.5 106,-0.5"/>
<text text-anchor="middle" x="144" y="-7.5" font-family="Helvetica,sans-Serif" font-size="10.00">filtreLaplacien</text>
</a>
</g>
</g>
<!-- Node1&#45;&gt;Node8 -->
<g id="edge11" class="edge"><title>Node1&#45;&gt;Node8</title>
<path fill="none" stroke="midnightblue" d="M45.9817,-87.0435C58.3729,-70.2708 78.6986,-45.4213 101,-29 105.898,-25.3936 111.589,-22.2539 117.171,-19.6217"/>
<polygon fill="midnightblue" stroke="midnightblue" points="42.9502,-85.2642 39.9519,-95.4259 48.6327,-89.3519 42.9502,-85.2642"/>
</g>
<!-- Node3 -->
<g id="node3" class="node"><title>Node3</title>
<g id="a_node3"><a xlink:href="main_8c.html#a0ddf1224851353fc92bfbff6f499fa97" target="_top" xlink:title="Main du programme. ">
<polygon fill="none" stroke="black" points="223,-95.5 223,-114.5 261,-114.5 261,-95.5 223,-95.5"/>
<text text-anchor="middle" x="242" y="-102.5" font-family="Helvetica,sans-Serif" font-size="10.00">main</text>
</a>
</g>
</g>
<!-- Node2&#45;&gt;Node3 -->
<g id="edge2" class="edge"><title>Node2&#45;&gt;Node3</title>
<path fill="none" stroke="midnightblue" d="M180.759,-185.49C182.951,-184.099 185.054,-182.603 187,-181 210.239,-161.861 228.215,-130.414 236.308,-114.647"/>
<polygon fill="midnightblue" stroke="midnightblue" points="179.058,-182.431 172.008,-190.341 182.451,-188.553 179.058,-182.431"/>
</g>
<!-- Node4&#45;&gt;Node3 -->
<g id="edge4" class="edge"><title>Node4&#45;&gt;Node3</title>
<path fill="none" stroke="midnightblue" d="M177.567,-148.008C180.797,-146.401 183.99,-144.719 187,-143 201.931,-134.471 217.904,-122.89 228.572,-114.763"/>
<polygon fill="midnightblue" stroke="midnightblue" points="176.032,-144.863 168.497,-152.31 179.032,-151.187 176.032,-144.863"/>
</g>
<!-- Node5&#45;&gt;Node3 -->
<g id="edge6" class="edge"><title>Node5&#45;&gt;Node3</title>
<path fill="none" stroke="midnightblue" d="M196.241,-113.859C205.81,-111.965 215.207,-110.105 222.901,-108.582"/>
<polygon fill="midnightblue" stroke="midnightblue" points="195.4,-110.457 186.27,-115.832 196.759,-117.324 195.4,-110.457"/>
</g>
<!-- Node6&#45;&gt;Node3 -->
<g id="edge8" class="edge"><title>Node6&#45;&gt;Node3</title>
<path fill="none" stroke="midnightblue" d="M193.962,-95.6904C204.35,-97.7464 214.679,-99.7906 222.999,-101.437"/>
<polygon fill="midnightblue" stroke="midnightblue" points="194.536,-92.2362 184.047,-93.728 193.177,-99.103 194.536,-92.2362"/>
</g>
<!-- Node7&#45;&gt;Node3 -->
<g id="edge10" class="edge"><title>Node7&#45;&gt;Node3</title>
<path fill="none" stroke="midnightblue" d="M177.567,-61.992C180.797,-63.5991 183.99,-65.2806 187,-67 201.931,-75.5294 217.904,-87.1097 228.572,-95.2373"/>
<polygon fill="midnightblue" stroke="midnightblue" points="179.032,-58.8128 168.497,-57.6896 176.032,-65.1374 179.032,-58.8128"/>
</g>
<!-- Node8&#45;&gt;Node3 -->
<g id="edge12" class="edge"><title>Node8&#45;&gt;Node3</title>
<path fill="none" stroke="midnightblue" d="M180.759,-24.5103C182.951,-25.9015 185.054,-27.3974 187,-29 210.239,-48.1388 228.215,-79.5864 236.308,-95.3533"/>
<polygon fill="midnightblue" stroke="midnightblue" points="182.451,-21.4467 172.008,-19.6595 179.058,-27.569 182.451,-21.4467"/>
</g>
</g>
</svg>
