<?xml version="1.0" encoding="UTF-8" standalone="no"?>
<!DOCTYPE svg PUBLIC "-//W3C//DTD SVG 1.1//EN"
 "http://www.w3.org/Graphics/SVG/1.1/DTD/svg11.dtd">
<!-- Generated by graphviz version 2.38.0 (20140413.2041)
 -->
<!-- Title: filtreErosion Pages: 1 -->
<svg width="396pt" height="104pt"
 viewBox="0.00 0.00 396.00 104.00" xmlns="http://www.w3.org/2000/svg" xmlns:xlink="http://www.w3.org/1999/xlink">
<g id="graph0" class="graph" transform="scale(1 1) rotate(0) translate(4 100)">
<title>filtreErosion</title>
<!-- Node1 -->
<g id="node1" class="node"><title>Node1</title>
<polygon fill="#bfbfbf" stroke="black" points="0,-38.5 0,-57.5 68,-57.5 68,-38.5 0,-38.5"/>
<text text-anchor="middle" x="34" y="-45.5" font-family="Helvetica,sans-Serif" font-size="10.00">filtreErosion</text>
</g>
<!-- Node2 -->
<g id="node2" class="node"><title>Node2</title>
<g id="a_node2"><a xlink:href="partie1_8c.html#a74146446548f74f43dcabaeea7b55493" target="_top" xlink:title="Retour une matrice de dimension haut * larg. ">
<polygon fill="none" stroke="black" points="104,-76.5 104,-95.5 194,-95.5 194,-76.5 104,-76.5"/>
<text text-anchor="middle" x="149" y="-83.5" font-family="Helvetica,sans-Serif" font-size="10.00">allocationMatrice</text>
</a>
</g>
</g>
<!-- Node1&#45;&gt;Node2 -->
<g id="edge1" class="edge"><title>Node1&#45;&gt;Node2</title>
<path fill="none" stroke="midnightblue" d="M63.5147,-57.589C77.5666,-62.3144 94.7082,-68.0789 109.87,-73.1774"/>
<polygon fill="midnightblue" stroke="midnightblue" points="108.9,-76.544 119.494,-76.4141 111.132,-69.9091 108.9,-76.544"/>
</g>
<!-- Node3 -->
<g id="node3" class="node"><title>Node3</title>
<g id="a_node3"><a xlink:href="filtres_8c.html#ab531caf4f703d24457c882c4efd213ae" target="_top" xlink:title="Effectue une érosion sur une case de la matrice sur une dimension variable. ">
<polygon fill="none" stroke="black" points="113.5,-38.5 113.5,-57.5 184.5,-57.5 184.5,-38.5 113.5,-38.5"/>
<text text-anchor="middle" x="149" y="-45.5" font-family="Helvetica,sans-Serif" font-size="10.00">erosionCase</text>
</a>
</g>
</g>
<!-- Node1&#45;&gt;Node3 -->
<g id="edge2" class="edge"><title>Node1&#45;&gt;Node3</title>
<path fill="none" stroke="midnightblue" d="M68.2925,-48C79.2694,-48 91.6607,-48 103.344,-48"/>
<polygon fill="midnightblue" stroke="midnightblue" points="103.376,-51.5001 113.376,-48 103.376,-44.5001 103.376,-51.5001"/>
</g>
<!-- Node6 -->
<g id="node6" class="node"><title>Node6</title>
<g id="a_node6"><a xlink:href="partie1_8c.html#a106518d4a41c16e3a633d2963200b919" target="_top" xlink:title="Libération d&#39;une matrice. ">
<polygon fill="none" stroke="black" points="105,-0.5 105,-19.5 193,-19.5 193,-0.5 105,-0.5"/>
<text text-anchor="middle" x="149" y="-7.5" font-family="Helvetica,sans-Serif" font-size="10.00">liberationmatrice</text>
</a>
</g>
</g>
<!-- Node1&#45;&gt;Node6 -->
<g id="edge5" class="edge"><title>Node1&#45;&gt;Node6</title>
<path fill="none" stroke="midnightblue" d="M63.5147,-38.411C77.5666,-33.6856 94.7082,-27.9211 109.87,-22.8226"/>
<polygon fill="midnightblue" stroke="midnightblue" points="111.132,-26.0909 119.494,-19.5859 108.9,-19.456 111.132,-26.0909"/>
</g>
<!-- Node4 -->
<g id="node4" class="node"><title>Node4</title>
<g id="a_node4"><a xlink:href="_caldist_8c.html#a4a2ee6333feee58bf91682ccfad34847" target="_top" xlink:title="Calcul le minimum dans un tableau. ">
<polygon fill="none" stroke="black" points="230,-38.5 230,-57.5 299,-57.5 299,-38.5 230,-38.5"/>
<text text-anchor="middle" x="264.5" y="-45.5" font-family="Helvetica,sans-Serif" font-size="10.00">minimunTab</text>
</a>
</g>
</g>
<!-- Node3&#45;&gt;Node4 -->
<g id="edge3" class="edge"><title>Node3&#45;&gt;Node4</title>
<path fill="none" stroke="midnightblue" d="M184.67,-48C195.651,-48 207.939,-48 219.485,-48"/>
<polygon fill="midnightblue" stroke="midnightblue" points="219.821,-51.5001 229.821,-48 219.821,-44.5001 219.821,-51.5001"/>
</g>
<!-- Node5 -->
<g id="node5" class="node"><title>Node5</title>
<g id="a_node5"><a xlink:href="_caldist_8c.html#a318af6561ba341de02889ad9dabdac2b" target="_top" xlink:title="Calcul le minimum entre deux nombres. ">
<polygon fill="none" stroke="black" points="335,-38.5 335,-57.5 388,-57.5 388,-38.5 335,-38.5"/>
<text text-anchor="middle" x="361.5" y="-45.5" font-family="Helvetica,sans-Serif" font-size="10.00">minimun</text>
</a>
</g>
</g>
<!-- Node4&#45;&gt;Node5 -->
<g id="edge4" class="edge"><title>Node4&#45;&gt;Node5</title>
<path fill="none" stroke="midnightblue" d="M299.261,-48C307.511,-48 316.365,-48 324.706,-48"/>
<polygon fill="midnightblue" stroke="midnightblue" points="324.913,-51.5001 334.913,-48 324.913,-44.5001 324.913,-51.5001"/>
</g>
</g>
</svg>
