<?xml version="1.0" encoding="UTF-8" standalone="no"?>
<!DOCTYPE svg PUBLIC "-//W3C//DTD SVG 1.1//EN"
 "http://www.w3.org/Graphics/SVG/1.1/DTD/svg11.dtd">
<!-- Generated by graphviz version 2.38.0 (20140413.2041)
 -->
<!-- Title: C:/Users/cbongiorno/Documents/Mes Documents/M1/Vision Industrielle/TD2&#45;Traitement image/filtres.c Pages: 1 -->
<svg width="623pt" height="229pt"
 viewBox="0.00 0.00 622.50 229.00" xmlns="http://www.w3.org/2000/svg" xmlns:xlink="http://www.w3.org/1999/xlink">
<g id="graph0" class="graph" transform="scale(1 1) rotate(0) translate(4 225)">
<title>C:/Users/cbongiorno/Documents/Mes Documents/M1/Vision Industrielle/TD2&#45;Traitement image/filtres.c</title>
<!-- Node1 -->
<g id="node1" class="node"><title>Node1</title>
<polygon fill="#bfbfbf" stroke="black" points="212.5,-168.5 212.5,-220.5 361.5,-220.5 361.5,-168.5 212.5,-168.5"/>
<text text-anchor="start" x="220.5" y="-208.5" font-family="Helvetica,sans-Serif" font-size="10.00">C:/Users/cbongiorno</text>
<text text-anchor="start" x="220.5" y="-197.5" font-family="Helvetica,sans-Serif" font-size="10.00">/Documents/Mes Documents</text>
<text text-anchor="start" x="220.5" y="-186.5" font-family="Helvetica,sans-Serif" font-size="10.00">/M1/Vision Industrielle</text>
<text text-anchor="middle" x="287" y="-175.5" font-family="Helvetica,sans-Serif" font-size="10.00">/TD2&#45;Traitement image/filtres.c</text>
</g>
<!-- Node2 -->
<g id="node2" class="node"><title>Node2</title>
<g id="a_node2"><a xlink:href="prototype_8h.html" target="_top" xlink:title="Prototype des fonctions. ">
<polygon fill="none" stroke="black" points="254.5,-112.5 254.5,-131.5 319.5,-131.5 319.5,-112.5 254.5,-112.5"/>
<text text-anchor="middle" x="287" y="-119.5" font-family="Helvetica,sans-Serif" font-size="10.00">prototype.h</text>
</a>
</g>
</g>
<!-- Node1&#45;&gt;Node2 -->
<g id="edge1" class="edge"><title>Node1&#45;&gt;Node2</title>
<path fill="none" stroke="midnightblue" d="M287,-168.446C287,-159.73 287,-150.104 287,-141.964"/>
<polygon fill="midnightblue" stroke="midnightblue" points="290.5,-141.695 287,-131.695 283.5,-141.696 290.5,-141.695"/>
</g>
<!-- Node3 -->
<g id="node3" class="node"><title>Node3</title>
<polygon fill="none" stroke="#bfbfbf" points="0,-56.5 0,-75.5 48,-75.5 48,-56.5 0,-56.5"/>
<text text-anchor="middle" x="24" y="-63.5" font-family="Helvetica,sans-Serif" font-size="10.00">stdlib.h</text>
</g>
<!-- Node2&#45;&gt;Node3 -->
<g id="edge2" class="edge"><title>Node2&#45;&gt;Node3</title>
<path fill="none" stroke="midnightblue" d="M254.464,-115.407C211.682,-107.885 133.975,-93.6454 58.2791,-76.1645"/>
<polygon fill="midnightblue" stroke="midnightblue" points="58.6324,-72.6531 48.0988,-73.7907 57.0428,-79.4702 58.6324,-72.6531"/>
</g>
<!-- Node4 -->
<g id="node4" class="node"><title>Node4</title>
<polygon fill="none" stroke="#bfbfbf" points="66,-56.5 66,-75.5 112,-75.5 112,-56.5 66,-56.5"/>
<text text-anchor="middle" x="89" y="-63.5" font-family="Helvetica,sans-Serif" font-size="10.00">stdio.h</text>
</g>
<!-- Node2&#45;&gt;Node4 -->
<g id="edge3" class="edge"><title>Node2&#45;&gt;Node4</title>
<path fill="none" stroke="midnightblue" d="M255.626,-112.444C219.146,-102.494 159.198,-86.145 122.026,-76.0072"/>
<polygon fill="midnightblue" stroke="midnightblue" points="122.753,-72.5775 112.184,-73.323 120.911,-79.3309 122.753,-72.5775"/>
</g>
<!-- Node5 -->
<g id="node5" class="node"><title>Node5</title>
<polygon fill="none" stroke="#bfbfbf" points="130.5,-56.5 130.5,-75.5 177.5,-75.5 177.5,-56.5 130.5,-56.5"/>
<text text-anchor="middle" x="154" y="-63.5" font-family="Helvetica,sans-Serif" font-size="10.00">math.h</text>
</g>
<!-- Node2&#45;&gt;Node5 -->
<g id="edge4" class="edge"><title>Node2&#45;&gt;Node5</title>
<path fill="none" stroke="midnightblue" d="M265.926,-112.444C243.94,-103.517 209.266,-89.4387 184.336,-79.3168"/>
<polygon fill="midnightblue" stroke="midnightblue" points="185.558,-76.0355 174.976,-75.5164 182.924,-82.5213 185.558,-76.0355"/>
</g>
<!-- Node6 -->
<g id="node6" class="node"><title>Node6</title>
<polygon fill="none" stroke="#bfbfbf" points="195.5,-56.5 195.5,-75.5 246.5,-75.5 246.5,-56.5 195.5,-56.5"/>
<text text-anchor="middle" x="221" y="-63.5" font-family="Helvetica,sans-Serif" font-size="10.00">unistd.h</text>
</g>
<!-- Node2&#45;&gt;Node6 -->
<g id="edge5" class="edge"><title>Node2&#45;&gt;Node6</title>
<path fill="none" stroke="midnightblue" d="M276.396,-112.324C266.544,-104.263 251.649,-92.0765 239.785,-82.3695"/>
<polygon fill="midnightblue" stroke="midnightblue" points="241.753,-79.4575 231.797,-75.8339 237.32,-84.8752 241.753,-79.4575"/>
</g>
<!-- Node7 -->
<g id="node7" class="node"><title>Node7</title>
<polygon fill="none" stroke="#bfbfbf" points="265,-56.5 265,-75.5 309,-75.5 309,-56.5 265,-56.5"/>
<text text-anchor="middle" x="287" y="-63.5" font-family="Helvetica,sans-Serif" font-size="10.00">time.h</text>
</g>
<!-- Node2&#45;&gt;Node7 -->
<g id="edge6" class="edge"><title>Node2&#45;&gt;Node7</title>
<path fill="none" stroke="midnightblue" d="M287,-112.083C287,-105.006 287,-94.8611 287,-85.9865"/>
<polygon fill="midnightblue" stroke="midnightblue" points="290.5,-85.751 287,-75.7511 283.5,-85.7511 290.5,-85.751"/>
</g>
<!-- Node8 -->
<g id="node8" class="node"><title>Node8</title>
<polygon fill="none" stroke="#bfbfbf" points="327.5,-56.5 327.5,-75.5 376.5,-75.5 376.5,-56.5 327.5,-56.5"/>
<text text-anchor="middle" x="352" y="-63.5" font-family="Helvetica,sans-Serif" font-size="10.00">string.h</text>
</g>
<!-- Node2&#45;&gt;Node8 -->
<g id="edge7" class="edge"><title>Node2&#45;&gt;Node8</title>
<path fill="none" stroke="midnightblue" d="M297.443,-112.324C307.146,-104.263 321.815,-92.0765 333.5,-82.3695"/>
<polygon fill="midnightblue" stroke="midnightblue" points="335.911,-84.9163 341.367,-75.8339 331.438,-79.532 335.911,-84.9163"/>
</g>
<!-- Node9 -->
<g id="node9" class="node"><title>Node9</title>
<polygon fill="none" stroke="#bfbfbf" points="395,-56.5 395,-75.5 457,-75.5 457,-56.5 395,-56.5"/>
<text text-anchor="middle" x="426" y="-63.5" font-family="Helvetica,sans-Serif" font-size="10.00">windows.h</text>
</g>
<!-- Node2&#45;&gt;Node9 -->
<g id="edge8" class="edge"><title>Node2&#45;&gt;Node9</title>
<path fill="none" stroke="midnightblue" d="M309.025,-112.444C332.104,-103.478 368.562,-89.314 394.641,-79.1827"/>
<polygon fill="midnightblue" stroke="midnightblue" points="396.024,-82.4002 404.078,-75.5164 393.489,-75.8753 396.024,-82.4002"/>
</g>
<!-- Node10 -->
<g id="node10" class="node"><title>Node10</title>
<g id="a_node10"><a xlink:href="_bmp_lib_8h.html" target="_top" xlink:title="BmpLib.h">
<polygon fill="none" stroke="black" points="475,-56.5 475,-75.5 533,-75.5 533,-56.5 475,-56.5"/>
<text text-anchor="middle" x="504" y="-63.5" font-family="Helvetica,sans-Serif" font-size="10.00">BmpLib.h</text>
</a>
</g>
</g>
<!-- Node2&#45;&gt;Node10 -->
<g id="edge9" class="edge"><title>Node2&#45;&gt;Node10</title>
<path fill="none" stroke="midnightblue" d="M319.958,-112.799C358.951,-103.095 423.788,-86.9605 465.178,-76.6607"/>
<polygon fill="midnightblue" stroke="midnightblue" points="466.052,-80.0502 474.91,-74.2389 464.361,-73.2574 466.052,-80.0502"/>
</g>
<!-- Node12 -->
<g id="node12" class="node"><title>Node12</title>
<g id="a_node12"><a xlink:href="_outils_lib_8h.html" target="_top" xlink:title="OutilsLib.h">
<polygon fill="none" stroke="black" points="551.5,-56.5 551.5,-75.5 614.5,-75.5 614.5,-56.5 551.5,-56.5"/>
<text text-anchor="middle" x="583" y="-63.5" font-family="Helvetica,sans-Serif" font-size="10.00">OutilsLib.h</text>
</a>
</g>
</g>
<!-- Node2&#45;&gt;Node12 -->
<g id="edge11" class="edge"><title>Node2&#45;&gt;Node12</title>
<path fill="none" stroke="midnightblue" d="M319.686,-115.677C366.476,-107.96 455.477,-92.923 541.333,-76.0641"/>
<polygon fill="midnightblue" stroke="midnightblue" points="542.111,-79.4782 551.243,-74.1071 540.754,-72.6108 542.111,-79.4782"/>
</g>
<!-- Node11 -->
<g id="node11" class="node"><title>Node11</title>
<polygon fill="none" stroke="#bfbfbf" points="476,-0.5 476,-19.5 532,-19.5 532,-0.5 476,-0.5"/>
<text text-anchor="middle" x="504" y="-7.5" font-family="Helvetica,sans-Serif" font-size="10.00">stdbool.h</text>
</g>
<!-- Node10&#45;&gt;Node11 -->
<g id="edge10" class="edge"><title>Node10&#45;&gt;Node11</title>
<path fill="none" stroke="midnightblue" d="M504,-56.083C504,-49.0059 504,-38.8611 504,-29.9865"/>
<polygon fill="midnightblue" stroke="midnightblue" points="507.5,-29.751 504,-19.7511 500.5,-29.7511 507.5,-29.751"/>
</g>
</g>
</svg>
