<?xml version="1.0" encoding="UTF-8" standalone="no"?>
<!DOCTYPE svg PUBLIC "-//W3C//DTD SVG 1.1//EN"
 "http://www.w3.org/Graphics/SVG/1.1/DTD/svg11.dtd">
<!-- Generated by graphviz version 2.38.0 (20140413.2041)
 -->
<!-- Title: erosionCase Pages: 1 -->
<svg width="273pt" height="28pt"
 viewBox="0.00 0.00 273.00 28.00" xmlns="http://www.w3.org/2000/svg" xmlns:xlink="http://www.w3.org/1999/xlink">
<g id="graph0" class="graph" transform="scale(1 1) rotate(0) translate(4 24)">
<title>erosionCase</title>
<!-- Node1 -->
<g id="node1" class="node"><title>Node1</title>
<polygon fill="#bfbfbf" stroke="black" points="0,-0.5 0,-19.5 71,-19.5 71,-0.5 0,-0.5"/>
<text text-anchor="middle" x="35.5" y="-7.5" font-family="Helvetica,sans-Serif" font-size="10.00">erosionCase</text>
</g>
<!-- Node2 -->
<g id="node2" class="node"><title>Node2</title>
<g id="a_node2"><a xlink:href="_caldist_8c.html#a4a2ee6333feee58bf91682ccfad34847" target="_top" xlink:title="Calcul le minimum dans un tableau. ">
<polygon fill="none" stroke="black" points="107,-0.5 107,-19.5 176,-19.5 176,-0.5 107,-0.5"/>
<text text-anchor="middle" x="141.5" y="-7.5" font-family="Helvetica,sans-Serif" font-size="10.00">minimunTab</text>
</a>
</g>
</g>
<!-- Node1&#45;&gt;Node2 -->
<g id="edge1" class="edge"><title>Node1&#45;&gt;Node2</title>
<path fill="none" stroke="midnightblue" d="M71.1305,-10C79.2802,-10 88.073,-10 96.571,-10"/>
<polygon fill="midnightblue" stroke="midnightblue" points="96.7275,-13.5001 106.727,-10 96.7274,-6.5001 96.7275,-13.5001"/>
</g>
<!-- Node3 -->
<g id="node3" class="node"><title>Node3</title>
<g id="a_node3"><a xlink:href="_caldist_8c.html#a318af6561ba341de02889ad9dabdac2b" target="_top" xlink:title="Calcul le minimum entre deux nombres. ">
<polygon fill="none" stroke="black" points="212,-0.5 212,-19.5 265,-19.5 265,-0.5 212,-0.5"/>
<text text-anchor="middle" x="238.5" y="-7.5" font-family="Helvetica,sans-Serif" font-size="10.00">minimun</text>
</a>
</g>
</g>
<!-- Node2&#45;&gt;Node3 -->
<g id="edge2" class="edge"><title>Node2&#45;&gt;Node3</title>
<path fill="none" stroke="midnightblue" d="M176.261,-10C184.511,-10 193.365,-10 201.706,-10"/>
<polygon fill="midnightblue" stroke="midnightblue" points="201.913,-13.5001 211.913,-10 201.913,-6.5001 201.913,-13.5001"/>
</g>
</g>
</svg>
