<?xml version="1.0" encoding="UTF-8" standalone="no"?>
<!DOCTYPE svg PUBLIC "-//W3C//DTD SVG 1.1//EN"
 "http://www.w3.org/Graphics/SVG/1.1/DTD/svg11.dtd">
<!-- Generated by graphviz version 2.38.0 (20140413.2041)
 -->
<!-- Title: filtreMedian Pages: 1 -->
<svg width="480pt" height="66pt"
 viewBox="0.00 0.00 480.00 66.00" xmlns="http://www.w3.org/2000/svg" xmlns:xlink="http://www.w3.org/1999/xlink">
<g id="graph0" class="graph" transform="scale(1 1) rotate(0) translate(4 62)">
<title>filtreMedian</title>
<!-- Node1 -->
<g id="node1" class="node"><title>Node1</title>
<polygon fill="#bfbfbf" stroke="black" points="0,-19.5 0,-38.5 66,-38.5 66,-19.5 0,-19.5"/>
<text text-anchor="middle" x="33" y="-26.5" font-family="Helvetica,sans-Serif" font-size="10.00">filtreMedian</text>
</g>
<!-- Node2 -->
<g id="node2" class="node"><title>Node2</title>
<g id="a_node2"><a xlink:href="partie1_8c.html#a74146446548f74f43dcabaeea7b55493" target="_top" xlink:title="Retour une matrice de dimension haut * larg. ">
<polygon fill="none" stroke="black" points="274,-38.5 274,-57.5 364,-57.5 364,-38.5 274,-38.5"/>
<text text-anchor="middle" x="319" y="-45.5" font-family="Helvetica,sans-Serif" font-size="10.00">allocationMatrice</text>
</a>
</g>
</g>
<!-- Node1&#45;&gt;Node2 -->
<g id="edge1" class="edge"><title>Node1&#45;&gt;Node2</title>
<path fill="none" stroke="midnightblue" d="M66.0264,-31.1426C113.923,-34.347 204.832,-40.4289 263.359,-44.3444"/>
<polygon fill="midnightblue" stroke="midnightblue" points="263.323,-47.8498 273.535,-45.0252 263.791,-40.8654 263.323,-47.8498"/>
</g>
<!-- Node3 -->
<g id="node3" class="node"><title>Node3</title>
<g id="a_node3"><a xlink:href="filtres_8c.html#a01c624b3c74736d629fc159e5e0838f4" target="_top" xlink:title="Effectue le lissage d&#39;une matrice NG avec un outil de taille variable. ">
<polygon fill="none" stroke="black" points="102,-0.5 102,-19.5 222,-19.5 222,-0.5 102,-0.5"/>
<text text-anchor="middle" x="162" y="-7.5" font-family="Helvetica,sans-Serif" font-size="10.00">medianGrisNxNVariable</text>
</a>
</g>
</g>
<!-- Node1&#45;&gt;Node3 -->
<g id="edge2" class="edge"><title>Node1&#45;&gt;Node3</title>
<path fill="none" stroke="midnightblue" d="M66.0475,-24.2055C73.9491,-23.0234 82.7199,-21.7112 91.6464,-20.3757"/>
<polygon fill="midnightblue" stroke="midnightblue" points="92.3807,-23.8049 101.753,-18.8638 91.3449,-16.882 92.3807,-23.8049"/>
</g>
<!-- Node3&#45;&gt;Node2 -->
<g id="edge3" class="edge"><title>Node3&#45;&gt;Node2</title>
<path fill="none" stroke="midnightblue" d="M202.113,-19.589C222.475,-24.5809 247.566,-30.7324 269.189,-36.0334"/>
<polygon fill="midnightblue" stroke="midnightblue" points="268.622,-39.4981 279.168,-38.4799 270.289,-32.6994 268.622,-39.4981"/>
</g>
<!-- Node4 -->
<g id="node4" class="node"><title>Node4</title>
<g id="a_node4"><a xlink:href="filtres_8c.html#a88bbf18f4831db47042c26c374f1fd58" target="_top" xlink:title="Calcul de la médiane pour une case NG avec un outil de taille variable. ">
<polygon fill="none" stroke="black" points="258,-0.5 258,-19.5 380,-19.5 380,-0.5 258,-0.5"/>
<text text-anchor="middle" x="319" y="-7.5" font-family="Helvetica,sans-Serif" font-size="10.00">medianGriscaseVariable</text>
</a>
</g>
</g>
<!-- Node3&#45;&gt;Node4 -->
<g id="edge4" class="edge"><title>Node3&#45;&gt;Node4</title>
<path fill="none" stroke="midnightblue" d="M222.041,-10C230.465,-10 239.198,-10 247.81,-10"/>
<polygon fill="midnightblue" stroke="midnightblue" points="247.838,-13.5001 257.838,-10 247.838,-6.5001 247.838,-13.5001"/>
</g>
<!-- Node5 -->
<g id="node5" class="node"><title>Node5</title>
<g id="a_node5"><a xlink:href="median_8c.html#a6f9266f5d5b1c83fdcd462d44e60f3e2" target="_top" xlink:title="tri un tableau et retourne la valeur médiane ">
<polygon fill="none" stroke="black" points="416,-0.5 416,-19.5 472,-19.5 472,-0.5 416,-0.5"/>
<text text-anchor="middle" x="444" y="-7.5" font-family="Helvetica,sans-Serif" font-size="10.00">tritableau</text>
</a>
</g>
</g>
<!-- Node4&#45;&gt;Node5 -->
<g id="edge5" class="edge"><title>Node4&#45;&gt;Node5</title>
<path fill="none" stroke="midnightblue" d="M380.059,-10C388.793,-10 397.567,-10 405.674,-10"/>
<polygon fill="midnightblue" stroke="midnightblue" points="405.888,-13.5001 415.888,-10 405.888,-6.5001 405.888,-13.5001"/>
</g>
</g>
</svg>
