<?xml version="1.0" encoding="UTF-8" standalone="no"?>
<!DOCTYPE svg PUBLIC "-//W3C//DTD SVG 1.1//EN"
 "http://www.w3.org/Graphics/SVG/1.1/DTD/svg11.dtd">
<!-- Generated by graphviz version 2.38.0 (20140413.2041)
 -->
<!-- Title: medianGriscaseVariable Pages: 1 -->
<svg width="462pt" height="66pt"
 viewBox="0.00 0.00 462.00 66.00" xmlns="http://www.w3.org/2000/svg" xmlns:xlink="http://www.w3.org/1999/xlink">
<g id="graph0" class="graph" transform="scale(1 1) rotate(0) translate(4 62)">
<title>medianGriscaseVariable</title>
<!-- Node1 -->
<g id="node1" class="node"><title>Node1</title>
<polygon fill="#bfbfbf" stroke="black" points="0,-19.5 0,-38.5 122,-38.5 122,-19.5 0,-19.5"/>
<text text-anchor="middle" x="61" y="-26.5" font-family="Helvetica,sans-Serif" font-size="10.00">medianGriscaseVariable</text>
</g>
<!-- Node2 -->
<g id="node2" class="node"><title>Node2</title>
<g id="a_node2"><a xlink:href="prototype_8h.html#a01c624b3c74736d629fc159e5e0838f4" target="_top" xlink:title="Effectue le lissage d&#39;une matrice NG avec un outil de taille variable. ">
<polygon fill="none" stroke="black" points="158,-19.5 158,-38.5 278,-38.5 278,-19.5 158,-19.5"/>
<text text-anchor="middle" x="218" y="-26.5" font-family="Helvetica,sans-Serif" font-size="10.00">medianGrisNxNVariable</text>
</a>
</g>
</g>
<!-- Node1&#45;&gt;Node2 -->
<g id="edge1" class="edge"><title>Node1&#45;&gt;Node2</title>
<path fill="none" stroke="midnightblue" d="M132.579,-29C141.014,-29 149.56,-29 157.812,-29"/>
<polygon fill="midnightblue" stroke="midnightblue" points="132.371,-25.5001 122.371,-29 132.371,-32.5001 132.371,-25.5001"/>
</g>
<!-- Node3 -->
<g id="node3" class="node"><title>Node3</title>
<g id="a_node3"><a xlink:href="prototype_8h.html#abbbcc759563e1b9cde1b08363ba74cb8" target="_top" xlink:title="Outil de test, permettant d&#39;effectuer un filtre avec un outil qui de devrait pas modifier l&#39;image...">
<polygon fill="none" stroke="black" points="322,-38.5 322,-57.5 372,-57.5 372,-38.5 322,-38.5"/>
<text text-anchor="middle" x="347" y="-45.5" font-family="Helvetica,sans-Serif" font-size="10.00">filtrenop</text>
</a>
</g>
</g>
<!-- Node2&#45;&gt;Node3 -->
<g id="edge2" class="edge"><title>Node2&#45;&gt;Node3</title>
<path fill="none" stroke="midnightblue" d="M288.168,-39.348C300.196,-41.1474 311.95,-42.906 321.687,-44.3626"/>
<polygon fill="midnightblue" stroke="midnightblue" points="288.446,-35.8507 278.038,-37.8325 287.41,-42.7737 288.446,-35.8507"/>
</g>
<!-- Node4 -->
<g id="node4" class="node"><title>Node4</title>
<g id="a_node4"><a xlink:href="prototype_8h.html#a66c8b1f89976eba5e821f5c386572d34" target="_top" xlink:title="Outil de filtrage médian. ">
<polygon fill="none" stroke="black" points="314,-0.5 314,-19.5 380,-19.5 380,-0.5 314,-0.5"/>
<text text-anchor="middle" x="347" y="-7.5" font-family="Helvetica,sans-Serif" font-size="10.00">filtreMedian</text>
</a>
</g>
</g>
<!-- Node2&#45;&gt;Node4 -->
<g id="edge3" class="edge"><title>Node2&#45;&gt;Node4</title>
<path fill="none" stroke="midnightblue" d="M288.147,-18.6552C297.077,-17.3192 305.857,-16.0056 313.773,-14.8214"/>
<polygon fill="midnightblue" stroke="midnightblue" points="287.41,-15.2263 278.038,-20.1675 288.446,-22.1493 287.41,-15.2263"/>
</g>
<!-- Node5 -->
<g id="node5" class="node"><title>Node5</title>
<g id="a_node5"><a xlink:href="main_8c.html#a0ddf1224851353fc92bfbff6f499fa97" target="_top" xlink:title="Main du programme. ">
<polygon fill="none" stroke="black" points="416,-0.5 416,-19.5 454,-19.5 454,-0.5 416,-0.5"/>
<text text-anchor="middle" x="435" y="-7.5" font-family="Helvetica,sans-Serif" font-size="10.00">main</text>
</a>
</g>
</g>
<!-- Node4&#45;&gt;Node5 -->
<g id="edge4" class="edge"><title>Node4&#45;&gt;Node5</title>
<path fill="none" stroke="midnightblue" d="M390.087,-10C399.095,-10 408.156,-10 415.689,-10"/>
<polygon fill="midnightblue" stroke="midnightblue" points="390.023,-6.5001 380.023,-10 390.023,-13.5001 390.023,-6.5001"/>
</g>
</g>
</svg>
