<?xml version="1.0" encoding="UTF-8" standalone="no"?>
<!DOCTYPE svg PUBLIC "-//W3C//DTD SVG 1.1//EN"
 "http://www.w3.org/Graphics/SVG/1.1/DTD/svg11.dtd">
<!-- Generated by graphviz version 2.38.0 (20140413.2041)
 -->
<!-- Title: filtrePondGauss Pages: 1 -->
<svg width="321pt" height="104pt"
 viewBox="0.00 0.00 321.00 104.00" xmlns="http://www.w3.org/2000/svg" xmlns:xlink="http://www.w3.org/1999/xlink">
<g id="graph0" class="graph" transform="scale(1 1) rotate(0) translate(4 100)">
<title>filtrePondGauss</title>
<!-- Node1 -->
<g id="node1" class="node"><title>Node1</title>
<polygon fill="#bfbfbf" stroke="black" points="0,-57.5 0,-76.5 86,-76.5 86,-57.5 0,-57.5"/>
<text text-anchor="middle" x="43" y="-64.5" font-family="Helvetica,sans-Serif" font-size="10.00">filtrePondGauss</text>
</g>
<!-- Node2 -->
<g id="node2" class="node"><title>Node2</title>
<g id="a_node2"><a xlink:href="partie1_8c.html#a74146446548f74f43dcabaeea7b55493" target="_top" xlink:title="Retour une matrice de dimension haut * larg. ">
<polygon fill="none" stroke="black" points="223,-76.5 223,-95.5 313,-95.5 313,-76.5 223,-76.5"/>
<text text-anchor="middle" x="268" y="-83.5" font-family="Helvetica,sans-Serif" font-size="10.00">allocationMatrice</text>
</a>
</g>
</g>
<!-- Node1&#45;&gt;Node2 -->
<g id="edge1" class="edge"><title>Node1&#45;&gt;Node2</title>
<path fill="none" stroke="midnightblue" d="M86.2068,-70.5961C122.023,-73.6477 173.645,-78.046 212.566,-81.3621"/>
<polygon fill="midnightblue" stroke="midnightblue" points="212.414,-84.8618 222.675,-82.2235 213.008,-77.8871 212.414,-84.8618"/>
</g>
<!-- Node3 -->
<g id="node3" class="node"><title>Node3</title>
<g id="a_node3"><a xlink:href="filtres_8c.html#ae5299087eb8255b465ad8db59f6e4839" target="_top" xlink:title="Effectue une convolution sur une image, à partir d&#39;un outil de dimension variable le boolen div indiq...">
<polygon fill="none" stroke="black" points="122,-38.5 122,-57.5 187,-57.5 187,-38.5 122,-38.5"/>
<text text-anchor="middle" x="154.5" y="-45.5" font-family="Helvetica,sans-Serif" font-size="10.00">convolution</text>
</a>
</g>
</g>
<!-- Node1&#45;&gt;Node3 -->
<g id="edge2" class="edge"><title>Node1&#45;&gt;Node3</title>
<path fill="none" stroke="midnightblue" d="M86.0224,-59.7084C94.5122,-58.2353 103.434,-56.6872 111.909,-55.2167"/>
<polygon fill="midnightblue" stroke="midnightblue" points="112.711,-58.6299 121.966,-53.4717 111.515,-51.7329 112.711,-58.6299"/>
</g>
<!-- Node3&#45;&gt;Node2 -->
<g id="edge3" class="edge"><title>Node3&#45;&gt;Node2</title>
<path fill="none" stroke="midnightblue" d="M183.636,-57.589C197.502,-62.3144 214.416,-68.0789 229.376,-73.1774"/>
<polygon fill="midnightblue" stroke="midnightblue" points="228.278,-76.501 238.873,-76.4141 230.537,-69.8752 228.278,-76.501"/>
</g>
<!-- Node4 -->
<g id="node4" class="node"><title>Node4</title>
<g id="a_node4"><a xlink:href="filtres_8c.html#adf784ef535b95a1f87bcb466b44fb200" target="_top" xlink:title="Effectue une convolution sur une case d&#39;une image, à partir d&#39;un outil de dimension variable le boole...">
<polygon fill="none" stroke="black" points="224.5,-38.5 224.5,-57.5 311.5,-57.5 311.5,-38.5 224.5,-38.5"/>
<text text-anchor="middle" x="268" y="-45.5" font-family="Helvetica,sans-Serif" font-size="10.00">convolutionCase</text>
</a>
</g>
</g>
<!-- Node3&#45;&gt;Node4 -->
<g id="edge4" class="edge"><title>Node3&#45;&gt;Node4</title>
<path fill="none" stroke="midnightblue" d="M187.153,-48C195.664,-48 205.102,-48 214.422,-48"/>
<polygon fill="midnightblue" stroke="midnightblue" points="214.439,-51.5001 224.439,-48 214.439,-44.5001 214.439,-51.5001"/>
</g>
<!-- Node5 -->
<g id="node5" class="node"><title>Node5</title>
<g id="a_node5"><a xlink:href="partie1_8c.html#a106518d4a41c16e3a633d2963200b919" target="_top" xlink:title="Libération d&#39;une matrice. ">
<polygon fill="none" stroke="black" points="224,-0.5 224,-19.5 312,-19.5 312,-0.5 224,-0.5"/>
<text text-anchor="middle" x="268" y="-7.5" font-family="Helvetica,sans-Serif" font-size="10.00">liberationmatrice</text>
</a>
</g>
</g>
<!-- Node3&#45;&gt;Node5 -->
<g id="edge5" class="edge"><title>Node3&#45;&gt;Node5</title>
<path fill="none" stroke="midnightblue" d="M183.636,-38.411C197.502,-33.6856 214.416,-27.9211 229.376,-22.8226"/>
<polygon fill="midnightblue" stroke="midnightblue" points="230.537,-26.1248 238.873,-19.5859 228.278,-19.499 230.537,-26.1248"/>
</g>
</g>
</svg>
