<?xml version="1.0" encoding="UTF-8" standalone="no"?>
<!DOCTYPE svg PUBLIC "-//W3C//DTD SVG 1.1//EN"
 "http://www.w3.org/Graphics/SVG/1.1/DTD/svg11.dtd">
<!-- Generated by graphviz version 2.38.0 (20140413.2041)
 -->
<!-- Title: filtreGradient Pages: 1 -->
<svg width="519pt" height="104pt"
 viewBox="0.00 0.00 519.00 104.00" xmlns="http://www.w3.org/2000/svg" xmlns:xlink="http://www.w3.org/1999/xlink">
<g id="graph0" class="graph" transform="scale(1 1) rotate(0) translate(4 100)">
<title>filtreGradient</title>
<!-- Node1 -->
<g id="node1" class="node"><title>Node1</title>
<polygon fill="#bfbfbf" stroke="black" points="0,-38.5 0,-57.5 71,-57.5 71,-38.5 0,-38.5"/>
<text text-anchor="middle" x="35.5" y="-45.5" font-family="Helvetica,sans-Serif" font-size="10.00">filtreGradient</text>
</g>
<!-- Node2 -->
<g id="node2" class="node"><title>Node2</title>
<g id="a_node2"><a xlink:href="partie1_8c.html#a74146446548f74f43dcabaeea7b55493" target="_top" xlink:title="Retour une matrice de dimension haut * larg. ">
<polygon fill="none" stroke="black" points="107,-76.5 107,-95.5 197,-95.5 197,-76.5 107,-76.5"/>
<text text-anchor="middle" x="152" y="-83.5" font-family="Helvetica,sans-Serif" font-size="10.00">allocationMatrice</text>
</a>
</g>
</g>
<!-- Node1&#45;&gt;Node2 -->
<g id="edge1" class="edge"><title>Node1&#45;&gt;Node2</title>
<path fill="none" stroke="midnightblue" d="M65.3932,-57.589C79.6316,-62.3144 97.0008,-68.0789 112.363,-73.1774"/>
<polygon fill="midnightblue" stroke="midnightblue" points="111.523,-76.586 122.116,-76.4141 113.728,-69.9423 111.523,-76.586"/>
</g>
<!-- Node3 -->
<g id="node3" class="node"><title>Node3</title>
<g id="a_node3"><a xlink:href="filtres_8c.html#a74f1cee58a0cba69e6279032f98b1aad" target="_top" xlink:title="Effectue un gradient sur une case de la matrice sur une dimension variable. ">
<polygon fill="none" stroke="black" points="115,-38.5 115,-57.5 189,-57.5 189,-38.5 115,-38.5"/>
<text text-anchor="middle" x="152" y="-45.5" font-family="Helvetica,sans-Serif" font-size="10.00">gradientCase</text>
</a>
</g>
</g>
<!-- Node1&#45;&gt;Node3 -->
<g id="edge2" class="edge"><title>Node1&#45;&gt;Node3</title>
<path fill="none" stroke="midnightblue" d="M71.1645,-48C81.7473,-48 93.5563,-48 104.778,-48"/>
<polygon fill="midnightblue" stroke="midnightblue" points="104.866,-51.5001 114.866,-48 104.866,-44.5001 104.866,-51.5001"/>
</g>
<!-- Node10 -->
<g id="node10" class="node"><title>Node10</title>
<g id="a_node10"><a xlink:href="partie1_8c.html#a106518d4a41c16e3a633d2963200b919" target="_top" xlink:title="Libération d&#39;une matrice. ">
<polygon fill="none" stroke="black" points="108,-0.5 108,-19.5 196,-19.5 196,-0.5 108,-0.5"/>
<text text-anchor="middle" x="152" y="-7.5" font-family="Helvetica,sans-Serif" font-size="10.00">liberationmatrice</text>
</a>
</g>
</g>
<!-- Node1&#45;&gt;Node10 -->
<g id="edge9" class="edge"><title>Node1&#45;&gt;Node10</title>
<path fill="none" stroke="midnightblue" d="M65.3932,-38.411C79.6316,-33.6856 97.0008,-27.9211 112.363,-22.8226"/>
<polygon fill="midnightblue" stroke="midnightblue" points="113.728,-26.0577 122.116,-19.5859 111.523,-19.414 113.728,-26.0577"/>
</g>
<!-- Node4 -->
<g id="node4" class="node"><title>Node4</title>
<g id="a_node4"><a xlink:href="filtres_8c.html#a34cb964e90c76c1fee8f98999589ebcb" target="_top" xlink:title="Effectue une dilatation sur une case de la matrice sur une dimension variable. ">
<polygon fill="none" stroke="black" points="233,-57.5 233,-76.5 311,-76.5 311,-57.5 233,-57.5"/>
<text text-anchor="middle" x="272" y="-64.5" font-family="Helvetica,sans-Serif" font-size="10.00">dilatationCase</text>
</a>
</g>
</g>
<!-- Node3&#45;&gt;Node4 -->
<g id="edge3" class="edge"><title>Node3&#45;&gt;Node4</title>
<path fill="none" stroke="midnightblue" d="M189.045,-53.8039C199.631,-55.5084 211.385,-57.4009 222.609,-59.2082"/>
<polygon fill="midnightblue" stroke="midnightblue" points="222.29,-62.7019 232.719,-60.8362 223.403,-55.7909 222.29,-62.7019"/>
</g>
<!-- Node7 -->
<g id="node7" class="node"><title>Node7</title>
<g id="a_node7"><a xlink:href="filtres_8c.html#ab531caf4f703d24457c882c4efd213ae" target="_top" xlink:title="Effectue une érosion sur une case de la matrice sur une dimension variable. ">
<polygon fill="none" stroke="black" points="236.5,-19.5 236.5,-38.5 307.5,-38.5 307.5,-19.5 236.5,-19.5"/>
<text text-anchor="middle" x="272" y="-26.5" font-family="Helvetica,sans-Serif" font-size="10.00">erosionCase</text>
</a>
</g>
</g>
<!-- Node3&#45;&gt;Node7 -->
<g id="edge6" class="edge"><title>Node3&#45;&gt;Node7</title>
<path fill="none" stroke="midnightblue" d="M189.045,-42.1961C200.8,-40.3034 213.995,-38.1787 226.306,-36.1964"/>
<polygon fill="midnightblue" stroke="midnightblue" points="227.072,-39.6183 236.388,-34.573 225.959,-32.7073 227.072,-39.6183"/>
</g>
<!-- Node5 -->
<g id="node5" class="node"><title>Node5</title>
<g id="a_node5"><a xlink:href="_caldist_8c.html#abd278d2e0312f40a659ad8b3fc134569" target="_top" xlink:title="Calcul le maximum dans un tableau. ">
<polygon fill="none" stroke="black" points="347,-57.5 347,-76.5 419,-76.5 419,-57.5 347,-57.5"/>
<text text-anchor="middle" x="383" y="-64.5" font-family="Helvetica,sans-Serif" font-size="10.00">maximunTab</text>
</a>
</g>
</g>
<!-- Node4&#45;&gt;Node5 -->
<g id="edge4" class="edge"><title>Node4&#45;&gt;Node5</title>
<path fill="none" stroke="midnightblue" d="M311.123,-67C319.328,-67 328.08,-67 336.533,-67"/>
<polygon fill="midnightblue" stroke="midnightblue" points="336.639,-70.5001 346.639,-67 336.639,-63.5001 336.639,-70.5001"/>
</g>
<!-- Node6 -->
<g id="node6" class="node"><title>Node6</title>
<g id="a_node6"><a xlink:href="_caldist_8c.html#a70a7da388f16e668eb640b0755b09255" target="_top" xlink:title="Calcul le maximum entre deux nombres. ">
<polygon fill="none" stroke="black" points="455,-57.5 455,-76.5 511,-76.5 511,-57.5 455,-57.5"/>
<text text-anchor="middle" x="483" y="-64.5" font-family="Helvetica,sans-Serif" font-size="10.00">maximun</text>
</a>
</g>
</g>
<!-- Node5&#45;&gt;Node6 -->
<g id="edge5" class="edge"><title>Node5&#45;&gt;Node6</title>
<path fill="none" stroke="midnightblue" d="M419.103,-67C427.367,-67 436.206,-67 444.569,-67"/>
<polygon fill="midnightblue" stroke="midnightblue" points="444.827,-70.5001 454.827,-67 444.827,-63.5001 444.827,-70.5001"/>
</g>
<!-- Node8 -->
<g id="node8" class="node"><title>Node8</title>
<g id="a_node8"><a xlink:href="_caldist_8c.html#a4a2ee6333feee58bf91682ccfad34847" target="_top" xlink:title="Calcul le minimum dans un tableau. ">
<polygon fill="none" stroke="black" points="348.5,-19.5 348.5,-38.5 417.5,-38.5 417.5,-19.5 348.5,-19.5"/>
<text text-anchor="middle" x="383" y="-26.5" font-family="Helvetica,sans-Serif" font-size="10.00">minimunTab</text>
</a>
</g>
</g>
<!-- Node7&#45;&gt;Node8 -->
<g id="edge7" class="edge"><title>Node7&#45;&gt;Node8</title>
<path fill="none" stroke="midnightblue" d="M307.788,-29C317.406,-29 327.971,-29 338.037,-29"/>
<polygon fill="midnightblue" stroke="midnightblue" points="338.286,-32.5001 348.286,-29 338.286,-25.5001 338.286,-32.5001"/>
</g>
<!-- Node9 -->
<g id="node9" class="node"><title>Node9</title>
<g id="a_node9"><a xlink:href="_caldist_8c.html#a318af6561ba341de02889ad9dabdac2b" target="_top" xlink:title="Calcul le minimum entre deux nombres. ">
<polygon fill="none" stroke="black" points="456.5,-19.5 456.5,-38.5 509.5,-38.5 509.5,-19.5 456.5,-19.5"/>
<text text-anchor="middle" x="483" y="-26.5" font-family="Helvetica,sans-Serif" font-size="10.00">minimun</text>
</a>
</g>
</g>
<!-- Node8&#45;&gt;Node9 -->
<g id="edge8" class="edge"><title>Node8&#45;&gt;Node9</title>
<path fill="none" stroke="midnightblue" d="M417.726,-29C426.898,-29 436.863,-29 446.148,-29"/>
<polygon fill="midnightblue" stroke="midnightblue" points="446.264,-32.5001 456.264,-29 446.264,-25.5001 446.264,-32.5001"/>
</g>
</g>
</svg>
