<?xml version="1.0" encoding="UTF-8" standalone="no"?>
<!DOCTYPE svg PUBLIC "-//W3C//DTD SVG 1.1//EN"
 "http://www.w3.org/Graphics/SVG/1.1/DTD/svg11.dtd">
<!-- Generated by graphviz version 2.38.0 (20140413.2041)
 -->
<!-- Title: filtrenop Pages: 1 -->
<svg width="464pt" height="66pt"
 viewBox="0.00 0.00 464.00 66.00" xmlns="http://www.w3.org/2000/svg" xmlns:xlink="http://www.w3.org/1999/xlink">
<g id="graph0" class="graph" transform="scale(1 1) rotate(0) translate(4 62)">
<title>filtrenop</title>
<!-- Node1 -->
<g id="node1" class="node"><title>Node1</title>
<polygon fill="#bfbfbf" stroke="black" points="0,-19.5 0,-38.5 50,-38.5 50,-19.5 0,-19.5"/>
<text text-anchor="middle" x="25" y="-26.5" font-family="Helvetica,sans-Serif" font-size="10.00">filtrenop</text>
</g>
<!-- Node2 -->
<g id="node2" class="node"><title>Node2</title>
<g id="a_node2"><a xlink:href="partie1_8c.html#a74146446548f74f43dcabaeea7b55493" target="_top" xlink:title="Retour une matrice de dimension haut * larg. ">
<polygon fill="none" stroke="black" points="258,-38.5 258,-57.5 348,-57.5 348,-38.5 258,-38.5"/>
<text text-anchor="middle" x="303" y="-45.5" font-family="Helvetica,sans-Serif" font-size="10.00">allocationMatrice</text>
</a>
</g>
</g>
<!-- Node1&#45;&gt;Node2 -->
<g id="edge1" class="edge"><title>Node1&#45;&gt;Node2</title>
<path fill="none" stroke="midnightblue" d="M50.0104,-30.6529C93.8367,-33.6699 187.797,-40.1382 247.781,-44.2675"/>
<polygon fill="midnightblue" stroke="midnightblue" points="247.617,-47.7644 257.833,-44.9595 248.097,-40.7809 247.617,-47.7644"/>
</g>
<!-- Node3 -->
<g id="node3" class="node"><title>Node3</title>
<g id="a_node3"><a xlink:href="filtres_8c.html#a01c624b3c74736d629fc159e5e0838f4" target="_top" xlink:title="Effectue le lissage d&#39;une matrice NG avec un outil de taille variable. ">
<polygon fill="none" stroke="black" points="86,-0.5 86,-19.5 206,-19.5 206,-0.5 86,-0.5"/>
<text text-anchor="middle" x="146" y="-7.5" font-family="Helvetica,sans-Serif" font-size="10.00">medianGrisNxNVariable</text>
</a>
</g>
</g>
<!-- Node1&#45;&gt;Node3 -->
<g id="edge2" class="edge"><title>Node1&#45;&gt;Node3</title>
<path fill="none" stroke="midnightblue" d="M50.0814,-25.1551C57.6624,-23.9447 66.4494,-22.5417 75.5563,-21.0877"/>
<polygon fill="midnightblue" stroke="midnightblue" points="76.1987,-24.5295 85.5218,-19.4965 75.095,-17.617 76.1987,-24.5295"/>
</g>
<!-- Node3&#45;&gt;Node2 -->
<g id="edge3" class="edge"><title>Node3&#45;&gt;Node2</title>
<path fill="none" stroke="midnightblue" d="M186.113,-19.589C206.475,-24.5809 231.566,-30.7324 253.189,-36.0334"/>
<polygon fill="midnightblue" stroke="midnightblue" points="252.622,-39.4981 263.168,-38.4799 254.289,-32.6994 252.622,-39.4981"/>
</g>
<!-- Node4 -->
<g id="node4" class="node"><title>Node4</title>
<g id="a_node4"><a xlink:href="filtres_8c.html#a88bbf18f4831db47042c26c374f1fd58" target="_top" xlink:title="Calcul de la médiane pour une case NG avec un outil de taille variable. ">
<polygon fill="none" stroke="black" points="242,-0.5 242,-19.5 364,-19.5 364,-0.5 242,-0.5"/>
<text text-anchor="middle" x="303" y="-7.5" font-family="Helvetica,sans-Serif" font-size="10.00">medianGriscaseVariable</text>
</a>
</g>
</g>
<!-- Node3&#45;&gt;Node4 -->
<g id="edge4" class="edge"><title>Node3&#45;&gt;Node4</title>
<path fill="none" stroke="midnightblue" d="M206.041,-10C214.465,-10 223.198,-10 231.81,-10"/>
<polygon fill="midnightblue" stroke="midnightblue" points="231.838,-13.5001 241.838,-10 231.838,-6.5001 231.838,-13.5001"/>
</g>
<!-- Node5 -->
<g id="node5" class="node"><title>Node5</title>
<g id="a_node5"><a xlink:href="median_8c.html#a6f9266f5d5b1c83fdcd462d44e60f3e2" target="_top" xlink:title="tri un tableau et retourne la valeur médiane ">
<polygon fill="none" stroke="black" points="400,-0.5 400,-19.5 456,-19.5 456,-0.5 400,-0.5"/>
<text text-anchor="middle" x="428" y="-7.5" font-family="Helvetica,sans-Serif" font-size="10.00">tritableau</text>
</a>
</g>
</g>
<!-- Node4&#45;&gt;Node5 -->
<g id="edge5" class="edge"><title>Node4&#45;&gt;Node5</title>
<path fill="none" stroke="midnightblue" d="M364.059,-10C372.793,-10 381.567,-10 389.674,-10"/>
<polygon fill="midnightblue" stroke="midnightblue" points="389.888,-13.5001 399.888,-10 389.888,-6.5001 389.888,-13.5001"/>
</g>
</g>
</svg>
