<?xml version="1.0" encoding="UTF-8" standalone="no"?>
<!DOCTYPE svg PUBLIC "-//W3C//DTD SVG 1.1//EN"
 "http://www.w3.org/Graphics/SVG/1.1/DTD/svg11.dtd">
<!-- Generated by graphviz version 2.38.0 (20140413.2041)
 -->
<!-- Title: filtreGraPrewitt Pages: 1 -->
<svg width="315pt" height="104pt"
 viewBox="0.00 0.00 315.00 104.00" xmlns="http://www.w3.org/2000/svg" xmlns:xlink="http://www.w3.org/1999/xlink">
<g id="graph0" class="graph" transform="scale(1 1) rotate(0) translate(4 100)">
<title>filtreGraPrewitt</title>
<!-- Node1 -->
<g id="node1" class="node"><title>Node1</title>
<polygon fill="#bfbfbf" stroke="black" points="0,-57.5 0,-76.5 80,-76.5 80,-57.5 0,-57.5"/>
<text text-anchor="middle" x="40" y="-64.5" font-family="Helvetica,sans-Serif" font-size="10.00">filtreGraPrewitt</text>
</g>
<!-- Node2 -->
<g id="node2" class="node"><title>Node2</title>
<g id="a_node2"><a xlink:href="partie1_8c.html#a74146446548f74f43dcabaeea7b55493" target="_top" xlink:title="Retour une matrice de dimension haut * larg. ">
<polygon fill="none" stroke="black" points="217,-76.5 217,-95.5 307,-95.5 307,-76.5 217,-76.5"/>
<text text-anchor="middle" x="262" y="-83.5" font-family="Helvetica,sans-Serif" font-size="10.00">allocationMatrice</text>
</a>
</g>
</g>
<!-- Node1&#45;&gt;Node2 -->
<g id="edge1" class="edge"><title>Node1&#45;&gt;Node2</title>
<path fill="none" stroke="midnightblue" d="M80.0781,-70.3749C115.329,-73.4193 167.519,-77.9266 206.798,-81.3189"/>
<polygon fill="midnightblue" stroke="midnightblue" points="206.734,-84.8263 216.998,-82.1998 207.336,-77.8523 206.734,-84.8263"/>
</g>
<!-- Node3 -->
<g id="node3" class="node"><title>Node3</title>
<g id="a_node3"><a xlink:href="filtres_8c.html#ae5299087eb8255b465ad8db59f6e4839" target="_top" xlink:title="Effectue une convolution sur une image, à partir d&#39;un outil de dimension variable le boolen div indiq...">
<polygon fill="none" stroke="black" points="116,-38.5 116,-57.5 181,-57.5 181,-38.5 116,-38.5"/>
<text text-anchor="middle" x="148.5" y="-45.5" font-family="Helvetica,sans-Serif" font-size="10.00">convolution</text>
</a>
</g>
</g>
<!-- Node1&#45;&gt;Node3 -->
<g id="edge2" class="edge"><title>Node1&#45;&gt;Node3</title>
<path fill="none" stroke="midnightblue" d="M80.0519,-60.033C88.4085,-58.5421 97.2684,-56.9615 105.723,-55.4532"/>
<polygon fill="midnightblue" stroke="midnightblue" points="106.544,-58.862 115.774,-53.66 105.315,-51.9708 106.544,-58.862"/>
</g>
<!-- Node3&#45;&gt;Node2 -->
<g id="edge3" class="edge"><title>Node3&#45;&gt;Node2</title>
<path fill="none" stroke="midnightblue" d="M177.636,-57.589C191.502,-62.3144 208.416,-68.0789 223.376,-73.1774"/>
<polygon fill="midnightblue" stroke="midnightblue" points="222.278,-76.501 232.873,-76.4141 224.537,-69.8752 222.278,-76.501"/>
</g>
<!-- Node4 -->
<g id="node4" class="node"><title>Node4</title>
<g id="a_node4"><a xlink:href="filtres_8c.html#adf784ef535b95a1f87bcb466b44fb200" target="_top" xlink:title="Effectue une convolution sur une case d&#39;une image, à partir d&#39;un outil de dimension variable le boole...">
<polygon fill="none" stroke="black" points="218.5,-38.5 218.5,-57.5 305.5,-57.5 305.5,-38.5 218.5,-38.5"/>
<text text-anchor="middle" x="262" y="-45.5" font-family="Helvetica,sans-Serif" font-size="10.00">convolutionCase</text>
</a>
</g>
</g>
<!-- Node3&#45;&gt;Node4 -->
<g id="edge4" class="edge"><title>Node3&#45;&gt;Node4</title>
<path fill="none" stroke="midnightblue" d="M181.153,-48C189.664,-48 199.102,-48 208.422,-48"/>
<polygon fill="midnightblue" stroke="midnightblue" points="208.439,-51.5001 218.439,-48 208.439,-44.5001 208.439,-51.5001"/>
</g>
<!-- Node5 -->
<g id="node5" class="node"><title>Node5</title>
<g id="a_node5"><a xlink:href="partie1_8c.html#a106518d4a41c16e3a633d2963200b919" target="_top" xlink:title="Libération d&#39;une matrice. ">
<polygon fill="none" stroke="black" points="218,-0.5 218,-19.5 306,-19.5 306,-0.5 218,-0.5"/>
<text text-anchor="middle" x="262" y="-7.5" font-family="Helvetica,sans-Serif" font-size="10.00">liberationmatrice</text>
</a>
</g>
</g>
<!-- Node3&#45;&gt;Node5 -->
<g id="edge5" class="edge"><title>Node3&#45;&gt;Node5</title>
<path fill="none" stroke="midnightblue" d="M177.636,-38.411C191.502,-33.6856 208.416,-27.9211 223.376,-22.8226"/>
<polygon fill="midnightblue" stroke="midnightblue" points="224.537,-26.1248 232.873,-19.5859 222.278,-19.499 224.537,-26.1248"/>
</g>
</g>
</svg>
