<?xml version="1.0" encoding="UTF-8" standalone="no"?>
<!DOCTYPE svg PUBLIC "-//W3C//DTD SVG 1.1//EN"
 "http://www.w3.org/Graphics/SVG/1.1/DTD/svg11.dtd">
<!-- Generated by graphviz version 2.38.0 (20140413.2041)
 -->
<!-- Title: medianGriscase Pages: 1 -->
<svg width="290pt" height="28pt"
 viewBox="0.00 0.00 290.00 28.00" xmlns="http://www.w3.org/2000/svg" xmlns:xlink="http://www.w3.org/1999/xlink">
<g id="graph0" class="graph" transform="scale(1 1) rotate(0) translate(4 24)">
<title>medianGriscase</title>
<!-- Node1 -->
<g id="node1" class="node"><title>Node1</title>
<polygon fill="#bfbfbf" stroke="black" points="0,-0.5 0,-19.5 87,-19.5 87,-0.5 0,-0.5"/>
<text text-anchor="middle" x="43.5" y="-7.5" font-family="Helvetica,sans-Serif" font-size="10.00">medianGriscase</text>
</g>
<!-- Node2 -->
<g id="node2" class="node"><title>Node2</title>
<g id="a_node2"><a xlink:href="prototype_8h.html#a7bb93f34ab63a156302ff19299d7f3ae" target="_top" xlink:title="Effectue le lissage d&#39;une matrice NG. ">
<polygon fill="none" stroke="black" points="123,-0.5 123,-19.5 208,-19.5 208,-0.5 123,-0.5"/>
<text text-anchor="middle" x="165.5" y="-7.5" font-family="Helvetica,sans-Serif" font-size="10.00">medianGrisNxN</text>
</a>
</g>
</g>
<!-- Node1&#45;&gt;Node2 -->
<g id="edge1" class="edge"><title>Node1&#45;&gt;Node2</title>
<path fill="none" stroke="midnightblue" d="M97.3834,-10C105.894,-10 114.598,-10 122.798,-10"/>
<polygon fill="midnightblue" stroke="midnightblue" points="97.1454,-6.5001 87.1454,-10 97.1454,-13.5001 97.1454,-6.5001"/>
</g>
<!-- Node3 -->
<g id="node3" class="node"><title>Node3</title>
<g id="a_node3"><a xlink:href="main_8c.html#a0ddf1224851353fc92bfbff6f499fa97" target="_top" xlink:title="Main du programme. ">
<polygon fill="none" stroke="black" points="244,-0.5 244,-19.5 282,-19.5 282,-0.5 244,-0.5"/>
<text text-anchor="middle" x="263" y="-7.5" font-family="Helvetica,sans-Serif" font-size="10.00">main</text>
</a>
</g>
</g>
<!-- Node2&#45;&gt;Node3 -->
<g id="edge2" class="edge"><title>Node2&#45;&gt;Node3</title>
<path fill="none" stroke="midnightblue" d="M218.392,-10C227.486,-10 236.378,-10 243.735,-10"/>
<polygon fill="midnightblue" stroke="midnightblue" points="218.11,-6.5001 208.11,-10 218.11,-13.5001 218.11,-6.5001"/>
</g>
</g>
</svg>
