<?xml version="1.0" encoding="UTF-8" standalone="no"?>
<!DOCTYPE svg PUBLIC "-//W3C//DTD SVG 1.1//EN"
 "http://www.w3.org/Graphics/SVG/1.1/DTD/svg11.dtd">
<!-- Generated by graphviz version 2.38.0 (20140413.2041)
 -->
<!-- Title: tritableau Pages: 1 -->
<svg width="691pt" height="155pt"
 viewBox="0.00 0.00 691.00 155.33" xmlns="http://www.w3.org/2000/svg" xmlns:xlink="http://www.w3.org/1999/xlink">
<g id="graph0" class="graph" transform="scale(1 1) rotate(0) translate(4 151.33)">
<title>tritableau</title>
<!-- Node1 -->
<g id="node1" class="node"><title>Node1</title>
<polygon fill="#bfbfbf" stroke="black" points="0,-51.8298 0,-70.8298 56,-70.8298 56,-51.8298 0,-51.8298"/>
<text text-anchor="middle" x="28" y="-58.8298" font-family="Helvetica,sans-Serif" font-size="10.00">tritableau</text>
</g>
<!-- Node2 -->
<g id="node2" class="node"><title>Node2</title>
<g id="a_node2"><a xlink:href="prototype_8h.html#a88bbf18f4831db47042c26c374f1fd58" target="_top" xlink:title="Calcul de la médiane pour une case NG avec un outil de taille variable. ">
<polygon fill="none" stroke="black" points="92,-89.8298 92,-108.83 214,-108.83 214,-89.8298 92,-89.8298"/>
<text text-anchor="middle" x="153" y="-96.8298" font-family="Helvetica,sans-Serif" font-size="10.00">medianGriscaseVariable</text>
</a>
</g>
</g>
<!-- Node1&#45;&gt;Node2 -->
<g id="edge1" class="edge"><title>Node1&#45;&gt;Node2</title>
<path fill="none" stroke="midnightblue" d="M66.1711,-72.8136C83.6442,-78.2118 104.241,-84.575 120.877,-89.7148"/>
<polygon fill="midnightblue" stroke="midnightblue" points="66.8853,-69.3711 56.2977,-69.7633 64.819,-76.0592 66.8853,-69.3711"/>
</g>
<!-- Node7 -->
<g id="node7" class="node"><title>Node7</title>
<g id="a_node7"><a xlink:href="prototype_8h.html#a7db927593bdd67306470b9e7bc1ebb3f" target="_top" xlink:title="Calcul de la médiane pour une case NG. ">
<polygon fill="none" stroke="black" points="266.5,-51.8298 266.5,-70.8298 353.5,-70.8298 353.5,-51.8298 266.5,-51.8298"/>
<text text-anchor="middle" x="310" y="-58.8298" font-family="Helvetica,sans-Serif" font-size="10.00">medianGriscase</text>
</a>
</g>
</g>
<!-- Node1&#45;&gt;Node7 -->
<g id="edge6" class="edge"><title>Node1&#45;&gt;Node7</title>
<path fill="none" stroke="midnightblue" d="M66.1998,-61.3298C118.075,-61.3298 211.902,-61.3298 266.481,-61.3298"/>
<polygon fill="midnightblue" stroke="midnightblue" points="66.102,-57.8299 56.102,-61.3298 66.102,-64.8299 66.102,-57.8299"/>
</g>
<!-- Node9 -->
<g id="node9" class="node"><title>Node9</title>
<g id="a_node9"><a xlink:href="quaternaire_8c.html#a148b7bd50d305fad50ae008993a0fccb" target="_top" xlink:title="Calcul la valeur médiane d&#39;un carré NG. ">
<polygon fill="none" stroke="black" points="107,-13.8298 107,-32.8298 199,-32.8298 199,-13.8298 107,-13.8298"/>
<text text-anchor="middle" x="153" y="-20.8298" font-family="Helvetica,sans-Serif" font-size="10.00">valeurMedianeNG</text>
</a>
</g>
</g>
<!-- Node1&#45;&gt;Node9 -->
<g id="edge9" class="edge"><title>Node1&#45;&gt;Node9</title>
<path fill="none" stroke="midnightblue" d="M66.1711,-49.8461C83.6442,-44.4479 104.241,-38.0847 120.877,-32.9449"/>
<polygon fill="midnightblue" stroke="midnightblue" points="64.819,-46.6005 56.2977,-52.8964 66.8853,-53.2886 64.819,-46.6005"/>
</g>
<!-- Node3 -->
<g id="node3" class="node"><title>Node3</title>
<g id="a_node3"><a xlink:href="prototype_8h.html#a01c624b3c74736d629fc159e5e0838f4" target="_top" xlink:title="Effectue le lissage d&#39;une matrice NG avec un outil de taille variable. ">
<polygon fill="none" stroke="black" points="250,-89.8298 250,-108.83 370,-108.83 370,-89.8298 250,-89.8298"/>
<text text-anchor="middle" x="310" y="-96.8298" font-family="Helvetica,sans-Serif" font-size="10.00">medianGrisNxNVariable</text>
</a>
</g>
</g>
<!-- Node2&#45;&gt;Node3 -->
<g id="edge2" class="edge"><title>Node2&#45;&gt;Node3</title>
<path fill="none" stroke="midnightblue" d="M224.579,-99.3298C233.014,-99.3298 241.56,-99.3298 249.812,-99.3298"/>
<polygon fill="midnightblue" stroke="midnightblue" points="224.371,-95.8299 214.371,-99.3298 224.371,-102.83 224.371,-95.8299"/>
</g>
<!-- Node4 -->
<g id="node4" class="node"><title>Node4</title>
<g id="a_node4"><a xlink:href="prototype_8h.html#abbbcc759563e1b9cde1b08363ba74cb8" target="_top" xlink:title="Outil de test, permettant d&#39;effectuer un filtre avec un outil qui de devrait pas modifier l&#39;image...">
<polygon fill="none" stroke="black" points="428,-127.83 428,-146.83 478,-146.83 478,-127.83 428,-127.83"/>
<text text-anchor="middle" x="453" y="-134.83" font-family="Helvetica,sans-Serif" font-size="10.00">filtrenop</text>
</a>
</g>
</g>
<!-- Node3&#45;&gt;Node4 -->
<g id="edge3" class="edge"><title>Node3&#45;&gt;Node4</title>
<path fill="none" stroke="midnightblue" d="M356.468,-111.584C380.253,-117.994 408.406,-125.581 427.961,-130.851"/>
<polygon fill="midnightblue" stroke="midnightblue" points="357.147,-108.142 346.58,-108.919 355.325,-114.901 357.147,-108.142"/>
</g>
<!-- Node5 -->
<g id="node5" class="node"><title>Node5</title>
<g id="a_node5"><a xlink:href="prototype_8h.html#a66c8b1f89976eba5e821f5c386572d34" target="_top" xlink:title="Outil de filtrage médian. ">
<polygon fill="none" stroke="black" points="539.5,-89.8298 539.5,-108.83 605.5,-108.83 605.5,-89.8298 539.5,-89.8298"/>
<text text-anchor="middle" x="572.5" y="-96.8298" font-family="Helvetica,sans-Serif" font-size="10.00">filtreMedian</text>
</a>
</g>
</g>
<!-- Node3&#45;&gt;Node5 -->
<g id="edge4" class="edge"><title>Node3&#45;&gt;Node5</title>
<path fill="none" stroke="midnightblue" d="M380.181,-99.3298C431.692,-99.3298 499.675,-99.3298 539.192,-99.3298"/>
<polygon fill="midnightblue" stroke="midnightblue" points="380.112,-95.8299 370.111,-99.3298 380.111,-102.83 380.112,-95.8299"/>
</g>
<!-- Node6 -->
<g id="node6" class="node"><title>Node6</title>
<g id="a_node6"><a xlink:href="main_8c.html#a0ddf1224851353fc92bfbff6f499fa97" target="_top" xlink:title="Main du programme. ">
<polygon fill="none" stroke="black" points="645,-51.8298 645,-70.8298 683,-70.8298 683,-51.8298 645,-51.8298"/>
<text text-anchor="middle" x="664" y="-58.8298" font-family="Helvetica,sans-Serif" font-size="10.00">main</text>
</a>
</g>
</g>
<!-- Node5&#45;&gt;Node6 -->
<g id="edge5" class="edge"><title>Node5&#45;&gt;Node6</title>
<path fill="none" stroke="midnightblue" d="M605.387,-85.7914C618.665,-80.1536 633.595,-73.8147 644.929,-69.0026"/>
<polygon fill="midnightblue" stroke="midnightblue" points="603.921,-82.611 596.085,-89.7408 606.657,-89.0543 603.921,-82.611"/>
</g>
<!-- Node8 -->
<g id="node8" class="node"><title>Node8</title>
<g id="a_node8"><a xlink:href="prototype_8h.html#a7bb93f34ab63a156302ff19299d7f3ae" target="_top" xlink:title="Effectue le lissage d&#39;une matrice NG. ">
<polygon fill="none" stroke="black" points="410.5,-51.8298 410.5,-70.8298 495.5,-70.8298 495.5,-51.8298 410.5,-51.8298"/>
<text text-anchor="middle" x="453" y="-58.8298" font-family="Helvetica,sans-Serif" font-size="10.00">medianGrisNxN</text>
</a>
</g>
</g>
<!-- Node7&#45;&gt;Node8 -->
<g id="edge7" class="edge"><title>Node7&#45;&gt;Node8</title>
<path fill="none" stroke="midnightblue" d="M364.074,-61.3298C379.403,-61.3298 395.905,-61.3298 410.427,-61.3298"/>
<polygon fill="midnightblue" stroke="midnightblue" points="363.687,-57.8299 353.687,-61.3298 363.687,-64.8299 363.687,-57.8299"/>
</g>
<!-- Node8&#45;&gt;Node6 -->
<g id="edge8" class="edge"><title>Node8&#45;&gt;Node6</title>
<path fill="none" stroke="midnightblue" d="M505.774,-61.3298C551.057,-61.3298 614.239,-61.3298 644.89,-61.3298"/>
<polygon fill="midnightblue" stroke="midnightblue" points="505.542,-57.8299 495.542,-61.3298 505.542,-64.8299 505.542,-57.8299"/>
</g>
<!-- Node10 -->
<g id="node10" class="node"><title>Node10</title>
<g id="a_node10"><a xlink:href="quaternaire_8c.html#a187735c36c9b388930fdeae788f9d4d3" target="_top" xlink:title="Vérifie si le carré est homogène NG. ">
<polygon fill="none" stroke="black" points="260.5,-13.8298 260.5,-32.8298 359.5,-32.8298 359.5,-13.8298 260.5,-13.8298"/>
<text text-anchor="middle" x="310" y="-20.8298" font-family="Helvetica,sans-Serif" font-size="10.00">carreHomogeneNG</text>
</a>
</g>
</g>
<!-- Node9&#45;&gt;Node10 -->
<g id="edge10" class="edge"><title>Node9&#45;&gt;Node10</title>
<path fill="none" stroke="midnightblue" d="M209.409,-23.3298C226.086,-23.3298 244.252,-23.3298 260.448,-23.3298"/>
<polygon fill="midnightblue" stroke="midnightblue" points="209.249,-19.8299 199.249,-23.3298 209.249,-26.8299 209.249,-19.8299"/>
</g>
<!-- Node11 -->
<g id="node11" class="node"><title>Node11</title>
<g id="a_node11"><a xlink:href="quaternaire_8c.html#a008a2eb8c5586e1a49dac2e6f37bd2d1" target="_top" xlink:title="Création d&#39;un nœud de l&#39;arbre quaternaire NG. ">
<polygon fill="none" stroke="black" points="406,-13.8298 406,-32.8298 500,-32.8298 500,-13.8298 406,-13.8298"/>
<text text-anchor="middle" x="453" y="-20.8298" font-family="Helvetica,sans-Serif" font-size="10.00">creeationArbreNG</text>
</a>
</g>
</g>
<!-- Node9&#45;&gt;Node11 -->
<g id="edge14" class="edge"><title>Node9&#45;&gt;Node11</title>
<path fill="none" stroke="midnightblue" d="M203.056,-11.7049C218.035,-8.67463 234.613,-5.8379 250,-4.32984 303.079,0.872314 317.012,1.72876 370,-4.32984 386.261,-6.1891 403.989,-10.0582 418.788,-13.8227"/>
<polygon fill="midnightblue" stroke="midnightblue" points="202.045,-8.34079 192.977,-13.8197 203.482,-15.1916 202.045,-8.34079"/>
</g>
<!-- Node10&#45;&gt;Node11 -->
<g id="edge11" class="edge"><title>Node10&#45;&gt;Node11</title>
<path fill="none" stroke="midnightblue" d="M369.531,-23.3298C381.618,-23.3298 394.188,-23.3298 405.764,-23.3298"/>
<polygon fill="midnightblue" stroke="midnightblue" points="369.524,-19.8299 359.524,-23.3298 369.524,-26.8299 369.524,-19.8299"/>
</g>
<!-- Node12 -->
<g id="node12" class="node"><title>Node12</title>
<g id="a_node12"><a xlink:href="quaternaire_8c.html#a80c7e96deac0699503dec245e2131975" target="_top" xlink:title="fonction d&#39;appel de création de l&#39;arbre NG ">
<polygon fill="none" stroke="black" points="536,-13.8298 536,-32.8298 609,-32.8298 609,-13.8298 536,-13.8298"/>
<text text-anchor="middle" x="572.5" y="-20.8298" font-family="Helvetica,sans-Serif" font-size="10.00">creeArbreNG</text>
</a>
</g>
</g>
<!-- Node11&#45;&gt;Node12 -->
<g id="edge12" class="edge"><title>Node11&#45;&gt;Node12</title>
<path fill="none" stroke="midnightblue" d="M510.208,-23.3298C518.885,-23.3298 527.636,-23.3298 535.703,-23.3298"/>
<polygon fill="midnightblue" stroke="midnightblue" points="510.102,-19.8299 500.102,-23.3298 510.102,-26.8299 510.102,-19.8299"/>
</g>
<!-- Node12&#45;&gt;Node6 -->
<g id="edge13" class="edge"><title>Node12&#45;&gt;Node6</title>
<path fill="none" stroke="midnightblue" d="M605.387,-36.8683C618.665,-42.5061 633.595,-48.845 644.929,-53.6571"/>
<polygon fill="midnightblue" stroke="midnightblue" points="606.657,-33.6054 596.085,-32.9188 603.921,-40.0487 606.657,-33.6054"/>
</g>
</g>
</svg>
