<?xml version="1.0" encoding="UTF-8" standalone="no"?>
<!DOCTYPE svg PUBLIC "-//W3C//DTD SVG 1.1//EN"
 "http://www.w3.org/Graphics/SVG/1.1/DTD/svg11.dtd">
<!-- Generated by graphviz version 2.38.0 (20140413.2041)
 -->
<!-- Title: negatifImageNG Pages: 1 -->
<svg width="296pt" height="28pt"
 viewBox="0.00 0.00 296.00 28.00" xmlns="http://www.w3.org/2000/svg" xmlns:xlink="http://www.w3.org/1999/xlink">
<g id="graph0" class="graph" transform="scale(1 1) rotate(0) translate(4 24)">
<title>negatifImageNG</title>
<!-- Node1 -->
<g id="node1" class="node"><title>Node1</title>
<polygon fill="#bfbfbf" stroke="black" points="0,-0.5 0,-19.5 86,-19.5 86,-0.5 0,-0.5"/>
<text text-anchor="middle" x="43" y="-7.5" font-family="Helvetica,sans-Serif" font-size="10.00">negatifImageNG</text>
</g>
<!-- Node2 -->
<g id="node2" class="node"><title>Node2</title>
<g id="a_node2"><a xlink:href="prototype_8h.html#a01267e9e283e046820857af7c1044fcb" target="_top" xlink:title="Fonction d&#39;appel du calcul distance. ">
<polygon fill="none" stroke="black" points="122,-0.5 122,-19.5 214,-19.5 214,-0.5 122,-0.5"/>
<text text-anchor="middle" x="168" y="-7.5" font-family="Helvetica,sans-Serif" font-size="10.00">fctCalculDistance</text>
</a>
</g>
</g>
<!-- Node1&#45;&gt;Node2 -->
<g id="edge1" class="edge"><title>Node1&#45;&gt;Node2</title>
<path fill="none" stroke="midnightblue" d="M96.4139,-10C104.811,-10 113.438,-10 121.652,-10"/>
<polygon fill="midnightblue" stroke="midnightblue" points="96.3297,-6.5001 86.3296,-10 96.3296,-13.5001 96.3297,-6.5001"/>
</g>
<!-- Node3 -->
<g id="node3" class="node"><title>Node3</title>
<g id="a_node3"><a xlink:href="main_8c.html#a0ddf1224851353fc92bfbff6f499fa97" target="_top" xlink:title="Main du programme. ">
<polygon fill="none" stroke="black" points="250,-0.5 250,-19.5 288,-19.5 288,-0.5 250,-0.5"/>
<text text-anchor="middle" x="269" y="-7.5" font-family="Helvetica,sans-Serif" font-size="10.00">main</text>
</a>
</g>
</g>
<!-- Node2&#45;&gt;Node3 -->
<g id="edge2" class="edge"><title>Node2&#45;&gt;Node3</title>
<path fill="none" stroke="midnightblue" d="M224.251,-10C233.514,-10 242.506,-10 249.903,-10"/>
<polygon fill="midnightblue" stroke="midnightblue" points="224.154,-6.5001 214.154,-10 224.154,-13.5001 224.154,-6.5001"/>
</g>
</g>
</svg>
