<?xml version="1.0" encoding="UTF-8" standalone="no"?>
<!DOCTYPE svg PUBLIC "-//W3C//DTD SVG 1.1//EN"
 "http://www.w3.org/Graphics/SVG/1.1/DTD/svg11.dtd">
<!-- Generated by graphviz version 2.38.0 (20140413.2041)
 -->
<!-- Title: allocationMatrice Pages: 1 -->
<svg width="581pt" height="787pt"
 viewBox="0.00 0.00 581.00 786.73" xmlns="http://www.w3.org/2000/svg" xmlns:xlink="http://www.w3.org/1999/xlink">
<g id="graph0" class="graph" transform="scale(1 1) rotate(0) translate(4 782.734)">
<title>allocationMatrice</title>
<!-- Node1 -->
<g id="node1" class="node"><title>Node1</title>
<polygon fill="#bfbfbf" stroke="black" points="0,-380.5 0,-399.5 90,-399.5 90,-380.5 0,-380.5"/>
<text text-anchor="middle" x="45" y="-387.5" font-family="Helvetica,sans-Serif" font-size="10.00">allocationMatrice</text>
</g>
<!-- Node2 -->
<g id="node2" class="node"><title>Node2</title>
<g id="a_node2"><a xlink:href="prototype_8h.html#a6666598676080036d2f11e3fad54f2b0" target="_top" xlink:title="Copie une matrice. ">
<polygon fill="none" stroke="black" points="150,-722.5 150,-741.5 222,-741.5 222,-722.5 150,-722.5"/>
<text text-anchor="middle" x="186" y="-729.5" font-family="Helvetica,sans-Serif" font-size="10.00">copieMatrice</text>
</a>
</g>
</g>
<!-- Node1&#45;&gt;Node2 -->
<g id="edge1" class="edge"><title>Node1&#45;&gt;Node2</title>
<path fill="none" stroke="midnightblue" d="M45.1938,-409.77C44.0521,-464.271 48.2549,-618.542 126,-708 132.238,-715.178 140.943,-720.242 149.754,-723.802"/>
<polygon fill="midnightblue" stroke="midnightblue" points="48.694,-409.813 45.494,-399.713 41.6971,-409.604 48.694,-409.813"/>
</g>
<!-- Node5 -->
<g id="node5" class="node"><title>Node5</title>
<g id="a_node5"><a xlink:href="main_8c.html#a0ddf1224851353fc92bfbff6f499fa97" target="_top" xlink:title="Main du programme. ">
<polygon fill="none" stroke="black" points="535,-380.5 535,-399.5 573,-399.5 573,-380.5 535,-380.5"/>
<text text-anchor="middle" x="554" y="-387.5" font-family="Helvetica,sans-Serif" font-size="10.00">main</text>
</a>
</g>
</g>
<!-- Node1&#45;&gt;Node5 -->
<g id="edge36" class="edge"><title>Node1&#45;&gt;Node5</title>
<path fill="none" stroke="midnightblue" d="M47.2571,-410.047C52.0637,-479.434 71.8134,-707.507 126,-751 186.472,-799.538 437.923,-780.265 499,-722 547.063,-676.149 552.347,-449.598 552.928,-399.723"/>
<polygon fill="midnightblue" stroke="midnightblue" points="50.7227,-409.411 46.5691,-399.665 43.738,-409.874 50.7227,-409.411"/>
</g>
<!-- Node6 -->
<g id="node6" class="node"><title>Node6</title>
<g id="a_node6"><a xlink:href="prototype_8h.html#ae5299087eb8255b465ad8db59f6e4839" target="_top" xlink:title="Effectue une convolution sur une image, à partir d&#39;un outil de dimension variable le boolen div indiq...">
<polygon fill="none" stroke="black" points="153.5,-570.5 153.5,-589.5 218.5,-589.5 218.5,-570.5 153.5,-570.5"/>
<text text-anchor="middle" x="186" y="-577.5" font-family="Helvetica,sans-Serif" font-size="10.00">convolution</text>
</a>
</g>
</g>
<!-- Node1&#45;&gt;Node6 -->
<g id="edge5" class="edge"><title>Node1&#45;&gt;Node6</title>
<path fill="none" stroke="midnightblue" d="M50.56,-409.832C59.4035,-444.099 82.0018,-514.679 126,-556 133.658,-563.192 143.757,-568.351 153.431,-571.996"/>
<polygon fill="midnightblue" stroke="midnightblue" points="53.8563,-408.578 48.0772,-399.698 47.0574,-410.244 53.8563,-408.578"/>
</g>
<!-- Node7 -->
<g id="node7" class="node"><title>Node7</title>
<g id="a_node7"><a xlink:href="prototype_8h.html#a19db973ff01975a8fb9d826104b72b63" target="_top" xlink:title="Outil de filtrage pour une convolution, pour effectuer une pondération moyenneur. ...">
<polygon fill="none" stroke="black" points="287,-646.5 287,-665.5 363,-665.5 363,-646.5 287,-646.5"/>
<text text-anchor="middle" x="325" y="-653.5" font-family="Helvetica,sans-Serif" font-size="10.00">filtrePondMoy</text>
</a>
</g>
</g>
<!-- Node1&#45;&gt;Node7 -->
<g id="edge21" class="edge"><title>Node1&#45;&gt;Node7</title>
<path fill="none" stroke="midnightblue" d="M45.2721,-409.761C44.6584,-459.051 50.6908,-587.65 126,-646 172.253,-681.837 244.39,-674.488 287.637,-665.506"/>
<polygon fill="midnightblue" stroke="midnightblue" points="48.777,-409.593 45.5156,-399.513 41.779,-409.427 48.777,-409.593"/>
</g>
<!-- Node8 -->
<g id="node8" class="node"><title>Node8</title>
<g id="a_node8"><a xlink:href="prototype_8h.html#ab30046d2ef364b8b529041e0f143228b" target="_top" xlink:title="Outil de filtrage pour une convolution, pour effectuer une pondération de Gauss. ">
<polygon fill="none" stroke="black" points="282,-608.5 282,-627.5 368,-627.5 368,-608.5 282,-608.5"/>
<text text-anchor="middle" x="325" y="-615.5" font-family="Helvetica,sans-Serif" font-size="10.00">filtrePondGauss</text>
</a>
</g>
</g>
<!-- Node1&#45;&gt;Node8 -->
<g id="edge22" class="edge"><title>Node1&#45;&gt;Node8</title>
<path fill="none" stroke="midnightblue" d="M45.8243,-410.02C46.6372,-456.6 55.962,-572.066 126,-622 177.372,-658.626 256.829,-640.69 297.714,-627.593"/>
<polygon fill="midnightblue" stroke="midnightblue" points="49.3229,-409.725 45.7693,-399.744 42.323,-409.762 49.3229,-409.725"/>
</g>
<!-- Node9 -->
<g id="node9" class="node"><title>Node9</title>
<g id="a_node9"><a xlink:href="prototype_8h.html#a31b55f7a91e23cbfe20cf35cec74c64c" target="_top" xlink:title="Outil de filtrage pour une convolution, pour effectuer un gradient de Roberts. ">
<polygon fill="none" stroke="black" points="283,-570.5 283,-589.5 367,-589.5 367,-570.5 283,-570.5"/>
<text text-anchor="middle" x="325" y="-577.5" font-family="Helvetica,sans-Serif" font-size="10.00">filtreGraRoberts</text>
</a>
</g>
</g>
<!-- Node1&#45;&gt;Node9 -->
<g id="edge23" class="edge"><title>Node1&#45;&gt;Node9</title>
<path fill="none" stroke="midnightblue" d="M46.6507,-409.823C49.2679,-452.99 62.2392,-555.134 126,-599 181.051,-636.874 266.002,-606.638 304.201,-589.617"/>
<polygon fill="midnightblue" stroke="midnightblue" points="50.1426,-409.568 46.1682,-399.747 43.1506,-409.903 50.1426,-409.568"/>
</g>
<!-- Node10 -->
<g id="node10" class="node"><title>Node10</title>
<g id="a_node10"><a xlink:href="prototype_8h.html#acb7c60914c3fdac39f1dad89e0bacf86" target="_top" xlink:title="Outil de filtrage pour une convolution, pour effectuer une pondération de Prewitt. ">
<polygon fill="none" stroke="black" points="285,-532.5 285,-551.5 365,-551.5 365,-532.5 285,-532.5"/>
<text text-anchor="middle" x="325" y="-539.5" font-family="Helvetica,sans-Serif" font-size="10.00">filtreGraPrewitt</text>
</a>
</g>
</g>
<!-- Node1&#45;&gt;Node10 -->
<g id="edge24" class="edge"><title>Node1&#45;&gt;Node10</title>
<path fill="none" stroke="midnightblue" d="M54.922,-409.082C67.3254,-433.424 92.1322,-474.998 126,-497 174.628,-528.592 242.517,-538.164 284.835,-540.971"/>
<polygon fill="midnightblue" stroke="midnightblue" points="57.9214,-407.249 50.3754,-399.812 51.6366,-410.331 57.9214,-407.249"/>
</g>
<!-- Node11 -->
<g id="node11" class="node"><title>Node11</title>
<g id="a_node11"><a xlink:href="prototype_8h.html#a0c820e8e1fe7ece1952da9541bc1e7ef" target="_top" xlink:title="Outil de filtrage pour une convolution, pour effectuer une pondération de Sobel. ">
<polygon fill="none" stroke="black" points="287.5,-494.5 287.5,-513.5 362.5,-513.5 362.5,-494.5 287.5,-494.5"/>
<text text-anchor="middle" x="325" y="-501.5" font-family="Helvetica,sans-Serif" font-size="10.00">filtreGraSobel</text>
</a>
</g>
</g>
<!-- Node1&#45;&gt;Node11 -->
<g id="edge25" class="edge"><title>Node1&#45;&gt;Node11</title>
<path fill="none" stroke="midnightblue" d="M59.0952,-407.598C73.4461,-425.525 98.1634,-452.666 126,-467 177.765,-493.655 245.951,-501.289 287.3,-503.369"/>
<polygon fill="midnightblue" stroke="midnightblue" points="61.8108,-405.389 52.9147,-399.635 56.2807,-409.681 61.8108,-405.389"/>
</g>
<!-- Node12 -->
<g id="node12" class="node"><title>Node12</title>
<g id="a_node12"><a xlink:href="prototype_8h.html#a695691e0c840ff86d9c9f68efe9f8a2e" target="_top" xlink:title="Outil de filtrage pour une convolution, pour effectuer un Laplacien. ">
<polygon fill="none" stroke="black" points="287,-456.5 287,-475.5 363,-475.5 363,-456.5 287,-456.5"/>
<text text-anchor="middle" x="325" y="-463.5" font-family="Helvetica,sans-Serif" font-size="10.00">filtreLaplacien</text>
</a>
</g>
</g>
<!-- Node1&#45;&gt;Node12 -->
<g id="edge26" class="edge"><title>Node1&#45;&gt;Node12</title>
<path fill="none" stroke="midnightblue" d="M65.201,-406.112C80.6159,-418.107 103.354,-433.772 126,-442 179.537,-461.451 246.026,-465.814 286.716,-466.448"/>
<polygon fill="midnightblue" stroke="midnightblue" points="67.0184,-403.083 57.0273,-399.558 62.6393,-408.545 67.0184,-403.083"/>
</g>
<!-- Node13 -->
<g id="node13" class="node"><title>Node13</title>
<g id="a_node13"><a xlink:href="prototype_8h.html#abbbcc759563e1b9cde1b08363ba74cb8" target="_top" xlink:title="Outil de test, permettant d&#39;effectuer un filtre avec un outil qui de devrait pas modifier l&#39;image...">
<polygon fill="none" stroke="black" points="300,-342.5 300,-361.5 350,-361.5 350,-342.5 300,-342.5"/>
<text text-anchor="middle" x="325" y="-349.5" font-family="Helvetica,sans-Serif" font-size="10.00">filtrenop</text>
</a>
</g>
</g>
<!-- Node1&#45;&gt;Node13 -->
<g id="edge18" class="edge"><title>Node1&#45;&gt;Node13</title>
<path fill="none" stroke="midnightblue" d="M62.6947,-373.297C77.7752,-359.48 101.331,-340.89 126,-333 186.356,-313.697 261.918,-331.829 299.876,-343.647"/>
<polygon fill="midnightblue" stroke="midnightblue" points="60.0743,-370.959 55.2353,-380.384 64.8958,-376.034 60.0743,-370.959"/>
</g>
<!-- Node14 -->
<g id="node14" class="node"><title>Node14</title>
<g id="a_node14"><a xlink:href="prototype_8h.html#a66c8b1f89976eba5e821f5c386572d34" target="_top" xlink:title="Outil de filtrage médian. ">
<polygon fill="none" stroke="black" points="292,-380.5 292,-399.5 358,-399.5 358,-380.5 292,-380.5"/>
<text text-anchor="middle" x="325" y="-387.5" font-family="Helvetica,sans-Serif" font-size="10.00">filtreMedian</text>
</a>
</g>
</g>
<!-- Node1&#45;&gt;Node14 -->
<g id="edge19" class="edge"><title>Node1&#45;&gt;Node14</title>
<path fill="none" stroke="midnightblue" d="M100.318,-390C157.312,-390 244.995,-390 291.856,-390"/>
<polygon fill="midnightblue" stroke="midnightblue" points="100.05,-386.5 90.0499,-390 100.05,-393.5 100.05,-386.5"/>
</g>
<!-- Node15 -->
<g id="node15" class="node"><title>Node15</title>
<g id="a_node15"><a xlink:href="prototype_8h.html#a01c624b3c74736d629fc159e5e0838f4" target="_top" xlink:title="Effectue le lissage d&#39;une matrice NG avec un outil de taille variable. ">
<polygon fill="none" stroke="black" points="126,-342.5 126,-361.5 246,-361.5 246,-342.5 126,-342.5"/>
<text text-anchor="middle" x="186" y="-349.5" font-family="Helvetica,sans-Serif" font-size="10.00">medianGrisNxNVariable</text>
</a>
</g>
</g>
<!-- Node1&#45;&gt;Node15 -->
<g id="edge27" class="edge"><title>Node1&#45;&gt;Node15</title>
<path fill="none" stroke="midnightblue" d="M90.7953,-377.754C109.955,-372.516 131.994,-366.491 149.936,-361.586"/>
<polygon fill="midnightblue" stroke="midnightblue" points="89.7986,-374.398 81.0756,-380.411 91.6446,-381.15 89.7986,-374.398"/>
</g>
<!-- Node16 -->
<g id="node16" class="node"><title>Node16</title>
<g id="a_node16"><a xlink:href="prototype_8h.html#a6f751ddca5503443e6f1667ae4f1895c" target="_top" xlink:title="Effectue une dilatation sur une image avec un outil de dimension variable. ">
<polygon fill="none" stroke="black" points="414,-418.5 414,-437.5 489,-437.5 489,-418.5 414,-418.5"/>
<text text-anchor="middle" x="451.5" y="-425.5" font-family="Helvetica,sans-Serif" font-size="10.00">filtreDilatation</text>
</a>
</g>
</g>
<!-- Node1&#45;&gt;Node16 -->
<g id="edge30" class="edge"><title>Node1&#45;&gt;Node16</title>
<path fill="none" stroke="midnightblue" d="M100.261,-400.244C108.851,-401.65 117.653,-402.964 126,-404 229.992,-416.912 353.658,-423.713 413.885,-426.48"/>
<polygon fill="midnightblue" stroke="midnightblue" points="100.757,-396.779 90.3134,-398.564 99.5904,-403.681 100.757,-396.779"/>
</g>
<!-- Node17 -->
<g id="node17" class="node"><title>Node17</title>
<g id="a_node17"><a xlink:href="prototype_8h.html#aefec5606a1765b0f347de969a995d551" target="_top" xlink:title="Effectue une érosion sur une image avec un outil de dimension variable. ">
<polygon fill="none" stroke="black" points="417.5,-342.5 417.5,-361.5 485.5,-361.5 485.5,-342.5 417.5,-342.5"/>
<text text-anchor="middle" x="451.5" y="-349.5" font-family="Helvetica,sans-Serif" font-size="10.00">filtreErosion</text>
</a>
</g>
</g>
<!-- Node1&#45;&gt;Node17 -->
<g id="edge32" class="edge"><title>Node1&#45;&gt;Node17</title>
<path fill="none" stroke="midnightblue" d="M59.626,-372.263C73.9904,-355.162 98.3424,-330.392 126,-320 231.986,-280.177 370.428,-322.109 425.925,-342.359"/>
<polygon fill="midnightblue" stroke="midnightblue" points="56.6222,-370.412 53.0602,-380.39 62.0672,-374.811 56.6222,-370.412"/>
</g>
<!-- Node18 -->
<g id="node18" class="node"><title>Node18</title>
<g id="a_node18"><a xlink:href="prototype_8h.html#adc93fe086109c5c8b7c2c4f3848b0c96" target="_top" xlink:title="Effectue un gradient sur une image avec un outil de dimension variable. ">
<polygon fill="none" stroke="black" points="416,-304.5 416,-323.5 487,-323.5 487,-304.5 416,-304.5"/>
<text text-anchor="middle" x="451.5" y="-311.5" font-family="Helvetica,sans-Serif" font-size="10.00">filtreGradient</text>
</a>
</g>
</g>
<!-- Node1&#45;&gt;Node18 -->
<g id="edge34" class="edge"><title>Node1&#45;&gt;Node18</title>
<path fill="none" stroke="midnightblue" d="M55.6273,-371.702C68.367,-349.7 93.1104,-313.878 126,-299 226.713,-253.441 363.425,-286.437 421.977,-304.406"/>
<polygon fill="midnightblue" stroke="midnightblue" points="52.5653,-370.007 50.7727,-380.449 58.6858,-373.404 52.5653,-370.007"/>
</g>
<!-- Node19 -->
<g id="node19" class="node"><title>Node19</title>
<g id="a_node19"><a xlink:href="prototype_8h.html#a549b6bbc6d75e93a55e9074a52b5ae2e" target="_top" xlink:title="Allocation de trois matrices. ">
<polygon fill="none" stroke="black" points="137,-0.5 137,-19.5 235,-19.5 235,-0.5 137,-0.5"/>
<text text-anchor="middle" x="186" y="-7.5" font-family="Helvetica,sans-Serif" font-size="10.00">triallocationMatrice</text>
</a>
</g>
</g>
<!-- Node1&#45;&gt;Node19 -->
<g id="edge37" class="edge"><title>Node1&#45;&gt;Node19</title>
<path fill="none" stroke="midnightblue" d="M47.8297,-370.072C54.4585,-302.028 79.3194,-80.261 126,-29 129.55,-25.1014 133.903,-21.9991 138.621,-19.5311"/>
<polygon fill="midnightblue" stroke="midnightblue" points="44.322,-369.989 46.8616,-380.275 51.2907,-370.65 44.322,-369.989"/>
</g>
<!-- Node20 -->
<g id="node20" class="node"><title>Node20</title>
<g id="a_node20"><a xlink:href="quaternaire_8c.html#a667b0f5c952983b2dc4a0f2327106eb1" target="_top" xlink:title="Fonction d&#39;appel de création une matrice d&#39;un arbre quaternaire NB. ">
<polygon fill="none" stroke="black" points="411,-266.5 411,-285.5 492,-285.5 492,-266.5 411,-266.5"/>
<text text-anchor="middle" x="451.5" y="-273.5" font-family="Helvetica,sans-Serif" font-size="10.00">creeMatriceNB</text>
</a>
</g>
</g>
<!-- Node1&#45;&gt;Node20 -->
<g id="edge38" class="edge"><title>Node1&#45;&gt;Node20</title>
<path fill="none" stroke="midnightblue" d="M52.3549,-370.747C62.7353,-342.839 86.2559,-292.172 126,-271 222.97,-219.345 360.492,-249.284 420.524,-266.485"/>
<polygon fill="midnightblue" stroke="midnightblue" points="49.0393,-369.626 49.0134,-380.22 55.6407,-371.954 49.0393,-369.626"/>
</g>
<!-- Node21 -->
<g id="node21" class="node"><title>Node21</title>
<g id="a_node21"><a xlink:href="quaternaire_8c.html#a0fa6731f07927f703cf1c488d79c2cb6" target="_top" xlink:title="Fonction d&#39;appel de conversion arbre &#45;&gt; matrice NG. ">
<polygon fill="none" stroke="black" points="145,-152.5 145,-171.5 227,-171.5 227,-152.5 145,-152.5"/>
<text text-anchor="middle" x="186" y="-159.5" font-family="Helvetica,sans-Serif" font-size="10.00">creeMatriceNG</text>
</a>
</g>
</g>
<!-- Node1&#45;&gt;Node21 -->
<g id="edge40" class="edge"><title>Node1&#45;&gt;Node21</title>
<path fill="none" stroke="midnightblue" d="M48.4803,-370.441C54.5271,-330.548 73.5814,-239.084 126,-186 132.216,-179.705 140.308,-175.001 148.498,-171.508"/>
<polygon fill="midnightblue" stroke="midnightblue" points="44.9985,-370.068 47.0764,-380.457 51.9308,-371.039 44.9985,-370.068"/>
</g>
<!-- Node24 -->
<g id="node24" class="node"><title>Node24</title>
<g id="a_node24"><a xlink:href="transfnb_8c.html#a8d5b8c5b7c0b8859020c2661e8f99fa8" target="_top" xlink:title="Effectue un échantillonnage sur l&#39;image n&amp;b. ">
<polygon fill="none" stroke="black" points="404,-114.5 404,-133.5 499,-133.5 499,-114.5 404,-114.5"/>
<text text-anchor="middle" x="451.5" y="-121.5" font-family="Helvetica,sans-Serif" font-size="10.00">echantillonnagenb</text>
</a>
</g>
</g>
<!-- Node1&#45;&gt;Node24 -->
<g id="edge46" class="edge"><title>Node1&#45;&gt;Node24</title>
<path fill="none" stroke="midnightblue" d="M45.5565,-370.296C45.6678,-322.296 53.3637,-199.144 126,-143 168.138,-110.429 324.543,-115.559 403.809,-120.502"/>
<polygon fill="midnightblue" stroke="midnightblue" points="42.0568,-370.35 45.6464,-380.318 49.0565,-370.287 42.0568,-370.35"/>
</g>
<!-- Node25 -->
<g id="node25" class="node"><title>Node25</title>
<g id="a_node25"><a xlink:href="transfnb_8c.html#a2fb642b9bb6a2795e2ae720d8560a5b4" target="_top" xlink:title="Effectue une quantification sur l&#39;image n&amp;b avec en niveau en paramètre. ">
<polygon fill="none" stroke="black" points="144,-76.5 144,-95.5 228,-95.5 228,-76.5 144,-76.5"/>
<text text-anchor="middle" x="186" y="-83.5" font-family="Helvetica,sans-Serif" font-size="10.00">quantificationnb</text>
</a>
</g>
</g>
<!-- Node1&#45;&gt;Node25 -->
<g id="edge48" class="edge"><title>Node1&#45;&gt;Node25</title>
<path fill="none" stroke="midnightblue" d="M46.0178,-370.295C47.1169,-320.322 56.769,-187.146 126,-110 131.613,-103.745 139.093,-99.0889 146.837,-95.6334"/>
<polygon fill="midnightblue" stroke="midnightblue" points="42.517,-370.35 45.8926,-380.393 49.5165,-370.437 42.517,-370.35"/>
</g>
<!-- Node26 -->
<g id="node26" class="node"><title>Node26</title>
<g id="a_node26"><a xlink:href="transfnb_8c.html#a772fb9fe763065e03425b8c2782ae49a" target="_top" xlink:title="Génère un Histogramme d&#39;une image n&amp;b. ">
<polygon fill="none" stroke="black" points="144.5,-38.5 144.5,-57.5 227.5,-57.5 227.5,-38.5 144.5,-38.5"/>
<text text-anchor="middle" x="186" y="-45.5" font-family="Helvetica,sans-Serif" font-size="10.00">histogrammenb</text>
</a>
</g>
</g>
<!-- Node1&#45;&gt;Node26 -->
<g id="edge50" class="edge"><title>Node1&#45;&gt;Node26</title>
<path fill="none" stroke="midnightblue" d="M48.3807,-370.153C56.3334,-306.988 83.8778,-112.123 126,-67 130.993,-61.6509 137.497,-57.803 144.356,-55.0361"/>
<polygon fill="midnightblue" stroke="midnightblue" points="44.8737,-369.997 47.1247,-380.35 51.8212,-370.852 44.8737,-369.997"/>
</g>
<!-- Node3 -->
<g id="node3" class="node"><title>Node3</title>
<g id="a_node3"><a xlink:href="prototype_8h.html#a68194757508adc5f0ed956fd55c364b2" target="_top" xlink:title="Calcul la distance entre des pixel de couleur différente. ">
<polygon fill="none" stroke="black" points="285,-703.5 285,-722.5 365,-722.5 365,-703.5 285,-703.5"/>
<text text-anchor="middle" x="325" y="-710.5" font-family="Helvetica,sans-Serif" font-size="10.00">calculDistance</text>
</a>
</g>
</g>
<!-- Node2&#45;&gt;Node3 -->
<g id="edge2" class="edge"><title>Node2&#45;&gt;Node3</title>
<path fill="none" stroke="midnightblue" d="M232.537,-725.685C249.52,-723.329 268.633,-720.679 284.979,-718.412"/>
<polygon fill="midnightblue" stroke="midnightblue" points="231.705,-722.266 222.281,-727.107 232.667,-729.2 231.705,-722.266"/>
</g>
<!-- Node4 -->
<g id="node4" class="node"><title>Node4</title>
<g id="a_node4"><a xlink:href="prototype_8h.html#a01267e9e283e046820857af7c1044fcb" target="_top" xlink:title="Fonction d&#39;appel du calcul distance. ">
<polygon fill="none" stroke="black" points="405.5,-693.5 405.5,-712.5 497.5,-712.5 497.5,-693.5 405.5,-693.5"/>
<text text-anchor="middle" x="451.5" y="-700.5" font-family="Helvetica,sans-Serif" font-size="10.00">fctCalculDistance</text>
</a>
</g>
</g>
<!-- Node3&#45;&gt;Node4 -->
<g id="edge3" class="edge"><title>Node3&#45;&gt;Node4</title>
<path fill="none" stroke="midnightblue" d="M375.124,-709.054C384.992,-708.262 395.322,-707.432 405.059,-706.65"/>
<polygon fill="midnightblue" stroke="midnightblue" points="374.739,-705.574 365.051,-709.863 375.299,-712.551 374.739,-705.574"/>
</g>
<!-- Node4&#45;&gt;Node5 -->
<g id="edge4" class="edge"><title>Node4&#45;&gt;Node5</title>
<path fill="none" stroke="midnightblue" d="M481.079,-687.86C487.886,-683.001 494.478,-677.023 499,-670 529.085,-623.276 547.932,-443.168 552.115,-399.553"/>
<polygon fill="midnightblue" stroke="midnightblue" points="478.984,-685.047 472.482,-693.412 482.781,-690.927 478.984,-685.047"/>
</g>
<!-- Node6&#45;&gt;Node7 -->
<g id="edge6" class="edge"><title>Node6&#45;&gt;Node7</title>
<path fill="none" stroke="midnightblue" d="M210.399,-595.076C229.367,-607.042 256.963,-623.882 282,-637 288.238,-640.269 295.151,-643.535 301.536,-646.415"/>
<polygon fill="midnightblue" stroke="midnightblue" points="212.147,-592.04 201.829,-589.63 208.392,-597.948 212.147,-592.04"/>
</g>
<!-- Node6&#45;&gt;Node8 -->
<g id="edge8" class="edge"><title>Node6&#45;&gt;Node8</title>
<path fill="none" stroke="midnightblue" d="M228.606,-591.54C248.088,-596.944 271.021,-603.305 289.518,-608.436"/>
<polygon fill="midnightblue" stroke="midnightblue" points="229.347,-588.114 218.775,-588.813 227.476,-594.859 229.347,-588.114"/>
</g>
<!-- Node6&#45;&gt;Node9 -->
<g id="edge10" class="edge"><title>Node6&#45;&gt;Node9</title>
<path fill="none" stroke="midnightblue" d="M229.027,-580C246.107,-580 265.783,-580 282.779,-580"/>
<polygon fill="midnightblue" stroke="midnightblue" points="228.775,-576.5 218.775,-580 228.775,-583.5 228.775,-576.5"/>
</g>
<!-- Node6&#45;&gt;Node10 -->
<g id="edge12" class="edge"><title>Node6&#45;&gt;Node10</title>
<path fill="none" stroke="midnightblue" d="M228.606,-568.46C248.088,-563.056 271.021,-556.695 289.518,-551.564"/>
<polygon fill="midnightblue" stroke="midnightblue" points="227.476,-565.141 218.775,-571.187 229.347,-571.886 227.476,-565.141"/>
</g>
<!-- Node6&#45;&gt;Node11 -->
<g id="edge14" class="edge"><title>Node6&#45;&gt;Node11</title>
<path fill="none" stroke="midnightblue" d="M210.399,-564.924C229.367,-552.958 256.963,-536.118 282,-523 288.238,-519.731 295.151,-516.465 301.536,-513.585"/>
<polygon fill="midnightblue" stroke="midnightblue" points="208.392,-562.052 201.829,-570.37 212.147,-567.96 208.392,-562.052"/>
</g>
<!-- Node6&#45;&gt;Node12 -->
<g id="edge16" class="edge"><title>Node6&#45;&gt;Node12</title>
<path fill="none" stroke="midnightblue" d="M201.264,-562.265C218.609,-541.592 249.605,-507.407 282,-485 287.134,-481.449 293.038,-478.298 298.767,-475.633"/>
<polygon fill="midnightblue" stroke="midnightblue" points="198.363,-560.282 194.702,-570.224 203.764,-564.735 198.363,-560.282"/>
</g>
<!-- Node7&#45;&gt;Node5 -->
<g id="edge7" class="edge"><title>Node7&#45;&gt;Node5</title>
<path fill="none" stroke="midnightblue" d="M373.29,-653.557C412.32,-648.992 466.408,-636.372 499,-602 555.448,-542.469 555.083,-432.471 553.591,-399.55"/>
<polygon fill="midnightblue" stroke="midnightblue" points="372.801,-650.089 363.214,-654.598 373.52,-657.052 372.801,-650.089"/>
</g>
<!-- Node8&#45;&gt;Node5 -->
<g id="edge9" class="edge"><title>Node8&#45;&gt;Node5</title>
<path fill="none" stroke="midnightblue" d="M378.735,-615.038C416.908,-610.15 467.186,-597.633 499,-566 547.049,-518.225 552.55,-428.878 553.021,-399.576"/>
<polygon fill="midnightblue" stroke="midnightblue" points="377.854,-611.615 368.314,-616.224 378.646,-618.571 377.854,-611.615"/>
</g>
<!-- Node9&#45;&gt;Node5 -->
<g id="edge11" class="edge"><title>Node9&#45;&gt;Node5</title>
<path fill="none" stroke="midnightblue" d="M377.344,-577.833C415.258,-573.635 465.833,-562.225 499,-532 539.354,-495.225 549.754,-425.079 552.257,-399.574"/>
<polygon fill="midnightblue" stroke="midnightblue" points="376.626,-574.387 367.011,-578.836 377.302,-581.354 376.626,-574.387"/>
</g>
<!-- Node10&#45;&gt;Node5 -->
<g id="edge13" class="edge"><title>Node10&#45;&gt;Node5</title>
<path fill="none" stroke="midnightblue" d="M375.395,-541.002C412.954,-537.845 463.968,-528.116 499,-500 532.183,-473.368 546.477,-421.21 551.142,-399.665"/>
<polygon fill="midnightblue" stroke="midnightblue" points="374.91,-537.528 365.183,-541.728 375.406,-544.51 374.91,-537.528"/>
</g>
<!-- Node11&#45;&gt;Node5 -->
<g id="edge15" class="edge"><title>Node11&#45;&gt;Node5</title>
<path fill="none" stroke="midnightblue" d="M372.886,-504.664C409.945,-503.053 461.501,-495.871 499,-471 525.902,-453.157 542.72,-416.85 549.527,-399.563"/>
<polygon fill="midnightblue" stroke="midnightblue" points="372.726,-501.167 362.841,-504.981 372.947,-508.164 372.726,-501.167"/>
</g>
<!-- Node12&#45;&gt;Node5 -->
<g id="edge17" class="edge"><title>Node12&#45;&gt;Node5</title>
<path fill="none" stroke="midnightblue" d="M373.451,-469.375C409.668,-469.979 459.837,-466.447 499,-447 520.732,-436.208 538.35,-412.867 547.068,-399.645"/>
<polygon fill="midnightblue" stroke="midnightblue" points="373.252,-465.868 363.157,-469.087 373.055,-472.866 373.252,-465.868"/>
</g>
<!-- Node14&#45;&gt;Node5 -->
<g id="edge20" class="edge"><title>Node14&#45;&gt;Node5</title>
<path fill="none" stroke="midnightblue" d="M368.209,-390C418.184,-390 499.144,-390 534.965,-390"/>
<polygon fill="midnightblue" stroke="midnightblue" points="368.042,-386.5 358.042,-390 368.042,-393.5 368.042,-386.5"/>
</g>
<!-- Node15&#45;&gt;Node13 -->
<g id="edge28" class="edge"><title>Node15&#45;&gt;Node13</title>
<path fill="none" stroke="midnightblue" d="M256.487,-352C272.034,-352 287.514,-352 299.722,-352"/>
<polygon fill="midnightblue" stroke="midnightblue" points="256.293,-348.5 246.293,-352 256.293,-355.5 256.293,-348.5"/>
</g>
<!-- Node15&#45;&gt;Node14 -->
<g id="edge29" class="edge"><title>Node15&#45;&gt;Node14</title>
<path fill="none" stroke="midnightblue" d="M231.258,-364.276C250.964,-369.742 273.742,-376.06 291.793,-381.067"/>
<polygon fill="midnightblue" stroke="midnightblue" points="232.143,-360.889 221.571,-361.589 230.272,-367.635 232.143,-360.889"/>
</g>
<!-- Node16&#45;&gt;Node5 -->
<g id="edge31" class="edge"><title>Node16&#45;&gt;Node5</title>
<path fill="none" stroke="midnightblue" d="M487.463,-414.78C503.465,-408.729 521.754,-401.814 534.938,-396.829"/>
<polygon fill="midnightblue" stroke="midnightblue" points="485.976,-411.6 477.86,-418.411 488.452,-418.148 485.976,-411.6"/>
</g>
<!-- Node17&#45;&gt;Node5 -->
<g id="edge33" class="edge"><title>Node17&#45;&gt;Node5</title>
<path fill="none" stroke="midnightblue" d="M487.463,-365.22C503.465,-371.271 521.754,-378.186 534.938,-383.171"/>
<polygon fill="midnightblue" stroke="midnightblue" points="488.452,-361.852 477.86,-361.589 485.976,-368.4 488.452,-361.852"/>
</g>
<!-- Node18&#45;&gt;Node5 -->
<g id="edge35" class="edge"><title>Node18&#45;&gt;Node5</title>
<path fill="none" stroke="midnightblue" d="M490.797,-328.07C493.652,-329.591 496.42,-331.235 499,-333 518.574,-346.396 536.486,-367.914 545.953,-380.325"/>
<polygon fill="midnightblue" stroke="midnightblue" points="492.046,-324.788 481.515,-323.629 489.025,-331.102 492.046,-324.788"/>
</g>
<!-- Node20&#45;&gt;Node5 -->
<g id="edge39" class="edge"><title>Node20&#45;&gt;Node5</title>
<path fill="none" stroke="midnightblue" d="M493.353,-290.707C495.345,-292.028 497.243,-293.457 499,-295 526.648,-319.293 543.403,-361.324 549.897,-380.257"/>
<polygon fill="midnightblue" stroke="midnightblue" points="494.614,-287.403 484.176,-285.584 491.202,-293.515 494.614,-287.403"/>
</g>
<!-- Node21&#45;&gt;Node5 -->
<g id="edge41" class="edge"><title>Node21&#45;&gt;Node5</title>
<path fill="none" stroke="midnightblue" d="M234.467,-174.046C316.776,-195.282 479.137,-238.851 499,-257 536.715,-291.461 548.655,-356.017 551.915,-380.371"/>
<polygon fill="midnightblue" stroke="midnightblue" points="235.159,-170.61 224.602,-171.508 233.415,-177.389 235.159,-170.61"/>
</g>
<!-- Node22 -->
<g id="node22" class="node"><title>Node22</title>
<g id="a_node22"><a xlink:href="quaternaire_8c.html#a3ebbb6278c797c3e72b00c179732e433" target="_top" xlink:title="Effectue le zoom sur un arbre NG. ">
<polygon fill="none" stroke="black" points="297.5,-152.5 297.5,-171.5 352.5,-171.5 352.5,-152.5 297.5,-152.5"/>
<text text-anchor="middle" x="325" y="-159.5" font-family="Helvetica,sans-Serif" font-size="10.00">zoomNG</text>
</a>
</g>
</g>
<!-- Node21&#45;&gt;Node22 -->
<g id="edge42" class="edge"><title>Node21&#45;&gt;Node22</title>
<path fill="none" stroke="midnightblue" d="M237.423,-162C257.729,-162 280.319,-162 297.331,-162"/>
<polygon fill="midnightblue" stroke="midnightblue" points="237.364,-158.5 227.364,-162 237.363,-165.5 237.364,-158.5"/>
</g>
<!-- Node22&#45;&gt;Node5 -->
<g id="edge43" class="edge"><title>Node22&#45;&gt;Node5</title>
<path fill="none" stroke="midnightblue" d="M362.684,-171.077C407.51,-182.84 479.774,-204.196 499,-224 543.331,-269.664 551.269,-352.114 552.69,-380.27"/>
<polygon fill="midnightblue" stroke="midnightblue" points="363.304,-167.622 352.747,-168.508 361.552,-174.399 363.304,-167.622"/>
</g>
<!-- Node23 -->
<g id="node23" class="node"><title>Node23</title>
<g id="a_node23"><a xlink:href="quaternaire_8c.html#ad8bb52314936ad1d1ad641c305d7792d" target="_top" xlink:title="Réalise tout les niveau de zoom d&#39;un arbre NG. ">
<polygon fill="none" stroke="black" points="404,-152.5 404,-171.5 499,-171.5 499,-152.5 404,-152.5"/>
<text text-anchor="middle" x="451.5" y="-159.5" font-family="Helvetica,sans-Serif" font-size="10.00">tousLesZoomsNG</text>
</a>
</g>
</g>
<!-- Node22&#45;&gt;Node23 -->
<g id="edge44" class="edge"><title>Node22&#45;&gt;Node23</title>
<path fill="none" stroke="midnightblue" d="M362.984,-162C375.769,-162 390.266,-162 403.731,-162"/>
<polygon fill="midnightblue" stroke="midnightblue" points="362.708,-158.5 352.708,-162 362.708,-165.5 362.708,-158.5"/>
</g>
<!-- Node23&#45;&gt;Node5 -->
<g id="edge45" class="edge"><title>Node23&#45;&gt;Node5</title>
<path fill="none" stroke="midnightblue" d="M488.911,-176.776C492.689,-179.419 496.172,-182.478 499,-186 548.088,-247.133 552.842,-348.613 553.08,-380.265"/>
<polygon fill="midnightblue" stroke="midnightblue" points="490.69,-173.762 480.311,-171.635 487.099,-179.77 490.69,-173.762"/>
</g>
<!-- Node24&#45;&gt;Node5 -->
<g id="edge47" class="edge"><title>Node24&#45;&gt;Node5</title>
<path fill="none" stroke="midnightblue" d="M495.344,-139.277C496.654,-140.43 497.881,-141.669 499,-143 530.424,-180.379 548.016,-339.368 552.082,-380.338"/>
<polygon fill="midnightblue" stroke="midnightblue" points="497.297,-136.372 487.08,-133.568 493.318,-142.132 497.297,-136.372"/>
</g>
<!-- Node25&#45;&gt;Node5 -->
<g id="edge49" class="edge"><title>Node25&#45;&gt;Node5</title>
<path fill="none" stroke="midnightblue" d="M238.28,-81.8309C316.765,-76.6204 461.54,-71.9999 499,-105 541.606,-142.533 551.052,-335.079 552.697,-380.426"/>
<polygon fill="midnightblue" stroke="midnightblue" points="237.861,-78.3515 228.126,-82.533 238.343,-85.3349 237.861,-78.3515"/>
</g>
<!-- Node26&#45;&gt;Node5 -->
<g id="edge51" class="edge"><title>Node26&#45;&gt;Node5</title>
<path fill="none" stroke="midnightblue" d="M234.13,-36.3923C302.013,-22.7528 427.037,-9.62897 499,-76 545.15,-118.564 551.914,-332.532 552.855,-380.463"/>
<polygon fill="midnightblue" stroke="midnightblue" points="233.212,-33.0087 224.143,-38.4862 234.648,-39.8598 233.212,-33.0087"/>
</g>
</g>
</svg>
