<?xml version="1.0" encoding="UTF-8" standalone="no"?>
<!DOCTYPE svg PUBLIC "-//W3C//DTD SVG 1.1//EN"
 "http://www.w3.org/Graphics/SVG/1.1/DTD/svg11.dtd">
<!-- Generated by graphviz version 2.38.0 (20140413.2041)
 -->
<!-- Title: calculCarre Pages: 1 -->
<svg width="520pt" height="28pt"
 viewBox="0.00 0.00 520.00 28.00" xmlns="http://www.w3.org/2000/svg" xmlns:xlink="http://www.w3.org/1999/xlink">
<g id="graph0" class="graph" transform="scale(1 1) rotate(0) translate(4 24)">
<title>calculCarre</title>
<!-- Node1 -->
<g id="node1" class="node"><title>Node1</title>
<polygon fill="#bfbfbf" stroke="black" points="0,-0.5 0,-19.5 65,-19.5 65,-0.5 0,-0.5"/>
<text text-anchor="middle" x="32.5" y="-7.5" font-family="Helvetica,sans-Serif" font-size="10.00">calculCarre</text>
</g>
<!-- Node2 -->
<g id="node2" class="node"><title>Node2</title>
<g id="a_node2"><a xlink:href="quaternaire_8c.html#a325bf257558a093ac6ceef33042c4554" target="_top" xlink:title="Allocation d&#39;un nœud de l&#39;arbre. ">
<polygon fill="none" stroke="black" points="101,-0.5 101,-19.5 201,-19.5 201,-0.5 101,-0.5"/>
<text text-anchor="middle" x="151" y="-7.5" font-family="Helvetica,sans-Serif" font-size="10.00">creeNoeudArbreNB</text>
</a>
</g>
</g>
<!-- Node1&#45;&gt;Node2 -->
<g id="edge1" class="edge"><title>Node1&#45;&gt;Node2</title>
<path fill="none" stroke="midnightblue" d="M75.2453,-10C83.5646,-10 92.3734,-10 100.913,-10"/>
<polygon fill="midnightblue" stroke="midnightblue" points="75.0266,-6.5001 65.0266,-10 75.0265,-13.5001 75.0266,-6.5001"/>
</g>
<!-- Node3 -->
<g id="node3" class="node"><title>Node3</title>
<g id="a_node3"><a xlink:href="quaternaire_8c.html#a21c86de2b1eb908399e18ea7d445c4fb" target="_top" xlink:title="Création d&#39;un nœud de l&#39;arbre. ">
<polygon fill="none" stroke="black" points="237,-0.5 237,-19.5 330,-19.5 330,-0.5 237,-0.5"/>
<text text-anchor="middle" x="283.5" y="-7.5" font-family="Helvetica,sans-Serif" font-size="10.00">creeationArbreNB</text>
</a>
</g>
</g>
<!-- Node2&#45;&gt;Node3 -->
<g id="edge2" class="edge"><title>Node2&#45;&gt;Node3</title>
<path fill="none" stroke="midnightblue" d="M211.338,-10C219.944,-10 228.687,-10 236.963,-10"/>
<polygon fill="midnightblue" stroke="midnightblue" points="211.336,-6.5001 201.336,-10 211.336,-13.5001 211.336,-6.5001"/>
</g>
<!-- Node4 -->
<g id="node4" class="node"><title>Node4</title>
<g id="a_node4"><a xlink:href="quaternaire_8c.html#abbb4dd828fb06821dd2c6cfc4d939ebd" target="_top" xlink:title="Fonction d&#39;appel de création d&#39;un arbre NB. ">
<polygon fill="none" stroke="black" points="366,-0.5 366,-19.5 438,-19.5 438,-0.5 366,-0.5"/>
<text text-anchor="middle" x="402" y="-7.5" font-family="Helvetica,sans-Serif" font-size="10.00">creeArbreNB</text>
</a>
</g>
</g>
<!-- Node3&#45;&gt;Node4 -->
<g id="edge3" class="edge"><title>Node3&#45;&gt;Node4</title>
<path fill="none" stroke="midnightblue" d="M340.34,-10C349.037,-10 357.806,-10 365.87,-10"/>
<polygon fill="midnightblue" stroke="midnightblue" points="340.21,-6.5001 330.21,-10 340.209,-13.5001 340.21,-6.5001"/>
</g>
<!-- Node5 -->
<g id="node5" class="node"><title>Node5</title>
<g id="a_node5"><a xlink:href="main_8c.html#a0ddf1224851353fc92bfbff6f499fa97" target="_top" xlink:title="Main du programme. ">
<polygon fill="none" stroke="black" points="474,-0.5 474,-19.5 512,-19.5 512,-0.5 474,-0.5"/>
<text text-anchor="middle" x="493" y="-7.5" font-family="Helvetica,sans-Serif" font-size="10.00">main</text>
</a>
</g>
</g>
<!-- Node4&#45;&gt;Node5 -->
<g id="edge4" class="edge"><title>Node4&#45;&gt;Node5</title>
<path fill="none" stroke="midnightblue" d="M448.36,-10C457.434,-10 466.46,-10 473.929,-10"/>
<polygon fill="midnightblue" stroke="midnightblue" points="448.175,-6.5001 438.175,-10 448.175,-13.5001 448.175,-6.5001"/>
</g>
</g>
</svg>
