<?xml version="1.0" encoding="UTF-8" standalone="no"?>
<!DOCTYPE svg PUBLIC "-//W3C//DTD SVG 1.1//EN"
 "http://www.w3.org/Graphics/SVG/1.1/DTD/svg11.dtd">
<!-- Generated by graphviz version 2.38.0 (20140413.2041)
 -->
<!-- Title: zoomNG Pages: 1 -->
<svg width="474pt" height="123pt"
 viewBox="0.00 0.00 474.00 123.00" xmlns="http://www.w3.org/2000/svg" xmlns:xlink="http://www.w3.org/1999/xlink">
<g id="graph0" class="graph" transform="scale(1 1) rotate(0) translate(4 119)">
<title>zoomNG</title>
<!-- Node1 -->
<g id="node1" class="node"><title>Node1</title>
<polygon fill="#bfbfbf" stroke="black" points="0,-57.5 0,-76.5 55,-76.5 55,-57.5 0,-57.5"/>
<text text-anchor="middle" x="27.5" y="-64.5" font-family="Helvetica,sans-Serif" font-size="10.00">zoomNG</text>
</g>
<!-- Node2 -->
<g id="node2" class="node"><title>Node2</title>
<g id="a_node2"><a xlink:href="quaternaire_8c.html#ad9b089f8ab718a8d2ff3f459b748ff74" target="_top" xlink:title="Calcul la profondeur d&#39;un arbre. ">
<polygon fill="none" stroke="black" points="91,-95.5 91,-114.5 176,-114.5 176,-95.5 91,-95.5"/>
<text text-anchor="middle" x="133.5" y="-102.5" font-family="Helvetica,sans-Serif" font-size="10.00">profondeurArbre</text>
</a>
</g>
</g>
<!-- Node1&#45;&gt;Node2 -->
<g id="edge1" class="edge"><title>Node1&#45;&gt;Node2</title>
<path fill="none" stroke="midnightblue" d="M54.7436,-76.589C67.43,-81.2244 82.8527,-86.8596 96.6072,-91.8853"/>
<polygon fill="midnightblue" stroke="midnightblue" points="95.671,-95.2695 106.265,-95.4141 98.0733,-88.6946 95.671,-95.2695"/>
</g>
<!-- Node3 -->
<g id="node3" class="node"><title>Node3</title>
<g id="a_node3"><a xlink:href="quaternaire_8c.html#a98566b8b5bd16a3dde718cea893609ca" target="_top" xlink:title="Converti le k en nn. ">
<polygon fill="none" stroke="black" points="107.5,-57.5 107.5,-76.5 159.5,-76.5 159.5,-57.5 107.5,-57.5"/>
<text text-anchor="middle" x="133.5" y="-64.5" font-family="Helvetica,sans-Serif" font-size="10.00">convknn</text>
</a>
</g>
</g>
<!-- Node1&#45;&gt;Node3 -->
<g id="edge2" class="edge"><title>Node1&#45;&gt;Node3</title>
<path fill="none" stroke="midnightblue" d="M55.0127,-67C67.8651,-67 83.4772,-67 97.3107,-67"/>
<polygon fill="midnightblue" stroke="midnightblue" points="97.4674,-70.5001 107.467,-67 97.4674,-63.5001 97.4674,-70.5001"/>
</g>
<!-- Node4 -->
<g id="node4" class="node"><title>Node4</title>
<g id="a_node4"><a xlink:href="quaternaire_8c.html#a0fa6731f07927f703cf1c488d79c2cb6" target="_top" xlink:title="Fonction d&#39;appel de conversion arbre &#45;&gt; matrice NG. ">
<polygon fill="none" stroke="black" points="92.5,-19.5 92.5,-38.5 174.5,-38.5 174.5,-19.5 92.5,-19.5"/>
<text text-anchor="middle" x="133.5" y="-26.5" font-family="Helvetica,sans-Serif" font-size="10.00">creeMatriceNG</text>
</a>
</g>
</g>
<!-- Node1&#45;&gt;Node4 -->
<g id="edge3" class="edge"><title>Node1&#45;&gt;Node4</title>
<path fill="none" stroke="midnightblue" d="M54.7436,-57.411C67.43,-52.7756 82.8527,-47.1404 96.6072,-42.1147"/>
<polygon fill="midnightblue" stroke="midnightblue" points="98.0733,-45.3054 106.265,-38.5859 95.671,-38.7305 98.0733,-45.3054"/>
</g>
<!-- Node5 -->
<g id="node5" class="node"><title>Node5</title>
<g id="a_node5"><a xlink:href="partie1_8c.html#a74146446548f74f43dcabaeea7b55493" target="_top" xlink:title="Retour une matrice de dimension haut * larg. ">
<polygon fill="none" stroke="black" points="216,-38.5 216,-57.5 306,-57.5 306,-38.5 216,-38.5"/>
<text text-anchor="middle" x="261" y="-45.5" font-family="Helvetica,sans-Serif" font-size="10.00">allocationMatrice</text>
</a>
</g>
</g>
<!-- Node4&#45;&gt;Node5 -->
<g id="edge4" class="edge"><title>Node4&#45;&gt;Node5</title>
<path fill="none" stroke="midnightblue" d="M174.554,-35.064C184.557,-36.5783 195.448,-38.2272 206.003,-39.8252"/>
<polygon fill="midnightblue" stroke="midnightblue" points="205.568,-43.2991 215.979,-41.3355 206.616,-36.378 205.568,-43.2991"/>
</g>
<!-- Node6 -->
<g id="node6" class="node"><title>Node6</title>
<g id="a_node6"><a xlink:href="quaternaire_8c.html#aad44154524c9c77b432cb6cf52c7acf4" target="_top" xlink:title="Remplissage de la matrice avec un arbre NG. ">
<polygon fill="none" stroke="black" points="212,-0.5 212,-19.5 310,-19.5 310,-0.5 212,-0.5"/>
<text text-anchor="middle" x="261" y="-7.5" font-family="Helvetica,sans-Serif" font-size="10.00">creationMatriceNG</text>
</a>
</g>
</g>
<!-- Node4&#45;&gt;Node6 -->
<g id="edge5" class="edge"><title>Node4&#45;&gt;Node6</title>
<path fill="none" stroke="midnightblue" d="M174.554,-22.936C183.299,-21.6121 192.724,-20.1853 202.009,-18.7796"/>
<polygon fill="midnightblue" stroke="midnightblue" points="202.627,-22.226 211.99,-17.2684 201.579,-15.3048 202.627,-22.226"/>
</g>
<!-- Node7 -->
<g id="node7" class="node"><title>Node7</title>
<g id="a_node7"><a xlink:href="quaternaire_8c.html#a1e1d02ab87953add75ff8ebf2e627875" target="_top" xlink:title="Remplissage d&#39;une case de la matrice NG. ">
<polygon fill="none" stroke="black" points="346,-0.5 346,-19.5 466,-19.5 466,-0.5 346,-0.5"/>
<text text-anchor="middle" x="406" y="-7.5" font-family="Helvetica,sans-Serif" font-size="10.00">creationMatriceCaseNG</text>
</a>
</g>
</g>
<!-- Node6&#45;&gt;Node7 -->
<g id="edge6" class="edge"><title>Node6&#45;&gt;Node7</title>
<path fill="none" stroke="midnightblue" d="M310.015,-10C318.296,-10 327.05,-10 335.759,-10"/>
<polygon fill="midnightblue" stroke="midnightblue" points="335.932,-13.5001 345.932,-10 335.932,-6.5001 335.932,-13.5001"/>
</g>
</g>
</svg>
