<?xml version="1.0" encoding="UTF-8" standalone="no"?>
<!DOCTYPE svg PUBLIC "-//W3C//DTD SVG 1.1//EN"
 "http://www.w3.org/Graphics/SVG/1.1/DTD/svg11.dtd">
<!-- Generated by graphviz version 2.38.0 (20140413.2041)
 -->
<!-- Title: C:/Users/cbongiorno/Documents/Mes Documents/M1/Vision Industrielle/TD2&#45;Traitement image/prototype.h Pages: 1 -->
<svg width="623pt" height="173pt"
 viewBox="0.00 0.00 622.50 173.00" xmlns="http://www.w3.org/2000/svg" xmlns:xlink="http://www.w3.org/1999/xlink">
<g id="graph0" class="graph" transform="scale(1 1) rotate(0) translate(4 169)">
<title>C:/Users/cbongiorno/Documents/Mes Documents/M1/Vision Industrielle/TD2&#45;Traitement image/prototype.h</title>
<!-- Node1 -->
<g id="node1" class="node"><title>Node1</title>
<polygon fill="#bfbfbf" stroke="black" points="203.5,-112.5 203.5,-164.5 370.5,-164.5 370.5,-112.5 203.5,-112.5"/>
<text text-anchor="start" x="211.5" y="-152.5" font-family="Helvetica,sans-Serif" font-size="10.00">C:/Users/cbongiorno</text>
<text text-anchor="start" x="211.5" y="-141.5" font-family="Helvetica,sans-Serif" font-size="10.00">/Documents/Mes Documents</text>
<text text-anchor="start" x="211.5" y="-130.5" font-family="Helvetica,sans-Serif" font-size="10.00">/M1/Vision Industrielle</text>
<text text-anchor="middle" x="287" y="-119.5" font-family="Helvetica,sans-Serif" font-size="10.00">/TD2&#45;Traitement image/prototype.h</text>
</g>
<!-- Node2 -->
<g id="node2" class="node"><title>Node2</title>
<polygon fill="none" stroke="#bfbfbf" points="0,-56.5 0,-75.5 48,-75.5 48,-56.5 0,-56.5"/>
<text text-anchor="middle" x="24" y="-63.5" font-family="Helvetica,sans-Serif" font-size="10.00">stdlib.h</text>
</g>
<!-- Node1&#45;&gt;Node2 -->
<g id="edge1" class="edge"><title>Node1&#45;&gt;Node2</title>
<path fill="none" stroke="midnightblue" d="M203.397,-115.252C162.226,-104.271 111.597,-90.7286 57.8586,-76.2232"/>
<polygon fill="midnightblue" stroke="midnightblue" points="58.7135,-72.8288 48.1468,-73.6004 56.8883,-79.5866 58.7135,-72.8288"/>
</g>
<!-- Node3 -->
<g id="node3" class="node"><title>Node3</title>
<polygon fill="none" stroke="#bfbfbf" points="66,-56.5 66,-75.5 112,-75.5 112,-56.5 66,-56.5"/>
<text text-anchor="middle" x="89" y="-63.5" font-family="Helvetica,sans-Serif" font-size="10.00">stdio.h</text>
</g>
<!-- Node1&#45;&gt;Node3 -->
<g id="edge2" class="edge"><title>Node1&#45;&gt;Node3</title>
<path fill="none" stroke="midnightblue" d="M216.635,-112.446C184.253,-100.916 147.398,-87.7933 121.645,-78.6236"/>
<polygon fill="midnightblue" stroke="midnightblue" points="122.607,-75.251 112.013,-75.1939 120.259,-81.8455 122.607,-75.251"/>
</g>
<!-- Node4 -->
<g id="node4" class="node"><title>Node4</title>
<polygon fill="none" stroke="#bfbfbf" points="130.5,-56.5 130.5,-75.5 177.5,-75.5 177.5,-56.5 130.5,-56.5"/>
<text text-anchor="middle" x="154" y="-63.5" font-family="Helvetica,sans-Serif" font-size="10.00">math.h</text>
</g>
<!-- Node1&#45;&gt;Node4 -->
<g id="edge3" class="edge"><title>Node1&#45;&gt;Node4</title>
<path fill="none" stroke="midnightblue" d="M239.735,-112.446C219.388,-101.66 196.412,-89.4814 179.37,-80.448"/>
<polygon fill="midnightblue" stroke="midnightblue" points="180.561,-77.1181 170.086,-75.527 177.283,-83.3029 180.561,-77.1181"/>
</g>
<!-- Node5 -->
<g id="node5" class="node"><title>Node5</title>
<polygon fill="none" stroke="#bfbfbf" points="195.5,-56.5 195.5,-75.5 246.5,-75.5 246.5,-56.5 195.5,-56.5"/>
<text text-anchor="middle" x="221" y="-63.5" font-family="Helvetica,sans-Serif" font-size="10.00">unistd.h</text>
</g>
<!-- Node1&#45;&gt;Node5 -->
<g id="edge4" class="edge"><title>Node1&#45;&gt;Node5</title>
<path fill="none" stroke="midnightblue" d="M263.545,-112.446C254.448,-102.728 244.292,-91.8797 236.184,-83.2196"/>
<polygon fill="midnightblue" stroke="midnightblue" points="238.53,-80.6037 229.14,-75.6955 233.42,-85.3877 238.53,-80.6037"/>
</g>
<!-- Node6 -->
<g id="node6" class="node"><title>Node6</title>
<polygon fill="none" stroke="#bfbfbf" points="265,-56.5 265,-75.5 309,-75.5 309,-56.5 265,-56.5"/>
<text text-anchor="middle" x="287" y="-63.5" font-family="Helvetica,sans-Serif" font-size="10.00">time.h</text>
</g>
<!-- Node1&#45;&gt;Node6 -->
<g id="edge5" class="edge"><title>Node1&#45;&gt;Node6</title>
<path fill="none" stroke="midnightblue" d="M287,-112.446C287,-103.73 287,-94.1045 287,-85.9641"/>
<polygon fill="midnightblue" stroke="midnightblue" points="290.5,-85.6954 287,-75.6955 283.5,-85.6955 290.5,-85.6954"/>
</g>
<!-- Node7 -->
<g id="node7" class="node"><title>Node7</title>
<polygon fill="none" stroke="#bfbfbf" points="327.5,-56.5 327.5,-75.5 376.5,-75.5 376.5,-56.5 327.5,-56.5"/>
<text text-anchor="middle" x="352" y="-63.5" font-family="Helvetica,sans-Serif" font-size="10.00">string.h</text>
</g>
<!-- Node1&#45;&gt;Node7 -->
<g id="edge6" class="edge"><title>Node1&#45;&gt;Node7</title>
<path fill="none" stroke="midnightblue" d="M310.1,-112.446C319.059,-102.728 329.061,-91.8797 337.046,-83.2196"/>
<polygon fill="midnightblue" stroke="midnightblue" points="339.778,-85.42 343.983,-75.6955 334.631,-80.6751 339.778,-85.42"/>
</g>
<!-- Node8 -->
<g id="node8" class="node"><title>Node8</title>
<polygon fill="none" stroke="#bfbfbf" points="395,-56.5 395,-75.5 457,-75.5 457,-56.5 395,-56.5"/>
<text text-anchor="middle" x="426" y="-63.5" font-family="Helvetica,sans-Serif" font-size="10.00">windows.h</text>
</g>
<!-- Node1&#45;&gt;Node8 -->
<g id="edge7" class="edge"><title>Node1&#45;&gt;Node8</title>
<path fill="none" stroke="midnightblue" d="M336.398,-112.446C357.861,-101.56 382.124,-89.2537 399.983,-80.1955"/>
<polygon fill="midnightblue" stroke="midnightblue" points="401.853,-83.1719 409.188,-75.527 398.686,-76.929 401.853,-83.1719"/>
</g>
<!-- Node9 -->
<g id="node9" class="node"><title>Node9</title>
<g id="a_node9"><a xlink:href="_bmp_lib_8h.html" target="_top" xlink:title="BmpLib.h">
<polygon fill="none" stroke="black" points="475,-56.5 475,-75.5 533,-75.5 533,-56.5 475,-56.5"/>
<text text-anchor="middle" x="504" y="-63.5" font-family="Helvetica,sans-Serif" font-size="10.00">BmpLib.h</text>
</a>
</g>
</g>
<!-- Node1&#45;&gt;Node9 -->
<g id="edge8" class="edge"><title>Node1&#45;&gt;Node9</title>
<path fill="none" stroke="midnightblue" d="M364.117,-112.446C399.487,-100.955 439.725,-87.882 467.936,-78.7167"/>
<polygon fill="midnightblue" stroke="midnightblue" points="469.325,-81.9456 477.754,-75.527 467.162,-75.2882 469.325,-81.9456"/>
</g>
<!-- Node11 -->
<g id="node11" class="node"><title>Node11</title>
<g id="a_node11"><a xlink:href="_outils_lib_8h.html" target="_top" xlink:title="OutilsLib.h">
<polygon fill="none" stroke="black" points="551.5,-56.5 551.5,-75.5 614.5,-75.5 614.5,-56.5 551.5,-56.5"/>
<text text-anchor="middle" x="583" y="-63.5" font-family="Helvetica,sans-Serif" font-size="10.00">OutilsLib.h</text>
</a>
</g>
</g>
<!-- Node1&#45;&gt;Node11 -->
<g id="edge10" class="edge"><title>Node1&#45;&gt;Node11</title>
<path fill="none" stroke="midnightblue" d="M370.635,-117.58C426.463,-104.283 497.468,-87.3718 541.577,-76.8659"/>
<polygon fill="midnightblue" stroke="midnightblue" points="542.459,-80.254 551.375,-74.5322 540.837,-73.4445 542.459,-80.254"/>
</g>
<!-- Node10 -->
<g id="node10" class="node"><title>Node10</title>
<polygon fill="none" stroke="#bfbfbf" points="476,-0.5 476,-19.5 532,-19.5 532,-0.5 476,-0.5"/>
<text text-anchor="middle" x="504" y="-7.5" font-family="Helvetica,sans-Serif" font-size="10.00">stdbool.h</text>
</g>
<!-- Node9&#45;&gt;Node10 -->
<g id="edge9" class="edge"><title>Node9&#45;&gt;Node10</title>
<path fill="none" stroke="midnightblue" d="M504,-56.083C504,-49.0059 504,-38.8611 504,-29.9865"/>
<polygon fill="midnightblue" stroke="midnightblue" points="507.5,-29.751 504,-19.7511 500.5,-29.7511 507.5,-29.751"/>
</g>
</g>
</svg>
