<?xml version="1.0" encoding="UTF-8" standalone="no"?>
<!DOCTYPE svg PUBLIC "-//W3C//DTD SVG 1.1//EN"
 "http://www.w3.org/Graphics/SVG/1.1/DTD/svg11.dtd">
<!-- Generated by graphviz version 2.38.0 (20140413.2041)
 -->
<!-- Title: filtreGraRoberts Pages: 1 -->
<svg width="319pt" height="104pt"
 viewBox="0.00 0.00 319.00 104.00" xmlns="http://www.w3.org/2000/svg" xmlns:xlink="http://www.w3.org/1999/xlink">
<g id="graph0" class="graph" transform="scale(1 1) rotate(0) translate(4 100)">
<title>filtreGraRoberts</title>
<!-- Node1 -->
<g id="node1" class="node"><title>Node1</title>
<polygon fill="#bfbfbf" stroke="black" points="0,-57.5 0,-76.5 84,-76.5 84,-57.5 0,-57.5"/>
<text text-anchor="middle" x="42" y="-64.5" font-family="Helvetica,sans-Serif" font-size="10.00">filtreGraRoberts</text>
</g>
<!-- Node2 -->
<g id="node2" class="node"><title>Node2</title>
<g id="a_node2"><a xlink:href="partie1_8c.html#a74146446548f74f43dcabaeea7b55493" target="_top" xlink:title="Retour une matrice de dimension haut * larg. ">
<polygon fill="none" stroke="black" points="221,-76.5 221,-95.5 311,-95.5 311,-76.5 221,-76.5"/>
<text text-anchor="middle" x="266" y="-83.5" font-family="Helvetica,sans-Serif" font-size="10.00">allocationMatrice</text>
</a>
</g>
</g>
<!-- Node1&#45;&gt;Node2 -->
<g id="edge1" class="edge"><title>Node1&#45;&gt;Node2</title>
<path fill="none" stroke="midnightblue" d="M84.2362,-70.5292C119.919,-73.5832 171.777,-78.0215 210.808,-81.3619"/>
<polygon fill="midnightblue" stroke="midnightblue" points="210.681,-84.8638 220.943,-82.2294 211.278,-77.8893 210.681,-84.8638"/>
</g>
<!-- Node3 -->
<g id="node3" class="node"><title>Node3</title>
<g id="a_node3"><a xlink:href="filtres_8c.html#ae5299087eb8255b465ad8db59f6e4839" target="_top" xlink:title="Effectue une convolution sur une image, à partir d&#39;un outil de dimension variable le boolen div indiq...">
<polygon fill="none" stroke="black" points="120,-38.5 120,-57.5 185,-57.5 185,-38.5 120,-38.5"/>
<text text-anchor="middle" x="152.5" y="-45.5" font-family="Helvetica,sans-Serif" font-size="10.00">convolution</text>
</a>
</g>
</g>
<!-- Node1&#45;&gt;Node3 -->
<g id="edge2" class="edge"><title>Node1&#45;&gt;Node3</title>
<path fill="none" stroke="midnightblue" d="M84.0192,-59.8169C92.4666,-58.3376 101.37,-56.7786 109.84,-55.2954"/>
<polygon fill="midnightblue" stroke="midnightblue" points="110.65,-58.7068 119.896,-53.5343 109.442,-51.8117 110.65,-58.7068"/>
</g>
<!-- Node3&#45;&gt;Node2 -->
<g id="edge3" class="edge"><title>Node3&#45;&gt;Node2</title>
<path fill="none" stroke="midnightblue" d="M181.636,-57.589C195.502,-62.3144 212.416,-68.0789 227.376,-73.1774"/>
<polygon fill="midnightblue" stroke="midnightblue" points="226.278,-76.501 236.873,-76.4141 228.537,-69.8752 226.278,-76.501"/>
</g>
<!-- Node4 -->
<g id="node4" class="node"><title>Node4</title>
<g id="a_node4"><a xlink:href="filtres_8c.html#adf784ef535b95a1f87bcb466b44fb200" target="_top" xlink:title="Effectue une convolution sur une case d&#39;une image, à partir d&#39;un outil de dimension variable le boole...">
<polygon fill="none" stroke="black" points="222.5,-38.5 222.5,-57.5 309.5,-57.5 309.5,-38.5 222.5,-38.5"/>
<text text-anchor="middle" x="266" y="-45.5" font-family="Helvetica,sans-Serif" font-size="10.00">convolutionCase</text>
</a>
</g>
</g>
<!-- Node3&#45;&gt;Node4 -->
<g id="edge4" class="edge"><title>Node3&#45;&gt;Node4</title>
<path fill="none" stroke="midnightblue" d="M185.153,-48C193.664,-48 203.102,-48 212.422,-48"/>
<polygon fill="midnightblue" stroke="midnightblue" points="212.439,-51.5001 222.439,-48 212.439,-44.5001 212.439,-51.5001"/>
</g>
<!-- Node5 -->
<g id="node5" class="node"><title>Node5</title>
<g id="a_node5"><a xlink:href="partie1_8c.html#a106518d4a41c16e3a633d2963200b919" target="_top" xlink:title="Libération d&#39;une matrice. ">
<polygon fill="none" stroke="black" points="222,-0.5 222,-19.5 310,-19.5 310,-0.5 222,-0.5"/>
<text text-anchor="middle" x="266" y="-7.5" font-family="Helvetica,sans-Serif" font-size="10.00">liberationmatrice</text>
</a>
</g>
</g>
<!-- Node3&#45;&gt;Node5 -->
<g id="edge5" class="edge"><title>Node3&#45;&gt;Node5</title>
<path fill="none" stroke="midnightblue" d="M181.636,-38.411C195.502,-33.6856 212.416,-27.9211 227.376,-22.8226"/>
<polygon fill="midnightblue" stroke="midnightblue" points="228.537,-26.1248 236.873,-19.5859 226.278,-19.499 228.537,-26.1248"/>
</g>
</g>
</svg>
