<?xml version="1.0" encoding="UTF-8" standalone="no"?>
<!DOCTYPE svg PUBLIC "-//W3C//DTD SVG 1.1//EN"
 "http://www.w3.org/Graphics/SVG/1.1/DTD/svg11.dtd">
<!-- Generated by graphviz version 2.38.0 (20140413.2041)
 -->
<!-- Title: creationMatriceCaseNG Pages: 1 -->
<svg width="676pt" height="85pt"
 viewBox="0.00 0.00 676.00 85.00" xmlns="http://www.w3.org/2000/svg" xmlns:xlink="http://www.w3.org/1999/xlink">
<g id="graph0" class="graph" transform="scale(1 1) rotate(0) translate(4 81)">
<title>creationMatriceCaseNG</title>
<!-- Node1 -->
<g id="node1" class="node"><title>Node1</title>
<polygon fill="#bfbfbf" stroke="black" points="0,-57.5 0,-76.5 120,-76.5 120,-57.5 0,-57.5"/>
<text text-anchor="middle" x="60" y="-64.5" font-family="Helvetica,sans-Serif" font-size="10.00">creationMatriceCaseNG</text>
</g>
<!-- Node2 -->
<g id="node2" class="node"><title>Node2</title>
<g id="a_node2"><a xlink:href="quaternaire_8c.html#aad44154524c9c77b432cb6cf52c7acf4" target="_top" xlink:title="Remplissage de la matrice avec un arbre NG. ">
<polygon fill="none" stroke="black" points="156,-57.5 156,-76.5 254,-76.5 254,-57.5 156,-57.5"/>
<text text-anchor="middle" x="205" y="-64.5" font-family="Helvetica,sans-Serif" font-size="10.00">creationMatriceNG</text>
</a>
</g>
</g>
<!-- Node1&#45;&gt;Node2 -->
<g id="edge1" class="edge"><title>Node1&#45;&gt;Node2</title>
<path fill="none" stroke="midnightblue" d="M130.451,-67C139.052,-67 147.693,-67 155.875,-67"/>
<polygon fill="midnightblue" stroke="midnightblue" points="130.403,-63.5001 120.403,-67 130.403,-70.5001 130.403,-63.5001"/>
</g>
<!-- Node3 -->
<g id="node3" class="node"><title>Node3</title>
<g id="a_node3"><a xlink:href="quaternaire_8c.html#a0fa6731f07927f703cf1c488d79c2cb6" target="_top" xlink:title="Fonction d&#39;appel de conversion arbre &#45;&gt; matrice NG. ">
<polygon fill="none" stroke="black" points="290,-57.5 290,-76.5 372,-76.5 372,-57.5 290,-57.5"/>
<text text-anchor="middle" x="331" y="-64.5" font-family="Helvetica,sans-Serif" font-size="10.00">creeMatriceNG</text>
</a>
</g>
</g>
<!-- Node2&#45;&gt;Node3 -->
<g id="edge2" class="edge"><title>Node2&#45;&gt;Node3</title>
<path fill="none" stroke="midnightblue" d="M264.568,-67C273.06,-67 281.637,-67 289.66,-67"/>
<polygon fill="midnightblue" stroke="midnightblue" points="264.297,-63.5001 254.297,-67 264.297,-70.5001 264.297,-63.5001"/>
</g>
<!-- Node4 -->
<g id="node4" class="node"><title>Node4</title>
<g id="a_node4"><a xlink:href="main_8c.html#a0ddf1224851353fc92bfbff6f499fa97" target="_top" xlink:title="Main du programme. ">
<polygon fill="none" stroke="black" points="630,-38.5 630,-57.5 668,-57.5 668,-38.5 630,-38.5"/>
<text text-anchor="middle" x="649" y="-45.5" font-family="Helvetica,sans-Serif" font-size="10.00">main</text>
</a>
</g>
</g>
<!-- Node3&#45;&gt;Node4 -->
<g id="edge3" class="edge"><title>Node3&#45;&gt;Node4</title>
<path fill="none" stroke="midnightblue" d="M382.355,-69.7998C435.335,-71.8696 520.998,-72.7281 594,-62 606.073,-60.2257 619.343,-56.8065 629.707,-53.7914"/>
<polygon fill="midnightblue" stroke="midnightblue" points="382.346,-66.2964 372.208,-69.3727 382.052,-73.2902 382.346,-66.2964"/>
</g>
<!-- Node5 -->
<g id="node5" class="node"><title>Node5</title>
<g id="a_node5"><a xlink:href="quaternaire_8c.html#a3ebbb6278c797c3e72b00c179732e433" target="_top" xlink:title="Effectue le zoom sur un arbre NG. ">
<polygon fill="none" stroke="black" points="408,-38.5 408,-57.5 463,-57.5 463,-38.5 408,-38.5"/>
<text text-anchor="middle" x="435.5" y="-45.5" font-family="Helvetica,sans-Serif" font-size="10.00">zoomNG</text>
</a>
</g>
</g>
<!-- Node3&#45;&gt;Node5 -->
<g id="edge4" class="edge"><title>Node3&#45;&gt;Node5</title>
<path fill="none" stroke="midnightblue" d="M382.195,-57.6956C391.1,-56.0449 400.047,-54.3864 407.961,-52.9194"/>
<polygon fill="midnightblue" stroke="midnightblue" points="381.411,-54.2812 372.217,-59.5452 382.687,-61.1639 381.411,-54.2812"/>
</g>
<!-- Node5&#45;&gt;Node4 -->
<g id="edge5" class="edge"><title>Node5&#45;&gt;Node4</title>
<path fill="none" stroke="midnightblue" d="M473.378,-48C519.07,-48 595.122,-48 629.783,-48"/>
<polygon fill="midnightblue" stroke="midnightblue" points="473.287,-44.5001 463.287,-48 473.287,-51.5001 473.287,-44.5001"/>
</g>
<!-- Node6 -->
<g id="node6" class="node"><title>Node6</title>
<g id="a_node6"><a xlink:href="quaternaire_8c.html#ad8bb52314936ad1d1ad641c305d7792d" target="_top" xlink:title="Réalise tout les niveau de zoom d&#39;un arbre NG. ">
<polygon fill="none" stroke="black" points="499,-0.5 499,-19.5 594,-19.5 594,-0.5 499,-0.5"/>
<text text-anchor="middle" x="546.5" y="-7.5" font-family="Helvetica,sans-Serif" font-size="10.00">tousLesZoomsNG</text>
</a>
</g>
</g>
<!-- Node5&#45;&gt;Node6 -->
<g id="edge6" class="edge"><title>Node5&#45;&gt;Node6</title>
<path fill="none" stroke="midnightblue" d="M472.961,-35.2887C487.656,-30.1656 504.324,-24.3551 517.973,-19.5967"/>
<polygon fill="midnightblue" stroke="midnightblue" points="471.455,-32.1072 463.164,-38.7042 473.759,-38.7171 471.455,-32.1072"/>
</g>
<!-- Node6&#45;&gt;Node4 -->
<g id="edge7" class="edge"><title>Node6&#45;&gt;Node4</title>
<path fill="none" stroke="midnightblue" d="M582.463,-23.2198C598.465,-29.2705 616.754,-36.1857 629.938,-41.1707"/>
<polygon fill="midnightblue" stroke="midnightblue" points="583.452,-19.852 572.86,-19.589 580.976,-26.3996 583.452,-19.852"/>
</g>
</g>
</svg>
