<?xml version="1.0" encoding="UTF-8" standalone="no"?>
<!DOCTYPE svg PUBLIC "-//W3C//DTD SVG 1.1//EN"
 "http://www.w3.org/Graphics/SVG/1.1/DTD/svg11.dtd">
<!-- Generated by graphviz version 2.38.0 (20140413.2041)
 -->
<!-- Title: erosionCase Pages: 1 -->
<svg width="370pt" height="66pt"
 viewBox="0.00 0.00 370.00 66.00" xmlns="http://www.w3.org/2000/svg" xmlns:xlink="http://www.w3.org/1999/xlink">
<g id="graph0" class="graph" transform="scale(1 1) rotate(0) translate(4 62)">
<title>erosionCase</title>
<!-- Node1 -->
<g id="node1" class="node"><title>Node1</title>
<polygon fill="#bfbfbf" stroke="black" points="0,-19.5 0,-38.5 71,-38.5 71,-19.5 0,-19.5"/>
<text text-anchor="middle" x="35.5" y="-26.5" font-family="Helvetica,sans-Serif" font-size="10.00">erosionCase</text>
</g>
<!-- Node2 -->
<g id="node2" class="node"><title>Node2</title>
<g id="a_node2"><a xlink:href="prototype_8h.html#a74f1cee58a0cba69e6279032f98b1aad" target="_top" xlink:title="Effectue un gradient sur une case de la matrice sur une dimension variable. ">
<polygon fill="none" stroke="black" points="107,-38.5 107,-57.5 181,-57.5 181,-38.5 107,-38.5"/>
<text text-anchor="middle" x="144" y="-45.5" font-family="Helvetica,sans-Serif" font-size="10.00">gradientCase</text>
</a>
</g>
</g>
<!-- Node1&#45;&gt;Node2 -->
<g id="edge1" class="edge"><title>Node1&#45;&gt;Node2</title>
<path fill="none" stroke="midnightblue" d="M80.9675,-36.9332C89.5625,-38.4666 98.4715,-40.0559 106.765,-41.5356"/>
<polygon fill="midnightblue" stroke="midnightblue" points="81.5368,-33.4795 71.0775,-35.1688 80.3073,-40.3707 81.5368,-33.4795"/>
</g>
<!-- Node5 -->
<g id="node5" class="node"><title>Node5</title>
<g id="a_node5"><a xlink:href="prototype_8h.html#aefec5606a1765b0f347de969a995d551" target="_top" xlink:title="Effectue une érosion sur une image avec un outil de dimension variable. ">
<polygon fill="none" stroke="black" points="218.5,-0.5 218.5,-19.5 286.5,-19.5 286.5,-0.5 218.5,-0.5"/>
<text text-anchor="middle" x="252.5" y="-7.5" font-family="Helvetica,sans-Serif" font-size="10.00">filtreErosion</text>
</a>
</g>
</g>
<!-- Node1&#45;&gt;Node5 -->
<g id="edge4" class="edge"><title>Node1&#45;&gt;Node5</title>
<path fill="none" stroke="midnightblue" d="M81.0141,-25.0662C121.925,-21.4508 181.638,-16.1738 218.454,-12.9203"/>
<polygon fill="midnightblue" stroke="midnightblue" points="80.6965,-21.5805 71.0435,-25.9473 81.3128,-28.5534 80.6965,-21.5805"/>
</g>
<!-- Node3 -->
<g id="node3" class="node"><title>Node3</title>
<g id="a_node3"><a xlink:href="prototype_8h.html#adc93fe086109c5c8b7c2c4f3848b0c96" target="_top" xlink:title="Effectue un gradient sur une image avec un outil de dimension variable. ">
<polygon fill="none" stroke="black" points="217,-38.5 217,-57.5 288,-57.5 288,-38.5 217,-38.5"/>
<text text-anchor="middle" x="252.5" y="-45.5" font-family="Helvetica,sans-Serif" font-size="10.00">filtreGradient</text>
</a>
</g>
</g>
<!-- Node2&#45;&gt;Node3 -->
<g id="edge2" class="edge"><title>Node2&#45;&gt;Node3</title>
<path fill="none" stroke="midnightblue" d="M191.064,-48C199.739,-48 208.673,-48 216.923,-48"/>
<polygon fill="midnightblue" stroke="midnightblue" points="191.056,-44.5001 181.056,-48 191.056,-51.5001 191.056,-44.5001"/>
</g>
<!-- Node4 -->
<g id="node4" class="node"><title>Node4</title>
<g id="a_node4"><a xlink:href="main_8c.html#a0ddf1224851353fc92bfbff6f499fa97" target="_top" xlink:title="Main du programme. ">
<polygon fill="none" stroke="black" points="324,-19.5 324,-38.5 362,-38.5 362,-19.5 324,-19.5"/>
<text text-anchor="middle" x="343" y="-26.5" font-family="Helvetica,sans-Serif" font-size="10.00">main</text>
</a>
</g>
</g>
<!-- Node3&#45;&gt;Node4 -->
<g id="edge3" class="edge"><title>Node3&#45;&gt;Node4</title>
<path fill="none" stroke="midnightblue" d="M298.089,-38.4273C307.241,-36.4623 316.375,-34.5015 323.922,-32.8811"/>
<polygon fill="midnightblue" stroke="midnightblue" points="297.266,-35.0241 288.224,-40.5452 298.735,-41.8681 297.266,-35.0241"/>
</g>
<!-- Node5&#45;&gt;Node4 -->
<g id="edge5" class="edge"><title>Node5&#45;&gt;Node4</title>
<path fill="none" stroke="midnightblue" d="M296.595,-19.2519C306.181,-21.3101 315.84,-23.3838 323.77,-25.0862"/>
<polygon fill="midnightblue" stroke="midnightblue" points="297.218,-15.8061 286.706,-17.129 295.748,-22.6501 297.218,-15.8061"/>
</g>
</g>
</svg>
