<?xml version="1.0" encoding="UTF-8" standalone="no"?>
<!DOCTYPE svg PUBLIC "-//W3C//DTD SVG 1.1//EN"
 "http://www.w3.org/Graphics/SVG/1.1/DTD/svg11.dtd">
<!-- Generated by graphviz version 2.38.0 (20140413.2041)
 -->
<!-- Title: carreHomogeneNG Pages: 1 -->
<svg width="420pt" height="28pt"
 viewBox="0.00 0.00 420.00 28.00" xmlns="http://www.w3.org/2000/svg" xmlns:xlink="http://www.w3.org/1999/xlink">
<g id="graph0" class="graph" transform="scale(1 1) rotate(0) translate(4 24)">
<title>carreHomogeneNG</title>
<!-- Node1 -->
<g id="node1" class="node"><title>Node1</title>
<polygon fill="#bfbfbf" stroke="black" points="0,-0.5 0,-19.5 99,-19.5 99,-0.5 0,-0.5"/>
<text text-anchor="middle" x="49.5" y="-7.5" font-family="Helvetica,sans-Serif" font-size="10.00">carreHomogeneNG</text>
</g>
<!-- Node2 -->
<g id="node2" class="node"><title>Node2</title>
<g id="a_node2"><a xlink:href="quaternaire_8c.html#a008a2eb8c5586e1a49dac2e6f37bd2d1" target="_top" xlink:title="Création d&#39;un nœud de l&#39;arbre quaternaire NG. ">
<polygon fill="none" stroke="black" points="135,-0.5 135,-19.5 229,-19.5 229,-0.5 135,-0.5"/>
<text text-anchor="middle" x="182" y="-7.5" font-family="Helvetica,sans-Serif" font-size="10.00">creeationArbreNG</text>
</a>
</g>
</g>
<!-- Node1&#45;&gt;Node2 -->
<g id="edge1" class="edge"><title>Node1&#45;&gt;Node2</title>
<path fill="none" stroke="midnightblue" d="M109.145,-10C117.8,-10 126.611,-10 134.962,-10"/>
<polygon fill="midnightblue" stroke="midnightblue" points="109.093,-6.5001 99.0934,-10 109.093,-13.5001 109.093,-6.5001"/>
</g>
<!-- Node3 -->
<g id="node3" class="node"><title>Node3</title>
<g id="a_node3"><a xlink:href="quaternaire_8c.html#a80c7e96deac0699503dec245e2131975" target="_top" xlink:title="fonction d&#39;appel de création de l&#39;arbre NG ">
<polygon fill="none" stroke="black" points="265,-0.5 265,-19.5 338,-19.5 338,-0.5 265,-0.5"/>
<text text-anchor="middle" x="301.5" y="-7.5" font-family="Helvetica,sans-Serif" font-size="10.00">creeArbreNG</text>
</a>
</g>
</g>
<!-- Node2&#45;&gt;Node3 -->
<g id="edge2" class="edge"><title>Node2&#45;&gt;Node3</title>
<path fill="none" stroke="midnightblue" d="M239.208,-10C247.885,-10 256.636,-10 264.703,-10"/>
<polygon fill="midnightblue" stroke="midnightblue" points="239.102,-6.5001 229.102,-10 239.102,-13.5001 239.102,-6.5001"/>
</g>
<!-- Node4 -->
<g id="node4" class="node"><title>Node4</title>
<g id="a_node4"><a xlink:href="main_8c.html#a0ddf1224851353fc92bfbff6f499fa97" target="_top" xlink:title="Main du programme. ">
<polygon fill="none" stroke="black" points="374,-0.5 374,-19.5 412,-19.5 412,-0.5 374,-0.5"/>
<text text-anchor="middle" x="393" y="-7.5" font-family="Helvetica,sans-Serif" font-size="10.00">main</text>
</a>
</g>
</g>
<!-- Node3&#45;&gt;Node4 -->
<g id="edge3" class="edge"><title>Node3&#45;&gt;Node4</title>
<path fill="none" stroke="midnightblue" d="M348.342,-10C357.435,-10 366.467,-10 373.937,-10"/>
<polygon fill="midnightblue" stroke="midnightblue" points="348.13,-6.5001 338.13,-10 348.13,-13.5001 348.13,-6.5001"/>
</g>
</g>
</svg>
