<?xml version="1.0" encoding="UTF-8" standalone="no"?>
<!DOCTYPE svg PUBLIC "-//W3C//DTD SVG 1.1//EN"
 "http://www.w3.org/Graphics/SVG/1.1/DTD/svg11.dtd">
<!-- Generated by graphviz version 2.38.0 (20140413.2041)
 -->
<!-- Title: zoomNG Pages: 1 -->
<svg width="268pt" height="47pt"
 viewBox="0.00 0.00 268.00 47.00" xmlns="http://www.w3.org/2000/svg" xmlns:xlink="http://www.w3.org/1999/xlink">
<g id="graph0" class="graph" transform="scale(1 1) rotate(0) translate(4 43)">
<title>zoomNG</title>
<!-- Node1 -->
<g id="node1" class="node"><title>Node1</title>
<polygon fill="#bfbfbf" stroke="black" points="0,-19.5 0,-38.5 55,-38.5 55,-19.5 0,-19.5"/>
<text text-anchor="middle" x="27.5" y="-26.5" font-family="Helvetica,sans-Serif" font-size="10.00">zoomNG</text>
</g>
<!-- Node2 -->
<g id="node2" class="node"><title>Node2</title>
<g id="a_node2"><a xlink:href="main_8c.html#a0ddf1224851353fc92bfbff6f499fa97" target="_top" xlink:title="Main du programme. ">
<polygon fill="none" stroke="black" points="222,-19.5 222,-38.5 260,-38.5 260,-19.5 222,-19.5"/>
<text text-anchor="middle" x="241" y="-26.5" font-family="Helvetica,sans-Serif" font-size="10.00">main</text>
</a>
</g>
</g>
<!-- Node1&#45;&gt;Node2 -->
<g id="edge1" class="edge"><title>Node1&#45;&gt;Node2</title>
<path fill="none" stroke="midnightblue" d="M65.3777,-29C111.07,-29 187.122,-29 221.783,-29"/>
<polygon fill="midnightblue" stroke="midnightblue" points="65.2867,-25.5001 55.2866,-29 65.2866,-32.5001 65.2867,-25.5001"/>
</g>
<!-- Node3 -->
<g id="node3" class="node"><title>Node3</title>
<g id="a_node3"><a xlink:href="quaternaire_8c.html#ad8bb52314936ad1d1ad641c305d7792d" target="_top" xlink:title="Réalise tout les niveau de zoom d&#39;un arbre NG. ">
<polygon fill="none" stroke="black" points="91,-0.5 91,-19.5 186,-19.5 186,-0.5 91,-0.5"/>
<text text-anchor="middle" x="138.5" y="-7.5" font-family="Helvetica,sans-Serif" font-size="10.00">tousLesZoomsNG</text>
</a>
</g>
</g>
<!-- Node1&#45;&gt;Node3 -->
<g id="edge2" class="edge"><title>Node1&#45;&gt;Node3</title>
<path fill="none" stroke="midnightblue" d="M65.1607,-22.6096C73.3594,-21.1805 82.1636,-19.6458 90.7096,-18.1561"/>
<polygon fill="midnightblue" stroke="midnightblue" points="64.4148,-19.1868 55.1644,-24.3521 65.6169,-26.0828 64.4148,-19.1868"/>
</g>
<!-- Node3&#45;&gt;Node2 -->
<g id="edge3" class="edge"><title>Node3&#45;&gt;Node2</title>
<path fill="none" stroke="midnightblue" d="M196.056,-20.6922C205.445,-22.4672 214.536,-24.1859 221.989,-25.595"/>
<polygon fill="midnightblue" stroke="midnightblue" points="196.696,-17.2512 186.219,-18.8325 195.395,-24.1293 196.696,-17.2512"/>
</g>
</g>
</svg>
