<?xml version="1.0" encoding="UTF-8" standalone="no"?>
<!DOCTYPE svg PUBLIC "-//W3C//DTD SVG 1.1//EN"
 "http://www.w3.org/Graphics/SVG/1.1/DTD/svg11.dtd">
<!-- Generated by graphviz version 2.38.0 (20140413.2041)
 -->
<!-- Title: creeationArbreNG Pages: 1 -->
<svg width="285pt" height="28pt"
 viewBox="0.00 0.00 285.00 28.00" xmlns="http://www.w3.org/2000/svg" xmlns:xlink="http://www.w3.org/1999/xlink">
<g id="graph0" class="graph" transform="scale(1 1) rotate(0) translate(4 24)">
<title>creeationArbreNG</title>
<!-- Node1 -->
<g id="node1" class="node"><title>Node1</title>
<polygon fill="#bfbfbf" stroke="black" points="0,-0.5 0,-19.5 94,-19.5 94,-0.5 0,-0.5"/>
<text text-anchor="middle" x="47" y="-7.5" font-family="Helvetica,sans-Serif" font-size="10.00">creeationArbreNG</text>
</g>
<!-- Node2 -->
<g id="node2" class="node"><title>Node2</title>
<g id="a_node2"><a xlink:href="quaternaire_8c.html#a80c7e96deac0699503dec245e2131975" target="_top" xlink:title="fonction d&#39;appel de création de l&#39;arbre NG ">
<polygon fill="none" stroke="black" points="130,-0.5 130,-19.5 203,-19.5 203,-0.5 130,-0.5"/>
<text text-anchor="middle" x="166.5" y="-7.5" font-family="Helvetica,sans-Serif" font-size="10.00">creeArbreNG</text>
</a>
</g>
</g>
<!-- Node1&#45;&gt;Node2 -->
<g id="edge1" class="edge"><title>Node1&#45;&gt;Node2</title>
<path fill="none" stroke="midnightblue" d="M104.208,-10C112.885,-10 121.636,-10 129.703,-10"/>
<polygon fill="midnightblue" stroke="midnightblue" points="104.102,-6.5001 94.1019,-10 104.102,-13.5001 104.102,-6.5001"/>
</g>
<!-- Node3 -->
<g id="node3" class="node"><title>Node3</title>
<g id="a_node3"><a xlink:href="main_8c.html#a0ddf1224851353fc92bfbff6f499fa97" target="_top" xlink:title="Main du programme. ">
<polygon fill="none" stroke="black" points="239,-0.5 239,-19.5 277,-19.5 277,-0.5 239,-0.5"/>
<text text-anchor="middle" x="258" y="-7.5" font-family="Helvetica,sans-Serif" font-size="10.00">main</text>
</a>
</g>
</g>
<!-- Node2&#45;&gt;Node3 -->
<g id="edge2" class="edge"><title>Node2&#45;&gt;Node3</title>
<path fill="none" stroke="midnightblue" d="M213.342,-10C222.435,-10 231.467,-10 238.937,-10"/>
<polygon fill="midnightblue" stroke="midnightblue" points="213.13,-6.5001 203.13,-10 213.13,-13.5001 213.13,-6.5001"/>
</g>
</g>
</svg>
