<?xml version="1.0" encoding="UTF-8" standalone="no"?>
<!DOCTYPE svg PUBLIC "-//W3C//DTD SVG 1.1//EN"
 "http://www.w3.org/Graphics/SVG/1.1/DTD/svg11.dtd">
<!-- Generated by graphviz version 2.38.0 (20140413.2041)
 -->
<!-- Title: profondeurArbre Pages: 1 -->
<svg width="426pt" height="156pt"
 viewBox="0.00 0.00 426.00 155.57" xmlns="http://www.w3.org/2000/svg" xmlns:xlink="http://www.w3.org/1999/xlink">
<g id="graph0" class="graph" transform="scale(1 1) rotate(0) translate(4 151.572)">
<title>profondeurArbre</title>
<!-- Node1 -->
<g id="node1" class="node"><title>Node1</title>
<polygon fill="#bfbfbf" stroke="black" points="0,-76.5 0,-95.5 85,-95.5 85,-76.5 0,-76.5"/>
<text text-anchor="middle" x="42.5" y="-83.5" font-family="Helvetica,sans-Serif" font-size="10.00">profondeurArbre</text>
</g>
<!-- Node2 -->
<g id="node2" class="node"><title>Node2</title>
<g id="a_node2"><a xlink:href="main_8c.html#a0ddf1224851353fc92bfbff6f499fa97" target="_top" xlink:title="Main du programme. ">
<polygon fill="none" stroke="black" points="380,-76.5 380,-95.5 418,-95.5 418,-76.5 380,-76.5"/>
<text text-anchor="middle" x="399" y="-83.5" font-family="Helvetica,sans-Serif" font-size="10.00">main</text>
</a>
</g>
</g>
<!-- Node1&#45;&gt;Node2 -->
<g id="edge1" class="edge"><title>Node1&#45;&gt;Node2</title>
<path fill="none" stroke="midnightblue" d="M59.5721,-102.693C74.1168,-116.505 96.8981,-135.091 121,-143 166.953,-158.079 333.439,-130.164 344,-126 361.366,-119.153 378.118,-105.24 388.24,-95.7676"/>
<polygon fill="midnightblue" stroke="midnightblue" points="61.9627,-100.135 52.383,-95.6098 57.0497,-105.122 61.9627,-100.135"/>
</g>
<!-- Node3 -->
<g id="node3" class="node"><title>Node3</title>
<g id="a_node3"><a xlink:href="quaternaire_8c.html#a48b048cacd0128d7485e99ea7d5fd9ba" target="_top" xlink:title="Effectue le zoom sur un arbre RGB. ">
<polygon fill="none" stroke="black" points="121,-114.5 121,-133.5 195,-133.5 195,-114.5 121,-114.5"/>
<text text-anchor="middle" x="158" y="-121.5" font-family="Helvetica,sans-Serif" font-size="10.00">zoomCouleur</text>
</a>
</g>
</g>
<!-- Node1&#45;&gt;Node3 -->
<g id="edge2" class="edge"><title>Node1&#45;&gt;Node3</title>
<path fill="none" stroke="midnightblue" d="M81.809,-98.8259C97.0383,-103.925 114.256,-109.689 128.368,-114.414"/>
<polygon fill="midnightblue" stroke="midnightblue" points="82.7347,-95.445 72.1408,-95.589 80.5123,-102.083 82.7347,-95.445"/>
</g>
<!-- Node4 -->
<g id="node4" class="node"><title>Node4</title>
<g id="a_node4"><a xlink:href="quaternaire_8c.html#a1d1e77f95b9ad72f9f8059a412ee8365" target="_top" xlink:title="Réalise tout les niveau de zoom d&#39;un arbre RGB. ">
<polygon fill="none" stroke="black" points="231,-76.5 231,-95.5 344,-95.5 344,-76.5 231,-76.5"/>
<text text-anchor="middle" x="287.5" y="-83.5" font-family="Helvetica,sans-Serif" font-size="10.00">tousLesZoomsCouleur</text>
</a>
</g>
</g>
<!-- Node1&#45;&gt;Node4 -->
<g id="edge10" class="edge"><title>Node1&#45;&gt;Node4</title>
<path fill="none" stroke="midnightblue" d="M95.3037,-86C135.099,-86 189.967,-86 230.722,-86"/>
<polygon fill="midnightblue" stroke="midnightblue" points="95.2732,-82.5001 85.2732,-86 95.2732,-89.5001 95.2732,-82.5001"/>
</g>
<!-- Node5 -->
<g id="node5" class="node"><title>Node5</title>
<g id="a_node5"><a xlink:href="quaternaire_8c.html#a3ebbb6278c797c3e72b00c179732e433" target="_top" xlink:title="Effectue le zoom sur un arbre NG. ">
<polygon fill="none" stroke="black" points="130.5,-38.5 130.5,-57.5 185.5,-57.5 185.5,-38.5 130.5,-38.5"/>
<text text-anchor="middle" x="158" y="-45.5" font-family="Helvetica,sans-Serif" font-size="10.00">zoomNG</text>
</a>
</g>
</g>
<!-- Node1&#45;&gt;Node5 -->
<g id="edge6" class="edge"><title>Node1&#45;&gt;Node5</title>
<path fill="none" stroke="midnightblue" d="M81.7393,-73.1974C97.6941,-67.8557 115.841,-61.7801 130.318,-56.9333"/>
<polygon fill="midnightblue" stroke="midnightblue" points="80.5123,-69.9172 72.1408,-76.411 82.7347,-76.555 80.5123,-69.9172"/>
</g>
<!-- Node6 -->
<g id="node6" class="node"><title>Node6</title>
<g id="a_node6"><a xlink:href="quaternaire_8c.html#ad8bb52314936ad1d1ad641c305d7792d" target="_top" xlink:title="Réalise tout les niveau de zoom d&#39;un arbre NG. ">
<polygon fill="none" stroke="black" points="240,-0.5 240,-19.5 335,-19.5 335,-0.5 240,-0.5"/>
<text text-anchor="middle" x="287.5" y="-7.5" font-family="Helvetica,sans-Serif" font-size="10.00">tousLesZoomsNG</text>
</a>
</g>
</g>
<!-- Node1&#45;&gt;Node6 -->
<g id="edge11" class="edge"><title>Node1&#45;&gt;Node6</title>
<path fill="none" stroke="midnightblue" d="M60.3089,-69.5357C75.0247,-56.1985 97.6516,-38.1697 121,-29 159.091,-14.0403 205.637,-9.81329 239.653,-9.02473"/>
<polygon fill="midnightblue" stroke="midnightblue" points="57.9068,-66.9901 52.993,-76.3766 62.6877,-72.1031 57.9068,-66.9901"/>
</g>
<!-- Node3&#45;&gt;Node2 -->
<g id="edge3" class="edge"><title>Node3&#45;&gt;Node2</title>
<path fill="none" stroke="midnightblue" d="M205.39,-122.268C243.103,-120.138 297.49,-115.417 344,-105 356.22,-102.263 369.492,-97.6177 379.821,-93.6054"/>
<polygon fill="midnightblue" stroke="midnightblue" points="205.017,-118.783 195.215,-122.803 205.385,-125.773 205.017,-118.783"/>
</g>
<!-- Node3&#45;&gt;Node4 -->
<g id="edge4" class="edge"><title>Node3&#45;&gt;Node4</title>
<path fill="none" stroke="midnightblue" d="M201.059,-111.465C218.404,-106.295 238.181,-100.401 254.337,-95.5859"/>
<polygon fill="midnightblue" stroke="midnightblue" points="199.757,-108.2 191.174,-114.411 201.757,-114.909 199.757,-108.2"/>
</g>
<!-- Node4&#45;&gt;Node2 -->
<g id="edge5" class="edge"><title>Node4&#45;&gt;Node2</title>
<path fill="none" stroke="midnightblue" d="M354.416,-86C363.707,-86 372.55,-86 379.813,-86"/>
<polygon fill="midnightblue" stroke="midnightblue" points="354.212,-82.5001 344.212,-86 354.212,-89.5001 354.212,-82.5001"/>
</g>
<!-- Node5&#45;&gt;Node2 -->
<g id="edge7" class="edge"><title>Node5&#45;&gt;Node2</title>
<path fill="none" stroke="midnightblue" d="M195.652,-49.2183C233.274,-51.0602 293.314,-55.6479 344,-67 356.22,-69.7368 369.492,-74.3823 379.821,-78.3946"/>
<polygon fill="midnightblue" stroke="midnightblue" points="195.81,-45.7219 185.662,-48.7682 195.495,-52.7148 195.81,-45.7219"/>
</g>
<!-- Node5&#45;&gt;Node6 -->
<g id="edge8" class="edge"><title>Node5&#45;&gt;Node6</title>
<path fill="none" stroke="midnightblue" d="M195.342,-37.1685C213.956,-31.621 236.419,-24.926 254.389,-19.5702"/>
<polygon fill="midnightblue" stroke="midnightblue" points="194.312,-33.8235 185.728,-40.034 196.311,-40.5318 194.312,-33.8235"/>
</g>
<!-- Node6&#45;&gt;Node2 -->
<g id="edge9" class="edge"><title>Node6&#45;&gt;Node2</title>
<path fill="none" stroke="midnightblue" d="M325.153,-23.6216C331.649,-26.6517 338.188,-30.1306 344,-34 362.418,-46.2609 380.187,-65.1687 390.048,-76.4887"/>
<polygon fill="midnightblue" stroke="midnightblue" points="326.322,-20.3127 315.758,-19.5101 323.516,-26.7255 326.322,-20.3127"/>
</g>
</g>
</svg>
