<?xml version="1.0" encoding="UTF-8" standalone="no"?>
<!DOCTYPE svg PUBLIC "-//W3C//DTD SVG 1.1//EN"
 "http://www.w3.org/Graphics/SVG/1.1/DTD/svg11.dtd">
<!-- Generated by graphviz version 2.38.0 (20140413.2041)
 -->
<!-- Title: convolutionCase Pages: 1 -->
<svg width="392pt" height="218pt"
 viewBox="0.00 0.00 392.00 218.00" xmlns="http://www.w3.org/2000/svg" xmlns:xlink="http://www.w3.org/1999/xlink">
<g id="graph0" class="graph" transform="scale(1 1) rotate(0) translate(4 214)">
<title>convolutionCase</title>
<!-- Node1 -->
<g id="node1" class="node"><title>Node1</title>
<polygon fill="#bfbfbf" stroke="black" points="0,-95.5 0,-114.5 87,-114.5 87,-95.5 0,-95.5"/>
<text text-anchor="middle" x="43.5" y="-102.5" font-family="Helvetica,sans-Serif" font-size="10.00">convolutionCase</text>
</g>
<!-- Node2 -->
<g id="node2" class="node"><title>Node2</title>
<g id="a_node2"><a xlink:href="prototype_8h.html#ae5299087eb8255b465ad8db59f6e4839" target="_top" xlink:title="Effectue une convolution sur une image, à partir d&#39;un outil de dimension variable le boolen div indiq...">
<polygon fill="none" stroke="black" points="123,-95.5 123,-114.5 188,-114.5 188,-95.5 123,-95.5"/>
<text text-anchor="middle" x="155.5" y="-102.5" font-family="Helvetica,sans-Serif" font-size="10.00">convolution</text>
</a>
</g>
</g>
<!-- Node1&#45;&gt;Node2 -->
<g id="edge1" class="edge"><title>Node1&#45;&gt;Node2</title>
<path fill="none" stroke="midnightblue" d="M97.1679,-105C105.88,-105 114.671,-105 122.663,-105"/>
<polygon fill="midnightblue" stroke="midnightblue" points="97.0289,-101.5 87.0289,-105 97.0288,-108.5 97.0289,-101.5"/>
</g>
<!-- Node3 -->
<g id="node3" class="node"><title>Node3</title>
<g id="a_node3"><a xlink:href="prototype_8h.html#a19db973ff01975a8fb9d826104b72b63" target="_top" xlink:title="Outil de filtrage pour une convolution, pour effectuer une pondération moyenneur. ...">
<polygon fill="none" stroke="black" points="229,-190.5 229,-209.5 305,-209.5 305,-190.5 229,-190.5"/>
<text text-anchor="middle" x="267" y="-197.5" font-family="Helvetica,sans-Serif" font-size="10.00">filtrePondMoy</text>
</a>
</g>
</g>
<!-- Node2&#45;&gt;Node3 -->
<g id="edge2" class="edge"><title>Node2&#45;&gt;Node3</title>
<path fill="none" stroke="midnightblue" d="M168.982,-122.957C181.373,-139.729 201.699,-164.579 224,-181 228.898,-184.606 234.589,-187.746 240.171,-190.378"/>
<polygon fill="midnightblue" stroke="midnightblue" points="171.633,-120.648 162.952,-114.574 165.95,-124.736 171.633,-120.648"/>
</g>
<!-- Node5 -->
<g id="node5" class="node"><title>Node5</title>
<g id="a_node5"><a xlink:href="prototype_8h.html#ab30046d2ef364b8b529041e0f143228b" target="_top" xlink:title="Outil de filtrage pour une convolution, pour effectuer une pondération de Gauss. ">
<polygon fill="none" stroke="black" points="224,-152.5 224,-171.5 310,-171.5 310,-152.5 224,-152.5"/>
<text text-anchor="middle" x="267" y="-159.5" font-family="Helvetica,sans-Serif" font-size="10.00">filtrePondGauss</text>
</a>
</g>
</g>
<!-- Node2&#45;&gt;Node5 -->
<g id="edge4" class="edge"><title>Node2&#45;&gt;Node5</title>
<path fill="none" stroke="midnightblue" d="M181.622,-119.837C194.204,-127.089 209.755,-135.786 224,-143 230.426,-146.254 237.524,-149.569 244.029,-152.499"/>
<polygon fill="midnightblue" stroke="midnightblue" points="183.055,-116.622 172.65,-114.621 179.536,-122.673 183.055,-116.622"/>
</g>
<!-- Node6 -->
<g id="node6" class="node"><title>Node6</title>
<g id="a_node6"><a xlink:href="prototype_8h.html#a31b55f7a91e23cbfe20cf35cec74c64c" target="_top" xlink:title="Outil de filtrage pour une convolution, pour effectuer un gradient de Roberts. ">
<polygon fill="none" stroke="black" points="225,-114.5 225,-133.5 309,-133.5 309,-114.5 225,-114.5"/>
<text text-anchor="middle" x="267" y="-121.5" font-family="Helvetica,sans-Serif" font-size="10.00">filtreGraRoberts</text>
</a>
</g>
</g>
<!-- Node2&#45;&gt;Node6 -->
<g id="edge6" class="edge"><title>Node2&#45;&gt;Node6</title>
<path fill="none" stroke="midnightblue" d="M198.094,-112.217C206.778,-113.724 215.931,-115.312 224.608,-116.818"/>
<polygon fill="midnightblue" stroke="midnightblue" points="198.623,-108.757 188.172,-110.496 197.426,-115.654 198.623,-108.757"/>
</g>
<!-- Node7 -->
<g id="node7" class="node"><title>Node7</title>
<g id="a_node7"><a xlink:href="prototype_8h.html#acb7c60914c3fdac39f1dad89e0bacf86" target="_top" xlink:title="Outil de filtrage pour une convolution, pour effectuer une pondération de Prewitt. ">
<polygon fill="none" stroke="black" points="227,-76.5 227,-95.5 307,-95.5 307,-76.5 227,-76.5"/>
<text text-anchor="middle" x="267" y="-83.5" font-family="Helvetica,sans-Serif" font-size="10.00">filtreGraPrewitt</text>
</a>
</g>
</g>
<!-- Node2&#45;&gt;Node7 -->
<g id="edge8" class="edge"><title>Node2&#45;&gt;Node7</title>
<path fill="none" stroke="midnightblue" d="M198.062,-97.7883C207.427,-96.1634 217.338,-94.4436 226.611,-92.8347"/>
<polygon fill="midnightblue" stroke="midnightblue" points="197.426,-94.3462 188.172,-99.5044 198.623,-101.243 197.426,-94.3462"/>
</g>
<!-- Node8 -->
<g id="node8" class="node"><title>Node8</title>
<g id="a_node8"><a xlink:href="prototype_8h.html#a0c820e8e1fe7ece1952da9541bc1e7ef" target="_top" xlink:title="Outil de filtrage pour une convolution, pour effectuer une pondération de Sobel. ">
<polygon fill="none" stroke="black" points="229.5,-38.5 229.5,-57.5 304.5,-57.5 304.5,-38.5 229.5,-38.5"/>
<text text-anchor="middle" x="267" y="-45.5" font-family="Helvetica,sans-Serif" font-size="10.00">filtreGraSobel</text>
</a>
</g>
</g>
<!-- Node2&#45;&gt;Node8 -->
<g id="edge10" class="edge"><title>Node2&#45;&gt;Node8</title>
<path fill="none" stroke="midnightblue" d="M181.622,-90.1629C194.204,-82.9108 209.755,-74.2142 224,-67 230.426,-63.7458 237.524,-60.4313 244.029,-57.5012"/>
<polygon fill="midnightblue" stroke="midnightblue" points="179.536,-87.3267 172.65,-95.3785 183.055,-93.3784 179.536,-87.3267"/>
</g>
<!-- Node9 -->
<g id="node9" class="node"><title>Node9</title>
<g id="a_node9"><a xlink:href="prototype_8h.html#a695691e0c840ff86d9c9f68efe9f8a2e" target="_top" xlink:title="Outil de filtrage pour une convolution, pour effectuer un Laplacien. ">
<polygon fill="none" stroke="black" points="229,-0.5 229,-19.5 305,-19.5 305,-0.5 229,-0.5"/>
<text text-anchor="middle" x="267" y="-7.5" font-family="Helvetica,sans-Serif" font-size="10.00">filtreLaplacien</text>
</a>
</g>
</g>
<!-- Node2&#45;&gt;Node9 -->
<g id="edge12" class="edge"><title>Node2&#45;&gt;Node9</title>
<path fill="none" stroke="midnightblue" d="M168.982,-87.0435C181.373,-70.2708 201.699,-45.4213 224,-29 228.898,-25.3936 234.589,-22.2539 240.171,-19.6217"/>
<polygon fill="midnightblue" stroke="midnightblue" points="165.95,-85.2642 162.952,-95.4259 171.633,-89.3519 165.95,-85.2642"/>
</g>
<!-- Node4 -->
<g id="node4" class="node"><title>Node4</title>
<g id="a_node4"><a xlink:href="main_8c.html#a0ddf1224851353fc92bfbff6f499fa97" target="_top" xlink:title="Main du programme. ">
<polygon fill="none" stroke="black" points="346,-95.5 346,-114.5 384,-114.5 384,-95.5 346,-95.5"/>
<text text-anchor="middle" x="365" y="-102.5" font-family="Helvetica,sans-Serif" font-size="10.00">main</text>
</a>
</g>
</g>
<!-- Node3&#45;&gt;Node4 -->
<g id="edge3" class="edge"><title>Node3&#45;&gt;Node4</title>
<path fill="none" stroke="midnightblue" d="M303.759,-185.49C305.951,-184.099 308.054,-182.603 310,-181 333.239,-161.861 351.215,-130.414 359.308,-114.647"/>
<polygon fill="midnightblue" stroke="midnightblue" points="302.058,-182.431 295.008,-190.341 305.451,-188.553 302.058,-182.431"/>
</g>
<!-- Node5&#45;&gt;Node4 -->
<g id="edge5" class="edge"><title>Node5&#45;&gt;Node4</title>
<path fill="none" stroke="midnightblue" d="M300.567,-148.008C303.797,-146.401 306.99,-144.719 310,-143 324.931,-134.471 340.904,-122.89 351.572,-114.763"/>
<polygon fill="midnightblue" stroke="midnightblue" points="299.032,-144.863 291.497,-152.31 302.032,-151.187 299.032,-144.863"/>
</g>
<!-- Node6&#45;&gt;Node4 -->
<g id="edge7" class="edge"><title>Node6&#45;&gt;Node4</title>
<path fill="none" stroke="midnightblue" d="M319.241,-113.859C328.81,-111.965 338.207,-110.105 345.901,-108.582"/>
<polygon fill="midnightblue" stroke="midnightblue" points="318.4,-110.457 309.27,-115.832 319.759,-117.324 318.4,-110.457"/>
</g>
<!-- Node7&#45;&gt;Node4 -->
<g id="edge9" class="edge"><title>Node7&#45;&gt;Node4</title>
<path fill="none" stroke="midnightblue" d="M316.962,-95.6904C327.35,-97.7464 337.679,-99.7906 345.999,-101.437"/>
<polygon fill="midnightblue" stroke="midnightblue" points="317.536,-92.2362 307.047,-93.728 316.177,-99.103 317.536,-92.2362"/>
</g>
<!-- Node8&#45;&gt;Node4 -->
<g id="edge11" class="edge"><title>Node8&#45;&gt;Node4</title>
<path fill="none" stroke="midnightblue" d="M300.567,-61.992C303.797,-63.5991 306.99,-65.2806 310,-67 324.931,-75.5294 340.904,-87.1097 351.572,-95.2373"/>
<polygon fill="midnightblue" stroke="midnightblue" points="302.032,-58.8128 291.497,-57.6896 299.032,-65.1374 302.032,-58.8128"/>
</g>
<!-- Node9&#45;&gt;Node4 -->
<g id="edge13" class="edge"><title>Node9&#45;&gt;Node4</title>
<path fill="none" stroke="midnightblue" d="M303.759,-24.5103C305.951,-25.9015 308.054,-27.3974 310,-29 333.239,-48.1388 351.215,-79.5864 359.308,-95.3533"/>
<polygon fill="midnightblue" stroke="midnightblue" points="305.451,-21.4467 295.008,-19.6595 302.058,-27.569 305.451,-21.4467"/>
</g>
</g>
</svg>
