<?xml version="1.0" encoding="UTF-8" standalone="no"?>
<!DOCTYPE svg PUBLIC "-//W3C//DTD SVG 1.1//EN"
 "http://www.w3.org/Graphics/SVG/1.1/DTD/svg11.dtd">
<!-- Generated by graphviz version 2.38.0 (20140413.2041)
 -->
<!-- Title: convolution Pages: 1 -->
<svg width="199pt" height="104pt"
 viewBox="0.00 0.00 199.00 104.00" xmlns="http://www.w3.org/2000/svg" xmlns:xlink="http://www.w3.org/1999/xlink">
<g id="graph0" class="graph" transform="scale(1 1) rotate(0) translate(4 100)">
<title>convolution</title>
<!-- Node1 -->
<g id="node1" class="node"><title>Node1</title>
<polygon fill="#bfbfbf" stroke="black" points="0,-38.5 0,-57.5 65,-57.5 65,-38.5 0,-38.5"/>
<text text-anchor="middle" x="32.5" y="-45.5" font-family="Helvetica,sans-Serif" font-size="10.00">convolution</text>
</g>
<!-- Node2 -->
<g id="node2" class="node"><title>Node2</title>
<g id="a_node2"><a xlink:href="partie1_8c.html#a74146446548f74f43dcabaeea7b55493" target="_top" xlink:title="Retour une matrice de dimension haut * larg. ">
<polygon fill="none" stroke="black" points="101,-76.5 101,-95.5 191,-95.5 191,-76.5 101,-76.5"/>
<text text-anchor="middle" x="146" y="-83.5" font-family="Helvetica,sans-Serif" font-size="10.00">allocationMatrice</text>
</a>
</g>
</g>
<!-- Node1&#45;&gt;Node2 -->
<g id="edge1" class="edge"><title>Node1&#45;&gt;Node2</title>
<path fill="none" stroke="midnightblue" d="M61.6362,-57.589C75.5015,-62.3144 92.4156,-68.0789 107.376,-73.1774"/>
<polygon fill="midnightblue" stroke="midnightblue" points="106.278,-76.501 116.873,-76.4141 108.537,-69.8752 106.278,-76.501"/>
</g>
<!-- Node3 -->
<g id="node3" class="node"><title>Node3</title>
<g id="a_node3"><a xlink:href="filtres_8c.html#adf784ef535b95a1f87bcb466b44fb200" target="_top" xlink:title="Effectue une convolution sur une case d&#39;une image, à partir d&#39;un outil de dimension variable le boole...">
<polygon fill="none" stroke="black" points="102.5,-38.5 102.5,-57.5 189.5,-57.5 189.5,-38.5 102.5,-38.5"/>
<text text-anchor="middle" x="146" y="-45.5" font-family="Helvetica,sans-Serif" font-size="10.00">convolutionCase</text>
</a>
</g>
</g>
<!-- Node1&#45;&gt;Node3 -->
<g id="edge2" class="edge"><title>Node1&#45;&gt;Node3</title>
<path fill="none" stroke="midnightblue" d="M65.1532,-48C73.6639,-48 83.1023,-48 92.4221,-48"/>
<polygon fill="midnightblue" stroke="midnightblue" points="92.4391,-51.5001 102.439,-48 92.439,-44.5001 92.4391,-51.5001"/>
</g>
<!-- Node4 -->
<g id="node4" class="node"><title>Node4</title>
<g id="a_node4"><a xlink:href="partie1_8c.html#a106518d4a41c16e3a633d2963200b919" target="_top" xlink:title="Libération d&#39;une matrice. ">
<polygon fill="none" stroke="black" points="102,-0.5 102,-19.5 190,-19.5 190,-0.5 102,-0.5"/>
<text text-anchor="middle" x="146" y="-7.5" font-family="Helvetica,sans-Serif" font-size="10.00">liberationmatrice</text>
</a>
</g>
</g>
<!-- Node1&#45;&gt;Node4 -->
<g id="edge3" class="edge"><title>Node1&#45;&gt;Node4</title>
<path fill="none" stroke="midnightblue" d="M61.6362,-38.411C75.5015,-33.6856 92.4156,-27.9211 107.376,-22.8226"/>
<polygon fill="midnightblue" stroke="midnightblue" points="108.537,-26.1248 116.873,-19.5859 106.278,-19.499 108.537,-26.1248"/>
</g>
</g>
</svg>
