<?xml version="1.0" encoding="UTF-8" standalone="no"?>
<!DOCTYPE svg PUBLIC "-//W3C//DTD SVG 1.1//EN"
 "http://www.w3.org/Graphics/SVG/1.1/DTD/svg11.dtd">
<!-- Generated by graphviz version 2.38.0 (20140413.2041)
 -->
<!-- Title: medianGrisNxN Pages: 1 -->
<svg width="308pt" height="28pt"
 viewBox="0.00 0.00 308.00 28.00" xmlns="http://www.w3.org/2000/svg" xmlns:xlink="http://www.w3.org/1999/xlink">
<g id="graph0" class="graph" transform="scale(1 1) rotate(0) translate(4 24)">
<title>medianGrisNxN</title>
<!-- Node1 -->
<g id="node1" class="node"><title>Node1</title>
<polygon fill="#bfbfbf" stroke="black" points="0,-0.5 0,-19.5 85,-19.5 85,-0.5 0,-0.5"/>
<text text-anchor="middle" x="42.5" y="-7.5" font-family="Helvetica,sans-Serif" font-size="10.00">medianGrisNxN</text>
</g>
<!-- Node2 -->
<g id="node2" class="node"><title>Node2</title>
<g id="a_node2"><a xlink:href="median_8c.html#a8d073ca77c07879099a62d661e317f33" target="_top" xlink:title="Calcul de la médiane pour une case NG. ">
<polygon fill="none" stroke="black" points="121,-0.5 121,-19.5 208,-19.5 208,-0.5 121,-0.5"/>
<text text-anchor="middle" x="164.5" y="-7.5" font-family="Helvetica,sans-Serif" font-size="10.00">medianGriscase</text>
</a>
</g>
</g>
<!-- Node1&#45;&gt;Node2 -->
<g id="edge1" class="edge"><title>Node1&#45;&gt;Node2</title>
<path fill="none" stroke="midnightblue" d="M85.1334,-10C93.3147,-10 102,-10 110.496,-10"/>
<polygon fill="midnightblue" stroke="midnightblue" points="110.719,-13.5001 120.719,-10 110.718,-6.5001 110.719,-13.5001"/>
</g>
<!-- Node3 -->
<g id="node3" class="node"><title>Node3</title>
<g id="a_node3"><a xlink:href="median_8c.html#a6f9266f5d5b1c83fdcd462d44e60f3e2" target="_top" xlink:title="tri un tableau et retourne la valeur médiane ">
<polygon fill="none" stroke="black" points="244,-0.5 244,-19.5 300,-19.5 300,-0.5 244,-0.5"/>
<text text-anchor="middle" x="272" y="-7.5" font-family="Helvetica,sans-Serif" font-size="10.00">tritableau</text>
</a>
</g>
</g>
<!-- Node2&#45;&gt;Node3 -->
<g id="edge2" class="edge"><title>Node2&#45;&gt;Node3</title>
<path fill="none" stroke="midnightblue" d="M208.107,-10C216.551,-10 225.355,-10 233.61,-10"/>
<polygon fill="midnightblue" stroke="midnightblue" points="233.704,-13.5001 243.704,-10 233.704,-6.5001 233.704,-13.5001"/>
</g>
</g>
</svg>
