<?xml version="1.0" encoding="UTF-8" standalone="no"?>
<!DOCTYPE svg PUBLIC "-//W3C//DTD SVG 1.1//EN"
 "http://www.w3.org/Graphics/SVG/1.1/DTD/svg11.dtd">
<!-- Generated by graphviz version 2.38.0 (20140413.2041)
 -->
<!-- Title: creeNoeudArbreRVB Pages: 1 -->
<svg width="440pt" height="28pt"
 viewBox="0.00 0.00 440.00 28.00" xmlns="http://www.w3.org/2000/svg" xmlns:xlink="http://www.w3.org/1999/xlink">
<g id="graph0" class="graph" transform="scale(1 1) rotate(0) translate(4 24)">
<title>creeNoeudArbreRVB</title>
<!-- Node1 -->
<g id="node1" class="node"><title>Node1</title>
<polygon fill="#bfbfbf" stroke="black" points="0,-0.5 0,-19.5 107,-19.5 107,-0.5 0,-0.5"/>
<text text-anchor="middle" x="53.5" y="-7.5" font-family="Helvetica,sans-Serif" font-size="10.00">creeNoeudArbreRVB</text>
</g>
<!-- Node2 -->
<g id="node2" class="node"><title>Node2</title>
<g id="a_node2"><a xlink:href="quaternaire_8c.html#a9d875718a998684827d6296dd4dc6908" target="_top" xlink:title="Création d&#39;un nœud de l&#39;arbre quaternaire RGB. ">
<polygon fill="none" stroke="black" points="143,-0.5 143,-19.5 243,-19.5 243,-0.5 143,-0.5"/>
<text text-anchor="middle" x="193" y="-7.5" font-family="Helvetica,sans-Serif" font-size="10.00">creeationArbreRVB</text>
</a>
</g>
</g>
<!-- Node1&#45;&gt;Node2 -->
<g id="edge1" class="edge"><title>Node1&#45;&gt;Node2</title>
<path fill="none" stroke="midnightblue" d="M117.51,-10C125.983,-10 134.572,-10 142.76,-10"/>
<polygon fill="midnightblue" stroke="midnightblue" points="117.268,-6.5001 107.268,-10 117.268,-13.5001 117.268,-6.5001"/>
</g>
<!-- Node3 -->
<g id="node3" class="node"><title>Node3</title>
<g id="a_node3"><a xlink:href="quaternaire_8c.html#aefd17584e965ef44eaa002b39e310b86" target="_top" xlink:title="Fonction d&#39;appel de création de l&#39;arbre RGB. ">
<polygon fill="none" stroke="black" points="279,-0.5 279,-19.5 358,-19.5 358,-0.5 279,-0.5"/>
<text text-anchor="middle" x="318.5" y="-7.5" font-family="Helvetica,sans-Serif" font-size="10.00">creeArbreRVB</text>
</a>
</g>
</g>
<!-- Node2&#45;&gt;Node3 -->
<g id="edge2" class="edge"><title>Node2&#45;&gt;Node3</title>
<path fill="none" stroke="midnightblue" d="M253.266,-10C261.931,-10 270.662,-10 278.773,-10"/>
<polygon fill="midnightblue" stroke="midnightblue" points="253.165,-6.5001 243.165,-10 253.165,-13.5001 253.165,-6.5001"/>
</g>
<!-- Node4 -->
<g id="node4" class="node"><title>Node4</title>
<g id="a_node4"><a xlink:href="main_8c.html#a0ddf1224851353fc92bfbff6f499fa97" target="_top" xlink:title="Main du programme. ">
<polygon fill="none" stroke="black" points="394,-0.5 394,-19.5 432,-19.5 432,-0.5 394,-0.5"/>
<text text-anchor="middle" x="413" y="-7.5" font-family="Helvetica,sans-Serif" font-size="10.00">main</text>
</a>
</g>
</g>
<!-- Node3&#45;&gt;Node4 -->
<g id="edge3" class="edge"><title>Node3&#45;&gt;Node4</title>
<path fill="none" stroke="midnightblue" d="M368.354,-10C377.37,-10 386.253,-10 393.628,-10"/>
<polygon fill="midnightblue" stroke="midnightblue" points="368.192,-6.5001 358.192,-10 368.192,-13.5001 368.192,-6.5001"/>
</g>
</g>
</svg>
