<?xml version="1.0" encoding="UTF-8" standalone="no"?>
<!DOCTYPE svg PUBLIC "-//W3C//DTD SVG 1.1//EN"
 "http://www.w3.org/Graphics/SVG/1.1/DTD/svg11.dtd">
<!-- Generated by graphviz version 2.38.0 (20140413.2041)
 -->
<!-- Title: carreHomogeneRVB Pages: 1 -->
<svg width="438pt" height="28pt"
 viewBox="0.00 0.00 438.00 28.00" xmlns="http://www.w3.org/2000/svg" xmlns:xlink="http://www.w3.org/1999/xlink">
<g id="graph0" class="graph" transform="scale(1 1) rotate(0) translate(4 24)">
<title>carreHomogeneRVB</title>
<!-- Node1 -->
<g id="node1" class="node"><title>Node1</title>
<polygon fill="#bfbfbf" stroke="black" points="0,-0.5 0,-19.5 105,-19.5 105,-0.5 0,-0.5"/>
<text text-anchor="middle" x="52.5" y="-7.5" font-family="Helvetica,sans-Serif" font-size="10.00">carreHomogeneRVB</text>
</g>
<!-- Node2 -->
<g id="node2" class="node"><title>Node2</title>
<g id="a_node2"><a xlink:href="quaternaire_8c.html#a9d875718a998684827d6296dd4dc6908" target="_top" xlink:title="Création d&#39;un nœud de l&#39;arbre quaternaire RGB. ">
<polygon fill="none" stroke="black" points="141,-0.5 141,-19.5 241,-19.5 241,-0.5 141,-0.5"/>
<text text-anchor="middle" x="191" y="-7.5" font-family="Helvetica,sans-Serif" font-size="10.00">creeationArbreRVB</text>
</a>
</g>
</g>
<!-- Node1&#45;&gt;Node2 -->
<g id="edge1" class="edge"><title>Node1&#45;&gt;Node2</title>
<path fill="none" stroke="midnightblue" d="M115.324,-10C123.785,-10 132.378,-10 140.579,-10"/>
<polygon fill="midnightblue" stroke="midnightblue" points="115.105,-6.5001 105.105,-10 115.105,-13.5001 115.105,-6.5001"/>
</g>
<!-- Node3 -->
<g id="node3" class="node"><title>Node3</title>
<g id="a_node3"><a xlink:href="quaternaire_8c.html#aefd17584e965ef44eaa002b39e310b86" target="_top" xlink:title="Fonction d&#39;appel de création de l&#39;arbre RGB. ">
<polygon fill="none" stroke="black" points="277,-0.5 277,-19.5 356,-19.5 356,-0.5 277,-0.5"/>
<text text-anchor="middle" x="316.5" y="-7.5" font-family="Helvetica,sans-Serif" font-size="10.00">creeArbreRVB</text>
</a>
</g>
</g>
<!-- Node2&#45;&gt;Node3 -->
<g id="edge2" class="edge"><title>Node2&#45;&gt;Node3</title>
<path fill="none" stroke="midnightblue" d="M251.266,-10C259.931,-10 268.662,-10 276.773,-10"/>
<polygon fill="midnightblue" stroke="midnightblue" points="251.165,-6.5001 241.165,-10 251.165,-13.5001 251.165,-6.5001"/>
</g>
<!-- Node4 -->
<g id="node4" class="node"><title>Node4</title>
<g id="a_node4"><a xlink:href="main_8c.html#a0ddf1224851353fc92bfbff6f499fa97" target="_top" xlink:title="Main du programme. ">
<polygon fill="none" stroke="black" points="392,-0.5 392,-19.5 430,-19.5 430,-0.5 392,-0.5"/>
<text text-anchor="middle" x="411" y="-7.5" font-family="Helvetica,sans-Serif" font-size="10.00">main</text>
</a>
</g>
</g>
<!-- Node3&#45;&gt;Node4 -->
<g id="edge3" class="edge"><title>Node3&#45;&gt;Node4</title>
<path fill="none" stroke="midnightblue" d="M366.354,-10C375.37,-10 384.253,-10 391.628,-10"/>
<polygon fill="midnightblue" stroke="midnightblue" points="366.192,-6.5001 356.192,-10 366.192,-13.5001 366.192,-6.5001"/>
</g>
</g>
</svg>
