<?xml version="1.0" encoding="UTF-8" standalone="no"?>
<!DOCTYPE svg PUBLIC "-//W3C//DTD SVG 1.1//EN"
 "http://www.w3.org/Graphics/SVG/1.1/DTD/svg11.dtd">
<!-- Generated by graphviz version 2.38.0 (20140413.2041)
 -->
<!-- Title: creationMatriceCaseRVB Pages: 1 -->
<svg width="607pt" height="85pt"
 viewBox="0.00 0.00 607.00 85.00" xmlns="http://www.w3.org/2000/svg" xmlns:xlink="http://www.w3.org/1999/xlink">
<g id="graph0" class="graph" transform="scale(1 1) rotate(0) translate(4 81)">
<title>creationMatriceCaseRVB</title>
<!-- Node1 -->
<g id="node1" class="node"><title>Node1</title>
<polygon fill="#bfbfbf" stroke="black" points="0,-57.5 0,-76.5 126,-76.5 126,-57.5 0,-57.5"/>
<text text-anchor="middle" x="63" y="-64.5" font-family="Helvetica,sans-Serif" font-size="10.00">creationMatriceCaseRVB</text>
</g>
<!-- Node2 -->
<g id="node2" class="node"><title>Node2</title>
<g id="a_node2"><a xlink:href="quaternaire_8c.html#a5715adb9973e14b37d0b6920cf12f782" target="_top" xlink:title="Remplissage des matrices avec un arbre RGB. ">
<polygon fill="none" stroke="black" points="162,-57.5 162,-76.5 266,-76.5 266,-57.5 162,-57.5"/>
<text text-anchor="middle" x="214" y="-64.5" font-family="Helvetica,sans-Serif" font-size="10.00">creationMatriceRVB</text>
</a>
</g>
</g>
<!-- Node1&#45;&gt;Node2 -->
<g id="edge1" class="edge"><title>Node1&#45;&gt;Node2</title>
<path fill="none" stroke="midnightblue" d="M136.356,-67C144.939,-67 153.559,-67 161.762,-67"/>
<polygon fill="midnightblue" stroke="midnightblue" points="136.326,-63.5001 126.326,-67 136.326,-70.5001 136.326,-63.5001"/>
</g>
<!-- Node3 -->
<g id="node3" class="node"><title>Node3</title>
<g id="a_node3"><a xlink:href="main_8c.html#a0ddf1224851353fc92bfbff6f499fa97" target="_top" xlink:title="Main du programme. ">
<polygon fill="none" stroke="black" points="561,-38.5 561,-57.5 599,-57.5 599,-38.5 561,-38.5"/>
<text text-anchor="middle" x="580" y="-45.5" font-family="Helvetica,sans-Serif" font-size="10.00">main</text>
</a>
</g>
</g>
<!-- Node2&#45;&gt;Node3 -->
<g id="edge2" class="edge"><title>Node2&#45;&gt;Node3</title>
<path fill="none" stroke="midnightblue" d="M276.189,-70.5791C338.983,-73.1857 439.339,-74.387 525,-62 537.077,-60.2535 550.348,-56.8348 560.711,-53.813"/>
<polygon fill="midnightblue" stroke="midnightblue" points="276.204,-67.0764 266.06,-70.1328 275.896,-74.0697 276.204,-67.0764"/>
</g>
<!-- Node4 -->
<g id="node4" class="node"><title>Node4</title>
<g id="a_node4"><a xlink:href="quaternaire_8c.html#a48b048cacd0128d7485e99ea7d5fd9ba" target="_top" xlink:title="Effectue le zoom sur un arbre RGB. ">
<polygon fill="none" stroke="black" points="302,-38.5 302,-57.5 376,-57.5 376,-38.5 302,-38.5"/>
<text text-anchor="middle" x="339" y="-45.5" font-family="Helvetica,sans-Serif" font-size="10.00">zoomCouleur</text>
</a>
</g>
</g>
<!-- Node2&#45;&gt;Node4 -->
<g id="edge3" class="edge"><title>Node2&#45;&gt;Node4</title>
<path fill="none" stroke="midnightblue" d="M276.032,-57.5723C284.873,-56.2066 293.727,-54.8388 301.864,-53.582"/>
<polygon fill="midnightblue" stroke="midnightblue" points="275.443,-54.1217 266.095,-59.1074 276.512,-61.0396 275.443,-54.1217"/>
</g>
<!-- Node4&#45;&gt;Node3 -->
<g id="edge4" class="edge"><title>Node4&#45;&gt;Node3</title>
<path fill="none" stroke="midnightblue" d="M386.212,-48C439.287,-48 523.784,-48 560.717,-48"/>
<polygon fill="midnightblue" stroke="midnightblue" points="386.04,-44.5001 376.039,-48 386.039,-51.5001 386.04,-44.5001"/>
</g>
<!-- Node5 -->
<g id="node5" class="node"><title>Node5</title>
<g id="a_node5"><a xlink:href="quaternaire_8c.html#a1d1e77f95b9ad72f9f8059a412ee8365" target="_top" xlink:title="Réalise tout les niveau de zoom d&#39;un arbre RGB. ">
<polygon fill="none" stroke="black" points="412,-0.5 412,-19.5 525,-19.5 525,-0.5 412,-0.5"/>
<text text-anchor="middle" x="468.5" y="-7.5" font-family="Helvetica,sans-Serif" font-size="10.00">tousLesZoomsCouleur</text>
</a>
</g>
</g>
<!-- Node4&#45;&gt;Node5 -->
<g id="edge5" class="edge"><title>Node4&#45;&gt;Node5</title>
<path fill="none" stroke="midnightblue" d="M382.059,-35.4647C399.404,-30.2952 419.181,-24.4009 435.337,-19.5859"/>
<polygon fill="midnightblue" stroke="midnightblue" points="380.757,-32.2005 372.174,-38.411 382.757,-38.9089 380.757,-32.2005"/>
</g>
<!-- Node5&#45;&gt;Node3 -->
<g id="edge6" class="edge"><title>Node5&#45;&gt;Node3</title>
<path fill="none" stroke="midnightblue" d="M506.677,-22.9016C525.012,-29.2644 546.288,-36.648 560.995,-41.7517"/>
<polygon fill="midnightblue" stroke="midnightblue" points="507.726,-19.561 497.131,-19.589 505.431,-26.1741 507.726,-19.561"/>
</g>
</g>
</svg>
