<?xml version="1.0" encoding="UTF-8" standalone="no"?>
<!DOCTYPE svg PUBLIC "-//W3C//DTD SVG 1.1//EN"
 "http://www.w3.org/Graphics/SVG/1.1/DTD/svg11.dtd">
<!-- Generated by graphviz version 2.38.0 (20140413.2041)
 -->
<!-- Title: convknn Pages: 1 -->
<svg width="393pt" height="136pt"
 viewBox="0.00 0.00 393.00 136.25" xmlns="http://www.w3.org/2000/svg" xmlns:xlink="http://www.w3.org/1999/xlink">
<g id="graph0" class="graph" transform="scale(1 1) rotate(0) translate(4 132.254)">
<title>convknn</title>
<!-- Node1 -->
<g id="node1" class="node"><title>Node1</title>
<polygon fill="#bfbfbf" stroke="black" points="0,-95.5 0,-114.5 52,-114.5 52,-95.5 0,-95.5"/>
<text text-anchor="middle" x="26" y="-102.5" font-family="Helvetica,sans-Serif" font-size="10.00">convknn</text>
</g>
<!-- Node2 -->
<g id="node2" class="node"><title>Node2</title>
<g id="a_node2"><a xlink:href="main_8c.html#a0ddf1224851353fc92bfbff6f499fa97" target="_top" xlink:title="Main du programme. ">
<polygon fill="none" stroke="black" points="347,-76.5 347,-95.5 385,-95.5 385,-76.5 347,-76.5"/>
<text text-anchor="middle" x="366" y="-83.5" font-family="Helvetica,sans-Serif" font-size="10.00">main</text>
</a>
</g>
</g>
<!-- Node1&#45;&gt;Node2 -->
<g id="edge1" class="edge"><title>Node1&#45;&gt;Node2</title>
<path fill="none" stroke="midnightblue" d="M61.4829,-117.722C70.031,-120.322 79.2512,-122.669 88,-124 124.82,-129.602 284.649,-130.172 311,-122 327.788,-116.794 344.168,-104.564 354.403,-95.8047"/>
<polygon fill="midnightblue" stroke="midnightblue" points="62.4172,-114.346 51.8254,-114.599 60.2633,-121.006 62.4172,-114.346"/>
</g>
<!-- Node3 -->
<g id="node3" class="node"><title>Node3</title>
<g id="a_node3"><a xlink:href="quaternaire_8c.html#a48b048cacd0128d7485e99ea7d5fd9ba" target="_top" xlink:title="Effectue le zoom sur un arbre RGB. ">
<polygon fill="none" stroke="black" points="88,-95.5 88,-114.5 162,-114.5 162,-95.5 88,-95.5"/>
<text text-anchor="middle" x="125" y="-102.5" font-family="Helvetica,sans-Serif" font-size="10.00">zoomCouleur</text>
</a>
</g>
</g>
<!-- Node1&#45;&gt;Node3 -->
<g id="edge2" class="edge"><title>Node1&#45;&gt;Node3</title>
<path fill="none" stroke="midnightblue" d="M62.392,-105C70.7122,-105 79.5887,-105 87.9379,-105"/>
<polygon fill="midnightblue" stroke="midnightblue" points="62.2324,-101.5 52.2324,-105 62.2324,-108.5 62.2324,-101.5"/>
</g>
<!-- Node5 -->
<g id="node5" class="node"><title>Node5</title>
<g id="a_node5"><a xlink:href="quaternaire_8c.html#a3ebbb6278c797c3e72b00c179732e433" target="_top" xlink:title="Effectue le zoom sur un arbre NG. ">
<polygon fill="none" stroke="black" points="97.5,-38.5 97.5,-57.5 152.5,-57.5 152.5,-38.5 97.5,-38.5"/>
<text text-anchor="middle" x="125" y="-45.5" font-family="Helvetica,sans-Serif" font-size="10.00">zoomNG</text>
</a>
</g>
</g>
<!-- Node1&#45;&gt;Node5 -->
<g id="edge6" class="edge"><title>Node1&#45;&gt;Node5</title>
<path fill="none" stroke="midnightblue" d="M52.0766,-90.2642C69.637,-79.9452 92.5889,-66.4581 107.788,-57.5265"/>
<polygon fill="midnightblue" stroke="midnightblue" points="50.3031,-87.2468 43.4547,-95.3307 53.8496,-93.2819 50.3031,-87.2468"/>
</g>
<!-- Node3&#45;&gt;Node2 -->
<g id="edge3" class="edge"><title>Node3&#45;&gt;Node2</title>
<path fill="none" stroke="midnightblue" d="M172.268,-109.292C209.912,-111.759 264.264,-112.982 311,-105 323.344,-102.892 336.618,-98.2561 346.917,-94.0917"/>
<polygon fill="midnightblue" stroke="midnightblue" points="172.337,-105.788 162.114,-108.57 171.84,-112.77 172.337,-105.788"/>
</g>
<!-- Node4 -->
<g id="node4" class="node"><title>Node4</title>
<g id="a_node4"><a xlink:href="quaternaire_8c.html#a1d1e77f95b9ad72f9f8059a412ee8365" target="_top" xlink:title="Réalise tout les niveau de zoom d&#39;un arbre RGB. ">
<polygon fill="none" stroke="black" points="198,-76.5 198,-95.5 311,-95.5 311,-76.5 198,-76.5"/>
<text text-anchor="middle" x="254.5" y="-83.5" font-family="Helvetica,sans-Serif" font-size="10.00">tousLesZoomsCouleur</text>
</a>
</g>
</g>
<!-- Node3&#45;&gt;Node4 -->
<g id="edge4" class="edge"><title>Node3&#45;&gt;Node4</title>
<path fill="none" stroke="midnightblue" d="M172.346,-98.0935C180.573,-96.8675 189.219,-95.5792 197.675,-94.319"/>
<polygon fill="midnightblue" stroke="midnightblue" points="171.57,-94.6704 162.195,-99.6062 172.602,-101.594 171.57,-94.6704"/>
</g>
<!-- Node4&#45;&gt;Node2 -->
<g id="edge5" class="edge"><title>Node4&#45;&gt;Node2</title>
<path fill="none" stroke="midnightblue" d="M321.416,-86C330.707,-86 339.55,-86 346.813,-86"/>
<polygon fill="midnightblue" stroke="midnightblue" points="321.212,-82.5001 311.212,-86 321.212,-89.5001 321.212,-82.5001"/>
</g>
<!-- Node5&#45;&gt;Node2 -->
<g id="edge7" class="edge"><title>Node5&#45;&gt;Node2</title>
<path fill="none" stroke="midnightblue" d="M162.652,-49.2183C200.274,-51.0602 260.314,-55.6479 311,-67 323.22,-69.7368 336.492,-74.3823 346.821,-78.3946"/>
<polygon fill="midnightblue" stroke="midnightblue" points="162.81,-45.7219 152.662,-48.7682 162.495,-52.7148 162.81,-45.7219"/>
</g>
<!-- Node6 -->
<g id="node6" class="node"><title>Node6</title>
<g id="a_node6"><a xlink:href="quaternaire_8c.html#ad8bb52314936ad1d1ad641c305d7792d" target="_top" xlink:title="Réalise tout les niveau de zoom d&#39;un arbre NG. ">
<polygon fill="none" stroke="black" points="207,-0.5 207,-19.5 302,-19.5 302,-0.5 207,-0.5"/>
<text text-anchor="middle" x="254.5" y="-7.5" font-family="Helvetica,sans-Serif" font-size="10.00">tousLesZoomsNG</text>
</a>
</g>
</g>
<!-- Node5&#45;&gt;Node6 -->
<g id="edge8" class="edge"><title>Node5&#45;&gt;Node6</title>
<path fill="none" stroke="midnightblue" d="M162.342,-37.1685C180.956,-31.621 203.419,-24.926 221.389,-19.5702"/>
<polygon fill="midnightblue" stroke="midnightblue" points="161.312,-33.8235 152.728,-40.034 163.311,-40.5318 161.312,-33.8235"/>
</g>
<!-- Node6&#45;&gt;Node2 -->
<g id="edge9" class="edge"><title>Node6&#45;&gt;Node2</title>
<path fill="none" stroke="midnightblue" d="M292.153,-23.6216C298.649,-26.6517 305.188,-30.1306 311,-34 329.418,-46.2609 347.187,-65.1687 357.048,-76.4887"/>
<polygon fill="midnightblue" stroke="midnightblue" points="293.322,-20.3127 282.758,-19.5101 290.516,-26.7255 293.322,-20.3127"/>
</g>
</g>
</svg>
