<?xml version="1.0" encoding="UTF-8" standalone="no"?>
<!DOCTYPE svg PUBLIC "-//W3C//DTD SVG 1.1//EN"
 "http://www.w3.org/Graphics/SVG/1.1/DTD/svg11.dtd">
<!-- Generated by graphviz version 2.38.0 (20140413.2041)
 -->
<!-- Title: creationMatriceCase Pages: 1 -->
<svg width="438pt" height="28pt"
 viewBox="0.00 0.00 438.00 28.00" xmlns="http://www.w3.org/2000/svg" xmlns:xlink="http://www.w3.org/1999/xlink">
<g id="graph0" class="graph" transform="scale(1 1) rotate(0) translate(4 24)">
<title>creationMatriceCase</title>
<!-- Node1 -->
<g id="node1" class="node"><title>Node1</title>
<polygon fill="#bfbfbf" stroke="black" points="0,-0.5 0,-19.5 106,-19.5 106,-0.5 0,-0.5"/>
<text text-anchor="middle" x="53" y="-7.5" font-family="Helvetica,sans-Serif" font-size="10.00">creationMatriceCase</text>
</g>
<!-- Node2 -->
<g id="node2" class="node"><title>Node2</title>
<g id="a_node2"><a xlink:href="quaternaire_8c.html#a150d4fde63a110e7865ebfccfd5045d2" target="_top" xlink:title="Remplissage d&#39;une matrice à partir d&#39;un arbre quaternaire NB. ">
<polygon fill="none" stroke="black" points="142,-0.5 142,-19.5 239,-19.5 239,-0.5 142,-0.5"/>
<text text-anchor="middle" x="190.5" y="-7.5" font-family="Helvetica,sans-Serif" font-size="10.00">creationMatriceNB</text>
</a>
</g>
</g>
<!-- Node1&#45;&gt;Node2 -->
<g id="edge1" class="edge"><title>Node1&#45;&gt;Node2</title>
<path fill="none" stroke="midnightblue" d="M116.075,-10C124.736,-10 133.521,-10 141.859,-10"/>
<polygon fill="midnightblue" stroke="midnightblue" points="116,-6.5001 106,-10 116,-13.5001 116,-6.5001"/>
</g>
<!-- Node3 -->
<g id="node3" class="node"><title>Node3</title>
<g id="a_node3"><a xlink:href="quaternaire_8c.html#a667b0f5c952983b2dc4a0f2327106eb1" target="_top" xlink:title="Fonction d&#39;appel de création une matrice d&#39;un arbre quaternaire NB. ">
<polygon fill="none" stroke="black" points="275,-0.5 275,-19.5 356,-19.5 356,-0.5 275,-0.5"/>
<text text-anchor="middle" x="315.5" y="-7.5" font-family="Helvetica,sans-Serif" font-size="10.00">creeMatriceNB</text>
</a>
</g>
</g>
<!-- Node2&#45;&gt;Node3 -->
<g id="edge2" class="edge"><title>Node2&#45;&gt;Node3</title>
<path fill="none" stroke="midnightblue" d="M249.109,-10C257.749,-10 266.492,-10 274.652,-10"/>
<polygon fill="midnightblue" stroke="midnightblue" points="249.055,-6.5001 239.055,-10 249.055,-13.5001 249.055,-6.5001"/>
</g>
<!-- Node4 -->
<g id="node4" class="node"><title>Node4</title>
<g id="a_node4"><a xlink:href="main_8c.html#a0ddf1224851353fc92bfbff6f499fa97" target="_top" xlink:title="Main du programme. ">
<polygon fill="none" stroke="black" points="392,-0.5 392,-19.5 430,-19.5 430,-0.5 392,-0.5"/>
<text text-anchor="middle" x="411" y="-7.5" font-family="Helvetica,sans-Serif" font-size="10.00">main</text>
</a>
</g>
</g>
<!-- Node3&#45;&gt;Node4 -->
<g id="edge3" class="edge"><title>Node3&#45;&gt;Node4</title>
<path fill="none" stroke="midnightblue" d="M366.357,-10C375.401,-10 384.289,-10 391.66,-10"/>
<polygon fill="midnightblue" stroke="midnightblue" points="366.152,-6.5001 356.152,-10 366.152,-13.5001 366.152,-6.5001"/>
</g>
</g>
</svg>
