<?xml version="1.0" encoding="UTF-8" standalone="no"?>
<!DOCTYPE svg PUBLIC "-//W3C//DTD SVG 1.1//EN"
 "http://www.w3.org/Graphics/SVG/1.1/DTD/svg11.dtd">
<!-- Generated by graphviz version 2.38.0 (20140413.2041)
 -->
<!-- Title: creeImage Pages: 1 -->
<svg width="411pt" height="112pt"
 viewBox="0.00 0.00 411.00 112.47" xmlns="http://www.w3.org/2000/svg" xmlns:xlink="http://www.w3.org/1999/xlink">
<g id="graph0" class="graph" transform="scale(1 1) rotate(0) translate(4 108.466)">
<title>creeImage</title>
<!-- Node1 -->
<g id="node1" class="node"><title>Node1</title>
<polygon fill="#bfbfbf" stroke="black" points="0,-67.5 0,-86.5 62,-86.5 62,-67.5 0,-67.5"/>
<text text-anchor="middle" x="31" y="-74.5" font-family="Helvetica,sans-Serif" font-size="10.00">creeImage</text>
</g>
<!-- Node2 -->
<g id="node2" class="node"><title>Node2</title>
<g id="a_node2"><a xlink:href="main_8c.html#a0ddf1224851353fc92bfbff6f499fa97" target="_top" xlink:title="Main du programme. ">
<polygon fill="none" stroke="black" points="365,-57.5 365,-76.5 403,-76.5 403,-57.5 365,-57.5"/>
<text text-anchor="middle" x="384" y="-64.5" font-family="Helvetica,sans-Serif" font-size="10.00">main</text>
</a>
</g>
</g>
<!-- Node1&#45;&gt;Node2 -->
<g id="edge1" class="edge"><title>Node1&#45;&gt;Node2</title>
<path fill="none" stroke="midnightblue" d="M68.2163,-89.397C77.7861,-92.1268 88.1856,-94.6154 98,-96 199.775,-110.358 228.22,-105.19 329,-85 341.209,-82.5541 354.481,-78.1554 364.812,-74.3187"/>
<polygon fill="midnightblue" stroke="midnightblue" points="69.1877,-86.0343 58.6032,-86.5012 67.1687,-92.7368 69.1877,-86.0343"/>
</g>
<!-- Node3 -->
<g id="node3" class="node"><title>Node3</title>
<g id="a_node3"><a xlink:href="prototype_8h.html#a650285388bbc3d693bcdc61629477df9" target="_top" xlink:title="Sauvegarde une image NG. ">
<polygon fill="none" stroke="black" points="98,-67.5 98,-86.5 180,-86.5 180,-67.5 98,-67.5"/>
<text text-anchor="middle" x="139" y="-74.5" font-family="Helvetica,sans-Serif" font-size="10.00">sauveImageNG</text>
</a>
</g>
</g>
<!-- Node1&#45;&gt;Node3 -->
<g id="edge2" class="edge"><title>Node1&#45;&gt;Node3</title>
<path fill="none" stroke="midnightblue" d="M72.1085,-77C80.5611,-77 89.4795,-77 97.9307,-77"/>
<polygon fill="midnightblue" stroke="midnightblue" points="72.0918,-73.5001 62.0918,-77 72.0918,-80.5001 72.0918,-73.5001"/>
</g>
<!-- Node5 -->
<g id="node5" class="node"><title>Node5</title>
<g id="a_node5"><a xlink:href="quaternaire_8c.html#a1d1e77f95b9ad72f9f8059a412ee8365" target="_top" xlink:title="Réalise tout les niveau de zoom d&#39;un arbre RGB. ">
<polygon fill="none" stroke="black" points="216,-0.5 216,-19.5 329,-19.5 329,-0.5 216,-0.5"/>
<text text-anchor="middle" x="272.5" y="-7.5" font-family="Helvetica,sans-Serif" font-size="10.00">tousLesZoomsCouleur</text>
</a>
</g>
</g>
<!-- Node1&#45;&gt;Node5 -->
<g id="edge6" class="edge"><title>Node1&#45;&gt;Node5</title>
<path fill="none" stroke="midnightblue" d="M72.0089,-65.4101C80.58,-62.9474 89.5872,-60.3746 98,-58 145.974,-44.4588 201.519,-29.1582 236.577,-19.5471"/>
<polygon fill="midnightblue" stroke="midnightblue" points="70.8502,-62.1014 62.2093,-68.232 72.7873,-68.8281 70.8502,-62.1014"/>
</g>
<!-- Node3&#45;&gt;Node2 -->
<g id="edge3" class="edge"><title>Node3&#45;&gt;Node2</title>
<path fill="none" stroke="midnightblue" d="M190.255,-74.9319C244.647,-72.6935 328.493,-69.2431 364.993,-67.741"/>
<polygon fill="midnightblue" stroke="midnightblue" points="189.974,-71.4404 180.127,-75.3487 190.262,-78.4345 189.974,-71.4404"/>
</g>
<!-- Node4 -->
<g id="node4" class="node"><title>Node4</title>
<g id="a_node4"><a xlink:href="quaternaire_8c.html#ad8bb52314936ad1d1ad641c305d7792d" target="_top" xlink:title="Réalise tout les niveau de zoom d&#39;un arbre NG. ">
<polygon fill="none" stroke="black" points="225,-38.5 225,-57.5 320,-57.5 320,-38.5 225,-38.5"/>
<text text-anchor="middle" x="272.5" y="-45.5" font-family="Helvetica,sans-Serif" font-size="10.00">tousLesZoomsNG</text>
</a>
</g>
</g>
<!-- Node3&#45;&gt;Node4 -->
<g id="edge4" class="edge"><title>Node3&#45;&gt;Node4</title>
<path fill="none" stroke="midnightblue" d="M190.076,-65.9566C202.696,-63.1735 216.134,-60.21 228.379,-57.5095"/>
<polygon fill="midnightblue" stroke="midnightblue" points="189.18,-62.5699 180.169,-68.1415 190.688,-69.4057 189.18,-62.5699"/>
</g>
<!-- Node4&#45;&gt;Node2 -->
<g id="edge5" class="edge"><title>Node4&#45;&gt;Node2</title>
<path fill="none" stroke="midnightblue" d="M330.331,-57.8611C342.919,-60.0453 355.36,-62.204 364.987,-63.8745"/>
<polygon fill="midnightblue" stroke="midnightblue" points="330.707,-54.374 320.255,-56.1128 329.51,-61.271 330.707,-54.374"/>
</g>
<!-- Node5&#45;&gt;Node2 -->
<g id="edge7" class="edge"><title>Node5&#45;&gt;Node2</title>
<path fill="none" stroke="midnightblue" d="M316.11,-23.1913C320.537,-24.9732 324.909,-26.9139 329,-29 344.523,-36.915 360.65,-48.8274 371.191,-57.2"/>
<polygon fill="midnightblue" stroke="midnightblue" points="317.011,-19.791 306.418,-19.5497 314.548,-26.3436 317.011,-19.791"/>
</g>
</g>
</svg>
