<?xml version="1.0" encoding="UTF-8" standalone="no"?>
<!DOCTYPE svg PUBLIC "-//W3C//DTD SVG 1.1//EN"
 "http://www.w3.org/Graphics/SVG/1.1/DTD/svg11.dtd">
<!-- Generated by graphviz version 2.38.0 (20140413.2041)
 -->
<!-- Title: dilatationCase Pages: 1 -->
<svg width="286pt" height="28pt"
 viewBox="0.00 0.00 286.00 28.00" xmlns="http://www.w3.org/2000/svg" xmlns:xlink="http://www.w3.org/1999/xlink">
<g id="graph0" class="graph" transform="scale(1 1) rotate(0) translate(4 24)">
<title>dilatationCase</title>
<!-- Node1 -->
<g id="node1" class="node"><title>Node1</title>
<polygon fill="#bfbfbf" stroke="black" points="0,-0.5 0,-19.5 78,-19.5 78,-0.5 0,-0.5"/>
<text text-anchor="middle" x="39" y="-7.5" font-family="Helvetica,sans-Serif" font-size="10.00">dilatationCase</text>
</g>
<!-- Node2 -->
<g id="node2" class="node"><title>Node2</title>
<g id="a_node2"><a xlink:href="_caldist_8c.html#abd278d2e0312f40a659ad8b3fc134569" target="_top" xlink:title="Calcul le maximum dans un tableau. ">
<polygon fill="none" stroke="black" points="114,-0.5 114,-19.5 186,-19.5 186,-0.5 114,-0.5"/>
<text text-anchor="middle" x="150" y="-7.5" font-family="Helvetica,sans-Serif" font-size="10.00">maximunTab</text>
</a>
</g>
</g>
<!-- Node1&#45;&gt;Node2 -->
<g id="edge1" class="edge"><title>Node1&#45;&gt;Node2</title>
<path fill="none" stroke="midnightblue" d="M78.1229,-10C86.3283,-10 95.0796,-10 103.533,-10"/>
<polygon fill="midnightblue" stroke="midnightblue" points="103.639,-13.5001 113.639,-10 103.639,-6.5001 103.639,-13.5001"/>
</g>
<!-- Node3 -->
<g id="node3" class="node"><title>Node3</title>
<g id="a_node3"><a xlink:href="_caldist_8c.html#a70a7da388f16e668eb640b0755b09255" target="_top" xlink:title="Calcul le maximum entre deux nombres. ">
<polygon fill="none" stroke="black" points="222,-0.5 222,-19.5 278,-19.5 278,-0.5 222,-0.5"/>
<text text-anchor="middle" x="250" y="-7.5" font-family="Helvetica,sans-Serif" font-size="10.00">maximun</text>
</a>
</g>
</g>
<!-- Node2&#45;&gt;Node3 -->
<g id="edge2" class="edge"><title>Node2&#45;&gt;Node3</title>
<path fill="none" stroke="midnightblue" d="M186.103,-10C194.367,-10 203.206,-10 211.569,-10"/>
<polygon fill="midnightblue" stroke="midnightblue" points="211.827,-13.5001 221.827,-10 211.827,-6.5001 211.827,-13.5001"/>
</g>
</g>
</svg>
