<?xml version="1.0" encoding="UTF-8" standalone="no"?>
<!DOCTYPE svg PUBLIC "-//W3C//DTD SVG 1.1//EN"
 "http://www.w3.org/Graphics/SVG/1.1/DTD/svg11.dtd">
<!-- Generated by graphviz version 2.38.0 (20140413.2041)
 -->
<!-- Title: minimun4 Pages: 1 -->
<svg width="385pt" height="28pt"
 viewBox="0.00 0.00 385.00 28.00" xmlns="http://www.w3.org/2000/svg" xmlns:xlink="http://www.w3.org/1999/xlink">
<g id="graph0" class="graph" transform="scale(1 1) rotate(0) translate(4 24)">
<title>minimun4</title>
<!-- Node1 -->
<g id="node1" class="node"><title>Node1</title>
<polygon fill="#bfbfbf" stroke="black" points="0,-0.5 0,-19.5 59,-19.5 59,-0.5 0,-0.5"/>
<text text-anchor="middle" x="29.5" y="-7.5" font-family="Helvetica,sans-Serif" font-size="10.00">minimun4</text>
</g>
<!-- Node2 -->
<g id="node2" class="node"><title>Node2</title>
<g id="a_node2"><a xlink:href="prototype_8h.html#a68194757508adc5f0ed956fd55c364b2" target="_top" xlink:title="Calcul la distance entre des pixel de couleur différente. ">
<polygon fill="none" stroke="black" points="95,-0.5 95,-19.5 175,-19.5 175,-0.5 95,-0.5"/>
<text text-anchor="middle" x="135" y="-7.5" font-family="Helvetica,sans-Serif" font-size="10.00">calculDistance</text>
</a>
</g>
</g>
<!-- Node1&#45;&gt;Node2 -->
<g id="edge1" class="edge"><title>Node1&#45;&gt;Node2</title>
<path fill="none" stroke="midnightblue" d="M69.2577,-10C77.5693,-10 86.359,-10 94.6912,-10"/>
<polygon fill="midnightblue" stroke="midnightblue" points="69.0558,-6.5001 59.0558,-10 69.0558,-13.5001 69.0558,-6.5001"/>
</g>
<!-- Node3 -->
<g id="node3" class="node"><title>Node3</title>
<g id="a_node3"><a xlink:href="prototype_8h.html#a01267e9e283e046820857af7c1044fcb" target="_top" xlink:title="Fonction d&#39;appel du calcul distance. ">
<polygon fill="none" stroke="black" points="211,-0.5 211,-19.5 303,-19.5 303,-0.5 211,-0.5"/>
<text text-anchor="middle" x="257" y="-7.5" font-family="Helvetica,sans-Serif" font-size="10.00">fctCalculDistance</text>
</a>
</g>
</g>
<!-- Node2&#45;&gt;Node3 -->
<g id="edge2" class="edge"><title>Node2&#45;&gt;Node3</title>
<path fill="none" stroke="midnightblue" d="M185.368,-10C193.783,-10 202.487,-10 210.788,-10"/>
<polygon fill="midnightblue" stroke="midnightblue" points="185.293,-6.5001 175.292,-10 185.292,-13.5001 185.293,-6.5001"/>
</g>
<!-- Node4 -->
<g id="node4" class="node"><title>Node4</title>
<g id="a_node4"><a xlink:href="main_8c.html#a0ddf1224851353fc92bfbff6f499fa97" target="_top" xlink:title="Main du programme. ">
<polygon fill="none" stroke="black" points="339,-0.5 339,-19.5 377,-19.5 377,-0.5 339,-0.5"/>
<text text-anchor="middle" x="358" y="-7.5" font-family="Helvetica,sans-Serif" font-size="10.00">main</text>
</a>
</g>
</g>
<!-- Node3&#45;&gt;Node4 -->
<g id="edge3" class="edge"><title>Node3&#45;&gt;Node4</title>
<path fill="none" stroke="midnightblue" d="M313.251,-10C322.514,-10 331.506,-10 338.903,-10"/>
<polygon fill="midnightblue" stroke="midnightblue" points="313.154,-6.5001 303.154,-10 313.154,-13.5001 313.154,-6.5001"/>
</g>
</g>
</svg>
