<?xml version="1.0" encoding="UTF-8" standalone="no"?>
<!DOCTYPE svg PUBLIC "-//W3C//DTD SVG 1.1//EN"
 "http://www.w3.org/Graphics/SVG/1.1/DTD/svg11.dtd">
<!-- Generated by graphviz version 2.38.0 (20140413.2041)
 -->
<!-- Title: creeationArbreNG Pages: 1 -->
<svg width="459pt" height="104pt"
 viewBox="0.00 0.00 459.00 104.00" xmlns="http://www.w3.org/2000/svg" xmlns:xlink="http://www.w3.org/1999/xlink">
<g id="graph0" class="graph" transform="scale(1 1) rotate(0) translate(4 100)">
<title>creeationArbreNG</title>
<!-- Node1 -->
<g id="node1" class="node"><title>Node1</title>
<polygon fill="#bfbfbf" stroke="black" points="0,-38.5 0,-57.5 94,-57.5 94,-38.5 0,-38.5"/>
<text text-anchor="middle" x="47" y="-45.5" font-family="Helvetica,sans-Serif" font-size="10.00">creeationArbreNG</text>
</g>
<!-- Node2 -->
<g id="node2" class="node"><title>Node2</title>
<g id="a_node2"><a xlink:href="quaternaire_8c.html#ab7f7c7557276f69edf708697150975a8" target="_top" xlink:title="Allocation d&#39;un nœud de l&#39;arbre quaternaire NG. ">
<polygon fill="none" stroke="black" points="130,-76.5 130,-95.5 231,-95.5 231,-76.5 130,-76.5"/>
<text text-anchor="middle" x="180.5" y="-83.5" font-family="Helvetica,sans-Serif" font-size="10.00">creeNoeudArbreNG</text>
</a>
</g>
</g>
<!-- Node1&#45;&gt;Node2 -->
<g id="edge1" class="edge"><title>Node1&#45;&gt;Node2</title>
<path fill="none" stroke="midnightblue" d="M81.183,-57.589C98.0027,-62.4494 118.626,-68.4091 136.634,-73.6127"/>
<polygon fill="midnightblue" stroke="midnightblue" points="135.749,-77.0003 146.328,-76.4141 137.692,-70.2754 135.749,-77.0003"/>
</g>
<!-- Node3 -->
<g id="node3" class="node"><title>Node3</title>
<g id="a_node3"><a xlink:href="quaternaire_8c.html#a148b7bd50d305fad50ae008993a0fccb" target="_top" xlink:title="Calcul la valeur médiane d&#39;un carré NG. ">
<polygon fill="none" stroke="black" points="267,-19.5 267,-38.5 359,-38.5 359,-19.5 267,-19.5"/>
<text text-anchor="middle" x="313" y="-26.5" font-family="Helvetica,sans-Serif" font-size="10.00">valeurMedianeNG</text>
</a>
</g>
</g>
<!-- Node1&#45;&gt;Node3 -->
<g id="edge2" class="edge"><title>Node1&#45;&gt;Node3</title>
<path fill="none" stroke="midnightblue" d="M94.2874,-44.6687C139.476,-41.4165 208.276,-36.465 256.406,-33.0011"/>
<polygon fill="midnightblue" stroke="midnightblue" points="256.927,-36.4728 266.65,-32.2639 256.424,-29.4908 256.927,-36.4728"/>
</g>
<!-- Node5 -->
<g id="node5" class="node"><title>Node5</title>
<g id="a_node5"><a xlink:href="quaternaire_8c.html#a187735c36c9b388930fdeae788f9d4d3" target="_top" xlink:title="Vérifie si le carré est homogène NG. ">
<polygon fill="none" stroke="black" points="131,-0.5 131,-19.5 230,-19.5 230,-0.5 131,-0.5"/>
<text text-anchor="middle" x="180.5" y="-7.5" font-family="Helvetica,sans-Serif" font-size="10.00">carreHomogeneNG</text>
</a>
</g>
</g>
<!-- Node1&#45;&gt;Node5 -->
<g id="edge4" class="edge"><title>Node1&#45;&gt;Node5</title>
<path fill="none" stroke="midnightblue" d="M81.183,-38.411C98.0027,-33.5506 118.626,-27.5909 136.634,-22.3873"/>
<polygon fill="midnightblue" stroke="midnightblue" points="137.692,-25.7246 146.328,-19.5859 135.749,-18.9997 137.692,-25.7246"/>
</g>
<!-- Node4 -->
<g id="node4" class="node"><title>Node4</title>
<g id="a_node4"><a xlink:href="median_8c.html#a6f9266f5d5b1c83fdcd462d44e60f3e2" target="_top" xlink:title="tri un tableau et retourne la valeur médiane ">
<polygon fill="none" stroke="black" points="395,-19.5 395,-38.5 451,-38.5 451,-19.5 395,-19.5"/>
<text text-anchor="middle" x="423" y="-26.5" font-family="Helvetica,sans-Serif" font-size="10.00">tritableau</text>
</a>
</g>
</g>
<!-- Node3&#45;&gt;Node4 -->
<g id="edge3" class="edge"><title>Node3&#45;&gt;Node4</title>
<path fill="none" stroke="midnightblue" d="M359.176,-29C367.711,-29 376.548,-29 384.803,-29"/>
<polygon fill="midnightblue" stroke="midnightblue" points="384.882,-32.5001 394.882,-29 384.882,-25.5001 384.882,-32.5001"/>
</g>
<!-- Node5&#45;&gt;Node3 -->
<g id="edge5" class="edge"><title>Node5&#45;&gt;Node3</title>
<path fill="none" stroke="midnightblue" d="M230.093,-17.0749C238.834,-18.3474 248.001,-19.6821 256.91,-20.9792"/>
<polygon fill="midnightblue" stroke="midnightblue" points="256.421,-24.4448 266.821,-22.4222 257.429,-17.5179 256.421,-24.4448"/>
</g>
</g>
</svg>
