<?xml version="1.0" encoding="UTF-8" standalone="no"?>
<!DOCTYPE svg PUBLIC "-//W3C//DTD SVG 1.1//EN"
 "http://www.w3.org/Graphics/SVG/1.1/DTD/svg11.dtd">
<!-- Generated by graphviz version 2.38.0 (20140413.2041)
 -->
<!-- Title: liberationmatrice Pages: 1 -->
<svg width="423pt" height="408pt"
 viewBox="0.00 0.00 423.00 408.00" xmlns="http://www.w3.org/2000/svg" xmlns:xlink="http://www.w3.org/1999/xlink">
<g id="graph0" class="graph" transform="scale(1 1) rotate(0) translate(4 404)">
<title>liberationmatrice</title>
<!-- Node1 -->
<g id="node1" class="node"><title>Node1</title>
<polygon fill="#bfbfbf" stroke="black" points="0,-95.5 0,-114.5 88,-114.5 88,-95.5 0,-95.5"/>
<text text-anchor="middle" x="44" y="-102.5" font-family="Helvetica,sans-Serif" font-size="10.00">liberationmatrice</text>
</g>
<!-- Node2 -->
<g id="node2" class="node"><title>Node2</title>
<g id="a_node2"><a xlink:href="prototype_8h.html#ae5299087eb8255b465ad8db59f6e4839" target="_top" xlink:title="Effectue une convolution sur une image, à partir d&#39;un outil de dimension variable le boolen div indiq...">
<polygon fill="none" stroke="black" points="139,-266.5 139,-285.5 204,-285.5 204,-266.5 139,-266.5"/>
<text text-anchor="middle" x="171.5" y="-273.5" font-family="Helvetica,sans-Serif" font-size="10.00">convolution</text>
</a>
</g>
</g>
<!-- Node1&#45;&gt;Node2 -->
<g id="edge1" class="edge"><title>Node1&#45;&gt;Node2</title>
<path fill="none" stroke="midnightblue" d="M58.0687,-122.807C84.4342,-158.731 143.206,-238.81 163.471,-266.423"/>
<polygon fill="midnightblue" stroke="midnightblue" points="60.8454,-120.675 52.107,-114.684 55.2021,-124.816 60.8454,-120.675"/>
</g>
<!-- Node4 -->
<g id="node4" class="node"><title>Node4</title>
<g id="a_node4"><a xlink:href="main_8c.html#a0ddf1224851353fc92bfbff6f499fa97" target="_top" xlink:title="Main du programme. ">
<polygon fill="none" stroke="black" points="377,-190.5 377,-209.5 415,-209.5 415,-190.5 377,-190.5"/>
<text text-anchor="middle" x="396" y="-197.5" font-family="Helvetica,sans-Serif" font-size="10.00">main</text>
</a>
</g>
</g>
<!-- Node1&#45;&gt;Node4 -->
<g id="edge20" class="edge"><title>Node1&#45;&gt;Node4</title>
<path fill="none" stroke="midnightblue" d="M70.6006,-119.537C85.7124,-127.546 105.457,-137.043 124,-143 217.219,-172.948 246.275,-156.223 341,-181 353.115,-184.169 366.385,-188.821 376.739,-192.729"/>
<polygon fill="midnightblue" stroke="midnightblue" points="71.8566,-116.236 61.3983,-114.541 68.5166,-122.388 71.8566,-116.236"/>
</g>
<!-- Node10 -->
<g id="node10" class="node"><title>Node10</title>
<g id="a_node10"><a xlink:href="prototype_8h.html#a6f751ddca5503443e6f1667ae4f1895c" target="_top" xlink:title="Effectue une dilatation sur une image avec un outil de dimension variable. ">
<polygon fill="none" stroke="black" points="134,-114.5 134,-133.5 209,-133.5 209,-114.5 134,-114.5"/>
<text text-anchor="middle" x="171.5" y="-121.5" font-family="Helvetica,sans-Serif" font-size="10.00">filtreDilatation</text>
</a>
</g>
</g>
<!-- Node1&#45;&gt;Node10 -->
<g id="edge14" class="edge"><title>Node1&#45;&gt;Node10</title>
<path fill="none" stroke="midnightblue" d="M98.1555,-113.047C110.202,-114.871 122.733,-116.768 133.913,-118.461"/>
<polygon fill="midnightblue" stroke="midnightblue" points="98.6013,-109.575 88.19,-111.539 97.5534,-116.496 98.6013,-109.575"/>
</g>
<!-- Node11 -->
<g id="node11" class="node"><title>Node11</title>
<g id="a_node11"><a xlink:href="prototype_8h.html#aefec5606a1765b0f347de969a995d551" target="_top" xlink:title="Effectue une érosion sur une image avec un outil de dimension variable. ">
<polygon fill="none" stroke="black" points="137.5,-76.5 137.5,-95.5 205.5,-95.5 205.5,-76.5 137.5,-76.5"/>
<text text-anchor="middle" x="171.5" y="-83.5" font-family="Helvetica,sans-Serif" font-size="10.00">filtreErosion</text>
</a>
</g>
</g>
<!-- Node1&#45;&gt;Node11 -->
<g id="edge16" class="edge"><title>Node1&#45;&gt;Node11</title>
<path fill="none" stroke="midnightblue" d="M98.1486,-96.9536C111.373,-94.9516 125.179,-92.8613 137.144,-91.0499"/>
<polygon fill="midnightblue" stroke="midnightblue" points="97.5534,-93.5037 88.19,-98.4613 98.6013,-100.425 97.5534,-93.5037"/>
</g>
<!-- Node12 -->
<g id="node12" class="node"><title>Node12</title>
<g id="a_node12"><a xlink:href="prototype_8h.html#adc93fe086109c5c8b7c2c4f3848b0c96" target="_top" xlink:title="Effectue un gradient sur une image avec un outil de dimension variable. ">
<polygon fill="none" stroke="black" points="136,-38.5 136,-57.5 207,-57.5 207,-38.5 136,-38.5"/>
<text text-anchor="middle" x="171.5" y="-45.5" font-family="Helvetica,sans-Serif" font-size="10.00">filtreGradient</text>
</a>
</g>
</g>
<!-- Node1&#45;&gt;Node12 -->
<g id="edge18" class="edge"><title>Node1&#45;&gt;Node12</title>
<path fill="none" stroke="midnightblue" d="M73.2448,-90.9029C88.225,-83.5564 107,-74.5533 124,-67 131.173,-63.8131 139.049,-60.5186 146.248,-57.5861"/>
<polygon fill="midnightblue" stroke="midnightblue" points="71.426,-87.8974 64.0055,-95.4596 74.5222,-94.1754 71.426,-87.8974"/>
</g>
<!-- Node13 -->
<g id="node13" class="node"><title>Node13</title>
<g id="a_node13"><a xlink:href="quaternaire_8c.html#ad8bb52314936ad1d1ad641c305d7792d" target="_top" xlink:title="Réalise tout les niveau de zoom d&#39;un arbre NG. ">
<polygon fill="none" stroke="black" points="124,-0.5 124,-19.5 219,-19.5 219,-0.5 124,-0.5"/>
<text text-anchor="middle" x="171.5" y="-7.5" font-family="Helvetica,sans-Serif" font-size="10.00">tousLesZoomsNG</text>
</a>
</g>
</g>
<!-- Node1&#45;&gt;Node13 -->
<g id="edge21" class="edge"><title>Node1&#45;&gt;Node13</title>
<path fill="none" stroke="midnightblue" d="M59.678,-87.4506C74.4923,-70.6326 98.7355,-45.4434 124,-29 129.555,-25.3846 135.91,-22.2413 142.1,-19.6084"/>
<polygon fill="midnightblue" stroke="midnightblue" points="56.7116,-85.5315 52.8351,-95.3917 62.0144,-90.101 56.7116,-85.5315"/>
</g>
<!-- Node3 -->
<g id="node3" class="node"><title>Node3</title>
<g id="a_node3"><a xlink:href="prototype_8h.html#a19db973ff01975a8fb9d826104b72b63" target="_top" xlink:title="Outil de filtrage pour une convolution, pour effectuer une pondération moyenneur. ...">
<polygon fill="none" stroke="black" points="260,-380.5 260,-399.5 336,-399.5 336,-380.5 260,-380.5"/>
<text text-anchor="middle" x="298" y="-387.5" font-family="Helvetica,sans-Serif" font-size="10.00">filtrePondMoy</text>
</a>
</g>
</g>
<!-- Node2&#45;&gt;Node3 -->
<g id="edge2" class="edge"><title>Node2&#45;&gt;Node3</title>
<path fill="none" stroke="midnightblue" d="M184.353,-293.82C198.926,-314.611 225.397,-348.947 255,-371 259.878,-374.634 265.561,-377.784 271.141,-380.419"/>
<polygon fill="midnightblue" stroke="midnightblue" points="187.234,-291.832 178.693,-285.563 181.46,-295.79 187.234,-291.832"/>
</g>
<!-- Node5 -->
<g id="node5" class="node"><title>Node5</title>
<g id="a_node5"><a xlink:href="prototype_8h.html#ab30046d2ef364b8b529041e0f143228b" target="_top" xlink:title="Outil de filtrage pour une convolution, pour effectuer une pondération de Gauss. ">
<polygon fill="none" stroke="black" points="255,-342.5 255,-361.5 341,-361.5 341,-342.5 255,-342.5"/>
<text text-anchor="middle" x="298" y="-349.5" font-family="Helvetica,sans-Serif" font-size="10.00">filtrePondGauss</text>
</a>
</g>
</g>
<!-- Node2&#45;&gt;Node5 -->
<g id="edge4" class="edge"><title>Node2&#45;&gt;Node5</title>
<path fill="none" stroke="midnightblue" d="M193.146,-291.816C209.438,-303.908 233.009,-320.562 255,-333 260.991,-336.388 267.697,-339.644 273.961,-342.474"/>
<polygon fill="midnightblue" stroke="midnightblue" points="194.998,-288.829 184.9,-285.622 190.794,-294.426 194.998,-288.829"/>
</g>
<!-- Node6 -->
<g id="node6" class="node"><title>Node6</title>
<g id="a_node6"><a xlink:href="prototype_8h.html#a31b55f7a91e23cbfe20cf35cec74c64c" target="_top" xlink:title="Outil de filtrage pour une convolution, pour effectuer un gradient de Roberts. ">
<polygon fill="none" stroke="black" points="256,-304.5 256,-323.5 340,-323.5 340,-304.5 256,-304.5"/>
<text text-anchor="middle" x="298" y="-311.5" font-family="Helvetica,sans-Serif" font-size="10.00">filtreGraRoberts</text>
</a>
</g>
</g>
<!-- Node2&#45;&gt;Node6 -->
<g id="edge6" class="edge"><title>Node2&#45;&gt;Node6</title>
<path fill="none" stroke="midnightblue" d="M213.57,-288.535C230.506,-293.705 249.818,-299.599 265.593,-304.414"/>
<polygon fill="midnightblue" stroke="midnightblue" points="214.503,-285.161 203.917,-285.589 212.459,-291.856 214.503,-285.161"/>
</g>
<!-- Node7 -->
<g id="node7" class="node"><title>Node7</title>
<g id="a_node7"><a xlink:href="prototype_8h.html#acb7c60914c3fdac39f1dad89e0bacf86" target="_top" xlink:title="Outil de filtrage pour une convolution, pour effectuer une pondération de Prewitt. ">
<polygon fill="none" stroke="black" points="258,-266.5 258,-285.5 338,-285.5 338,-266.5 258,-266.5"/>
<text text-anchor="middle" x="298" y="-273.5" font-family="Helvetica,sans-Serif" font-size="10.00">filtreGraPrewitt</text>
</a>
</g>
</g>
<!-- Node2&#45;&gt;Node7 -->
<g id="edge8" class="edge"><title>Node2&#45;&gt;Node7</title>
<path fill="none" stroke="midnightblue" d="M214.564,-276C228.525,-276 244.005,-276 257.745,-276"/>
<polygon fill="midnightblue" stroke="midnightblue" points="214.239,-272.5 204.239,-276 214.239,-279.5 214.239,-272.5"/>
</g>
<!-- Node8 -->
<g id="node8" class="node"><title>Node8</title>
<g id="a_node8"><a xlink:href="prototype_8h.html#a0c820e8e1fe7ece1952da9541bc1e7ef" target="_top" xlink:title="Outil de filtrage pour une convolution, pour effectuer une pondération de Sobel. ">
<polygon fill="none" stroke="black" points="260.5,-228.5 260.5,-247.5 335.5,-247.5 335.5,-228.5 260.5,-228.5"/>
<text text-anchor="middle" x="298" y="-235.5" font-family="Helvetica,sans-Serif" font-size="10.00">filtreGraSobel</text>
</a>
</g>
</g>
<!-- Node2&#45;&gt;Node8 -->
<g id="edge10" class="edge"><title>Node2&#45;&gt;Node8</title>
<path fill="none" stroke="midnightblue" d="M213.57,-263.465C230.506,-258.295 249.818,-252.401 265.593,-247.586"/>
<polygon fill="midnightblue" stroke="midnightblue" points="212.459,-260.144 203.917,-266.411 214.503,-266.839 212.459,-260.144"/>
</g>
<!-- Node9 -->
<g id="node9" class="node"><title>Node9</title>
<g id="a_node9"><a xlink:href="prototype_8h.html#a695691e0c840ff86d9c9f68efe9f8a2e" target="_top" xlink:title="Outil de filtrage pour une convolution, pour effectuer un Laplacien. ">
<polygon fill="none" stroke="black" points="260,-190.5 260,-209.5 336,-209.5 336,-190.5 260,-190.5"/>
<text text-anchor="middle" x="298" y="-197.5" font-family="Helvetica,sans-Serif" font-size="10.00">filtreLaplacien</text>
</a>
</g>
</g>
<!-- Node2&#45;&gt;Node9 -->
<g id="edge12" class="edge"><title>Node2&#45;&gt;Node9</title>
<path fill="none" stroke="midnightblue" d="M193.146,-260.184C209.438,-248.092 233.009,-231.438 255,-219 260.991,-215.612 267.697,-212.356 273.961,-209.526"/>
<polygon fill="midnightblue" stroke="midnightblue" points="190.794,-257.574 184.9,-266.378 194.998,-263.171 190.794,-257.574"/>
</g>
<!-- Node3&#45;&gt;Node4 -->
<g id="edge3" class="edge"><title>Node3&#45;&gt;Node4</title>
<path fill="none" stroke="midnightblue" d="M337.193,-374.697C338.553,-373.548 339.831,-372.317 341,-371 384.4,-322.104 392.934,-238.36 394.6,-209.843"/>
<polygon fill="midnightblue" stroke="midnightblue" points="335.028,-371.936 328.7,-380.433 338.946,-377.737 335.028,-371.936"/>
</g>
<!-- Node5&#45;&gt;Node4 -->
<g id="edge5" class="edge"><title>Node5&#45;&gt;Node4</title>
<path fill="none" stroke="midnightblue" d="M336.537,-336.994C338.127,-335.757 339.627,-334.428 341,-333 376.238,-296.355 389.606,-233.657 393.583,-209.697"/>
<polygon fill="midnightblue" stroke="midnightblue" points="334.564,-334.101 328.014,-342.429 338.328,-340.003 334.564,-334.101"/>
</g>
<!-- Node6&#45;&gt;Node4 -->
<g id="edge7" class="edge"><title>Node6&#45;&gt;Node4</title>
<path fill="none" stroke="midnightblue" d="M335.574,-299.287C337.492,-297.961 339.318,-296.534 341,-295 368.194,-270.2 385.183,-228.431 391.817,-209.654"/>
<polygon fill="midnightblue" stroke="midnightblue" points="333.599,-296.387 326.741,-304.463 337.138,-302.427 333.599,-296.387"/>
</g>
<!-- Node7&#45;&gt;Node4 -->
<g id="edge9" class="edge"><title>Node7&#45;&gt;Node4</title>
<path fill="none" stroke="midnightblue" d="M333.42,-261.792C336.057,-260.297 338.616,-258.697 341,-257 360.323,-243.245 378.326,-221.856 387.876,-209.564"/>
<polygon fill="midnightblue" stroke="midnightblue" points="331.604,-258.79 324.303,-266.467 334.798,-265.019 331.604,-258.79"/>
</g>
<!-- Node8&#45;&gt;Node4 -->
<g id="edge11" class="edge"><title>Node8&#45;&gt;Node4</title>
<path fill="none" stroke="midnightblue" d="M332.635,-224.686C347.502,-218.801 364.394,-212.115 376.844,-207.187"/>
<polygon fill="midnightblue" stroke="midnightblue" points="331.235,-221.476 323.225,-228.411 333.811,-227.985 331.235,-221.476"/>
</g>
<!-- Node9&#45;&gt;Node4 -->
<g id="edge13" class="edge"><title>Node9&#45;&gt;Node4</title>
<path fill="none" stroke="midnightblue" d="M346.392,-200C357.198,-200 368.045,-200 376.742,-200"/>
<polygon fill="midnightblue" stroke="midnightblue" points="346.116,-196.5 336.116,-200 346.116,-203.5 346.116,-196.5"/>
</g>
<!-- Node10&#45;&gt;Node4 -->
<g id="edge15" class="edge"><title>Node10&#45;&gt;Node4</title>
<path fill="none" stroke="midnightblue" d="M219.674,-123.064C254.773,-124.137 302.976,-129.444 341,-148 361.352,-157.932 378.985,-178.385 388.192,-190.469"/>
<polygon fill="midnightblue" stroke="midnightblue" points="219.295,-119.556 209.227,-122.857 219.156,-126.554 219.295,-119.556"/>
</g>
<!-- Node11&#45;&gt;Node4 -->
<g id="edge17" class="edge"><title>Node11&#45;&gt;Node4</title>
<path fill="none" stroke="midnightblue" d="M215.936,-86.2387C252.149,-88.3785 303.666,-96.111 341,-121 367.264,-138.509 384.288,-173.545 391.32,-190.446"/>
<polygon fill="midnightblue" stroke="midnightblue" points="215.841,-82.7304 205.688,-85.7573 215.513,-89.7227 215.841,-82.7304"/>
</g>
<!-- Node12&#45;&gt;Node4 -->
<g id="edge19" class="edge"><title>Node12&#45;&gt;Node4</title>
<path fill="none" stroke="midnightblue" d="M217.718,-48.0569C254.566,-50.3508 306.043,-58.9494 341,-87 375.086,-114.352 388.936,-168.414 393.313,-190.381"/>
<polygon fill="midnightblue" stroke="midnightblue" points="217.421,-44.5385 207.263,-47.5493 217.082,-51.5303 217.421,-44.5385"/>
</g>
<!-- Node13&#45;&gt;Node4 -->
<g id="edge22" class="edge"><title>Node13&#45;&gt;Node4</title>
<path fill="none" stroke="midnightblue" d="M229.422,-9.42841C265.406,-12.0151 310.679,-21.1032 341,-48 384.785,-86.8406 393.069,-163.573 394.635,-190.439"/>
<polygon fill="midnightblue" stroke="midnightblue" points="229.242,-5.91272 219.06,-8.84157 228.846,-12.9015 229.242,-5.91272"/>
</g>
</g>
</svg>
