<?xml version="1.0" encoding="UTF-8" standalone="no"?>
<!DOCTYPE svg PUBLIC "-//W3C//DTD SVG 1.1//EN"
 "http://www.w3.org/Graphics/SVG/1.1/DTD/svg11.dtd">
<!-- Generated by graphviz version 2.38.0 (20140413.2041)
 -->
<!-- Title: C:/Users/cbongiorno/Documents/Mes Documents/M1/Vision Industrielle/TD2&#45;Traitement image/prototype.h Pages: 1 -->
<svg width="1219pt" height="150pt"
 viewBox="0.00 0.00 1218.50 150.00" xmlns="http://www.w3.org/2000/svg" xmlns:xlink="http://www.w3.org/1999/xlink">
<g id="graph0" class="graph" transform="scale(1 1) rotate(0) translate(4 146)">
<title>C:/Users/cbongiorno/Documents/Mes Documents/M1/Vision Industrielle/TD2&#45;Traitement image/prototype.h</title>
<!-- Node1 -->
<g id="node1" class="node"><title>Node1</title>
<polygon fill="#bfbfbf" stroke="black" points="502.5,-89.5 502.5,-141.5 669.5,-141.5 669.5,-89.5 502.5,-89.5"/>
<text text-anchor="start" x="510.5" y="-129.5" font-family="Helvetica,sans-Serif" font-size="10.00">C:/Users/cbongiorno</text>
<text text-anchor="start" x="510.5" y="-118.5" font-family="Helvetica,sans-Serif" font-size="10.00">/Documents/Mes Documents</text>
<text text-anchor="start" x="510.5" y="-107.5" font-family="Helvetica,sans-Serif" font-size="10.00">/M1/Vision Industrielle</text>
<text text-anchor="middle" x="586" y="-96.5" font-family="Helvetica,sans-Serif" font-size="10.00">/TD2&#45;Traitement image/prototype.h</text>
</g>
<!-- Node2 -->
<g id="node2" class="node"><title>Node2</title>
<g id="a_node2"><a xlink:href="_caldist_8c.html" target="_top" xlink:title="Partie Calcul distance. ">
<polygon fill="none" stroke="black" points="0,-0.5 0,-52.5 156,-52.5 156,-0.5 0,-0.5"/>
<text text-anchor="start" x="8" y="-40.5" font-family="Helvetica,sans-Serif" font-size="10.00">C:/Users/cbongiorno</text>
<text text-anchor="start" x="8" y="-29.5" font-family="Helvetica,sans-Serif" font-size="10.00">/Documents/Mes Documents</text>
<text text-anchor="start" x="8" y="-18.5" font-family="Helvetica,sans-Serif" font-size="10.00">/M1/Vision Industrielle</text>
<text text-anchor="middle" x="78" y="-7.5" font-family="Helvetica,sans-Serif" font-size="10.00">/TD2&#45;Traitement image/Caldist.c</text>
</a>
</g>
</g>
<!-- Node1&#45;&gt;Node2 -->
<g id="edge1" class="edge"><title>Node1&#45;&gt;Node2</title>
<path fill="none" stroke="midnightblue" d="M492.328,-104.628C406.562,-94.6896 276.412,-77.3397 165,-53 162.078,-52.3617 159.111,-51.6777 156.121,-50.9583"/>
<polygon fill="midnightblue" stroke="midnightblue" points="491.969,-108.11 502.303,-105.774 492.768,-101.155 491.969,-108.11"/>
</g>
<!-- Node3 -->
<g id="node3" class="node"><title>Node3</title>
<g id="a_node3"><a xlink:href="filtres_8c.html" target="_top" xlink:title="Fonctions de filtrages d&#39;image (v2) ">
<polygon fill="none" stroke="black" points="174.5,-0.5 174.5,-52.5 323.5,-52.5 323.5,-0.5 174.5,-0.5"/>
<text text-anchor="start" x="182.5" y="-40.5" font-family="Helvetica,sans-Serif" font-size="10.00">C:/Users/cbongiorno</text>
<text text-anchor="start" x="182.5" y="-29.5" font-family="Helvetica,sans-Serif" font-size="10.00">/Documents/Mes Documents</text>
<text text-anchor="start" x="182.5" y="-18.5" font-family="Helvetica,sans-Serif" font-size="10.00">/M1/Vision Industrielle</text>
<text text-anchor="middle" x="249" y="-7.5" font-family="Helvetica,sans-Serif" font-size="10.00">/TD2&#45;Traitement image/filtres.c</text>
</a>
</g>
</g>
<!-- Node1&#45;&gt;Node3 -->
<g id="edge2" class="edge"><title>Node1&#45;&gt;Node3</title>
<path fill="none" stroke="midnightblue" d="M492.665,-93.3276C444.503,-82.0422 384.907,-67.5181 332,-53 329.238,-52.2421 326.429,-51.4562 323.594,-50.6507"/>
<polygon fill="midnightblue" stroke="midnightblue" points="491.916,-96.7469 502.45,-95.6129 493.508,-89.9303 491.916,-96.7469"/>
</g>
<!-- Node4 -->
<g id="node4" class="node"><title>Node4</title>
<g id="a_node4"><a xlink:href="main_8c.html" target="_top" xlink:title="Main du programme. ">
<polygon fill="none" stroke="black" points="341.5,-0.5 341.5,-52.5 488.5,-52.5 488.5,-0.5 341.5,-0.5"/>
<text text-anchor="start" x="349.5" y="-40.5" font-family="Helvetica,sans-Serif" font-size="10.00">C:/Users/cbongiorno</text>
<text text-anchor="start" x="349.5" y="-29.5" font-family="Helvetica,sans-Serif" font-size="10.00">/Documents/Mes Documents</text>
<text text-anchor="start" x="349.5" y="-18.5" font-family="Helvetica,sans-Serif" font-size="10.00">/M1/Vision Industrielle</text>
<text text-anchor="middle" x="415" y="-7.5" font-family="Helvetica,sans-Serif" font-size="10.00">/TD2&#45;Traitement image/main.c</text>
</a>
</g>
</g>
<!-- Node1&#45;&gt;Node4 -->
<g id="edge3" class="edge"><title>Node1&#45;&gt;Node4</title>
<path fill="none" stroke="midnightblue" d="M527.578,-84.7763C507.005,-74.3094 484.1,-62.656 464.349,-52.6075"/>
<polygon fill="midnightblue" stroke="midnightblue" points="526.04,-87.9208 536.54,-89.336 529.214,-81.6819 526.04,-87.9208"/>
</g>
<!-- Node5 -->
<g id="node5" class="node"><title>Node5</title>
<g id="a_node5"><a xlink:href="median_8c.html" target="_top" xlink:title="Partie sur les couleurs médianes. ">
<polygon fill="none" stroke="black" points="507,-0.5 507,-52.5 665,-52.5 665,-0.5 507,-0.5"/>
<text text-anchor="start" x="515" y="-40.5" font-family="Helvetica,sans-Serif" font-size="10.00">C:/Users/cbongiorno</text>
<text text-anchor="start" x="515" y="-29.5" font-family="Helvetica,sans-Serif" font-size="10.00">/Documents/Mes Documents</text>
<text text-anchor="start" x="515" y="-18.5" font-family="Helvetica,sans-Serif" font-size="10.00">/M1/Vision Industrielle</text>
<text text-anchor="middle" x="586" y="-7.5" font-family="Helvetica,sans-Serif" font-size="10.00">/TD2&#45;Traitement image/median.c</text>
</a>
</g>
</g>
<!-- Node1&#45;&gt;Node5 -->
<g id="edge4" class="edge"><title>Node1&#45;&gt;Node5</title>
<path fill="none" stroke="midnightblue" d="M586,-79.1908C586,-70.2824 586,-60.8986 586,-52.6075"/>
<polygon fill="midnightblue" stroke="midnightblue" points="582.5,-79.336 586,-89.336 589.5,-79.336 582.5,-79.336"/>
</g>
<!-- Node6 -->
<g id="node6" class="node"><title>Node6</title>
<g id="a_node6"><a xlink:href="partie1_8c.html" target="_top" xlink:title="Fonctions de base pour les matrices. ">
<polygon fill="none" stroke="black" points="683.5,-0.5 683.5,-52.5 838.5,-52.5 838.5,-0.5 683.5,-0.5"/>
<text text-anchor="start" x="691.5" y="-40.5" font-family="Helvetica,sans-Serif" font-size="10.00">C:/Users/cbongiorno</text>
<text text-anchor="start" x="691.5" y="-29.5" font-family="Helvetica,sans-Serif" font-size="10.00">/Documents/Mes Documents</text>
<text text-anchor="start" x="691.5" y="-18.5" font-family="Helvetica,sans-Serif" font-size="10.00">/M1/Vision Industrielle</text>
<text text-anchor="middle" x="761" y="-7.5" font-family="Helvetica,sans-Serif" font-size="10.00">/TD2&#45;Traitement image/partie1.c</text>
</a>
</g>
</g>
<!-- Node1&#45;&gt;Node6 -->
<g id="edge5" class="edge"><title>Node1&#45;&gt;Node6</title>
<path fill="none" stroke="midnightblue" d="M645.789,-84.7763C666.843,-74.3094 690.284,-62.656 710.497,-52.6075"/>
<polygon fill="midnightblue" stroke="midnightblue" points="644.014,-81.7502 636.617,-89.336 647.13,-88.0184 644.014,-81.7502"/>
</g>
<!-- Node7 -->
<g id="node7" class="node"><title>Node7</title>
<g id="a_node7"><a xlink:href="quaternaire_8c.html" target="_top" xlink:title="Partie sur les arbres quaternaires. ">
<polygon fill="none" stroke="black" points="857,-0.5 857,-52.5 1031,-52.5 1031,-0.5 857,-0.5"/>
<text text-anchor="start" x="865" y="-40.5" font-family="Helvetica,sans-Serif" font-size="10.00">C:/Users/cbongiorno</text>
<text text-anchor="start" x="865" y="-29.5" font-family="Helvetica,sans-Serif" font-size="10.00">/Documents/Mes Documents</text>
<text text-anchor="start" x="865" y="-18.5" font-family="Helvetica,sans-Serif" font-size="10.00">/M1/Vision Industrielle</text>
<text text-anchor="middle" x="944" y="-7.5" font-family="Helvetica,sans-Serif" font-size="10.00">/TD2&#45;Traitement image/quaternaire.c</text>
</a>
</g>
</g>
<!-- Node1&#45;&gt;Node7 -->
<g id="edge6" class="edge"><title>Node1&#45;&gt;Node7</title>
<path fill="none" stroke="midnightblue" d="M679.471,-93.2539C729.541,-81.6979 792.228,-66.9499 848,-53 850.928,-52.2677 853.904,-51.5164 856.908,-50.7521"/>
<polygon fill="midnightblue" stroke="midnightblue" points="678.59,-89.8651 669.631,-95.5213 680.161,-96.6864 678.59,-89.8651"/>
</g>
<!-- Node8 -->
<g id="node8" class="node"><title>Node8</title>
<g id="a_node8"><a xlink:href="transfnb_8c.html" target="_top" xlink:title="Fonctions de transformation d&#39;une image en NB (v2) ">
<polygon fill="none" stroke="black" points="1049.5,-0.5 1049.5,-52.5 1210.5,-52.5 1210.5,-0.5 1049.5,-0.5"/>
<text text-anchor="start" x="1057.5" y="-40.5" font-family="Helvetica,sans-Serif" font-size="10.00">C:/Users/cbongiorno</text>
<text text-anchor="start" x="1057.5" y="-29.5" font-family="Helvetica,sans-Serif" font-size="10.00">/Documents/Mes Documents</text>
<text text-anchor="start" x="1057.5" y="-18.5" font-family="Helvetica,sans-Serif" font-size="10.00">/M1/Vision Industrielle</text>
<text text-anchor="middle" x="1130" y="-7.5" font-family="Helvetica,sans-Serif" font-size="10.00">/TD2&#45;Traitement image/transfnb.c</text>
</a>
</g>
</g>
<!-- Node1&#45;&gt;Node8 -->
<g id="edge7" class="edge"><title>Node1&#45;&gt;Node8</title>
<path fill="none" stroke="midnightblue" d="M680.016,-105.687C772.291,-96.1177 916.723,-78.6794 1040,-53 1043.02,-52.3708 1046.09,-51.6944 1049.18,-50.9815"/>
<polygon fill="midnightblue" stroke="midnightblue" points="679.452,-102.226 669.862,-106.73 680.167,-109.19 679.452,-102.226"/>
</g>
</g>
</svg>
