<?xml version="1.0" encoding="UTF-8" standalone="no"?>
<!DOCTYPE svg PUBLIC "-//W3C//DTD SVG 1.1//EN"
 "http://www.w3.org/Graphics/SVG/1.1/DTD/svg11.dtd">
<!-- Generated by graphviz version 2.38.0 (20140413.2041)
 -->
<!-- Title: creationMatriceRVB Pages: 1 -->
<svg width="445pt" height="85pt"
 viewBox="0.00 0.00 445.00 85.00" xmlns="http://www.w3.org/2000/svg" xmlns:xlink="http://www.w3.org/1999/xlink">
<g id="graph0" class="graph" transform="scale(1 1) rotate(0) translate(4 81)">
<title>creationMatriceRVB</title>
<!-- Node1 -->
<g id="node1" class="node"><title>Node1</title>
<polygon fill="#bfbfbf" stroke="black" points="0,-57.5 0,-76.5 104,-76.5 104,-57.5 0,-57.5"/>
<text text-anchor="middle" x="52" y="-64.5" font-family="Helvetica,sans-Serif" font-size="10.00">creationMatriceRVB</text>
</g>
<!-- Node2 -->
<g id="node2" class="node"><title>Node2</title>
<g id="a_node2"><a xlink:href="main_8c.html#a0ddf1224851353fc92bfbff6f499fa97" target="_top" xlink:title="Main du programme. ">
<polygon fill="none" stroke="black" points="399,-38.5 399,-57.5 437,-57.5 437,-38.5 399,-38.5"/>
<text text-anchor="middle" x="418" y="-45.5" font-family="Helvetica,sans-Serif" font-size="10.00">main</text>
</a>
</g>
</g>
<!-- Node1&#45;&gt;Node2 -->
<g id="edge1" class="edge"><title>Node1&#45;&gt;Node2</title>
<path fill="none" stroke="midnightblue" d="M114.189,-70.5791C176.983,-73.1857 277.339,-74.387 363,-62 375.077,-60.2535 388.348,-56.8348 398.711,-53.813"/>
<polygon fill="midnightblue" stroke="midnightblue" points="114.204,-67.0764 104.06,-70.1328 113.896,-74.0697 114.204,-67.0764"/>
</g>
<!-- Node3 -->
<g id="node3" class="node"><title>Node3</title>
<g id="a_node3"><a xlink:href="quaternaire_8c.html#a48b048cacd0128d7485e99ea7d5fd9ba" target="_top" xlink:title="Effectue le zoom sur un arbre RGB. ">
<polygon fill="none" stroke="black" points="140,-38.5 140,-57.5 214,-57.5 214,-38.5 140,-38.5"/>
<text text-anchor="middle" x="177" y="-45.5" font-family="Helvetica,sans-Serif" font-size="10.00">zoomCouleur</text>
</a>
</g>
</g>
<!-- Node1&#45;&gt;Node3 -->
<g id="edge2" class="edge"><title>Node1&#45;&gt;Node3</title>
<path fill="none" stroke="midnightblue" d="M114.032,-57.5723C122.873,-56.2066 131.727,-54.8388 139.864,-53.582"/>
<polygon fill="midnightblue" stroke="midnightblue" points="113.443,-54.1217 104.095,-59.1074 114.512,-61.0396 113.443,-54.1217"/>
</g>
<!-- Node3&#45;&gt;Node2 -->
<g id="edge3" class="edge"><title>Node3&#45;&gt;Node2</title>
<path fill="none" stroke="midnightblue" d="M224.212,-48C277.287,-48 361.784,-48 398.717,-48"/>
<polygon fill="midnightblue" stroke="midnightblue" points="224.04,-44.5001 214.039,-48 224.039,-51.5001 224.04,-44.5001"/>
</g>
<!-- Node4 -->
<g id="node4" class="node"><title>Node4</title>
<g id="a_node4"><a xlink:href="quaternaire_8c.html#a1d1e77f95b9ad72f9f8059a412ee8365" target="_top" xlink:title="Réalise tout les niveau de zoom d&#39;un arbre RGB. ">
<polygon fill="none" stroke="black" points="250,-0.5 250,-19.5 363,-19.5 363,-0.5 250,-0.5"/>
<text text-anchor="middle" x="306.5" y="-7.5" font-family="Helvetica,sans-Serif" font-size="10.00">tousLesZoomsCouleur</text>
</a>
</g>
</g>
<!-- Node3&#45;&gt;Node4 -->
<g id="edge4" class="edge"><title>Node3&#45;&gt;Node4</title>
<path fill="none" stroke="midnightblue" d="M220.059,-35.4647C237.404,-30.2952 257.181,-24.4009 273.337,-19.5859"/>
<polygon fill="midnightblue" stroke="midnightblue" points="218.757,-32.2005 210.174,-38.411 220.757,-38.9089 218.757,-32.2005"/>
</g>
<!-- Node4&#45;&gt;Node2 -->
<g id="edge5" class="edge"><title>Node4&#45;&gt;Node2</title>
<path fill="none" stroke="midnightblue" d="M344.677,-22.9016C363.012,-29.2644 384.288,-36.648 398.995,-41.7517"/>
<polygon fill="midnightblue" stroke="midnightblue" points="345.726,-19.561 335.131,-19.589 343.431,-26.1741 345.726,-19.561"/>
</g>
</g>
</svg>
