<?xml version="1.0" encoding="UTF-8" standalone="no"?>
<!DOCTYPE svg PUBLIC "-//W3C//DTD SVG 1.1//EN"
 "http://www.w3.org/Graphics/SVG/1.1/DTD/svg11.dtd">
<!-- Generated by graphviz version 2.38.0 (20140413.2041)
 -->
<!-- Title: getNiveauByPalier Pages: 1 -->
<svg width="297pt" height="28pt"
 viewBox="0.00 0.00 297.00 28.00" xmlns="http://www.w3.org/2000/svg" xmlns:xlink="http://www.w3.org/1999/xlink">
<g id="graph0" class="graph" transform="scale(1 1) rotate(0) translate(4 24)">
<title>getNiveauByPalier</title>
<!-- Node1 -->
<g id="node1" class="node"><title>Node1</title>
<polygon fill="#bfbfbf" stroke="black" points="0,-0.5 0,-19.5 95,-19.5 95,-0.5 0,-0.5"/>
<text text-anchor="middle" x="47.5" y="-7.5" font-family="Helvetica,sans-Serif" font-size="10.00">getNiveauByPalier</text>
</g>
<!-- Node2 -->
<g id="node2" class="node"><title>Node2</title>
<g id="a_node2"><a xlink:href="transfnb_8c.html#a2fb642b9bb6a2795e2ae720d8560a5b4" target="_top" xlink:title="Effectue une quantification sur l&#39;image n&amp;b avec en niveau en paramètre. ">
<polygon fill="none" stroke="black" points="131,-0.5 131,-19.5 215,-19.5 215,-0.5 131,-0.5"/>
<text text-anchor="middle" x="173" y="-7.5" font-family="Helvetica,sans-Serif" font-size="10.00">quantificationnb</text>
</a>
</g>
</g>
<!-- Node1&#45;&gt;Node2 -->
<g id="edge1" class="edge"><title>Node1&#45;&gt;Node2</title>
<path fill="none" stroke="midnightblue" d="M105.246,-10C113.898,-10 122.683,-10 130.914,-10"/>
<polygon fill="midnightblue" stroke="midnightblue" points="105.19,-6.5001 95.1901,-10 105.19,-13.5001 105.19,-6.5001"/>
</g>
<!-- Node3 -->
<g id="node3" class="node"><title>Node3</title>
<g id="a_node3"><a xlink:href="main_8c.html#a0ddf1224851353fc92bfbff6f499fa97" target="_top" xlink:title="Main du programme. ">
<polygon fill="none" stroke="black" points="251,-0.5 251,-19.5 289,-19.5 289,-0.5 251,-0.5"/>
<text text-anchor="middle" x="270" y="-7.5" font-family="Helvetica,sans-Serif" font-size="10.00">main</text>
</a>
</g>
</g>
<!-- Node2&#45;&gt;Node3 -->
<g id="edge2" class="edge"><title>Node2&#45;&gt;Node3</title>
<path fill="none" stroke="midnightblue" d="M225.379,-10C234.462,-10 243.353,-10 250.715,-10"/>
<polygon fill="midnightblue" stroke="midnightblue" points="225.116,-6.5001 215.116,-10 225.116,-13.5001 225.116,-6.5001"/>
</g>
</g>
</svg>
