<?xml version="1.0" encoding="UTF-8" standalone="no"?>
<!DOCTYPE svg PUBLIC "-//W3C//DTD SVG 1.1//EN"
 "http://www.w3.org/Graphics/SVG/1.1/DTD/svg11.dtd">
<!-- Generated by graphviz version 2.38.0 (20140413.2041)
 -->
<!-- Title: creeNoeudArbreNG Pages: 1 -->
<svg width="422pt" height="28pt"
 viewBox="0.00 0.00 422.00 28.00" xmlns="http://www.w3.org/2000/svg" xmlns:xlink="http://www.w3.org/1999/xlink">
<g id="graph0" class="graph" transform="scale(1 1) rotate(0) translate(4 24)">
<title>creeNoeudArbreNG</title>
<!-- Node1 -->
<g id="node1" class="node"><title>Node1</title>
<polygon fill="#bfbfbf" stroke="black" points="0,-0.5 0,-19.5 101,-19.5 101,-0.5 0,-0.5"/>
<text text-anchor="middle" x="50.5" y="-7.5" font-family="Helvetica,sans-Serif" font-size="10.00">creeNoeudArbreNG</text>
</g>
<!-- Node2 -->
<g id="node2" class="node"><title>Node2</title>
<g id="a_node2"><a xlink:href="quaternaire_8c.html#a008a2eb8c5586e1a49dac2e6f37bd2d1" target="_top" xlink:title="Création d&#39;un nœud de l&#39;arbre quaternaire NG. ">
<polygon fill="none" stroke="black" points="137,-0.5 137,-19.5 231,-19.5 231,-0.5 137,-0.5"/>
<text text-anchor="middle" x="184" y="-7.5" font-family="Helvetica,sans-Serif" font-size="10.00">creeationArbreNG</text>
</a>
</g>
</g>
<!-- Node1&#45;&gt;Node2 -->
<g id="edge1" class="edge"><title>Node1&#45;&gt;Node2</title>
<path fill="none" stroke="midnightblue" d="M111.447,-10C119.919,-10 128.521,-10 136.684,-10"/>
<polygon fill="midnightblue" stroke="midnightblue" points="111.215,-6.5001 101.215,-10 111.214,-13.5001 111.215,-6.5001"/>
</g>
<!-- Node3 -->
<g id="node3" class="node"><title>Node3</title>
<g id="a_node3"><a xlink:href="quaternaire_8c.html#a80c7e96deac0699503dec245e2131975" target="_top" xlink:title="fonction d&#39;appel de création de l&#39;arbre NG ">
<polygon fill="none" stroke="black" points="267,-0.5 267,-19.5 340,-19.5 340,-0.5 267,-0.5"/>
<text text-anchor="middle" x="303.5" y="-7.5" font-family="Helvetica,sans-Serif" font-size="10.00">creeArbreNG</text>
</a>
</g>
</g>
<!-- Node2&#45;&gt;Node3 -->
<g id="edge2" class="edge"><title>Node2&#45;&gt;Node3</title>
<path fill="none" stroke="midnightblue" d="M241.208,-10C249.885,-10 258.636,-10 266.703,-10"/>
<polygon fill="midnightblue" stroke="midnightblue" points="241.102,-6.5001 231.102,-10 241.102,-13.5001 241.102,-6.5001"/>
</g>
<!-- Node4 -->
<g id="node4" class="node"><title>Node4</title>
<g id="a_node4"><a xlink:href="main_8c.html#a0ddf1224851353fc92bfbff6f499fa97" target="_top" xlink:title="Main du programme. ">
<polygon fill="none" stroke="black" points="376,-0.5 376,-19.5 414,-19.5 414,-0.5 376,-0.5"/>
<text text-anchor="middle" x="395" y="-7.5" font-family="Helvetica,sans-Serif" font-size="10.00">main</text>
</a>
</g>
</g>
<!-- Node3&#45;&gt;Node4 -->
<g id="edge3" class="edge"><title>Node3&#45;&gt;Node4</title>
<path fill="none" stroke="midnightblue" d="M350.342,-10C359.435,-10 368.467,-10 375.937,-10"/>
<polygon fill="midnightblue" stroke="midnightblue" points="350.13,-6.5001 340.13,-10 350.13,-13.5001 350.13,-6.5001"/>
</g>
</g>
</svg>
