<?xml version="1.0" encoding="UTF-8" standalone="no"?>
<!DOCTYPE svg PUBLIC "-//W3C//DTD SVG 1.1//EN"
 "http://www.w3.org/Graphics/SVG/1.1/DTD/svg11.dtd">
<!-- Generated by graphviz version 2.38.0 (20140413.2041)
 -->
<!-- Title: medianGrisNxNVariable Pages: 1 -->
<svg width="304pt" height="66pt"
 viewBox="0.00 0.00 304.00 66.00" xmlns="http://www.w3.org/2000/svg" xmlns:xlink="http://www.w3.org/1999/xlink">
<g id="graph0" class="graph" transform="scale(1 1) rotate(0) translate(4 62)">
<title>medianGrisNxNVariable</title>
<!-- Node1 -->
<g id="node1" class="node"><title>Node1</title>
<polygon fill="#bfbfbf" stroke="black" points="0,-19.5 0,-38.5 120,-38.5 120,-19.5 0,-19.5"/>
<text text-anchor="middle" x="60" y="-26.5" font-family="Helvetica,sans-Serif" font-size="10.00">medianGrisNxNVariable</text>
</g>
<!-- Node2 -->
<g id="node2" class="node"><title>Node2</title>
<g id="a_node2"><a xlink:href="prototype_8h.html#abbbcc759563e1b9cde1b08363ba74cb8" target="_top" xlink:title="Outil de test, permettant d&#39;effectuer un filtre avec un outil qui de devrait pas modifier l&#39;image...">
<polygon fill="none" stroke="black" points="164,-38.5 164,-57.5 214,-57.5 214,-38.5 164,-38.5"/>
<text text-anchor="middle" x="189" y="-45.5" font-family="Helvetica,sans-Serif" font-size="10.00">filtrenop</text>
</a>
</g>
</g>
<!-- Node1&#45;&gt;Node2 -->
<g id="edge1" class="edge"><title>Node1&#45;&gt;Node2</title>
<path fill="none" stroke="midnightblue" d="M130.168,-39.348C142.196,-41.1474 153.95,-42.906 163.687,-44.3626"/>
<polygon fill="midnightblue" stroke="midnightblue" points="130.446,-35.8507 120.038,-37.8325 129.41,-42.7737 130.446,-35.8507"/>
</g>
<!-- Node3 -->
<g id="node3" class="node"><title>Node3</title>
<g id="a_node3"><a xlink:href="prototype_8h.html#a66c8b1f89976eba5e821f5c386572d34" target="_top" xlink:title="Outil de filtrage médian. ">
<polygon fill="none" stroke="black" points="156,-0.5 156,-19.5 222,-19.5 222,-0.5 156,-0.5"/>
<text text-anchor="middle" x="189" y="-7.5" font-family="Helvetica,sans-Serif" font-size="10.00">filtreMedian</text>
</a>
</g>
</g>
<!-- Node1&#45;&gt;Node3 -->
<g id="edge2" class="edge"><title>Node1&#45;&gt;Node3</title>
<path fill="none" stroke="midnightblue" d="M130.147,-18.6552C139.077,-17.3192 147.857,-16.0056 155.773,-14.8214"/>
<polygon fill="midnightblue" stroke="midnightblue" points="129.41,-15.2263 120.038,-20.1675 130.446,-22.1493 129.41,-15.2263"/>
</g>
<!-- Node4 -->
<g id="node4" class="node"><title>Node4</title>
<g id="a_node4"><a xlink:href="main_8c.html#a0ddf1224851353fc92bfbff6f499fa97" target="_top" xlink:title="Main du programme. ">
<polygon fill="none" stroke="black" points="258,-0.5 258,-19.5 296,-19.5 296,-0.5 258,-0.5"/>
<text text-anchor="middle" x="277" y="-7.5" font-family="Helvetica,sans-Serif" font-size="10.00">main</text>
</a>
</g>
</g>
<!-- Node3&#45;&gt;Node4 -->
<g id="edge3" class="edge"><title>Node3&#45;&gt;Node4</title>
<path fill="none" stroke="midnightblue" d="M232.087,-10C241.095,-10 250.156,-10 257.689,-10"/>
<polygon fill="midnightblue" stroke="midnightblue" points="232.023,-6.5001 222.023,-10 232.023,-13.5001 232.023,-6.5001"/>
</g>
</g>
</svg>
