<?xml version="1.0" encoding="UTF-8" standalone="no"?>
<!DOCTYPE svg PUBLIC "-//W3C//DTD SVG 1.1//EN"
 "http://www.w3.org/Graphics/SVG/1.1/DTD/svg11.dtd">
<!-- Generated by graphviz version 2.38.0 (20140413.2041)
 -->
<!-- Title: creeArbreNB Pages: 1 -->
<svg width="446pt" height="28pt"
 viewBox="0.00 0.00 446.00 28.00" xmlns="http://www.w3.org/2000/svg" xmlns:xlink="http://www.w3.org/1999/xlink">
<g id="graph0" class="graph" transform="scale(1 1) rotate(0) translate(4 24)">
<title>creeArbreNB</title>
<!-- Node1 -->
<g id="node1" class="node"><title>Node1</title>
<polygon fill="#bfbfbf" stroke="black" points="0,-0.5 0,-19.5 72,-19.5 72,-0.5 0,-0.5"/>
<text text-anchor="middle" x="36" y="-7.5" font-family="Helvetica,sans-Serif" font-size="10.00">creeArbreNB</text>
</g>
<!-- Node2 -->
<g id="node2" class="node"><title>Node2</title>
<g id="a_node2"><a xlink:href="quaternaire_8c.html#a21c86de2b1eb908399e18ea7d445c4fb" target="_top" xlink:title="Création d&#39;un nœud de l&#39;arbre. ">
<polygon fill="none" stroke="black" points="108,-0.5 108,-19.5 201,-19.5 201,-0.5 108,-0.5"/>
<text text-anchor="middle" x="154.5" y="-7.5" font-family="Helvetica,sans-Serif" font-size="10.00">creeationArbreNB</text>
</a>
</g>
</g>
<!-- Node1&#45;&gt;Node2 -->
<g id="edge1" class="edge"><title>Node1&#45;&gt;Node2</title>
<path fill="none" stroke="midnightblue" d="M72.27,-10C80.2604,-10 88.9379,-10 97.5483,-10"/>
<polygon fill="midnightblue" stroke="midnightblue" points="97.5803,-13.5001 107.58,-10 97.5802,-6.5001 97.5803,-13.5001"/>
</g>
<!-- Node3 -->
<g id="node3" class="node"><title>Node3</title>
<g id="a_node3"><a xlink:href="quaternaire_8c.html#a325bf257558a093ac6ceef33042c4554" target="_top" xlink:title="Allocation d&#39;un nœud de l&#39;arbre. ">
<polygon fill="none" stroke="black" points="237,-0.5 237,-19.5 337,-19.5 337,-0.5 237,-0.5"/>
<text text-anchor="middle" x="287" y="-7.5" font-family="Helvetica,sans-Serif" font-size="10.00">creeNoeudArbreNB</text>
</a>
</g>
</g>
<!-- Node2&#45;&gt;Node3 -->
<g id="edge2" class="edge"><title>Node2&#45;&gt;Node3</title>
<path fill="none" stroke="midnightblue" d="M201.143,-10C209.294,-10 217.896,-10 226.37,-10"/>
<polygon fill="midnightblue" stroke="midnightblue" points="226.605,-13.5001 236.605,-10 226.605,-6.5001 226.605,-13.5001"/>
</g>
<!-- Node4 -->
<g id="node4" class="node"><title>Node4</title>
<g id="a_node4"><a xlink:href="quaternaire_8c.html#ac337e0476780ba4e5236a1d56ad8fd53" target="_top" xlink:title="Calcul valeur médiane carre NB. ">
<polygon fill="none" stroke="black" points="373,-0.5 373,-19.5 438,-19.5 438,-0.5 373,-0.5"/>
<text text-anchor="middle" x="405.5" y="-7.5" font-family="Helvetica,sans-Serif" font-size="10.00">calculCarre</text>
</a>
</g>
</g>
<!-- Node3&#45;&gt;Node4 -->
<g id="edge3" class="edge"><title>Node3&#45;&gt;Node4</title>
<path fill="none" stroke="midnightblue" d="M337.069,-10C345.551,-10 354.3,-10 362.571,-10"/>
<polygon fill="midnightblue" stroke="midnightblue" points="362.737,-13.5001 372.737,-10 362.737,-6.5001 362.737,-13.5001"/>
</g>
</g>
</svg>
