<?xml version="1.0" encoding="UTF-8" standalone="no"?>
<!DOCTYPE svg PUBLIC "-//W3C//DTD SVG 1.1//EN"
 "http://www.w3.org/Graphics/SVG/1.1/DTD/svg11.dtd">
<!-- Generated by graphviz version 2.38.0 (20140413.2041)
 -->
<!-- Title: carreHomogeneNG Pages: 1 -->
<svg width="327pt" height="28pt"
 viewBox="0.00 0.00 327.00 28.00" xmlns="http://www.w3.org/2000/svg" xmlns:xlink="http://www.w3.org/1999/xlink">
<g id="graph0" class="graph" transform="scale(1 1) rotate(0) translate(4 24)">
<title>carreHomogeneNG</title>
<!-- Node1 -->
<g id="node1" class="node"><title>Node1</title>
<polygon fill="#bfbfbf" stroke="black" points="0,-0.5 0,-19.5 99,-19.5 99,-0.5 0,-0.5"/>
<text text-anchor="middle" x="49.5" y="-7.5" font-family="Helvetica,sans-Serif" font-size="10.00">carreHomogeneNG</text>
</g>
<!-- Node2 -->
<g id="node2" class="node"><title>Node2</title>
<g id="a_node2"><a xlink:href="quaternaire_8c.html#a148b7bd50d305fad50ae008993a0fccb" target="_top" xlink:title="Calcul la valeur médiane d&#39;un carré NG. ">
<polygon fill="none" stroke="black" points="135,-0.5 135,-19.5 227,-19.5 227,-0.5 135,-0.5"/>
<text text-anchor="middle" x="181" y="-7.5" font-family="Helvetica,sans-Serif" font-size="10.00">valeurMedianeNG</text>
</a>
</g>
</g>
<!-- Node1&#45;&gt;Node2 -->
<g id="edge1" class="edge"><title>Node1&#45;&gt;Node2</title>
<path fill="none" stroke="midnightblue" d="M99.0895,-10C107.457,-10 116.21,-10 124.738,-10"/>
<polygon fill="midnightblue" stroke="midnightblue" points="124.988,-13.5001 134.988,-10 124.988,-6.5001 124.988,-13.5001"/>
</g>
<!-- Node3 -->
<g id="node3" class="node"><title>Node3</title>
<g id="a_node3"><a xlink:href="median_8c.html#a6f9266f5d5b1c83fdcd462d44e60f3e2" target="_top" xlink:title="tri un tableau et retourne la valeur médiane ">
<polygon fill="none" stroke="black" points="263,-0.5 263,-19.5 319,-19.5 319,-0.5 263,-0.5"/>
<text text-anchor="middle" x="291" y="-7.5" font-family="Helvetica,sans-Serif" font-size="10.00">tritableau</text>
</a>
</g>
</g>
<!-- Node2&#45;&gt;Node3 -->
<g id="edge2" class="edge"><title>Node2&#45;&gt;Node3</title>
<path fill="none" stroke="midnightblue" d="M227.176,-10C235.711,-10 244.548,-10 252.803,-10"/>
<polygon fill="midnightblue" stroke="midnightblue" points="252.882,-13.5001 262.882,-10 252.882,-6.5001 252.882,-13.5001"/>
</g>
</g>
</svg>
