<?xml version="1.0" encoding="UTF-8" standalone="no"?>
<!DOCTYPE svg PUBLIC "-//W3C//DTD SVG 1.1//EN"
 "http://www.w3.org/Graphics/SVG/1.1/DTD/svg11.dtd">
<!-- Generated by graphviz version 2.38.0 (20140413.2041)
 -->
<!-- Title: fctCalculDistance Pages: 1 -->
<svg width="456pt" height="161pt"
 viewBox="0.00 0.00 456.00 161.00" xmlns="http://www.w3.org/2000/svg" xmlns:xlink="http://www.w3.org/1999/xlink">
<g id="graph0" class="graph" transform="scale(1 1) rotate(0) translate(4 157)">
<title>fctCalculDistance</title>
<!-- Node1 -->
<g id="node1" class="node"><title>Node1</title>
<polygon fill="#bfbfbf" stroke="black" points="0,-95.5 0,-114.5 92,-114.5 92,-95.5 0,-95.5"/>
<text text-anchor="middle" x="46" y="-102.5" font-family="Helvetica,sans-Serif" font-size="10.00">fctCalculDistance</text>
</g>
<!-- Node2 -->
<g id="node2" class="node"><title>Node2</title>
<g id="a_node2"><a xlink:href="partie1_8c.html#ad54b1a3721410441e15f0f5b76e77bf6" target="_top" xlink:title="Seuil une matrice. ">
<polygon fill="none" stroke="black" points="136.5,-133.5 136.5,-152.5 205.5,-152.5 205.5,-133.5 136.5,-133.5"/>
<text text-anchor="middle" x="171" y="-140.5" font-family="Helvetica,sans-Serif" font-size="10.00">seuillageNG</text>
</a>
</g>
</g>
<!-- Node1&#45;&gt;Node2 -->
<g id="edge1" class="edge"><title>Node1&#45;&gt;Node2</title>
<path fill="none" stroke="midnightblue" d="M78.0381,-114.589C93.4792,-119.359 112.348,-125.189 128.966,-130.323"/>
<polygon fill="midnightblue" stroke="midnightblue" points="128.384,-133.806 138.972,-133.414 130.451,-127.118 128.384,-133.806"/>
</g>
<!-- Node3 -->
<g id="node3" class="node"><title>Node3</title>
<g id="a_node3"><a xlink:href="partie1_8c.html#ae9d263fb9a2d9931bcfdc4fa877286a2" target="_top" xlink:title="Retour le negatif d&#39;une matrice. ">
<polygon fill="none" stroke="black" points="128,-95.5 128,-114.5 214,-114.5 214,-95.5 128,-95.5"/>
<text text-anchor="middle" x="171" y="-102.5" font-family="Helvetica,sans-Serif" font-size="10.00">negatifImageNG</text>
</a>
</g>
</g>
<!-- Node1&#45;&gt;Node3 -->
<g id="edge2" class="edge"><title>Node1&#45;&gt;Node3</title>
<path fill="none" stroke="midnightblue" d="M92.1022,-105C100.389,-105 109.104,-105 117.583,-105"/>
<polygon fill="midnightblue" stroke="midnightblue" points="117.765,-108.5 127.765,-105 117.764,-101.5 117.765,-108.5"/>
</g>
<!-- Node4 -->
<g id="node4" class="node"><title>Node4</title>
<g id="a_node4"><a xlink:href="_caldist_8c.html#a68194757508adc5f0ed956fd55c364b2" target="_top" xlink:title="Calcul la distance entre des pixel de couleur différente. ">
<polygon fill="none" stroke="black" points="131,-57.5 131,-76.5 211,-76.5 211,-57.5 131,-57.5"/>
<text text-anchor="middle" x="171" y="-64.5" font-family="Helvetica,sans-Serif" font-size="10.00">calculDistance</text>
</a>
</g>
</g>
<!-- Node1&#45;&gt;Node4 -->
<g id="edge3" class="edge"><title>Node1&#45;&gt;Node4</title>
<path fill="none" stroke="midnightblue" d="M78.0381,-95.411C93.4792,-90.6406 112.348,-84.8112 128.966,-79.6771"/>
<polygon fill="midnightblue" stroke="midnightblue" points="130.451,-82.8818 138.972,-76.5859 128.384,-76.1937 130.451,-82.8818"/>
</g>
<!-- Node5 -->
<g id="node5" class="node"><title>Node5</title>
<g id="a_node5"><a xlink:href="_caldist_8c.html#a6666598676080036d2f11e3fad54f2b0" target="_top" xlink:title="Copie une matrice. ">
<polygon fill="none" stroke="black" points="250,-114.5 250,-133.5 322,-133.5 322,-114.5 250,-114.5"/>
<text text-anchor="middle" x="286" y="-121.5" font-family="Helvetica,sans-Serif" font-size="10.00">copieMatrice</text>
</a>
</g>
</g>
<!-- Node4&#45;&gt;Node5 -->
<g id="edge4" class="edge"><title>Node4&#45;&gt;Node5</title>
<path fill="none" stroke="midnightblue" d="M193.928,-76.5879C200.431,-79.5204 207.54,-82.8144 214,-86 222.49,-90.1867 241.866,-100.578 258.235,-109.437"/>
<polygon fill="midnightblue" stroke="midnightblue" points="256.961,-112.728 267.42,-114.418 260.298,-106.574 256.961,-112.728"/>
</g>
<!-- Node7 -->
<g id="node7" class="node"><title>Node7</title>
<g id="a_node7"><a xlink:href="_caldist_8c.html#ac122956f44b6acde5f27e0b3b9bd957f" target="_top" xlink:title="Calcul le minimum entre cinq nombres. ">
<polygon fill="none" stroke="black" points="256.5,-76.5 256.5,-95.5 315.5,-95.5 315.5,-76.5 256.5,-76.5"/>
<text text-anchor="middle" x="286" y="-83.5" font-family="Helvetica,sans-Serif" font-size="10.00">minimun5</text>
</a>
</g>
</g>
<!-- Node4&#45;&gt;Node7 -->
<g id="edge6" class="edge"><title>Node4&#45;&gt;Node7</title>
<path fill="none" stroke="midnightblue" d="M211.205,-73.592C222.527,-75.4958 234.876,-77.572 246.175,-79.4719"/>
<polygon fill="midnightblue" stroke="midnightblue" points="245.756,-82.9504 256.198,-81.1571 246.916,-76.0473 245.756,-82.9504"/>
</g>
<!-- Node8 -->
<g id="node8" class="node"><title>Node8</title>
<g id="a_node8"><a xlink:href="_caldist_8c.html#a318af6561ba341de02889ad9dabdac2b" target="_top" xlink:title="Calcul le minimum entre deux nombres. ">
<polygon fill="none" stroke="black" points="376.5,-38.5 376.5,-57.5 429.5,-57.5 429.5,-38.5 376.5,-38.5"/>
<text text-anchor="middle" x="403" y="-45.5" font-family="Helvetica,sans-Serif" font-size="10.00">minimun</text>
</a>
</g>
</g>
<!-- Node4&#45;&gt;Node8 -->
<g id="edge10" class="edge"><title>Node4&#45;&gt;Node8</title>
<path fill="none" stroke="midnightblue" d="M211.016,-63.7769C254.496,-60.1851 324.205,-54.4265 366.296,-50.9495"/>
<polygon fill="midnightblue" stroke="midnightblue" points="366.691,-54.4289 376.369,-50.1174 366.115,-47.4526 366.691,-54.4289"/>
</g>
<!-- Node9 -->
<g id="node9" class="node"><title>Node9</title>
<g id="a_node9"><a xlink:href="_caldist_8c.html#af97439a39d7834efdf9efa7b02e7fd09" target="_top" xlink:title="Calcul le minimum entre quatre nombres. ">
<polygon fill="none" stroke="black" points="256.5,-0.5 256.5,-19.5 315.5,-19.5 315.5,-0.5 256.5,-0.5"/>
<text text-anchor="middle" x="286" y="-7.5" font-family="Helvetica,sans-Serif" font-size="10.00">minimun4</text>
</a>
</g>
</g>
<!-- Node4&#45;&gt;Node9 -->
<g id="edge8" class="edge"><title>Node4&#45;&gt;Node9</title>
<path fill="none" stroke="midnightblue" d="M190.914,-57.4595C208.921,-48.3761 236.251,-34.5904 256.823,-24.2133"/>
<polygon fill="midnightblue" stroke="midnightblue" points="258.673,-27.2004 266.025,-19.5716 255.52,-20.9505 258.673,-27.2004"/>
</g>
<!-- Node6 -->
<g id="node6" class="node"><title>Node6</title>
<g id="a_node6"><a xlink:href="partie1_8c.html#a74146446548f74f43dcabaeea7b55493" target="_top" xlink:title="Retour une matrice de dimension haut * larg. ">
<polygon fill="none" stroke="black" points="358,-114.5 358,-133.5 448,-133.5 448,-114.5 358,-114.5"/>
<text text-anchor="middle" x="403" y="-121.5" font-family="Helvetica,sans-Serif" font-size="10.00">allocationMatrice</text>
</a>
</g>
</g>
<!-- Node5&#45;&gt;Node6 -->
<g id="edge5" class="edge"><title>Node5&#45;&gt;Node6</title>
<path fill="none" stroke="midnightblue" d="M322.129,-124C330.2,-124 338.967,-124 347.639,-124"/>
<polygon fill="midnightblue" stroke="midnightblue" points="347.728,-127.5 357.728,-124 347.728,-120.5 347.728,-127.5"/>
</g>
<!-- Node7&#45;&gt;Node8 -->
<g id="edge7" class="edge"><title>Node7&#45;&gt;Node8</title>
<path fill="none" stroke="midnightblue" d="M315.723,-76.509C331.149,-71.4117 350.298,-65.0841 366.634,-59.686"/>
<polygon fill="midnightblue" stroke="midnightblue" points="367.987,-62.9252 376.384,-56.4644 365.791,-56.2787 367.987,-62.9252"/>
</g>
<!-- Node9&#45;&gt;Node8 -->
<g id="edge9" class="edge"><title>Node9&#45;&gt;Node8</title>
<path fill="none" stroke="midnightblue" d="M315.723,-19.491C331.149,-24.5883 350.298,-30.9159 366.634,-36.314"/>
<polygon fill="midnightblue" stroke="midnightblue" points="365.791,-39.7213 376.384,-39.5356 367.987,-33.0748 365.791,-39.7213"/>
</g>
</g>
</svg>
