<?xml version="1.0" encoding="UTF-8" standalone="no"?>
<!DOCTYPE svg PUBLIC "-//W3C//DTD SVG 1.1//EN"
 "http://www.w3.org/Graphics/SVG/1.1/DTD/svg11.dtd">
<!-- Generated by graphviz version 2.38.0 (20140413.2041)
 -->
<!-- Title: dilatationCase Pages: 1 -->
<svg width="381pt" height="66pt"
 viewBox="0.00 0.00 381.00 66.00" xmlns="http://www.w3.org/2000/svg" xmlns:xlink="http://www.w3.org/1999/xlink">
<g id="graph0" class="graph" transform="scale(1 1) rotate(0) translate(4 62)">
<title>dilatationCase</title>
<!-- Node1 -->
<g id="node1" class="node"><title>Node1</title>
<polygon fill="#bfbfbf" stroke="black" points="0,-19.5 0,-38.5 78,-38.5 78,-19.5 0,-19.5"/>
<text text-anchor="middle" x="39" y="-26.5" font-family="Helvetica,sans-Serif" font-size="10.00">dilatationCase</text>
</g>
<!-- Node2 -->
<g id="node2" class="node"><title>Node2</title>
<g id="a_node2"><a xlink:href="prototype_8h.html#a74f1cee58a0cba69e6279032f98b1aad" target="_top" xlink:title="Effectue un gradient sur une case de la matrice sur une dimension variable. ">
<polygon fill="none" stroke="black" points="114,-38.5 114,-57.5 188,-57.5 188,-38.5 114,-38.5"/>
<text text-anchor="middle" x="151" y="-45.5" font-family="Helvetica,sans-Serif" font-size="10.00">gradientCase</text>
</a>
</g>
</g>
<!-- Node1&#45;&gt;Node2 -->
<g id="edge1" class="edge"><title>Node1&#45;&gt;Node2</title>
<path fill="none" stroke="midnightblue" d="M88.1104,-37.31C96.7168,-38.7965 105.552,-40.3226 113.754,-41.7394"/>
<polygon fill="midnightblue" stroke="midnightblue" points="88.6138,-33.8452 78.164,-35.592 87.4223,-40.743 88.6138,-33.8452"/>
</g>
<!-- Node5 -->
<g id="node5" class="node"><title>Node5</title>
<g id="a_node5"><a xlink:href="prototype_8h.html#a6f751ddca5503443e6f1667ae4f1895c" target="_top" xlink:title="Effectue une dilatation sur une image avec un outil de dimension variable. ">
<polygon fill="none" stroke="black" points="224,-0.5 224,-19.5 299,-19.5 299,-0.5 224,-0.5"/>
<text text-anchor="middle" x="261.5" y="-7.5" font-family="Helvetica,sans-Serif" font-size="10.00">filtreDilatation</text>
</a>
</g>
</g>
<!-- Node1&#45;&gt;Node5 -->
<g id="edge4" class="edge"><title>Node1&#45;&gt;Node5</title>
<path fill="none" stroke="midnightblue" d="M88.157,-24.8504C129.013,-21.3299 186.75,-16.3549 223.909,-13.153"/>
<polygon fill="midnightblue" stroke="midnightblue" points="87.819,-21.3665 78.1564,-25.7121 88.42,-28.3406 87.819,-21.3665"/>
</g>
<!-- Node3 -->
<g id="node3" class="node"><title>Node3</title>
<g id="a_node3"><a xlink:href="prototype_8h.html#adc93fe086109c5c8b7c2c4f3848b0c96" target="_top" xlink:title="Effectue un gradient sur une image avec un outil de dimension variable. ">
<polygon fill="none" stroke="black" points="226,-38.5 226,-57.5 297,-57.5 297,-38.5 226,-38.5"/>
<text text-anchor="middle" x="261.5" y="-45.5" font-family="Helvetica,sans-Serif" font-size="10.00">filtreGradient</text>
</a>
</g>
</g>
<!-- Node2&#45;&gt;Node3 -->
<g id="edge2" class="edge"><title>Node2&#45;&gt;Node3</title>
<path fill="none" stroke="midnightblue" d="M198.393,-48C207.653,-48 217.226,-48 226,-48"/>
<polygon fill="midnightblue" stroke="midnightblue" points="198.129,-44.5001 188.129,-48 198.129,-51.5001 198.129,-44.5001"/>
</g>
<!-- Node4 -->
<g id="node4" class="node"><title>Node4</title>
<g id="a_node4"><a xlink:href="main_8c.html#a0ddf1224851353fc92bfbff6f499fa97" target="_top" xlink:title="Main du programme. ">
<polygon fill="none" stroke="black" points="335,-19.5 335,-38.5 373,-38.5 373,-19.5 335,-19.5"/>
<text text-anchor="middle" x="354" y="-26.5" font-family="Helvetica,sans-Serif" font-size="10.00">main</text>
</a>
</g>
</g>
<!-- Node3&#45;&gt;Node4 -->
<g id="edge3" class="edge"><title>Node3&#45;&gt;Node4</title>
<path fill="none" stroke="midnightblue" d="M307.261,-38.6026C316.969,-36.5646 326.706,-34.5203 334.686,-32.8449"/>
<polygon fill="midnightblue" stroke="midnightblue" points="306.298,-35.2284 297.231,-40.7084 307.737,-42.079 306.298,-35.2284"/>
</g>
<!-- Node5&#45;&gt;Node4 -->
<g id="edge5" class="edge"><title>Node5&#45;&gt;Node4</title>
<path fill="none" stroke="midnightblue" d="M309.018,-19.7662C318.247,-21.7037 327.405,-23.6265 334.956,-25.2118"/>
<polygon fill="midnightblue" stroke="midnightblue" points="309.555,-16.3027 299.049,-17.6733 308.116,-23.1533 309.555,-16.3027"/>
</g>
</g>
</svg>
