<?xml version="1.0" encoding="UTF-8" standalone="no"?>
<!DOCTYPE svg PUBLIC "-//W3C//DTD SVG 1.1//EN"
 "http://www.w3.org/Graphics/SVG/1.1/DTD/svg11.dtd">
<!-- Generated by graphviz version 2.38.0 (20140413.2041)
 -->
<!-- Title: tousLesZoomsNG Pages: 1 -->
<svg width="676pt" height="218pt"
 viewBox="0.00 0.00 676.00 218.00" xmlns="http://www.w3.org/2000/svg" xmlns:xlink="http://www.w3.org/1999/xlink">
<g id="graph0" class="graph" transform="scale(1 1) rotate(0) translate(4 214)">
<title>tousLesZoomsNG</title>
<!-- Node1 -->
<g id="node1" class="node"><title>Node1</title>
<polygon fill="#bfbfbf" stroke="black" points="0,-95.5 0,-114.5 95,-114.5 95,-95.5 0,-95.5"/>
<text text-anchor="middle" x="47.5" y="-102.5" font-family="Helvetica,sans-Serif" font-size="10.00">tousLesZoomsNG</text>
</g>
<!-- Node2 -->
<g id="node2" class="node"><title>Node2</title>
<g id="a_node2"><a xlink:href="quaternaire_8c.html#ad9b089f8ab718a8d2ff3f459b748ff74" target="_top" xlink:title="Calcul la profondeur d&#39;un arbre. ">
<polygon fill="none" stroke="black" points="292.5,-190.5 292.5,-209.5 377.5,-209.5 377.5,-190.5 292.5,-190.5"/>
<text text-anchor="middle" x="335" y="-197.5" font-family="Helvetica,sans-Serif" font-size="10.00">profondeurArbre</text>
</a>
</g>
</g>
<!-- Node1&#45;&gt;Node2 -->
<g id="edge1" class="edge"><title>Node1&#45;&gt;Node2</title>
<path fill="none" stroke="midnightblue" d="M55.383,-114.549C68.1263,-131.376 97.198,-165.951 131,-181 179.097,-202.413 239.83,-205.358 282.281,-204.066"/>
<polygon fill="midnightblue" stroke="midnightblue" points="282.536,-207.559 292.391,-203.668 282.261,-200.565 282.536,-207.559"/>
</g>
<!-- Node3 -->
<g id="node3" class="node"><title>Node3</title>
<g id="a_node3"><a xlink:href="quaternaire_8c.html#a3ebbb6278c797c3e72b00c179732e433" target="_top" xlink:title="Effectue le zoom sur un arbre NG. ">
<polygon fill="none" stroke="black" points="166,-152.5 166,-171.5 221,-171.5 221,-152.5 166,-152.5"/>
<text text-anchor="middle" x="193.5" y="-159.5" font-family="Helvetica,sans-Serif" font-size="10.00">zoomNG</text>
</a>
</g>
</g>
<!-- Node1&#45;&gt;Node3 -->
<g id="edge2" class="edge"><title>Node1&#45;&gt;Node3</title>
<path fill="none" stroke="midnightblue" d="M67.5286,-114.637C84.0553,-122.795 108.762,-134.486 131,-143 139.101,-146.102 147.944,-149.069 156.334,-151.699"/>
<polygon fill="midnightblue" stroke="midnightblue" points="155.317,-155.048 165.903,-154.618 157.36,-148.352 155.317,-155.048"/>
</g>
<!-- Node9 -->
<g id="node9" class="node"><title>Node9</title>
<g id="a_node9"><a xlink:href="partie1_8c.html#a106518d4a41c16e3a633d2963200b919" target="_top" xlink:title="Libération d&#39;une matrice. ">
<polygon fill="none" stroke="black" points="149.5,-114.5 149.5,-133.5 237.5,-133.5 237.5,-114.5 149.5,-114.5"/>
<text text-anchor="middle" x="193.5" y="-121.5" font-family="Helvetica,sans-Serif" font-size="10.00">liberationmatrice</text>
</a>
</g>
</g>
<!-- Node1&#45;&gt;Node9 -->
<g id="edge9" class="edge"><title>Node1&#45;&gt;Node9</title>
<path fill="none" stroke="midnightblue" d="M95.2527,-111.169C109.262,-113.017 124.732,-115.058 139.134,-116.959"/>
<polygon fill="midnightblue" stroke="midnightblue" points="139.024,-120.474 149.396,-118.313 139.94,-113.535 139.024,-120.474"/>
</g>
<!-- Node10 -->
<g id="node10" class="node"><title>Node10</title>
<g id="a_node10"><a xlink:href="partie1_8c.html#a650285388bbc3d693bcdc61629477df9" target="_top" xlink:title="Sauvegarde une image NG. ">
<polygon fill="none" stroke="black" points="152.5,-76.5 152.5,-95.5 234.5,-95.5 234.5,-76.5 152.5,-76.5"/>
<text text-anchor="middle" x="193.5" y="-83.5" font-family="Helvetica,sans-Serif" font-size="10.00">sauveImageNG</text>
</a>
</g>
</g>
<!-- Node1&#45;&gt;Node10 -->
<g id="edge10" class="edge"><title>Node1&#45;&gt;Node10</title>
<path fill="none" stroke="midnightblue" d="M95.2527,-98.8312C110.199,-96.8591 126.808,-94.6678 142.008,-92.6622"/>
<polygon fill="midnightblue" stroke="midnightblue" points="142.812,-96.0865 152.268,-91.3083 141.896,-89.1466 142.812,-96.0865"/>
</g>
<!-- Node12 -->
<g id="node12" class="node"><title>Node12</title>
<g id="a_node12"><a xlink:href="_bmp_lib_8c.html#abf1da9548a3aa2a96715f9b5fd7525ab" target="_top" xlink:title="ecrisBMPRGB_Dans">
<polygon fill="none" stroke="black" points="139.5,-38.5 139.5,-57.5 247.5,-57.5 247.5,-38.5 139.5,-38.5"/>
<text text-anchor="middle" x="193.5" y="-45.5" font-family="Helvetica,sans-Serif" font-size="10.00">ecrisBMPRGB_Dans</text>
</a>
</g>
</g>
<!-- Node1&#45;&gt;Node12 -->
<g id="edge12" class="edge"><title>Node1&#45;&gt;Node12</title>
<path fill="none" stroke="midnightblue" d="M67.5286,-95.3627C84.0553,-87.2047 108.762,-75.5138 131,-67 136.821,-64.7712 143.026,-62.6116 149.17,-60.5969"/>
<polygon fill="midnightblue" stroke="midnightblue" points="150.244,-63.9282 158.712,-57.561 148.121,-57.2577 150.244,-63.9282"/>
</g>
<!-- Node14 -->
<g id="node14" class="node"><title>Node14</title>
<g id="a_node14"><a xlink:href="_bmp_lib_8c.html#a84142edceda87c3a09dab077ab2b0ef9" target="_top" xlink:title="libereDonneesImageRGB">
<polygon fill="none" stroke="black" points="131,-0.5 131,-19.5 256,-19.5 256,-0.5 131,-0.5"/>
<text text-anchor="middle" x="193.5" y="-7.5" font-family="Helvetica,sans-Serif" font-size="10.00">libereDonneesImageRGB</text>
</a>
</g>
</g>
<!-- Node1&#45;&gt;Node14 -->
<g id="edge14" class="edge"><title>Node1&#45;&gt;Node14</title>
<path fill="none" stroke="midnightblue" d="M56.3698,-95.3702C69.9631,-79.3411 99.4338,-47.1586 131,-29 134.705,-26.8686 138.676,-24.95 142.751,-23.2281"/>
<polygon fill="midnightblue" stroke="midnightblue" points="144.273,-26.3934 152.37,-19.5599 141.779,-19.8529 144.273,-26.3934"/>
</g>
<!-- Node3&#45;&gt;Node2 -->
<g id="edge3" class="edge"><title>Node3&#45;&gt;Node2</title>
<path fill="none" stroke="midnightblue" d="M221.067,-169.237C240.349,-174.489 266.888,-181.719 289.395,-187.849"/>
<polygon fill="midnightblue" stroke="midnightblue" points="288.517,-191.238 299.085,-190.489 290.357,-184.484 288.517,-191.238"/>
</g>
<!-- Node4 -->
<g id="node4" class="node"><title>Node4</title>
<g id="a_node4"><a xlink:href="quaternaire_8c.html#a98566b8b5bd16a3dde718cea893609ca" target="_top" xlink:title="Converti le k en nn. ">
<polygon fill="none" stroke="black" points="309,-152.5 309,-171.5 361,-171.5 361,-152.5 309,-152.5"/>
<text text-anchor="middle" x="335" y="-159.5" font-family="Helvetica,sans-Serif" font-size="10.00">convknn</text>
</a>
</g>
</g>
<!-- Node3&#45;&gt;Node4 -->
<g id="edge4" class="edge"><title>Node3&#45;&gt;Node4</title>
<path fill="none" stroke="midnightblue" d="M221.067,-162C243.103,-162 274.619,-162 298.761,-162"/>
<polygon fill="midnightblue" stroke="midnightblue" points="298.939,-165.5 308.939,-162 298.939,-158.5 298.939,-165.5"/>
</g>
<!-- Node5 -->
<g id="node5" class="node"><title>Node5</title>
<g id="a_node5"><a xlink:href="quaternaire_8c.html#a0fa6731f07927f703cf1c488d79c2cb6" target="_top" xlink:title="Fonction d&#39;appel de conversion arbre &#45;&gt; matrice NG. ">
<polygon fill="none" stroke="black" points="294,-114.5 294,-133.5 376,-133.5 376,-114.5 294,-114.5"/>
<text text-anchor="middle" x="335" y="-121.5" font-family="Helvetica,sans-Serif" font-size="10.00">creeMatriceNG</text>
</a>
</g>
</g>
<!-- Node3&#45;&gt;Node5 -->
<g id="edge5" class="edge"><title>Node3&#45;&gt;Node5</title>
<path fill="none" stroke="midnightblue" d="M221.067,-154.763C240.349,-149.511 266.888,-142.281 289.395,-136.151"/>
<polygon fill="midnightblue" stroke="midnightblue" points="290.357,-139.516 299.085,-133.511 288.517,-132.762 290.357,-139.516"/>
</g>
<!-- Node6 -->
<g id="node6" class="node"><title>Node6</title>
<g id="a_node6"><a xlink:href="partie1_8c.html#a74146446548f74f43dcabaeea7b55493" target="_top" xlink:title="Retour une matrice de dimension haut * larg. ">
<polygon fill="none" stroke="black" points="418,-133.5 418,-152.5 508,-152.5 508,-133.5 418,-133.5"/>
<text text-anchor="middle" x="463" y="-140.5" font-family="Helvetica,sans-Serif" font-size="10.00">allocationMatrice</text>
</a>
</g>
</g>
<!-- Node5&#45;&gt;Node6 -->
<g id="edge6" class="edge"><title>Node5&#45;&gt;Node6</title>
<path fill="none" stroke="midnightblue" d="M376.214,-130.064C386.256,-131.578 397.191,-133.227 407.788,-134.825"/>
<polygon fill="midnightblue" stroke="midnightblue" points="407.394,-138.305 417.804,-136.336 408.438,-131.384 407.394,-138.305"/>
</g>
<!-- Node7 -->
<g id="node7" class="node"><title>Node7</title>
<g id="a_node7"><a xlink:href="quaternaire_8c.html#aad44154524c9c77b432cb6cf52c7acf4" target="_top" xlink:title="Remplissage de la matrice avec un arbre NG. ">
<polygon fill="none" stroke="black" points="414,-95.5 414,-114.5 512,-114.5 512,-95.5 414,-95.5"/>
<text text-anchor="middle" x="463" y="-102.5" font-family="Helvetica,sans-Serif" font-size="10.00">creationMatriceNG</text>
</a>
</g>
</g>
<!-- Node5&#45;&gt;Node7 -->
<g id="edge7" class="edge"><title>Node5&#45;&gt;Node7</title>
<path fill="none" stroke="midnightblue" d="M376.214,-117.936C384.993,-116.612 394.456,-115.185 403.778,-113.78"/>
<polygon fill="midnightblue" stroke="midnightblue" points="404.432,-117.22 413.799,-112.268 403.389,-110.299 404.432,-117.22"/>
</g>
<!-- Node8 -->
<g id="node8" class="node"><title>Node8</title>
<g id="a_node8"><a xlink:href="quaternaire_8c.html#a1e1d02ab87953add75ff8ebf2e627875" target="_top" xlink:title="Remplissage d&#39;une case de la matrice NG. ">
<polygon fill="none" stroke="black" points="548,-95.5 548,-114.5 668,-114.5 668,-95.5 548,-95.5"/>
<text text-anchor="middle" x="608" y="-102.5" font-family="Helvetica,sans-Serif" font-size="10.00">creationMatriceCaseNG</text>
</a>
</g>
</g>
<!-- Node7&#45;&gt;Node8 -->
<g id="edge8" class="edge"><title>Node7&#45;&gt;Node8</title>
<path fill="none" stroke="midnightblue" d="M512.015,-105C520.296,-105 529.05,-105 537.759,-105"/>
<polygon fill="midnightblue" stroke="midnightblue" points="537.932,-108.5 547.932,-105 537.932,-101.5 537.932,-108.5"/>
</g>
<!-- Node11 -->
<g id="node11" class="node"><title>Node11</title>
<g id="a_node11"><a xlink:href="partie1_8c.html#ab913e4cfb04d6f60820e3acbb8d0e179" target="_top" xlink:title="Cree une image avec 3 matrices. ">
<polygon fill="none" stroke="black" points="304,-76.5 304,-95.5 366,-95.5 366,-76.5 304,-76.5"/>
<text text-anchor="middle" x="335" y="-83.5" font-family="Helvetica,sans-Serif" font-size="10.00">creeImage</text>
</a>
</g>
</g>
<!-- Node10&#45;&gt;Node11 -->
<g id="edge11" class="edge"><title>Node10&#45;&gt;Node11</title>
<path fill="none" stroke="midnightblue" d="M234.849,-86C253.366,-86 275.267,-86 293.77,-86"/>
<polygon fill="midnightblue" stroke="midnightblue" points="293.937,-89.5001 303.937,-86 293.937,-82.5001 293.937,-89.5001"/>
</g>
<!-- Node13 -->
<g id="node13" class="node"><title>Node13</title>
<g id="a_node13"><a xlink:href="_outils_lib_8c.html#a6c0d8e9b64e3086d9aabc8cb0c5f37cb" target="_top" xlink:title="natif32VersLittle">
<polygon fill="none" stroke="black" points="292,-38.5 292,-57.5 378,-57.5 378,-38.5 292,-38.5"/>
<text text-anchor="middle" x="335" y="-45.5" font-family="Helvetica,sans-Serif" font-size="10.00">natif32VersLittle</text>
</a>
</g>
</g>
<!-- Node12&#45;&gt;Node13 -->
<g id="edge13" class="edge"><title>Node12&#45;&gt;Node13</title>
<path fill="none" stroke="midnightblue" d="M247.637,-48C258.838,-48 270.645,-48 281.811,-48"/>
<polygon fill="midnightblue" stroke="midnightblue" points="281.848,-51.5001 291.848,-48 281.848,-44.5001 281.848,-51.5001"/>
</g>
</g>
</svg>
