<?xml version="1.0" encoding="UTF-8" standalone="no"?>
<!DOCTYPE svg PUBLIC "-//W3C//DTD SVG 1.1//EN"
 "http://www.w3.org/Graphics/SVG/1.1/DTD/svg11.dtd">
<!-- Generated by graphviz version 2.38.0 (20140413.2041)
 -->
<!-- Title: gradientCase Pages: 1 -->
<svg width="396pt" height="66pt"
 viewBox="0.00 0.00 396.00 66.00" xmlns="http://www.w3.org/2000/svg" xmlns:xlink="http://www.w3.org/1999/xlink">
<g id="graph0" class="graph" transform="scale(1 1) rotate(0) translate(4 62)">
<title>gradientCase</title>
<!-- Node1 -->
<g id="node1" class="node"><title>Node1</title>
<polygon fill="#bfbfbf" stroke="black" points="0,-19.5 0,-38.5 74,-38.5 74,-19.5 0,-19.5"/>
<text text-anchor="middle" x="37" y="-26.5" font-family="Helvetica,sans-Serif" font-size="10.00">gradientCase</text>
</g>
<!-- Node2 -->
<g id="node2" class="node"><title>Node2</title>
<g id="a_node2"><a xlink:href="filtres_8c.html#a34cb964e90c76c1fee8f98999589ebcb" target="_top" xlink:title="Effectue une dilatation sur une case de la matrice sur une dimension variable. ">
<polygon fill="none" stroke="black" points="110,-38.5 110,-57.5 188,-57.5 188,-38.5 110,-38.5"/>
<text text-anchor="middle" x="149" y="-45.5" font-family="Helvetica,sans-Serif" font-size="10.00">dilatationCase</text>
</a>
</g>
</g>
<!-- Node1&#45;&gt;Node2 -->
<g id="edge1" class="edge"><title>Node1&#45;&gt;Node2</title>
<path fill="none" stroke="midnightblue" d="M74.0181,-35.2213C82.2145,-36.637 91.0519,-38.1635 99.6678,-39.6517"/>
<polygon fill="midnightblue" stroke="midnightblue" points="99.1789,-43.119 109.629,-41.3722 100.37,-36.2211 99.1789,-43.119"/>
</g>
<!-- Node5 -->
<g id="node5" class="node"><title>Node5</title>
<g id="a_node5"><a xlink:href="filtres_8c.html#ab531caf4f703d24457c882c4efd213ae" target="_top" xlink:title="Effectue une érosion sur une case de la matrice sur une dimension variable. ">
<polygon fill="none" stroke="black" points="113.5,-0.5 113.5,-19.5 184.5,-19.5 184.5,-0.5 113.5,-0.5"/>
<text text-anchor="middle" x="149" y="-7.5" font-family="Helvetica,sans-Serif" font-size="10.00">erosionCase</text>
</a>
</g>
</g>
<!-- Node1&#45;&gt;Node5 -->
<g id="edge4" class="edge"><title>Node1&#45;&gt;Node5</title>
<path fill="none" stroke="midnightblue" d="M74.0181,-22.7787C83.4118,-21.1561 93.6476,-19.3881 103.427,-17.699"/>
<polygon fill="midnightblue" stroke="midnightblue" points="104.14,-21.1278 113.398,-15.9767 102.948,-14.2299 104.14,-21.1278"/>
</g>
<!-- Node3 -->
<g id="node3" class="node"><title>Node3</title>
<g id="a_node3"><a xlink:href="_caldist_8c.html#abd278d2e0312f40a659ad8b3fc134569" target="_top" xlink:title="Calcul le maximum dans un tableau. ">
<polygon fill="none" stroke="black" points="224,-38.5 224,-57.5 296,-57.5 296,-38.5 224,-38.5"/>
<text text-anchor="middle" x="260" y="-45.5" font-family="Helvetica,sans-Serif" font-size="10.00">maximunTab</text>
</a>
</g>
</g>
<!-- Node2&#45;&gt;Node3 -->
<g id="edge2" class="edge"><title>Node2&#45;&gt;Node3</title>
<path fill="none" stroke="midnightblue" d="M188.123,-48C196.328,-48 205.08,-48 213.533,-48"/>
<polygon fill="midnightblue" stroke="midnightblue" points="213.639,-51.5001 223.639,-48 213.639,-44.5001 213.639,-51.5001"/>
</g>
<!-- Node4 -->
<g id="node4" class="node"><title>Node4</title>
<g id="a_node4"><a xlink:href="_caldist_8c.html#a70a7da388f16e668eb640b0755b09255" target="_top" xlink:title="Calcul le maximum entre deux nombres. ">
<polygon fill="none" stroke="black" points="332,-38.5 332,-57.5 388,-57.5 388,-38.5 332,-38.5"/>
<text text-anchor="middle" x="360" y="-45.5" font-family="Helvetica,sans-Serif" font-size="10.00">maximun</text>
</a>
</g>
</g>
<!-- Node3&#45;&gt;Node4 -->
<g id="edge3" class="edge"><title>Node3&#45;&gt;Node4</title>
<path fill="none" stroke="midnightblue" d="M296.103,-48C304.367,-48 313.206,-48 321.569,-48"/>
<polygon fill="midnightblue" stroke="midnightblue" points="321.827,-51.5001 331.827,-48 321.827,-44.5001 321.827,-51.5001"/>
</g>
<!-- Node6 -->
<g id="node6" class="node"><title>Node6</title>
<g id="a_node6"><a xlink:href="_caldist_8c.html#a4a2ee6333feee58bf91682ccfad34847" target="_top" xlink:title="Calcul le minimum dans un tableau. ">
<polygon fill="none" stroke="black" points="225.5,-0.5 225.5,-19.5 294.5,-19.5 294.5,-0.5 225.5,-0.5"/>
<text text-anchor="middle" x="260" y="-7.5" font-family="Helvetica,sans-Serif" font-size="10.00">minimunTab</text>
</a>
</g>
</g>
<!-- Node5&#45;&gt;Node6 -->
<g id="edge5" class="edge"><title>Node5&#45;&gt;Node6</title>
<path fill="none" stroke="midnightblue" d="M184.788,-10C194.406,-10 204.971,-10 215.037,-10"/>
<polygon fill="midnightblue" stroke="midnightblue" points="215.286,-13.5001 225.286,-10 215.286,-6.5001 215.286,-13.5001"/>
</g>
<!-- Node7 -->
<g id="node7" class="node"><title>Node7</title>
<g id="a_node7"><a xlink:href="_caldist_8c.html#a318af6561ba341de02889ad9dabdac2b" target="_top" xlink:title="Calcul le minimum entre deux nombres. ">
<polygon fill="none" stroke="black" points="333.5,-0.5 333.5,-19.5 386.5,-19.5 386.5,-0.5 333.5,-0.5"/>
<text text-anchor="middle" x="360" y="-7.5" font-family="Helvetica,sans-Serif" font-size="10.00">minimun</text>
</a>
</g>
</g>
<!-- Node6&#45;&gt;Node7 -->
<g id="edge6" class="edge"><title>Node6&#45;&gt;Node7</title>
<path fill="none" stroke="midnightblue" d="M294.726,-10C303.898,-10 313.863,-10 323.148,-10"/>
<polygon fill="midnightblue" stroke="midnightblue" points="323.264,-13.5001 333.264,-10 323.264,-6.5001 323.264,-13.5001"/>
</g>
</g>
</svg>
