<?xml version="1.0" encoding="UTF-8" standalone="no"?>
<!DOCTYPE svg PUBLIC "-//W3C//DTD SVG 1.1//EN"
 "http://www.w3.org/Graphics/SVG/1.1/DTD/svg11.dtd">
<!-- Generated by graphviz version 2.38.0 (20140413.2041)
 -->
<!-- Title: filtrePondMoy Pages: 1 -->
<svg width="311pt" height="104pt"
 viewBox="0.00 0.00 311.00 104.00" xmlns="http://www.w3.org/2000/svg" xmlns:xlink="http://www.w3.org/1999/xlink">
<g id="graph0" class="graph" transform="scale(1 1) rotate(0) translate(4 100)">
<title>filtrePondMoy</title>
<!-- Node1 -->
<g id="node1" class="node"><title>Node1</title>
<polygon fill="#bfbfbf" stroke="black" points="0,-57.5 0,-76.5 76,-76.5 76,-57.5 0,-57.5"/>
<text text-anchor="middle" x="38" y="-64.5" font-family="Helvetica,sans-Serif" font-size="10.00">filtrePondMoy</text>
</g>
<!-- Node2 -->
<g id="node2" class="node"><title>Node2</title>
<g id="a_node2"><a xlink:href="partie1_8c.html#a74146446548f74f43dcabaeea7b55493" target="_top" xlink:title="Retour une matrice de dimension haut * larg. ">
<polygon fill="none" stroke="black" points="213,-76.5 213,-95.5 303,-95.5 303,-76.5 213,-76.5"/>
<text text-anchor="middle" x="258" y="-83.5" font-family="Helvetica,sans-Serif" font-size="10.00">allocationMatrice</text>
</a>
</g>
</g>
<!-- Node1&#45;&gt;Node2 -->
<g id="edge1" class="edge"><title>Node1&#45;&gt;Node2</title>
<path fill="none" stroke="midnightblue" d="M76.4755,-70.2662C111.23,-73.2953 163.354,-77.8382 202.671,-81.2649"/>
<polygon fill="midnightblue" stroke="midnightblue" points="202.617,-84.7734 212.883,-82.155 203.225,-77.7998 202.617,-84.7734"/>
</g>
<!-- Node3 -->
<g id="node3" class="node"><title>Node3</title>
<g id="a_node3"><a xlink:href="filtres_8c.html#ae5299087eb8255b465ad8db59f6e4839" target="_top" xlink:title="Effectue une convolution sur une image, à partir d&#39;un outil de dimension variable le boolen div indiq...">
<polygon fill="none" stroke="black" points="112,-38.5 112,-57.5 177,-57.5 177,-38.5 112,-38.5"/>
<text text-anchor="middle" x="144.5" y="-45.5" font-family="Helvetica,sans-Serif" font-size="10.00">convolution</text>
</a>
</g>
</g>
<!-- Node1&#45;&gt;Node3 -->
<g id="edge2" class="edge"><title>Node1&#45;&gt;Node3</title>
<path fill="none" stroke="midnightblue" d="M76.137,-60.2478C84.395,-58.7464 93.204,-57.1447 101.637,-55.6115"/>
<polygon fill="midnightblue" stroke="midnightblue" points="102.462,-59.019 111.674,-53.7865 101.209,-52.1319 102.462,-59.019"/>
</g>
<!-- Node3&#45;&gt;Node2 -->
<g id="edge3" class="edge"><title>Node3&#45;&gt;Node2</title>
<path fill="none" stroke="midnightblue" d="M173.636,-57.589C187.502,-62.3144 204.416,-68.0789 219.376,-73.1774"/>
<polygon fill="midnightblue" stroke="midnightblue" points="218.278,-76.501 228.873,-76.4141 220.537,-69.8752 218.278,-76.501"/>
</g>
<!-- Node4 -->
<g id="node4" class="node"><title>Node4</title>
<g id="a_node4"><a xlink:href="filtres_8c.html#adf784ef535b95a1f87bcb466b44fb200" target="_top" xlink:title="Effectue une convolution sur une case d&#39;une image, à partir d&#39;un outil de dimension variable le boole...">
<polygon fill="none" stroke="black" points="214.5,-38.5 214.5,-57.5 301.5,-57.5 301.5,-38.5 214.5,-38.5"/>
<text text-anchor="middle" x="258" y="-45.5" font-family="Helvetica,sans-Serif" font-size="10.00">convolutionCase</text>
</a>
</g>
</g>
<!-- Node3&#45;&gt;Node4 -->
<g id="edge4" class="edge"><title>Node3&#45;&gt;Node4</title>
<path fill="none" stroke="midnightblue" d="M177.153,-48C185.664,-48 195.102,-48 204.422,-48"/>
<polygon fill="midnightblue" stroke="midnightblue" points="204.439,-51.5001 214.439,-48 204.439,-44.5001 204.439,-51.5001"/>
</g>
<!-- Node5 -->
<g id="node5" class="node"><title>Node5</title>
<g id="a_node5"><a xlink:href="partie1_8c.html#a106518d4a41c16e3a633d2963200b919" target="_top" xlink:title="Libération d&#39;une matrice. ">
<polygon fill="none" stroke="black" points="214,-0.5 214,-19.5 302,-19.5 302,-0.5 214,-0.5"/>
<text text-anchor="middle" x="258" y="-7.5" font-family="Helvetica,sans-Serif" font-size="10.00">liberationmatrice</text>
</a>
</g>
</g>
<!-- Node3&#45;&gt;Node5 -->
<g id="edge5" class="edge"><title>Node3&#45;&gt;Node5</title>
<path fill="none" stroke="midnightblue" d="M173.636,-38.411C187.502,-33.6856 204.416,-27.9211 219.376,-22.8226"/>
<polygon fill="midnightblue" stroke="midnightblue" points="220.537,-26.1248 228.873,-19.5859 218.278,-19.499 220.537,-26.1248"/>
</g>
</g>
</svg>
