<?xml version="1.0" encoding="UTF-8" standalone="no"?>
<!DOCTYPE svg PUBLIC "-//W3C//DTD SVG 1.1//EN"
 "http://www.w3.org/Graphics/SVG/1.1/DTD/svg11.dtd">
<!-- Generated by graphviz version 2.38.0 (20140413.2041)
 -->
<!-- Title: changeimage Pages: 1 -->
<svg width="364pt" height="66pt"
 viewBox="0.00 0.00 364.00 66.00" xmlns="http://www.w3.org/2000/svg" xmlns:xlink="http://www.w3.org/1999/xlink">
<g id="graph0" class="graph" transform="scale(1 1) rotate(0) translate(4 62)">
<title>changeimage</title>
<!-- Node1 -->
<g id="node1" class="node"><title>Node1</title>
<polygon fill="#bfbfbf" stroke="black" points="0,-19.5 0,-38.5 74,-38.5 74,-19.5 0,-19.5"/>
<text text-anchor="middle" x="37" y="-26.5" font-family="Helvetica,sans-Serif" font-size="10.00">changeimage</text>
</g>
<!-- Node2 -->
<g id="node2" class="node"><title>Node2</title>
<g id="a_node2"><a xlink:href="_bmp_lib_8c.html#a84142edceda87c3a09dab077ab2b0ef9" target="_top" xlink:title="libereDonneesImageRGB">
<polygon fill="none" stroke="black" points="110,-38.5 110,-57.5 235,-57.5 235,-38.5 110,-38.5"/>
<text text-anchor="middle" x="172.5" y="-45.5" font-family="Helvetica,sans-Serif" font-size="10.00">libereDonneesImageRGB</text>
</a>
</g>
</g>
<!-- Node1&#45;&gt;Node2 -->
<g id="edge1" class="edge"><title>Node1&#45;&gt;Node2</title>
<path fill="none" stroke="midnightblue" d="M74.127,-34.1417C82.1501,-35.2835 90.9266,-36.5326 99.8206,-37.7984"/>
<polygon fill="midnightblue" stroke="midnightblue" points="99.4847,-41.2858 109.878,-39.2298 100.471,-34.3557 99.4847,-41.2858"/>
</g>
<!-- Node3 -->
<g id="node3" class="node"><title>Node3</title>
<g id="a_node3"><a xlink:href="_bmp_lib_8c.html#a88225a02f0f5ad840bd46145410bbb6e" target="_top" xlink:title="lisBMPRGB">
<polygon fill="none" stroke="black" points="138,-0.5 138,-19.5 207,-19.5 207,-0.5 138,-0.5"/>
<text text-anchor="middle" x="172.5" y="-7.5" font-family="Helvetica,sans-Serif" font-size="10.00">lisBMPRGB</text>
</a>
</g>
</g>
<!-- Node1&#45;&gt;Node3 -->
<g id="edge2" class="edge"><title>Node1&#45;&gt;Node3</title>
<path fill="none" stroke="midnightblue" d="M74.127,-23.8583C90.6521,-21.5064 110.374,-18.6996 127.734,-16.2289"/>
<polygon fill="midnightblue" stroke="midnightblue" points="128.233,-19.6933 137.64,-14.8191 127.246,-12.7631 128.233,-19.6933"/>
</g>
<!-- Node4 -->
<g id="node4" class="node"><title>Node4</title>
<g id="a_node4"><a xlink:href="_outils_lib_8c.html#a583862b5b6bc166ee22c6bf4c71661c1" target="_top" xlink:title="little32VersNatif">
<polygon fill="none" stroke="black" points="271,-0.5 271,-19.5 356,-19.5 356,-0.5 271,-0.5"/>
<text text-anchor="middle" x="313.5" y="-7.5" font-family="Helvetica,sans-Serif" font-size="10.00">little32VersNatif</text>
</a>
</g>
</g>
<!-- Node3&#45;&gt;Node4 -->
<g id="edge3" class="edge"><title>Node3&#45;&gt;Node4</title>
<path fill="none" stroke="midnightblue" d="M207.148,-10C223.275,-10 242.95,-10 260.911,-10"/>
<polygon fill="midnightblue" stroke="midnightblue" points="260.963,-13.5001 270.963,-10 260.963,-6.5001 260.963,-13.5001"/>
</g>
</g>
</svg>
