<?xml version="1.0" encoding="UTF-8" standalone="no"?>
<!DOCTYPE svg PUBLIC "-//W3C//DTD SVG 1.1//EN"
 "http://www.w3.org/Graphics/SVG/1.1/DTD/svg11.dtd">
<!-- Generated by graphviz version 2.38.0 (20140413.2041)
 -->
<!-- Title: filtreDilatation Pages: 1 -->
<svg width="409pt" height="104pt"
 viewBox="0.00 0.00 409.00 104.00" xmlns="http://www.w3.org/2000/svg" xmlns:xlink="http://www.w3.org/1999/xlink">
<g id="graph0" class="graph" transform="scale(1 1) rotate(0) translate(4 100)">
<title>filtreDilatation</title>
<!-- Node1 -->
<g id="node1" class="node"><title>Node1</title>
<polygon fill="#bfbfbf" stroke="black" points="0,-38.5 0,-57.5 75,-57.5 75,-38.5 0,-38.5"/>
<text text-anchor="middle" x="37.5" y="-45.5" font-family="Helvetica,sans-Serif" font-size="10.00">filtreDilatation</text>
</g>
<!-- Node2 -->
<g id="node2" class="node"><title>Node2</title>
<g id="a_node2"><a xlink:href="partie1_8c.html#a74146446548f74f43dcabaeea7b55493" target="_top" xlink:title="Retour une matrice de dimension haut * larg. ">
<polygon fill="none" stroke="black" points="111,-76.5 111,-95.5 201,-95.5 201,-76.5 111,-76.5"/>
<text text-anchor="middle" x="156" y="-83.5" font-family="Helvetica,sans-Serif" font-size="10.00">allocationMatrice</text>
</a>
</g>
</g>
<!-- Node1&#45;&gt;Node2 -->
<g id="edge1" class="edge"><title>Node1&#45;&gt;Node2</title>
<path fill="none" stroke="midnightblue" d="M67.8979,-57.589C82.385,-62.3144 100.058,-68.0789 115.689,-73.1774"/>
<polygon fill="midnightblue" stroke="midnightblue" points="115.019,-76.6405 125.612,-76.4141 117.19,-69.9855 115.019,-76.6405"/>
</g>
<!-- Node3 -->
<g id="node3" class="node"><title>Node3</title>
<g id="a_node3"><a xlink:href="filtres_8c.html#a34cb964e90c76c1fee8f98999589ebcb" target="_top" xlink:title="Effectue une dilatation sur une case de la matrice sur une dimension variable. ">
<polygon fill="none" stroke="black" points="117,-38.5 117,-57.5 195,-57.5 195,-38.5 117,-38.5"/>
<text text-anchor="middle" x="156" y="-45.5" font-family="Helvetica,sans-Serif" font-size="10.00">dilatationCase</text>
</a>
</g>
</g>
<!-- Node1&#45;&gt;Node3 -->
<g id="edge2" class="edge"><title>Node1&#45;&gt;Node3</title>
<path fill="none" stroke="midnightblue" d="M75.0417,-48C85.1554,-48 96.288,-48 106.95,-48"/>
<polygon fill="midnightblue" stroke="midnightblue" points="106.98,-51.5001 116.979,-48 106.979,-44.5001 106.98,-51.5001"/>
</g>
<!-- Node6 -->
<g id="node6" class="node"><title>Node6</title>
<g id="a_node6"><a xlink:href="partie1_8c.html#a106518d4a41c16e3a633d2963200b919" target="_top" xlink:title="Libération d&#39;une matrice. ">
<polygon fill="none" stroke="black" points="112,-0.5 112,-19.5 200,-19.5 200,-0.5 112,-0.5"/>
<text text-anchor="middle" x="156" y="-7.5" font-family="Helvetica,sans-Serif" font-size="10.00">liberationmatrice</text>
</a>
</g>
</g>
<!-- Node1&#45;&gt;Node6 -->
<g id="edge5" class="edge"><title>Node1&#45;&gt;Node6</title>
<path fill="none" stroke="midnightblue" d="M67.8979,-38.411C82.385,-33.6856 100.058,-27.9211 115.689,-22.8226"/>
<polygon fill="midnightblue" stroke="midnightblue" points="117.19,-26.0145 125.612,-19.5859 115.019,-19.3595 117.19,-26.0145"/>
</g>
<!-- Node4 -->
<g id="node4" class="node"><title>Node4</title>
<g id="a_node4"><a xlink:href="_caldist_8c.html#abd278d2e0312f40a659ad8b3fc134569" target="_top" xlink:title="Calcul le maximum dans un tableau. ">
<polygon fill="none" stroke="black" points="237,-38.5 237,-57.5 309,-57.5 309,-38.5 237,-38.5"/>
<text text-anchor="middle" x="273" y="-45.5" font-family="Helvetica,sans-Serif" font-size="10.00">maximunTab</text>
</a>
</g>
</g>
<!-- Node3&#45;&gt;Node4 -->
<g id="edge3" class="edge"><title>Node3&#45;&gt;Node4</title>
<path fill="none" stroke="midnightblue" d="M195.293,-48C205.388,-48 216.375,-48 226.797,-48"/>
<polygon fill="midnightblue" stroke="midnightblue" points="226.977,-51.5001 236.976,-48 226.976,-44.5001 226.977,-51.5001"/>
</g>
<!-- Node5 -->
<g id="node5" class="node"><title>Node5</title>
<g id="a_node5"><a xlink:href="_caldist_8c.html#a70a7da388f16e668eb640b0755b09255" target="_top" xlink:title="Calcul le maximum entre deux nombres. ">
<polygon fill="none" stroke="black" points="345,-38.5 345,-57.5 401,-57.5 401,-38.5 345,-38.5"/>
<text text-anchor="middle" x="373" y="-45.5" font-family="Helvetica,sans-Serif" font-size="10.00">maximun</text>
</a>
</g>
</g>
<!-- Node4&#45;&gt;Node5 -->
<g id="edge4" class="edge"><title>Node4&#45;&gt;Node5</title>
<path fill="none" stroke="midnightblue" d="M309.103,-48C317.367,-48 326.206,-48 334.569,-48"/>
<polygon fill="midnightblue" stroke="midnightblue" points="334.827,-51.5001 344.827,-48 334.827,-44.5001 334.827,-51.5001"/>
</g>
</g>
</svg>
