<?xml version="1.0" encoding="UTF-8" standalone="no"?>
<!DOCTYPE svg PUBLIC "-//W3C//DTD SVG 1.1//EN"
 "http://www.w3.org/Graphics/SVG/1.1/DTD/svg11.dtd">
<!-- Generated by graphviz version 2.38.0 (20140413.2041)
 -->
<!-- Title: minimunTab Pages: 1 -->
<svg width="475pt" height="66pt"
 viewBox="0.00 0.00 475.00 66.00" xmlns="http://www.w3.org/2000/svg" xmlns:xlink="http://www.w3.org/1999/xlink">
<g id="graph0" class="graph" transform="scale(1 1) rotate(0) translate(4 62)">
<title>minimunTab</title>
<!-- Node1 -->
<g id="node1" class="node"><title>Node1</title>
<polygon fill="#bfbfbf" stroke="black" points="0,-19.5 0,-38.5 69,-38.5 69,-19.5 0,-19.5"/>
<text text-anchor="middle" x="34.5" y="-26.5" font-family="Helvetica,sans-Serif" font-size="10.00">minimunTab</text>
</g>
<!-- Node2 -->
<g id="node2" class="node"><title>Node2</title>
<g id="a_node2"><a xlink:href="prototype_8h.html#ab531caf4f703d24457c882c4efd213ae" target="_top" xlink:title="Effectue une érosion sur une case de la matrice sur une dimension variable. ">
<polygon fill="none" stroke="black" points="105,-19.5 105,-38.5 176,-38.5 176,-19.5 105,-19.5"/>
<text text-anchor="middle" x="140.5" y="-26.5" font-family="Helvetica,sans-Serif" font-size="10.00">erosionCase</text>
</a>
</g>
</g>
<!-- Node1&#45;&gt;Node2 -->
<g id="edge1" class="edge"><title>Node1&#45;&gt;Node2</title>
<path fill="none" stroke="midnightblue" d="M79.4131,-29C87.9035,-29 96.6887,-29 104.833,-29"/>
<polygon fill="midnightblue" stroke="midnightblue" points="79.2659,-25.5001 69.2658,-29 79.2658,-32.5001 79.2659,-25.5001"/>
</g>
<!-- Node3 -->
<g id="node3" class="node"><title>Node3</title>
<g id="a_node3"><a xlink:href="prototype_8h.html#a74f1cee58a0cba69e6279032f98b1aad" target="_top" xlink:title="Effectue un gradient sur une case de la matrice sur une dimension variable. ">
<polygon fill="none" stroke="black" points="212,-38.5 212,-57.5 286,-57.5 286,-38.5 212,-38.5"/>
<text text-anchor="middle" x="249" y="-45.5" font-family="Helvetica,sans-Serif" font-size="10.00">gradientCase</text>
</a>
</g>
</g>
<!-- Node2&#45;&gt;Node3 -->
<g id="edge2" class="edge"><title>Node2&#45;&gt;Node3</title>
<path fill="none" stroke="midnightblue" d="M185.967,-36.9332C194.563,-38.4666 203.472,-40.0559 211.765,-41.5356"/>
<polygon fill="midnightblue" stroke="midnightblue" points="186.537,-33.4795 176.077,-35.1688 185.307,-40.3707 186.537,-33.4795"/>
</g>
<!-- Node6 -->
<g id="node6" class="node"><title>Node6</title>
<g id="a_node6"><a xlink:href="prototype_8h.html#aefec5606a1765b0f347de969a995d551" target="_top" xlink:title="Effectue une érosion sur une image avec un outil de dimension variable. ">
<polygon fill="none" stroke="black" points="323.5,-0.5 323.5,-19.5 391.5,-19.5 391.5,-0.5 323.5,-0.5"/>
<text text-anchor="middle" x="357.5" y="-7.5" font-family="Helvetica,sans-Serif" font-size="10.00">filtreErosion</text>
</a>
</g>
</g>
<!-- Node2&#45;&gt;Node6 -->
<g id="edge5" class="edge"><title>Node2&#45;&gt;Node6</title>
<path fill="none" stroke="midnightblue" d="M186.014,-25.0662C226.925,-21.4508 286.638,-16.1738 323.454,-12.9203"/>
<polygon fill="midnightblue" stroke="midnightblue" points="185.697,-21.5805 176.043,-25.9473 186.313,-28.5534 185.697,-21.5805"/>
</g>
<!-- Node4 -->
<g id="node4" class="node"><title>Node4</title>
<g id="a_node4"><a xlink:href="prototype_8h.html#adc93fe086109c5c8b7c2c4f3848b0c96" target="_top" xlink:title="Effectue un gradient sur une image avec un outil de dimension variable. ">
<polygon fill="none" stroke="black" points="322,-38.5 322,-57.5 393,-57.5 393,-38.5 322,-38.5"/>
<text text-anchor="middle" x="357.5" y="-45.5" font-family="Helvetica,sans-Serif" font-size="10.00">filtreGradient</text>
</a>
</g>
</g>
<!-- Node3&#45;&gt;Node4 -->
<g id="edge3" class="edge"><title>Node3&#45;&gt;Node4</title>
<path fill="none" stroke="midnightblue" d="M296.064,-48C304.739,-48 313.673,-48 321.923,-48"/>
<polygon fill="midnightblue" stroke="midnightblue" points="296.056,-44.5001 286.056,-48 296.056,-51.5001 296.056,-44.5001"/>
</g>
<!-- Node5 -->
<g id="node5" class="node"><title>Node5</title>
<g id="a_node5"><a xlink:href="main_8c.html#a0ddf1224851353fc92bfbff6f499fa97" target="_top" xlink:title="Main du programme. ">
<polygon fill="none" stroke="black" points="429,-19.5 429,-38.5 467,-38.5 467,-19.5 429,-19.5"/>
<text text-anchor="middle" x="448" y="-26.5" font-family="Helvetica,sans-Serif" font-size="10.00">main</text>
</a>
</g>
</g>
<!-- Node4&#45;&gt;Node5 -->
<g id="edge4" class="edge"><title>Node4&#45;&gt;Node5</title>
<path fill="none" stroke="midnightblue" d="M403.089,-38.4273C412.241,-36.4623 421.375,-34.5015 428.922,-32.8811"/>
<polygon fill="midnightblue" stroke="midnightblue" points="402.266,-35.0241 393.224,-40.5452 403.735,-41.8681 402.266,-35.0241"/>
</g>
<!-- Node6&#45;&gt;Node5 -->
<g id="edge6" class="edge"><title>Node6&#45;&gt;Node5</title>
<path fill="none" stroke="midnightblue" d="M401.595,-19.2519C411.181,-21.3101 420.84,-23.3838 428.77,-25.0862"/>
<polygon fill="midnightblue" stroke="midnightblue" points="402.218,-15.8061 391.706,-17.129 400.748,-22.6501 402.218,-15.8061"/>
</g>
</g>
</svg>
