<?xml version="1.0" encoding="UTF-8" standalone="no"?>
<!DOCTYPE svg PUBLIC "-//W3C//DTD SVG 1.1//EN"
 "http://www.w3.org/Graphics/SVG/1.1/DTD/svg11.dtd">
<!-- Generated by graphviz version 2.38.0 (20140413.2041)
 -->
<!-- Title: getColorByNiveau Pages: 1 -->
<svg width="295pt" height="28pt"
 viewBox="0.00 0.00 295.00 28.00" xmlns="http://www.w3.org/2000/svg" xmlns:xlink="http://www.w3.org/1999/xlink">
<g id="graph0" class="graph" transform="scale(1 1) rotate(0) translate(4 24)">
<title>getColorByNiveau</title>
<!-- Node1 -->
<g id="node1" class="node"><title>Node1</title>
<polygon fill="#bfbfbf" stroke="black" points="0,-0.5 0,-19.5 93,-19.5 93,-0.5 0,-0.5"/>
<text text-anchor="middle" x="46.5" y="-7.5" font-family="Helvetica,sans-Serif" font-size="10.00">getColorByNiveau</text>
</g>
<!-- Node2 -->
<g id="node2" class="node"><title>Node2</title>
<g id="a_node2"><a xlink:href="transfnb_8c.html#a2fb642b9bb6a2795e2ae720d8560a5b4" target="_top" xlink:title="Effectue une quantification sur l&#39;image n&amp;b avec en niveau en paramètre. ">
<polygon fill="none" stroke="black" points="129,-0.5 129,-19.5 213,-19.5 213,-0.5 129,-0.5"/>
<text text-anchor="middle" x="171" y="-7.5" font-family="Helvetica,sans-Serif" font-size="10.00">quantificationnb</text>
</a>
</g>
</g>
<!-- Node1&#45;&gt;Node2 -->
<g id="edge1" class="edge"><title>Node1&#45;&gt;Node2</title>
<path fill="none" stroke="midnightblue" d="M103.139,-10C111.772,-10 120.555,-10 128.794,-10"/>
<polygon fill="midnightblue" stroke="midnightblue" points="103.115,-6.5001 93.1145,-10 103.114,-13.5001 103.115,-6.5001"/>
</g>
<!-- Node3 -->
<g id="node3" class="node"><title>Node3</title>
<g id="a_node3"><a xlink:href="main_8c.html#a0ddf1224851353fc92bfbff6f499fa97" target="_top" xlink:title="Main du programme. ">
<polygon fill="none" stroke="black" points="249,-0.5 249,-19.5 287,-19.5 287,-0.5 249,-0.5"/>
<text text-anchor="middle" x="268" y="-7.5" font-family="Helvetica,sans-Serif" font-size="10.00">main</text>
</a>
</g>
</g>
<!-- Node2&#45;&gt;Node3 -->
<g id="edge2" class="edge"><title>Node2&#45;&gt;Node3</title>
<path fill="none" stroke="midnightblue" d="M223.379,-10C232.462,-10 241.353,-10 248.715,-10"/>
<polygon fill="midnightblue" stroke="midnightblue" points="223.116,-6.5001 213.116,-10 223.116,-13.5001 223.116,-6.5001"/>
</g>
</g>
</svg>
