<?xml version="1.0" encoding="UTF-8" standalone="no"?>
<!DOCTYPE svg PUBLIC "-//W3C//DTD SVG 1.1//EN"
 "http://www.w3.org/Graphics/SVG/1.1/DTD/svg11.dtd">
<!-- Generated by graphviz version 2.38.0 (20140413.2041)
 -->
<!-- Title: maximunTab Pages: 1 -->
<svg width="489pt" height="66pt"
 viewBox="0.00 0.00 489.00 66.00" xmlns="http://www.w3.org/2000/svg" xmlns:xlink="http://www.w3.org/1999/xlink">
<g id="graph0" class="graph" transform="scale(1 1) rotate(0) translate(4 62)">
<title>maximunTab</title>
<!-- Node1 -->
<g id="node1" class="node"><title>Node1</title>
<polygon fill="#bfbfbf" stroke="black" points="0,-19.5 0,-38.5 72,-38.5 72,-19.5 0,-19.5"/>
<text text-anchor="middle" x="36" y="-26.5" font-family="Helvetica,sans-Serif" font-size="10.00">maximunTab</text>
</g>
<!-- Node2 -->
<g id="node2" class="node"><title>Node2</title>
<g id="a_node2"><a xlink:href="prototype_8h.html#a34cb964e90c76c1fee8f98999589ebcb" target="_top" xlink:title="Effectue une dilatation sur une case de la matrice sur une dimension variable. ">
<polygon fill="none" stroke="black" points="108,-19.5 108,-38.5 186,-38.5 186,-19.5 108,-19.5"/>
<text text-anchor="middle" x="147" y="-26.5" font-family="Helvetica,sans-Serif" font-size="10.00">dilatationCase</text>
</a>
</g>
</g>
<!-- Node1&#45;&gt;Node2 -->
<g id="edge1" class="edge"><title>Node1&#45;&gt;Node2</title>
<path fill="none" stroke="midnightblue" d="M82.2897,-29C90.8273,-29 99.6755,-29 107.963,-29"/>
<polygon fill="midnightblue" stroke="midnightblue" points="82.0883,-25.5001 72.0883,-29 82.0882,-32.5001 82.0883,-25.5001"/>
</g>
<!-- Node3 -->
<g id="node3" class="node"><title>Node3</title>
<g id="a_node3"><a xlink:href="prototype_8h.html#a74f1cee58a0cba69e6279032f98b1aad" target="_top" xlink:title="Effectue un gradient sur une case de la matrice sur une dimension variable. ">
<polygon fill="none" stroke="black" points="222,-38.5 222,-57.5 296,-57.5 296,-38.5 222,-38.5"/>
<text text-anchor="middle" x="259" y="-45.5" font-family="Helvetica,sans-Serif" font-size="10.00">gradientCase</text>
</a>
</g>
</g>
<!-- Node2&#45;&gt;Node3 -->
<g id="edge2" class="edge"><title>Node2&#45;&gt;Node3</title>
<path fill="none" stroke="midnightblue" d="M196.11,-37.31C204.717,-38.7965 213.552,-40.3226 221.754,-41.7394"/>
<polygon fill="midnightblue" stroke="midnightblue" points="196.614,-33.8452 186.164,-35.592 195.422,-40.743 196.614,-33.8452"/>
</g>
<!-- Node6 -->
<g id="node6" class="node"><title>Node6</title>
<g id="a_node6"><a xlink:href="prototype_8h.html#a6f751ddca5503443e6f1667ae4f1895c" target="_top" xlink:title="Effectue une dilatation sur une image avec un outil de dimension variable. ">
<polygon fill="none" stroke="black" points="332,-0.5 332,-19.5 407,-19.5 407,-0.5 332,-0.5"/>
<text text-anchor="middle" x="369.5" y="-7.5" font-family="Helvetica,sans-Serif" font-size="10.00">filtreDilatation</text>
</a>
</g>
</g>
<!-- Node2&#45;&gt;Node6 -->
<g id="edge5" class="edge"><title>Node2&#45;&gt;Node6</title>
<path fill="none" stroke="midnightblue" d="M196.157,-24.8504C237.013,-21.3299 294.75,-16.3549 331.909,-13.153"/>
<polygon fill="midnightblue" stroke="midnightblue" points="195.819,-21.3665 186.156,-25.7121 196.42,-28.3406 195.819,-21.3665"/>
</g>
<!-- Node4 -->
<g id="node4" class="node"><title>Node4</title>
<g id="a_node4"><a xlink:href="prototype_8h.html#adc93fe086109c5c8b7c2c4f3848b0c96" target="_top" xlink:title="Effectue un gradient sur une image avec un outil de dimension variable. ">
<polygon fill="none" stroke="black" points="334,-38.5 334,-57.5 405,-57.5 405,-38.5 334,-38.5"/>
<text text-anchor="middle" x="369.5" y="-45.5" font-family="Helvetica,sans-Serif" font-size="10.00">filtreGradient</text>
</a>
</g>
</g>
<!-- Node3&#45;&gt;Node4 -->
<g id="edge3" class="edge"><title>Node3&#45;&gt;Node4</title>
<path fill="none" stroke="midnightblue" d="M306.393,-48C315.653,-48 325.226,-48 334,-48"/>
<polygon fill="midnightblue" stroke="midnightblue" points="306.129,-44.5001 296.129,-48 306.129,-51.5001 306.129,-44.5001"/>
</g>
<!-- Node5 -->
<g id="node5" class="node"><title>Node5</title>
<g id="a_node5"><a xlink:href="main_8c.html#a0ddf1224851353fc92bfbff6f499fa97" target="_top" xlink:title="Main du programme. ">
<polygon fill="none" stroke="black" points="443,-19.5 443,-38.5 481,-38.5 481,-19.5 443,-19.5"/>
<text text-anchor="middle" x="462" y="-26.5" font-family="Helvetica,sans-Serif" font-size="10.00">main</text>
</a>
</g>
</g>
<!-- Node4&#45;&gt;Node5 -->
<g id="edge4" class="edge"><title>Node4&#45;&gt;Node5</title>
<path fill="none" stroke="midnightblue" d="M415.261,-38.6026C424.969,-36.5646 434.706,-34.5203 442.686,-32.8449"/>
<polygon fill="midnightblue" stroke="midnightblue" points="414.298,-35.2284 405.231,-40.7084 415.737,-42.079 414.298,-35.2284"/>
</g>
<!-- Node6&#45;&gt;Node5 -->
<g id="edge6" class="edge"><title>Node6&#45;&gt;Node5</title>
<path fill="none" stroke="midnightblue" d="M417.018,-19.7662C426.247,-21.7037 435.405,-23.6265 442.956,-25.2118"/>
<polygon fill="midnightblue" stroke="midnightblue" points="417.555,-16.3027 407.049,-17.6733 416.116,-23.1533 417.555,-16.3027"/>
</g>
</g>
</svg>
