<?xml version="1.0" encoding="UTF-8" standalone="no"?>
<!DOCTYPE svg PUBLIC "-//W3C//DTD SVG 1.1//EN"
 "http://www.w3.org/Graphics/SVG/1.1/DTD/svg11.dtd">
<!-- Generated by graphviz version 2.38.0 (20140413.2041)
 -->
<!-- Title: creeMatriceNG Pages: 1 -->
<svg width="386pt" height="85pt"
 viewBox="0.00 0.00 386.00 85.00" xmlns="http://www.w3.org/2000/svg" xmlns:xlink="http://www.w3.org/1999/xlink">
<g id="graph0" class="graph" transform="scale(1 1) rotate(0) translate(4 81)">
<title>creeMatriceNG</title>
<!-- Node1 -->
<g id="node1" class="node"><title>Node1</title>
<polygon fill="#bfbfbf" stroke="black" points="0,-57.5 0,-76.5 82,-76.5 82,-57.5 0,-57.5"/>
<text text-anchor="middle" x="41" y="-64.5" font-family="Helvetica,sans-Serif" font-size="10.00">creeMatriceNG</text>
</g>
<!-- Node2 -->
<g id="node2" class="node"><title>Node2</title>
<g id="a_node2"><a xlink:href="main_8c.html#a0ddf1224851353fc92bfbff6f499fa97" target="_top" xlink:title="Main du programme. ">
<polygon fill="none" stroke="black" points="340,-38.5 340,-57.5 378,-57.5 378,-38.5 340,-38.5"/>
<text text-anchor="middle" x="359" y="-45.5" font-family="Helvetica,sans-Serif" font-size="10.00">main</text>
</a>
</g>
</g>
<!-- Node1&#45;&gt;Node2 -->
<g id="edge1" class="edge"><title>Node1&#45;&gt;Node2</title>
<path fill="none" stroke="midnightblue" d="M92.3546,-69.7998C145.335,-71.8696 230.998,-72.7281 304,-62 316.073,-60.2257 329.343,-56.8065 339.707,-53.7914"/>
<polygon fill="midnightblue" stroke="midnightblue" points="92.3462,-66.2964 82.2078,-69.3727 92.0518,-73.2902 92.3462,-66.2964"/>
</g>
<!-- Node3 -->
<g id="node3" class="node"><title>Node3</title>
<g id="a_node3"><a xlink:href="quaternaire_8c.html#a3ebbb6278c797c3e72b00c179732e433" target="_top" xlink:title="Effectue le zoom sur un arbre NG. ">
<polygon fill="none" stroke="black" points="118,-38.5 118,-57.5 173,-57.5 173,-38.5 118,-38.5"/>
<text text-anchor="middle" x="145.5" y="-45.5" font-family="Helvetica,sans-Serif" font-size="10.00">zoomNG</text>
</a>
</g>
</g>
<!-- Node1&#45;&gt;Node3 -->
<g id="edge2" class="edge"><title>Node1&#45;&gt;Node3</title>
<path fill="none" stroke="midnightblue" d="M92.195,-57.6956C101.1,-56.0449 110.047,-54.3864 117.961,-52.9194"/>
<polygon fill="midnightblue" stroke="midnightblue" points="91.4111,-54.2812 82.2165,-59.5452 92.687,-61.1639 91.4111,-54.2812"/>
</g>
<!-- Node3&#45;&gt;Node2 -->
<g id="edge3" class="edge"><title>Node3&#45;&gt;Node2</title>
<path fill="none" stroke="midnightblue" d="M183.378,-48C229.07,-48 305.122,-48 339.783,-48"/>
<polygon fill="midnightblue" stroke="midnightblue" points="183.287,-44.5001 173.287,-48 183.287,-51.5001 183.287,-44.5001"/>
</g>
<!-- Node4 -->
<g id="node4" class="node"><title>Node4</title>
<g id="a_node4"><a xlink:href="quaternaire_8c.html#ad8bb52314936ad1d1ad641c305d7792d" target="_top" xlink:title="Réalise tout les niveau de zoom d&#39;un arbre NG. ">
<polygon fill="none" stroke="black" points="209,-0.5 209,-19.5 304,-19.5 304,-0.5 209,-0.5"/>
<text text-anchor="middle" x="256.5" y="-7.5" font-family="Helvetica,sans-Serif" font-size="10.00">tousLesZoomsNG</text>
</a>
</g>
</g>
<!-- Node3&#45;&gt;Node4 -->
<g id="edge4" class="edge"><title>Node3&#45;&gt;Node4</title>
<path fill="none" stroke="midnightblue" d="M182.961,-35.2887C197.656,-30.1656 214.324,-24.3551 227.973,-19.5967"/>
<polygon fill="midnightblue" stroke="midnightblue" points="181.455,-32.1072 173.164,-38.7042 183.759,-38.7171 181.455,-32.1072"/>
</g>
<!-- Node4&#45;&gt;Node2 -->
<g id="edge5" class="edge"><title>Node4&#45;&gt;Node2</title>
<path fill="none" stroke="midnightblue" d="M292.463,-23.2198C308.465,-29.2705 326.754,-36.1857 339.938,-41.1707"/>
<polygon fill="midnightblue" stroke="midnightblue" points="293.452,-19.852 282.86,-19.589 290.976,-26.3996 293.452,-19.852"/>
</g>
</g>
</svg>
