<?xml version="1.0" encoding="UTF-8" standalone="no"?>
<!DOCTYPE svg PUBLIC "-//W3C//DTD SVG 1.1//EN"
 "http://www.w3.org/Graphics/SVG/1.1/DTD/svg11.dtd">
<!-- Generated by graphviz version 2.38.0 (20140413.2041)
 -->
<!-- Title: creeMatriceNB Pages: 1 -->
<svg width="364pt" height="66pt"
 viewBox="0.00 0.00 364.00 66.00" xmlns="http://www.w3.org/2000/svg" xmlns:xlink="http://www.w3.org/1999/xlink">
<g id="graph0" class="graph" transform="scale(1 1) rotate(0) translate(4 62)">
<title>creeMatriceNB</title>
<!-- Node1 -->
<g id="node1" class="node"><title>Node1</title>
<polygon fill="#bfbfbf" stroke="black" points="0,-19.5 0,-38.5 81,-38.5 81,-19.5 0,-19.5"/>
<text text-anchor="middle" x="40.5" y="-26.5" font-family="Helvetica,sans-Serif" font-size="10.00">creeMatriceNB</text>
</g>
<!-- Node2 -->
<g id="node2" class="node"><title>Node2</title>
<g id="a_node2"><a xlink:href="partie1_8c.html#a74146446548f74f43dcabaeea7b55493" target="_top" xlink:title="Retour une matrice de dimension haut * larg. ">
<polygon fill="none" stroke="black" points="120.5,-38.5 120.5,-57.5 210.5,-57.5 210.5,-38.5 120.5,-38.5"/>
<text text-anchor="middle" x="165.5" y="-45.5" font-family="Helvetica,sans-Serif" font-size="10.00">allocationMatrice</text>
</a>
</g>
</g>
<!-- Node1&#45;&gt;Node2 -->
<g id="edge1" class="edge"><title>Node1&#45;&gt;Node2</title>
<path fill="none" stroke="midnightblue" d="M81.095,-35.1163C90.3728,-36.5495 100.416,-38.1008 110.211,-39.6139"/>
<polygon fill="midnightblue" stroke="midnightblue" points="109.87,-43.1026 120.287,-41.1703 110.939,-36.1847 109.87,-43.1026"/>
</g>
<!-- Node3 -->
<g id="node3" class="node"><title>Node3</title>
<g id="a_node3"><a xlink:href="quaternaire_8c.html#a150d4fde63a110e7865ebfccfd5045d2" target="_top" xlink:title="Remplissage d&#39;une matrice à partir d&#39;un arbre quaternaire NB. ">
<polygon fill="none" stroke="black" points="117,-0.5 117,-19.5 214,-19.5 214,-0.5 117,-0.5"/>
<text text-anchor="middle" x="165.5" y="-7.5" font-family="Helvetica,sans-Serif" font-size="10.00">creationMatriceNB</text>
</a>
</g>
</g>
<!-- Node1&#45;&gt;Node3 -->
<g id="edge2" class="edge"><title>Node1&#45;&gt;Node3</title>
<path fill="none" stroke="midnightblue" d="M81.095,-22.8837C89.2722,-21.6206 98.0437,-20.2656 106.716,-18.9259"/>
<polygon fill="midnightblue" stroke="midnightblue" points="107.462,-22.3524 116.81,-17.3667 106.393,-15.4344 107.462,-22.3524"/>
</g>
<!-- Node4 -->
<g id="node4" class="node"><title>Node4</title>
<g id="a_node4"><a xlink:href="quaternaire_8c.html#a4d6a727b3144c018d370a0158991fd71" target="_top" xlink:title="Remplissage matrice avec la couleur médiane. ">
<polygon fill="none" stroke="black" points="250,-0.5 250,-19.5 356,-19.5 356,-0.5 250,-0.5"/>
<text text-anchor="middle" x="303" y="-7.5" font-family="Helvetica,sans-Serif" font-size="10.00">creationMatriceCase</text>
</a>
</g>
</g>
<!-- Node3&#45;&gt;Node4 -->
<g id="edge3" class="edge"><title>Node3&#45;&gt;Node4</title>
<path fill="none" stroke="midnightblue" d="M214.272,-10C222.398,-10 230.944,-10 239.384,-10"/>
<polygon fill="midnightblue" stroke="midnightblue" points="239.589,-13.5001 249.589,-10 239.589,-6.5001 239.589,-13.5001"/>
</g>
</g>
</svg>
