<?xml version="1.0" encoding="UTF-8" standalone="no"?>
<!DOCTYPE svg PUBLIC "-//W3C//DTD SVG 1.1//EN"
 "http://www.w3.org/Graphics/SVG/1.1/DTD/svg11.dtd">
<!-- Generated by graphviz version 2.38.0 (20140413.2041)
 -->
<!-- Title: zoomCouleur Pages: 1 -->
<svg width="384pt" height="104pt"
 viewBox="0.00 0.00 384.00 104.00" xmlns="http://www.w3.org/2000/svg" xmlns:xlink="http://www.w3.org/1999/xlink">
<g id="graph0" class="graph" transform="scale(1 1) rotate(0) translate(4 100)">
<title>zoomCouleur</title>
<!-- Node1 -->
<g id="node1" class="node"><title>Node1</title>
<polygon fill="#bfbfbf" stroke="black" points="0,-38.5 0,-57.5 74,-57.5 74,-38.5 0,-38.5"/>
<text text-anchor="middle" x="37" y="-45.5" font-family="Helvetica,sans-Serif" font-size="10.00">zoomCouleur</text>
</g>
<!-- Node2 -->
<g id="node2" class="node"><title>Node2</title>
<g id="a_node2"><a xlink:href="quaternaire_8c.html#ad9b089f8ab718a8d2ff3f459b748ff74" target="_top" xlink:title="Calcul la profondeur d&#39;un arbre. ">
<polygon fill="none" stroke="black" points="119.5,-76.5 119.5,-95.5 204.5,-95.5 204.5,-76.5 119.5,-76.5"/>
<text text-anchor="middle" x="162" y="-83.5" font-family="Helvetica,sans-Serif" font-size="10.00">profondeurArbre</text>
</a>
</g>
</g>
<!-- Node1&#45;&gt;Node2 -->
<g id="edge1" class="edge"><title>Node1&#45;&gt;Node2</title>
<path fill="none" stroke="midnightblue" d="M69.0381,-57.589C84.4792,-62.3594 103.348,-68.1888 119.966,-73.3229"/>
<polygon fill="midnightblue" stroke="midnightblue" points="119.384,-76.8063 129.972,-76.4141 121.451,-70.1182 119.384,-76.8063"/>
</g>
<!-- Node3 -->
<g id="node3" class="node"><title>Node3</title>
<g id="a_node3"><a xlink:href="quaternaire_8c.html#a98566b8b5bd16a3dde718cea893609ca" target="_top" xlink:title="Converti le k en nn. ">
<polygon fill="none" stroke="black" points="136,-38.5 136,-57.5 188,-57.5 188,-38.5 136,-38.5"/>
<text text-anchor="middle" x="162" y="-45.5" font-family="Helvetica,sans-Serif" font-size="10.00">convknn</text>
</a>
</g>
</g>
<!-- Node1&#45;&gt;Node3 -->
<g id="edge2" class="edge"><title>Node1&#45;&gt;Node3</title>
<path fill="none" stroke="midnightblue" d="M74.2388,-48C90.5152,-48 109.649,-48 125.8,-48"/>
<polygon fill="midnightblue" stroke="midnightblue" points="125.924,-51.5001 135.924,-48 125.924,-44.5001 125.924,-51.5001"/>
</g>
<!-- Node4 -->
<g id="node4" class="node"><title>Node4</title>
<g id="a_node4"><a xlink:href="quaternaire_8c.html#a5715adb9973e14b37d0b6920cf12f782" target="_top" xlink:title="Remplissage des matrices avec un arbre RGB. ">
<polygon fill="none" stroke="black" points="110,-0.5 110,-19.5 214,-19.5 214,-0.5 110,-0.5"/>
<text text-anchor="middle" x="162" y="-7.5" font-family="Helvetica,sans-Serif" font-size="10.00">creationMatriceRVB</text>
</a>
</g>
</g>
<!-- Node1&#45;&gt;Node4 -->
<g id="edge3" class="edge"><title>Node1&#45;&gt;Node4</title>
<path fill="none" stroke="midnightblue" d="M69.0381,-38.411C84.4792,-33.6406 103.348,-27.8112 119.966,-22.6771"/>
<polygon fill="midnightblue" stroke="midnightblue" points="121.451,-25.8818 129.972,-19.5859 119.384,-19.1937 121.451,-25.8818"/>
</g>
<!-- Node5 -->
<g id="node5" class="node"><title>Node5</title>
<g id="a_node5"><a xlink:href="quaternaire_8c.html#a1827c61ee6b5102f8e991fa41290481a" target="_top" xlink:title="Remplissage d&#39;une case des matrices RGB. ">
<polygon fill="none" stroke="black" points="250,-0.5 250,-19.5 376,-19.5 376,-0.5 250,-0.5"/>
<text text-anchor="middle" x="313" y="-7.5" font-family="Helvetica,sans-Serif" font-size="10.00">creationMatriceCaseRVB</text>
</a>
</g>
</g>
<!-- Node4&#45;&gt;Node5 -->
<g id="edge4" class="edge"><title>Node4&#45;&gt;Node5</title>
<path fill="none" stroke="midnightblue" d="M214.277,-10C222.506,-10 231.155,-10 239.763,-10"/>
<polygon fill="midnightblue" stroke="midnightblue" points="239.822,-13.5001 249.822,-10 239.822,-6.5001 239.822,-13.5001"/>
</g>
</g>
</svg>
