<?xml version="1.0" encoding="UTF-8" standalone="no"?>
<!DOCTYPE svg PUBLIC "-//W3C//DTD SVG 1.1//EN"
 "http://www.w3.org/Graphics/SVG/1.1/DTD/svg11.dtd">
<!-- Generated by graphviz version 2.38.0 (20140413.2041)
 -->
<!-- Title: couleurMedianeRVB Pages: 1 -->
<svg width="579pt" height="28pt"
 viewBox="0.00 0.00 579.00 28.00" xmlns="http://www.w3.org/2000/svg" xmlns:xlink="http://www.w3.org/1999/xlink">
<g id="graph0" class="graph" transform="scale(1 1) rotate(0) translate(4 24)">
<title>couleurMedianeRVB</title>
<!-- Node1 -->
<g id="node1" class="node"><title>Node1</title>
<polygon fill="#bfbfbf" stroke="black" points="0,-0.5 0,-19.5 105,-19.5 105,-0.5 0,-0.5"/>
<text text-anchor="middle" x="52.5" y="-7.5" font-family="Helvetica,sans-Serif" font-size="10.00">couleurMedianeRVB</text>
</g>
<!-- Node2 -->
<g id="node2" class="node"><title>Node2</title>
<g id="a_node2"><a xlink:href="quaternaire_8c.html#aa861d7500e11f0c67b6140fcddf250cd" target="_top" xlink:title="Vérifie si le carré est homogène RGB. ">
<polygon fill="none" stroke="black" points="141,-0.5 141,-19.5 246,-19.5 246,-0.5 141,-0.5"/>
<text text-anchor="middle" x="193.5" y="-7.5" font-family="Helvetica,sans-Serif" font-size="10.00">carreHomogeneRVB</text>
</a>
</g>
</g>
<!-- Node1&#45;&gt;Node2 -->
<g id="edge1" class="edge"><title>Node1&#45;&gt;Node2</title>
<path fill="none" stroke="midnightblue" d="M115.441,-10C123.878,-10 132.466,-10 140.698,-10"/>
<polygon fill="midnightblue" stroke="midnightblue" points="115.259,-6.5001 105.258,-10 115.258,-13.5001 115.259,-6.5001"/>
</g>
<!-- Node3 -->
<g id="node3" class="node"><title>Node3</title>
<g id="a_node3"><a xlink:href="quaternaire_8c.html#a9d875718a998684827d6296dd4dc6908" target="_top" xlink:title="Création d&#39;un nœud de l&#39;arbre quaternaire RGB. ">
<polygon fill="none" stroke="black" points="282,-0.5 282,-19.5 382,-19.5 382,-0.5 282,-0.5"/>
<text text-anchor="middle" x="332" y="-7.5" font-family="Helvetica,sans-Serif" font-size="10.00">creeationArbreRVB</text>
</a>
</g>
</g>
<!-- Node2&#45;&gt;Node3 -->
<g id="edge2" class="edge"><title>Node2&#45;&gt;Node3</title>
<path fill="none" stroke="midnightblue" d="M256.324,-10C264.785,-10 273.378,-10 281.579,-10"/>
<polygon fill="midnightblue" stroke="midnightblue" points="256.105,-6.5001 246.105,-10 256.105,-13.5001 256.105,-6.5001"/>
</g>
<!-- Node4 -->
<g id="node4" class="node"><title>Node4</title>
<g id="a_node4"><a xlink:href="quaternaire_8c.html#aefd17584e965ef44eaa002b39e310b86" target="_top" xlink:title="Fonction d&#39;appel de création de l&#39;arbre RGB. ">
<polygon fill="none" stroke="black" points="418,-0.5 418,-19.5 497,-19.5 497,-0.5 418,-0.5"/>
<text text-anchor="middle" x="457.5" y="-7.5" font-family="Helvetica,sans-Serif" font-size="10.00">creeArbreRVB</text>
</a>
</g>
</g>
<!-- Node3&#45;&gt;Node4 -->
<g id="edge3" class="edge"><title>Node3&#45;&gt;Node4</title>
<path fill="none" stroke="midnightblue" d="M392.266,-10C400.931,-10 409.662,-10 417.773,-10"/>
<polygon fill="midnightblue" stroke="midnightblue" points="392.165,-6.5001 382.165,-10 392.165,-13.5001 392.165,-6.5001"/>
</g>
<!-- Node5 -->
<g id="node5" class="node"><title>Node5</title>
<g id="a_node5"><a xlink:href="main_8c.html#a0ddf1224851353fc92bfbff6f499fa97" target="_top" xlink:title="Main du programme. ">
<polygon fill="none" stroke="black" points="533,-0.5 533,-19.5 571,-19.5 571,-0.5 533,-0.5"/>
<text text-anchor="middle" x="552" y="-7.5" font-family="Helvetica,sans-Serif" font-size="10.00">main</text>
</a>
</g>
</g>
<!-- Node4&#45;&gt;Node5 -->
<g id="edge4" class="edge"><title>Node4&#45;&gt;Node5</title>
<path fill="none" stroke="midnightblue" d="M507.354,-10C516.37,-10 525.253,-10 532.628,-10"/>
<polygon fill="midnightblue" stroke="midnightblue" points="507.192,-6.5001 497.192,-10 507.192,-13.5001 507.192,-6.5001"/>
</g>
</g>
</svg>
