<?xml version="1.0" encoding="UTF-8" standalone="no"?>
<!DOCTYPE svg PUBLIC "-//W3C//DTD SVG 1.1//EN"
 "http://www.w3.org/Graphics/SVG/1.1/DTD/svg11.dtd">
<!-- Generated by graphviz version 2.38.0 (20140413.2041)
 -->
<!-- Title: creationMatriceNG Pages: 1 -->
<svg width="520pt" height="85pt"
 viewBox="0.00 0.00 520.00 85.00" xmlns="http://www.w3.org/2000/svg" xmlns:xlink="http://www.w3.org/1999/xlink">
<g id="graph0" class="graph" transform="scale(1 1) rotate(0) translate(4 81)">
<title>creationMatriceNG</title>
<!-- Node1 -->
<g id="node1" class="node"><title>Node1</title>
<polygon fill="#bfbfbf" stroke="black" points="0,-57.5 0,-76.5 98,-76.5 98,-57.5 0,-57.5"/>
<text text-anchor="middle" x="49" y="-64.5" font-family="Helvetica,sans-Serif" font-size="10.00">creationMatriceNG</text>
</g>
<!-- Node2 -->
<g id="node2" class="node"><title>Node2</title>
<g id="a_node2"><a xlink:href="quaternaire_8c.html#a0fa6731f07927f703cf1c488d79c2cb6" target="_top" xlink:title="Fonction d&#39;appel de conversion arbre &#45;&gt; matrice NG. ">
<polygon fill="none" stroke="black" points="134,-57.5 134,-76.5 216,-76.5 216,-57.5 134,-57.5"/>
<text text-anchor="middle" x="175" y="-64.5" font-family="Helvetica,sans-Serif" font-size="10.00">creeMatriceNG</text>
</a>
</g>
</g>
<!-- Node1&#45;&gt;Node2 -->
<g id="edge1" class="edge"><title>Node1&#45;&gt;Node2</title>
<path fill="none" stroke="midnightblue" d="M108.568,-67C117.06,-67 125.637,-67 133.66,-67"/>
<polygon fill="midnightblue" stroke="midnightblue" points="108.297,-63.5001 98.2967,-67 108.297,-70.5001 108.297,-63.5001"/>
</g>
<!-- Node3 -->
<g id="node3" class="node"><title>Node3</title>
<g id="a_node3"><a xlink:href="main_8c.html#a0ddf1224851353fc92bfbff6f499fa97" target="_top" xlink:title="Main du programme. ">
<polygon fill="none" stroke="black" points="474,-38.5 474,-57.5 512,-57.5 512,-38.5 474,-38.5"/>
<text text-anchor="middle" x="493" y="-45.5" font-family="Helvetica,sans-Serif" font-size="10.00">main</text>
</a>
</g>
</g>
<!-- Node2&#45;&gt;Node3 -->
<g id="edge2" class="edge"><title>Node2&#45;&gt;Node3</title>
<path fill="none" stroke="midnightblue" d="M226.355,-69.7998C279.335,-71.8696 364.998,-72.7281 438,-62 450.073,-60.2257 463.343,-56.8065 473.707,-53.7914"/>
<polygon fill="midnightblue" stroke="midnightblue" points="226.346,-66.2964 216.208,-69.3727 226.052,-73.2902 226.346,-66.2964"/>
</g>
<!-- Node4 -->
<g id="node4" class="node"><title>Node4</title>
<g id="a_node4"><a xlink:href="quaternaire_8c.html#a3ebbb6278c797c3e72b00c179732e433" target="_top" xlink:title="Effectue le zoom sur un arbre NG. ">
<polygon fill="none" stroke="black" points="252,-38.5 252,-57.5 307,-57.5 307,-38.5 252,-38.5"/>
<text text-anchor="middle" x="279.5" y="-45.5" font-family="Helvetica,sans-Serif" font-size="10.00">zoomNG</text>
</a>
</g>
</g>
<!-- Node2&#45;&gt;Node4 -->
<g id="edge3" class="edge"><title>Node2&#45;&gt;Node4</title>
<path fill="none" stroke="midnightblue" d="M226.195,-57.6956C235.1,-56.0449 244.047,-54.3864 251.961,-52.9194"/>
<polygon fill="midnightblue" stroke="midnightblue" points="225.411,-54.2812 216.217,-59.5452 226.687,-61.1639 225.411,-54.2812"/>
</g>
<!-- Node4&#45;&gt;Node3 -->
<g id="edge4" class="edge"><title>Node4&#45;&gt;Node3</title>
<path fill="none" stroke="midnightblue" d="M317.378,-48C363.07,-48 439.122,-48 473.783,-48"/>
<polygon fill="midnightblue" stroke="midnightblue" points="317.287,-44.5001 307.287,-48 317.287,-51.5001 317.287,-44.5001"/>
</g>
<!-- Node5 -->
<g id="node5" class="node"><title>Node5</title>
<g id="a_node5"><a xlink:href="quaternaire_8c.html#ad8bb52314936ad1d1ad641c305d7792d" target="_top" xlink:title="Réalise tout les niveau de zoom d&#39;un arbre NG. ">
<polygon fill="none" stroke="black" points="343,-0.5 343,-19.5 438,-19.5 438,-0.5 343,-0.5"/>
<text text-anchor="middle" x="390.5" y="-7.5" font-family="Helvetica,sans-Serif" font-size="10.00">tousLesZoomsNG</text>
</a>
</g>
</g>
<!-- Node4&#45;&gt;Node5 -->
<g id="edge5" class="edge"><title>Node4&#45;&gt;Node5</title>
<path fill="none" stroke="midnightblue" d="M316.961,-35.2887C331.656,-30.1656 348.324,-24.3551 361.973,-19.5967"/>
<polygon fill="midnightblue" stroke="midnightblue" points="315.455,-32.1072 307.164,-38.7042 317.759,-38.7171 315.455,-32.1072"/>
</g>
<!-- Node5&#45;&gt;Node3 -->
<g id="edge6" class="edge"><title>Node5&#45;&gt;Node3</title>
<path fill="none" stroke="midnightblue" d="M426.463,-23.2198C442.465,-29.2705 460.754,-36.1857 473.938,-41.1707"/>
<polygon fill="midnightblue" stroke="midnightblue" points="427.452,-19.852 416.86,-19.589 424.976,-26.3996 427.452,-19.852"/>
</g>
</g>
</svg>
