<?xml version="1.0" encoding="UTF-8" standalone="no"?>
<!DOCTYPE svg PUBLIC "-//W3C//DTD SVG 1.1//EN"
 "http://www.w3.org/Graphics/SVG/1.1/DTD/svg11.dtd">
<!-- Generated by graphviz version 2.38.0 (20140413.2041)
 -->
<!-- Title: creeMatriceNG Pages: 1 -->
<svg width="380pt" height="66pt"
 viewBox="0.00 0.00 380.00 66.00" xmlns="http://www.w3.org/2000/svg" xmlns:xlink="http://www.w3.org/1999/xlink">
<g id="graph0" class="graph" transform="scale(1 1) rotate(0) translate(4 62)">
<title>creeMatriceNG</title>
<!-- Node1 -->
<g id="node1" class="node"><title>Node1</title>
<polygon fill="#bfbfbf" stroke="black" points="0,-19.5 0,-38.5 82,-38.5 82,-19.5 0,-19.5"/>
<text text-anchor="middle" x="41" y="-26.5" font-family="Helvetica,sans-Serif" font-size="10.00">creeMatriceNG</text>
</g>
<!-- Node2 -->
<g id="node2" class="node"><title>Node2</title>
<g id="a_node2"><a xlink:href="partie1_8c.html#a74146446548f74f43dcabaeea7b55493" target="_top" xlink:title="Retour une matrice de dimension haut * larg. ">
<polygon fill="none" stroke="black" points="122,-38.5 122,-57.5 212,-57.5 212,-38.5 122,-38.5"/>
<text text-anchor="middle" x="167" y="-45.5" font-family="Helvetica,sans-Serif" font-size="10.00">allocationMatrice</text>
</a>
</g>
</g>
<!-- Node1&#45;&gt;Node2 -->
<g id="edge1" class="edge"><title>Node1&#45;&gt;Node2</title>
<path fill="none" stroke="midnightblue" d="M82.2592,-35.1688C91.6016,-36.6003 101.698,-38.1473 111.538,-39.6549"/>
<polygon fill="midnightblue" stroke="midnightblue" points="111.241,-43.1503 121.656,-41.2053 112.301,-36.231 111.241,-43.1503"/>
</g>
<!-- Node3 -->
<g id="node3" class="node"><title>Node3</title>
<g id="a_node3"><a xlink:href="quaternaire_8c.html#aad44154524c9c77b432cb6cf52c7acf4" target="_top" xlink:title="Remplissage de la matrice avec un arbre NG. ">
<polygon fill="none" stroke="black" points="118,-0.5 118,-19.5 216,-19.5 216,-0.5 118,-0.5"/>
<text text-anchor="middle" x="167" y="-7.5" font-family="Helvetica,sans-Serif" font-size="10.00">creationMatriceNG</text>
</a>
</g>
</g>
<!-- Node1&#45;&gt;Node3 -->
<g id="edge2" class="edge"><title>Node1&#45;&gt;Node3</title>
<path fill="none" stroke="midnightblue" d="M82.2592,-22.8312C90.3917,-21.5851 99.0956,-20.2515 107.704,-18.9325"/>
<polygon fill="midnightblue" stroke="midnightblue" points="108.371,-22.3712 117.726,-17.3969 107.311,-15.4519 108.371,-22.3712"/>
</g>
<!-- Node4 -->
<g id="node4" class="node"><title>Node4</title>
<g id="a_node4"><a xlink:href="quaternaire_8c.html#a1e1d02ab87953add75ff8ebf2e627875" target="_top" xlink:title="Remplissage d&#39;une case de la matrice NG. ">
<polygon fill="none" stroke="black" points="252,-0.5 252,-19.5 372,-19.5 372,-0.5 252,-0.5"/>
<text text-anchor="middle" x="312" y="-7.5" font-family="Helvetica,sans-Serif" font-size="10.00">creationMatriceCaseNG</text>
</a>
</g>
</g>
<!-- Node3&#45;&gt;Node4 -->
<g id="edge3" class="edge"><title>Node3&#45;&gt;Node4</title>
<path fill="none" stroke="midnightblue" d="M216.015,-10C224.296,-10 233.05,-10 241.759,-10"/>
<polygon fill="midnightblue" stroke="midnightblue" points="241.932,-13.5001 251.932,-10 241.932,-6.5001 241.932,-13.5001"/>
</g>
</g>
</svg>
