<?xml version="1.0" encoding="UTF-8" standalone="no"?>
<!DOCTYPE svg PUBLIC "-//W3C//DTD SVG 1.1//EN"
 "http://www.w3.org/Graphics/SVG/1.1/DTD/svg11.dtd">
<!-- Generated by graphviz version 2.38.0 (20140413.2041)
 -->
<!-- Title: creeNoeudArbreNB Pages: 1 -->
<svg width="419pt" height="28pt"
 viewBox="0.00 0.00 419.00 28.00" xmlns="http://www.w3.org/2000/svg" xmlns:xlink="http://www.w3.org/1999/xlink">
<g id="graph0" class="graph" transform="scale(1 1) rotate(0) translate(4 24)">
<title>creeNoeudArbreNB</title>
<!-- Node1 -->
<g id="node1" class="node"><title>Node1</title>
<polygon fill="#bfbfbf" stroke="black" points="0,-0.5 0,-19.5 100,-19.5 100,-0.5 0,-0.5"/>
<text text-anchor="middle" x="50" y="-7.5" font-family="Helvetica,sans-Serif" font-size="10.00">creeNoeudArbreNB</text>
</g>
<!-- Node2 -->
<g id="node2" class="node"><title>Node2</title>
<g id="a_node2"><a xlink:href="quaternaire_8c.html#a21c86de2b1eb908399e18ea7d445c4fb" target="_top" xlink:title="Création d&#39;un nœud de l&#39;arbre. ">
<polygon fill="none" stroke="black" points="136,-0.5 136,-19.5 229,-19.5 229,-0.5 136,-0.5"/>
<text text-anchor="middle" x="182.5" y="-7.5" font-family="Helvetica,sans-Serif" font-size="10.00">creeationArbreNB</text>
</a>
</g>
</g>
<!-- Node1&#45;&gt;Node2 -->
<g id="edge1" class="edge"><title>Node1&#45;&gt;Node2</title>
<path fill="none" stroke="midnightblue" d="M110.338,-10C118.944,-10 127.687,-10 135.963,-10"/>
<polygon fill="midnightblue" stroke="midnightblue" points="110.336,-6.5001 100.336,-10 110.336,-13.5001 110.336,-6.5001"/>
</g>
<!-- Node3 -->
<g id="node3" class="node"><title>Node3</title>
<g id="a_node3"><a xlink:href="quaternaire_8c.html#abbb4dd828fb06821dd2c6cfc4d939ebd" target="_top" xlink:title="Fonction d&#39;appel de création d&#39;un arbre NB. ">
<polygon fill="none" stroke="black" points="265,-0.5 265,-19.5 337,-19.5 337,-0.5 265,-0.5"/>
<text text-anchor="middle" x="301" y="-7.5" font-family="Helvetica,sans-Serif" font-size="10.00">creeArbreNB</text>
</a>
</g>
</g>
<!-- Node2&#45;&gt;Node3 -->
<g id="edge2" class="edge"><title>Node2&#45;&gt;Node3</title>
<path fill="none" stroke="midnightblue" d="M239.34,-10C248.037,-10 256.806,-10 264.87,-10"/>
<polygon fill="midnightblue" stroke="midnightblue" points="239.21,-6.5001 229.21,-10 239.209,-13.5001 239.21,-6.5001"/>
</g>
<!-- Node4 -->
<g id="node4" class="node"><title>Node4</title>
<g id="a_node4"><a xlink:href="main_8c.html#a0ddf1224851353fc92bfbff6f499fa97" target="_top" xlink:title="Main du programme. ">
<polygon fill="none" stroke="black" points="373,-0.5 373,-19.5 411,-19.5 411,-0.5 373,-0.5"/>
<text text-anchor="middle" x="392" y="-7.5" font-family="Helvetica,sans-Serif" font-size="10.00">main</text>
</a>
</g>
</g>
<!-- Node3&#45;&gt;Node4 -->
<g id="edge3" class="edge"><title>Node3&#45;&gt;Node4</title>
<path fill="none" stroke="midnightblue" d="M347.36,-10C356.434,-10 365.46,-10 372.929,-10"/>
<polygon fill="midnightblue" stroke="midnightblue" points="347.175,-6.5001 337.175,-10 347.175,-13.5001 347.175,-6.5001"/>
</g>
</g>
</svg>
