<?xml version="1.0" encoding="UTF-8" standalone="no"?>
<!DOCTYPE svg PUBLIC "-//W3C//DTD SVG 1.1//EN"
 "http://www.w3.org/Graphics/SVG/1.1/DTD/svg11.dtd">
<!-- Generated by graphviz version 2.38.0 (20140413.2041)
 -->
<!-- Title: creeationArbreRVB Pages: 1 -->
<svg width="392pt" height="66pt"
 viewBox="0.00 0.00 392.00 66.00" xmlns="http://www.w3.org/2000/svg" xmlns:xlink="http://www.w3.org/1999/xlink">
<g id="graph0" class="graph" transform="scale(1 1) rotate(0) translate(4 62)">
<title>creeationArbreRVB</title>
<!-- Node1 -->
<g id="node1" class="node"><title>Node1</title>
<polygon fill="#bfbfbf" stroke="black" points="0,-19.5 0,-38.5 100,-38.5 100,-19.5 0,-19.5"/>
<text text-anchor="middle" x="50" y="-26.5" font-family="Helvetica,sans-Serif" font-size="10.00">creeationArbreRVB</text>
</g>
<!-- Node2 -->
<g id="node2" class="node"><title>Node2</title>
<g id="a_node2"><a xlink:href="quaternaire_8c.html#a046d445399231ece7aec33a19c57bb1d" target="_top" xlink:title="Allocation d&#39;un nœud de l&#39;arbre quaternaire RGB. ">
<polygon fill="none" stroke="black" points="136,-38.5 136,-57.5 243,-57.5 243,-38.5 136,-38.5"/>
<text text-anchor="middle" x="189.5" y="-45.5" font-family="Helvetica,sans-Serif" font-size="10.00">creeNoeudArbreRVB</text>
</a>
</g>
</g>
<!-- Node1&#45;&gt;Node2 -->
<g id="edge1" class="edge"><title>Node1&#45;&gt;Node2</title>
<path fill="none" stroke="midnightblue" d="M100.252,-35.8058C108.56,-36.9538 117.282,-38.159 125.876,-39.3464"/>
<polygon fill="midnightblue" stroke="midnightblue" points="125.487,-42.8259 135.872,-40.7277 126.445,-35.8918 125.487,-42.8259"/>
</g>
<!-- Node3 -->
<g id="node3" class="node"><title>Node3</title>
<g id="a_node3"><a xlink:href="quaternaire_8c.html#aa861d7500e11f0c67b6140fcddf250cd" target="_top" xlink:title="Vérifie si le carré est homogène RGB. ">
<polygon fill="none" stroke="black" points="137,-0.5 137,-19.5 242,-19.5 242,-0.5 137,-0.5"/>
<text text-anchor="middle" x="189.5" y="-7.5" font-family="Helvetica,sans-Serif" font-size="10.00">carreHomogeneRVB</text>
</a>
</g>
</g>
<!-- Node1&#45;&gt;Node3 -->
<g id="edge2" class="edge"><title>Node1&#45;&gt;Node3</title>
<path fill="none" stroke="midnightblue" d="M100.252,-22.1942C108.874,-21.0028 117.943,-19.7497 126.85,-18.5189"/>
<polygon fill="midnightblue" stroke="midnightblue" points="127.38,-21.9791 136.806,-17.1431 126.421,-15.045 127.38,-21.9791"/>
</g>
<!-- Node4 -->
<g id="node4" class="node"><title>Node4</title>
<g id="a_node4"><a xlink:href="quaternaire_8c.html#a8054b3fc9ddb40f36e48d358bc04e4ba" target="_top" xlink:title="Calcul la valeur médiane d&#39;un carré RGB. ">
<polygon fill="none" stroke="black" points="279,-0.5 279,-19.5 384,-19.5 384,-0.5 279,-0.5"/>
<text text-anchor="middle" x="331.5" y="-7.5" font-family="Helvetica,sans-Serif" font-size="10.00">couleurMedianeRVB</text>
</a>
</g>
</g>
<!-- Node3&#45;&gt;Node4 -->
<g id="edge3" class="edge"><title>Node3&#45;&gt;Node4</title>
<path fill="none" stroke="midnightblue" d="M242.233,-10C250.855,-10 259.874,-10 268.716,-10"/>
<polygon fill="midnightblue" stroke="midnightblue" points="268.98,-13.5001 278.98,-10 268.98,-6.5001 268.98,-13.5001"/>
</g>
</g>
</svg>
