<?xml version="1.0" encoding="UTF-8" standalone="no"?>
<!DOCTYPE svg PUBLIC "-//W3C//DTD SVG 1.1//EN"
 "http://www.w3.org/Graphics/SVG/1.1/DTD/svg11.dtd">
<!-- Generated by graphviz version 2.38.0 (20140413.2041)
 -->
<!-- Title: valeurMedianeNG Pages: 1 -->
<svg width="548pt" height="47pt"
 viewBox="0.00 0.00 548.00 47.00" xmlns="http://www.w3.org/2000/svg" xmlns:xlink="http://www.w3.org/1999/xlink">
<g id="graph0" class="graph" transform="scale(1 1) rotate(0) translate(4 43)">
<title>valeurMedianeNG</title>
<!-- Node1 -->
<g id="node1" class="node"><title>Node1</title>
<polygon fill="#bfbfbf" stroke="black" points="0,-0.5 0,-19.5 92,-19.5 92,-0.5 0,-0.5"/>
<text text-anchor="middle" x="46" y="-7.5" font-family="Helvetica,sans-Serif" font-size="10.00">valeurMedianeNG</text>
</g>
<!-- Node2 -->
<g id="node2" class="node"><title>Node2</title>
<g id="a_node2"><a xlink:href="quaternaire_8c.html#a187735c36c9b388930fdeae788f9d4d3" target="_top" xlink:title="Vérifie si le carré est homogène NG. ">
<polygon fill="none" stroke="black" points="128,-19.5 128,-38.5 227,-38.5 227,-19.5 128,-19.5"/>
<text text-anchor="middle" x="177.5" y="-26.5" font-family="Helvetica,sans-Serif" font-size="10.00">carreHomogeneNG</text>
</a>
</g>
</g>
<!-- Node1&#45;&gt;Node2 -->
<g id="edge1" class="edge"><title>Node1&#45;&gt;Node2</title>
<path fill="none" stroke="midnightblue" d="M102.195,-18.098C110.75,-19.3533 119.533,-20.6419 127.928,-21.8736"/>
<polygon fill="midnightblue" stroke="midnightblue" points="102.695,-14.6341 92.2928,-16.6453 101.679,-21.5599 102.695,-14.6341"/>
</g>
<!-- Node3 -->
<g id="node3" class="node"><title>Node3</title>
<g id="a_node3"><a xlink:href="quaternaire_8c.html#a008a2eb8c5586e1a49dac2e6f37bd2d1" target="_top" xlink:title="Création d&#39;un nœud de l&#39;arbre quaternaire NG. ">
<polygon fill="none" stroke="black" points="263,-0.5 263,-19.5 357,-19.5 357,-0.5 263,-0.5"/>
<text text-anchor="middle" x="310" y="-7.5" font-family="Helvetica,sans-Serif" font-size="10.00">creeationArbreNG</text>
</a>
</g>
</g>
<!-- Node1&#45;&gt;Node3 -->
<g id="edge5" class="edge"><title>Node1&#45;&gt;Node3</title>
<path fill="none" stroke="midnightblue" d="M102.185,-10C149.853,-10 217.943,-10 262.789,-10"/>
<polygon fill="midnightblue" stroke="midnightblue" points="102.039,-6.5001 92.0394,-10 102.039,-13.5001 102.039,-6.5001"/>
</g>
<!-- Node2&#45;&gt;Node3 -->
<g id="edge2" class="edge"><title>Node2&#45;&gt;Node3</title>
<path fill="none" stroke="midnightblue" d="M237.145,-20.4617C245.8,-19.2016 254.611,-17.9187 262.962,-16.7029"/>
<polygon fill="midnightblue" stroke="midnightblue" points="236.485,-17.0208 227.093,-21.9251 237.493,-23.9478 236.485,-17.0208"/>
</g>
<!-- Node4 -->
<g id="node4" class="node"><title>Node4</title>
<g id="a_node4"><a xlink:href="quaternaire_8c.html#a80c7e96deac0699503dec245e2131975" target="_top" xlink:title="fonction d&#39;appel de création de l&#39;arbre NG ">
<polygon fill="none" stroke="black" points="393,-0.5 393,-19.5 466,-19.5 466,-0.5 393,-0.5"/>
<text text-anchor="middle" x="429.5" y="-7.5" font-family="Helvetica,sans-Serif" font-size="10.00">creeArbreNG</text>
</a>
</g>
</g>
<!-- Node3&#45;&gt;Node4 -->
<g id="edge3" class="edge"><title>Node3&#45;&gt;Node4</title>
<path fill="none" stroke="midnightblue" d="M367.208,-10C375.885,-10 384.636,-10 392.703,-10"/>
<polygon fill="midnightblue" stroke="midnightblue" points="367.102,-6.5001 357.102,-10 367.102,-13.5001 367.102,-6.5001"/>
</g>
<!-- Node5 -->
<g id="node5" class="node"><title>Node5</title>
<g id="a_node5"><a xlink:href="main_8c.html#a0ddf1224851353fc92bfbff6f499fa97" target="_top" xlink:title="Main du programme. ">
<polygon fill="none" stroke="black" points="502,-0.5 502,-19.5 540,-19.5 540,-0.5 502,-0.5"/>
<text text-anchor="middle" x="521" y="-7.5" font-family="Helvetica,sans-Serif" font-size="10.00">main</text>
</a>
</g>
</g>
<!-- Node4&#45;&gt;Node5 -->
<g id="edge4" class="edge"><title>Node4&#45;&gt;Node5</title>
<path fill="none" stroke="midnightblue" d="M476.342,-10C485.435,-10 494.467,-10 501.937,-10"/>
<polygon fill="midnightblue" stroke="midnightblue" points="476.13,-6.5001 466.13,-10 476.13,-13.5001 476.13,-6.5001"/>
</g>
</g>
</svg>
