<?xml version="1.0" encoding="UTF-8" standalone="no"?>
<!DOCTYPE svg PUBLIC "-//W3C//DTD SVG 1.1//EN"
 "http://www.w3.org/Graphics/SVG/1.1/DTD/svg11.dtd">
<!-- Generated by graphviz version 2.38.0 (20140413.2041)
 -->
<!-- Title: creeationArbreNB Pages: 1 -->
<svg width="338pt" height="28pt"
 viewBox="0.00 0.00 338.00 28.00" xmlns="http://www.w3.org/2000/svg" xmlns:xlink="http://www.w3.org/1999/xlink">
<g id="graph0" class="graph" transform="scale(1 1) rotate(0) translate(4 24)">
<title>creeationArbreNB</title>
<!-- Node1 -->
<g id="node1" class="node"><title>Node1</title>
<polygon fill="#bfbfbf" stroke="black" points="0,-0.5 0,-19.5 93,-19.5 93,-0.5 0,-0.5"/>
<text text-anchor="middle" x="46.5" y="-7.5" font-family="Helvetica,sans-Serif" font-size="10.00">creeationArbreNB</text>
</g>
<!-- Node2 -->
<g id="node2" class="node"><title>Node2</title>
<g id="a_node2"><a xlink:href="quaternaire_8c.html#a325bf257558a093ac6ceef33042c4554" target="_top" xlink:title="Allocation d&#39;un nœud de l&#39;arbre. ">
<polygon fill="none" stroke="black" points="129,-0.5 129,-19.5 229,-19.5 229,-0.5 129,-0.5"/>
<text text-anchor="middle" x="179" y="-7.5" font-family="Helvetica,sans-Serif" font-size="10.00">creeNoeudArbreNB</text>
</a>
</g>
</g>
<!-- Node1&#45;&gt;Node2 -->
<g id="edge1" class="edge"><title>Node1&#45;&gt;Node2</title>
<path fill="none" stroke="midnightblue" d="M93.1426,-10C101.294,-10 109.896,-10 118.37,-10"/>
<polygon fill="midnightblue" stroke="midnightblue" points="118.605,-13.5001 128.605,-10 118.605,-6.5001 118.605,-13.5001"/>
</g>
<!-- Node3 -->
<g id="node3" class="node"><title>Node3</title>
<g id="a_node3"><a xlink:href="quaternaire_8c.html#ac337e0476780ba4e5236a1d56ad8fd53" target="_top" xlink:title="Calcul valeur médiane carre NB. ">
<polygon fill="none" stroke="black" points="265,-0.5 265,-19.5 330,-19.5 330,-0.5 265,-0.5"/>
<text text-anchor="middle" x="297.5" y="-7.5" font-family="Helvetica,sans-Serif" font-size="10.00">calculCarre</text>
</a>
</g>
</g>
<!-- Node2&#45;&gt;Node3 -->
<g id="edge2" class="edge"><title>Node2&#45;&gt;Node3</title>
<path fill="none" stroke="midnightblue" d="M229.069,-10C237.551,-10 246.3,-10 254.571,-10"/>
<polygon fill="midnightblue" stroke="midnightblue" points="254.737,-13.5001 264.737,-10 254.737,-6.5001 254.737,-13.5001"/>
</g>
</g>
</svg>
