<?xml version="1.0" encoding="UTF-8" standalone="no"?>
<!DOCTYPE svg PUBLIC "-//W3C//DTD SVG 1.1//EN"
 "http://www.w3.org/Graphics/SVG/1.1/DTD/svg11.dtd">
<!-- Generated by graphviz version 2.38.0 (20140413.2041)
 -->
<!-- Title: creeArbreNG Pages: 1 -->
<svg width="568pt" height="104pt"
 viewBox="0.00 0.00 568.00 104.00" xmlns="http://www.w3.org/2000/svg" xmlns:xlink="http://www.w3.org/1999/xlink">
<g id="graph0" class="graph" transform="scale(1 1) rotate(0) translate(4 100)">
<title>creeArbreNG</title>
<!-- Node1 -->
<g id="node1" class="node"><title>Node1</title>
<polygon fill="#bfbfbf" stroke="black" points="0,-38.5 0,-57.5 73,-57.5 73,-38.5 0,-38.5"/>
<text text-anchor="middle" x="36.5" y="-45.5" font-family="Helvetica,sans-Serif" font-size="10.00">creeArbreNG</text>
</g>
<!-- Node2 -->
<g id="node2" class="node"><title>Node2</title>
<g id="a_node2"><a xlink:href="quaternaire_8c.html#a008a2eb8c5586e1a49dac2e6f37bd2d1" target="_top" xlink:title="Création d&#39;un nœud de l&#39;arbre quaternaire NG. ">
<polygon fill="none" stroke="black" points="109,-38.5 109,-57.5 203,-57.5 203,-38.5 109,-38.5"/>
<text text-anchor="middle" x="156" y="-45.5" font-family="Helvetica,sans-Serif" font-size="10.00">creeationArbreNG</text>
</a>
</g>
</g>
<!-- Node1&#45;&gt;Node2 -->
<g id="edge1" class="edge"><title>Node1&#45;&gt;Node2</title>
<path fill="none" stroke="midnightblue" d="M73.0727,-48C81.1318,-48 89.8837,-48 98.5681,-48"/>
<polygon fill="midnightblue" stroke="midnightblue" points="98.6861,-51.5001 108.686,-48 98.686,-44.5001 98.6861,-51.5001"/>
</g>
<!-- Node3 -->
<g id="node3" class="node"><title>Node3</title>
<g id="a_node3"><a xlink:href="quaternaire_8c.html#ab7f7c7557276f69edf708697150975a8" target="_top" xlink:title="Allocation d&#39;un nœud de l&#39;arbre quaternaire NG. ">
<polygon fill="none" stroke="black" points="239,-76.5 239,-95.5 340,-95.5 340,-76.5 239,-76.5"/>
<text text-anchor="middle" x="289.5" y="-83.5" font-family="Helvetica,sans-Serif" font-size="10.00">creeNoeudArbreNG</text>
</a>
</g>
</g>
<!-- Node2&#45;&gt;Node3 -->
<g id="edge2" class="edge"><title>Node2&#45;&gt;Node3</title>
<path fill="none" stroke="midnightblue" d="M190.183,-57.589C207.003,-62.4494 227.626,-68.4091 245.634,-73.6127"/>
<polygon fill="midnightblue" stroke="midnightblue" points="244.749,-77.0003 255.328,-76.4141 246.692,-70.2754 244.749,-77.0003"/>
</g>
<!-- Node4 -->
<g id="node4" class="node"><title>Node4</title>
<g id="a_node4"><a xlink:href="quaternaire_8c.html#a148b7bd50d305fad50ae008993a0fccb" target="_top" xlink:title="Calcul la valeur médiane d&#39;un carré NG. ">
<polygon fill="none" stroke="black" points="376,-19.5 376,-38.5 468,-38.5 468,-19.5 376,-19.5"/>
<text text-anchor="middle" x="422" y="-26.5" font-family="Helvetica,sans-Serif" font-size="10.00">valeurMedianeNG</text>
</a>
</g>
</g>
<!-- Node2&#45;&gt;Node4 -->
<g id="edge3" class="edge"><title>Node2&#45;&gt;Node4</title>
<path fill="none" stroke="midnightblue" d="M203.287,-44.6687C248.476,-41.4165 317.276,-36.465 365.406,-33.0011"/>
<polygon fill="midnightblue" stroke="midnightblue" points="365.927,-36.4728 375.65,-32.2639 365.424,-29.4908 365.927,-36.4728"/>
</g>
<!-- Node6 -->
<g id="node6" class="node"><title>Node6</title>
<g id="a_node6"><a xlink:href="quaternaire_8c.html#a187735c36c9b388930fdeae788f9d4d3" target="_top" xlink:title="Vérifie si le carré est homogène NG. ">
<polygon fill="none" stroke="black" points="240,-0.5 240,-19.5 339,-19.5 339,-0.5 240,-0.5"/>
<text text-anchor="middle" x="289.5" y="-7.5" font-family="Helvetica,sans-Serif" font-size="10.00">carreHomogeneNG</text>
</a>
</g>
</g>
<!-- Node2&#45;&gt;Node6 -->
<g id="edge5" class="edge"><title>Node2&#45;&gt;Node6</title>
<path fill="none" stroke="midnightblue" d="M190.183,-38.411C207.003,-33.5506 227.626,-27.5909 245.634,-22.3873"/>
<polygon fill="midnightblue" stroke="midnightblue" points="246.692,-25.7246 255.328,-19.5859 244.749,-18.9997 246.692,-25.7246"/>
</g>
<!-- Node5 -->
<g id="node5" class="node"><title>Node5</title>
<g id="a_node5"><a xlink:href="median_8c.html#a6f9266f5d5b1c83fdcd462d44e60f3e2" target="_top" xlink:title="tri un tableau et retourne la valeur médiane ">
<polygon fill="none" stroke="black" points="504,-19.5 504,-38.5 560,-38.5 560,-19.5 504,-19.5"/>
<text text-anchor="middle" x="532" y="-26.5" font-family="Helvetica,sans-Serif" font-size="10.00">tritableau</text>
</a>
</g>
</g>
<!-- Node4&#45;&gt;Node5 -->
<g id="edge4" class="edge"><title>Node4&#45;&gt;Node5</title>
<path fill="none" stroke="midnightblue" d="M468.176,-29C476.711,-29 485.548,-29 493.803,-29"/>
<polygon fill="midnightblue" stroke="midnightblue" points="493.882,-32.5001 503.882,-29 493.882,-25.5001 493.882,-32.5001"/>
</g>
<!-- Node6&#45;&gt;Node4 -->
<g id="edge6" class="edge"><title>Node6&#45;&gt;Node4</title>
<path fill="none" stroke="midnightblue" d="M339.093,-17.0749C347.834,-18.3474 357.001,-19.6821 365.91,-20.9792"/>
<polygon fill="midnightblue" stroke="midnightblue" points="365.421,-24.4448 375.821,-22.4222 366.429,-17.5179 365.421,-24.4448"/>
</g>
</g>
</svg>
