<?xml version="1.0" encoding="UTF-8" standalone="no"?>
<!DOCTYPE svg PUBLIC "-//W3C//DTD SVG 1.1//EN"
 "http://www.w3.org/Graphics/SVG/1.1/DTD/svg11.dtd">
<!-- Generated by graphviz version 2.38.0 (20140413.2041)
 -->
<!-- Title: tousLesZoomsCouleur Pages: 1 -->
<svg width="584pt" height="180pt"
 viewBox="0.00 0.00 584.00 180.00" xmlns="http://www.w3.org/2000/svg" xmlns:xlink="http://www.w3.org/1999/xlink">
<g id="graph0" class="graph" transform="scale(1 1) rotate(0) translate(4 176)">
<title>tousLesZoomsCouleur</title>
<!-- Node1 -->
<g id="node1" class="node"><title>Node1</title>
<polygon fill="#bfbfbf" stroke="black" points="0,-76.5 0,-95.5 113,-95.5 113,-76.5 0,-76.5"/>
<text text-anchor="middle" x="56.5" y="-83.5" font-family="Helvetica,sans-Serif" font-size="10.00">tousLesZoomsCouleur</text>
</g>
<!-- Node2 -->
<g id="node2" class="node"><title>Node2</title>
<g id="a_node2"><a xlink:href="quaternaire_8c.html#ad9b089f8ab718a8d2ff3f459b748ff74" target="_top" xlink:title="Calcul la profondeur d&#39;un arbre. ">
<polygon fill="none" stroke="black" points="319.5,-152.5 319.5,-171.5 404.5,-171.5 404.5,-152.5 319.5,-152.5"/>
<text text-anchor="middle" x="362" y="-159.5" font-family="Helvetica,sans-Serif" font-size="10.00">profondeurArbre</text>
</a>
</g>
</g>
<!-- Node1&#45;&gt;Node2 -->
<g id="edge1" class="edge"><title>Node1&#45;&gt;Node2</title>
<path fill="none" stroke="midnightblue" d="M69.0094,-95.703C85.5143,-108.994 117.412,-132.418 149,-143 201.551,-160.605 265.29,-164.103 309.072,-163.981"/>
<polygon fill="midnightblue" stroke="midnightblue" points="309.234,-167.48 319.201,-163.888 309.169,-160.48 309.234,-167.48"/>
</g>
<!-- Node3 -->
<g id="node3" class="node"><title>Node3</title>
<g id="a_node3"><a xlink:href="quaternaire_8c.html#a48b048cacd0128d7485e99ea7d5fd9ba" target="_top" xlink:title="Effectue le zoom sur un arbre RGB. ">
<polygon fill="none" stroke="black" points="174.5,-114.5 174.5,-133.5 248.5,-133.5 248.5,-114.5 174.5,-114.5"/>
<text text-anchor="middle" x="211.5" y="-121.5" font-family="Helvetica,sans-Serif" font-size="10.00">zoomCouleur</text>
</a>
</g>
</g>
<!-- Node1&#45;&gt;Node3 -->
<g id="edge2" class="edge"><title>Node1&#45;&gt;Node3</title>
<path fill="none" stroke="midnightblue" d="M96.1084,-95.589C116.913,-100.756 142.719,-107.165 164.552,-112.588"/>
<polygon fill="midnightblue" stroke="midnightblue" points="163.723,-115.988 174.271,-115.002 165.41,-109.195 163.723,-115.988"/>
</g>
<!-- Node7 -->
<g id="node7" class="node"><title>Node7</title>
<g id="a_node7"><a xlink:href="partie1_8c.html#ab913e4cfb04d6f60820e3acbb8d0e179" target="_top" xlink:title="Cree une image avec 3 matrices. ">
<polygon fill="none" stroke="black" points="180.5,-76.5 180.5,-95.5 242.5,-95.5 242.5,-76.5 180.5,-76.5"/>
<text text-anchor="middle" x="211.5" y="-83.5" font-family="Helvetica,sans-Serif" font-size="10.00">creeImage</text>
</a>
</g>
</g>
<!-- Node1&#45;&gt;Node7 -->
<g id="edge7" class="edge"><title>Node1&#45;&gt;Node7</title>
<path fill="none" stroke="midnightblue" d="M113.169,-86C131.991,-86 152.633,-86 170.046,-86"/>
<polygon fill="midnightblue" stroke="midnightblue" points="170.425,-89.5001 180.425,-86 170.425,-82.5001 170.425,-89.5001"/>
</g>
<!-- Node8 -->
<g id="node8" class="node"><title>Node8</title>
<g id="a_node8"><a xlink:href="_bmp_lib_8c.html#abf1da9548a3aa2a96715f9b5fd7525ab" target="_top" xlink:title="ecrisBMPRGB_Dans">
<polygon fill="none" stroke="black" points="157.5,-38.5 157.5,-57.5 265.5,-57.5 265.5,-38.5 157.5,-38.5"/>
<text text-anchor="middle" x="211.5" y="-45.5" font-family="Helvetica,sans-Serif" font-size="10.00">ecrisBMPRGB_Dans</text>
</a>
</g>
</g>
<!-- Node1&#45;&gt;Node8 -->
<g id="edge8" class="edge"><title>Node1&#45;&gt;Node8</title>
<path fill="none" stroke="midnightblue" d="M96.1084,-76.411C116.207,-71.4191 140.975,-65.2676 162.319,-59.9666"/>
<polygon fill="midnightblue" stroke="midnightblue" points="163.308,-63.3274 172.169,-57.5201 161.62,-56.5338 163.308,-63.3274"/>
</g>
<!-- Node10 -->
<g id="node10" class="node"><title>Node10</title>
<g id="a_node10"><a xlink:href="_bmp_lib_8c.html#a84142edceda87c3a09dab077ab2b0ef9" target="_top" xlink:title="libereDonneesImageRGB">
<polygon fill="none" stroke="black" points="149,-0.5 149,-19.5 274,-19.5 274,-0.5 149,-0.5"/>
<text text-anchor="middle" x="211.5" y="-7.5" font-family="Helvetica,sans-Serif" font-size="10.00">libereDonneesImageRGB</text>
</a>
</g>
</g>
<!-- Node1&#45;&gt;Node10 -->
<g id="edge10" class="edge"><title>Node1&#45;&gt;Node10</title>
<path fill="none" stroke="midnightblue" d="M70.5318,-76.3657C87.7523,-63.9987 119.377,-42.5276 149,-29 153.956,-26.737 159.254,-24.6468 164.585,-22.7458"/>
<polygon fill="midnightblue" stroke="midnightblue" points="165.785,-26.035 174.149,-19.5317 163.555,-19.3997 165.785,-26.035"/>
</g>
<!-- Node3&#45;&gt;Node2 -->
<g id="edge3" class="edge"><title>Node3&#45;&gt;Node2</title>
<path fill="none" stroke="midnightblue" d="M248.827,-133.296C268.471,-138.322 292.955,-144.588 314.032,-149.981"/>
<polygon fill="midnightblue" stroke="midnightblue" points="313.201,-153.381 323.757,-152.47 314.937,-146.6 313.201,-153.381"/>
</g>
<!-- Node4 -->
<g id="node4" class="node"><title>Node4</title>
<g id="a_node4"><a xlink:href="quaternaire_8c.html#a98566b8b5bd16a3dde718cea893609ca" target="_top" xlink:title="Converti le k en nn. ">
<polygon fill="none" stroke="black" points="336,-114.5 336,-133.5 388,-133.5 388,-114.5 336,-114.5"/>
<text text-anchor="middle" x="362" y="-121.5" font-family="Helvetica,sans-Serif" font-size="10.00">convknn</text>
</a>
</g>
</g>
<!-- Node3&#45;&gt;Node4 -->
<g id="edge4" class="edge"><title>Node3&#45;&gt;Node4</title>
<path fill="none" stroke="midnightblue" d="M248.827,-124C272.208,-124 302.447,-124 325.636,-124"/>
<polygon fill="midnightblue" stroke="midnightblue" points="325.745,-127.5 335.745,-124 325.745,-120.5 325.745,-127.5"/>
</g>
<!-- Node5 -->
<g id="node5" class="node"><title>Node5</title>
<g id="a_node5"><a xlink:href="quaternaire_8c.html#a5715adb9973e14b37d0b6920cf12f782" target="_top" xlink:title="Remplissage des matrices avec un arbre RGB. ">
<polygon fill="none" stroke="black" points="310,-76.5 310,-95.5 414,-95.5 414,-76.5 310,-76.5"/>
<text text-anchor="middle" x="362" y="-83.5" font-family="Helvetica,sans-Serif" font-size="10.00">creationMatriceRVB</text>
</a>
</g>
</g>
<!-- Node3&#45;&gt;Node5 -->
<g id="edge5" class="edge"><title>Node3&#45;&gt;Node5</title>
<path fill="none" stroke="midnightblue" d="M248.827,-114.704C268.471,-109.678 292.955,-103.412 314.032,-98.0187"/>
<polygon fill="midnightblue" stroke="midnightblue" points="314.937,-101.4 323.757,-95.5302 313.201,-94.6186 314.937,-101.4"/>
</g>
<!-- Node6 -->
<g id="node6" class="node"><title>Node6</title>
<g id="a_node6"><a xlink:href="quaternaire_8c.html#a1827c61ee6b5102f8e991fa41290481a" target="_top" xlink:title="Remplissage d&#39;une case des matrices RGB. ">
<polygon fill="none" stroke="black" points="450,-76.5 450,-95.5 576,-95.5 576,-76.5 450,-76.5"/>
<text text-anchor="middle" x="513" y="-83.5" font-family="Helvetica,sans-Serif" font-size="10.00">creationMatriceCaseRVB</text>
</a>
</g>
</g>
<!-- Node5&#45;&gt;Node6 -->
<g id="edge6" class="edge"><title>Node5&#45;&gt;Node6</title>
<path fill="none" stroke="midnightblue" d="M414.277,-86C422.506,-86 431.155,-86 439.763,-86"/>
<polygon fill="midnightblue" stroke="midnightblue" points="439.822,-89.5001 449.822,-86 439.822,-82.5001 439.822,-89.5001"/>
</g>
<!-- Node9 -->
<g id="node9" class="node"><title>Node9</title>
<g id="a_node9"><a xlink:href="_outils_lib_8c.html#a6c0d8e9b64e3086d9aabc8cb0c5f37cb" target="_top" xlink:title="natif32VersLittle">
<polygon fill="none" stroke="black" points="319,-38.5 319,-57.5 405,-57.5 405,-38.5 319,-38.5"/>
<text text-anchor="middle" x="362" y="-45.5" font-family="Helvetica,sans-Serif" font-size="10.00">natif32VersLittle</text>
</a>
</g>
</g>
<!-- Node8&#45;&gt;Node9 -->
<g id="edge9" class="edge"><title>Node8&#45;&gt;Node9</title>
<path fill="none" stroke="midnightblue" d="M265.692,-48C279.619,-48 294.624,-48 308.514,-48"/>
<polygon fill="midnightblue" stroke="midnightblue" points="308.882,-51.5001 318.882,-48 308.882,-44.5001 308.882,-51.5001"/>
</g>
</g>
</svg>
