<?xml version="1.0" encoding="UTF-8" standalone="no"?>
<!DOCTYPE svg PUBLIC "-//W3C//DTD SVG 1.1//EN"
 "http://www.w3.org/Graphics/SVG/1.1/DTD/svg11.dtd">
<!-- Generated by graphviz version 2.38.0 (20140413.2041)
 -->
<!-- Title: zoomCouleur Pages: 1 -->
<svg width="305pt" height="47pt"
 viewBox="0.00 0.00 305.00 47.00" xmlns="http://www.w3.org/2000/svg" xmlns:xlink="http://www.w3.org/1999/xlink">
<g id="graph0" class="graph" transform="scale(1 1) rotate(0) translate(4 43)">
<title>zoomCouleur</title>
<!-- Node1 -->
<g id="node1" class="node"><title>Node1</title>
<polygon fill="#bfbfbf" stroke="black" points="0,-19.5 0,-38.5 74,-38.5 74,-19.5 0,-19.5"/>
<text text-anchor="middle" x="37" y="-26.5" font-family="Helvetica,sans-Serif" font-size="10.00">zoomCouleur</text>
</g>
<!-- Node2 -->
<g id="node2" class="node"><title>Node2</title>
<g id="a_node2"><a xlink:href="main_8c.html#a0ddf1224851353fc92bfbff6f499fa97" target="_top" xlink:title="Main du programme. ">
<polygon fill="none" stroke="black" points="259,-19.5 259,-38.5 297,-38.5 297,-19.5 259,-19.5"/>
<text text-anchor="middle" x="278" y="-26.5" font-family="Helvetica,sans-Serif" font-size="10.00">main</text>
</a>
</g>
</g>
<!-- Node1&#45;&gt;Node2 -->
<g id="edge1" class="edge"><title>Node1&#45;&gt;Node2</title>
<path fill="none" stroke="midnightblue" d="M84.2122,-29C137.287,-29 221.784,-29 258.717,-29"/>
<polygon fill="midnightblue" stroke="midnightblue" points="84.0395,-25.5001 74.0395,-29 84.0395,-32.5001 84.0395,-25.5001"/>
</g>
<!-- Node3 -->
<g id="node3" class="node"><title>Node3</title>
<g id="a_node3"><a xlink:href="quaternaire_8c.html#a1d1e77f95b9ad72f9f8059a412ee8365" target="_top" xlink:title="Réalise tout les niveau de zoom d&#39;un arbre RGB. ">
<polygon fill="none" stroke="black" points="110,-0.5 110,-19.5 223,-19.5 223,-0.5 110,-0.5"/>
<text text-anchor="middle" x="166.5" y="-7.5" font-family="Helvetica,sans-Serif" font-size="10.00">tousLesZoomsCouleur</text>
</a>
</g>
</g>
<!-- Node1&#45;&gt;Node3 -->
<g id="edge2" class="edge"><title>Node1&#45;&gt;Node3</title>
<path fill="none" stroke="midnightblue" d="M84.3463,-22.0935C92.5731,-20.8675 101.219,-19.5792 109.675,-18.319"/>
<polygon fill="midnightblue" stroke="midnightblue" points="83.5702,-18.6704 74.1953,-23.6062 84.602,-25.594 83.5702,-18.6704"/>
</g>
<!-- Node3&#45;&gt;Node2 -->
<g id="edge3" class="edge"><title>Node3&#45;&gt;Node2</title>
<path fill="none" stroke="midnightblue" d="M232.566,-21.2901C242.057,-22.9369 251.119,-24.5092 258.554,-25.7994"/>
<polygon fill="midnightblue" stroke="midnightblue" points="233.022,-17.8169 222.571,-19.5557 231.825,-24.7138 233.022,-17.8169"/>
</g>
</g>
</svg>
