<?xml version="1.0" encoding="UTF-8" standalone="no"?>
<!DOCTYPE svg PUBLIC "-//W3C//DTD SVG 1.1//EN"
 "http://www.w3.org/Graphics/SVG/1.1/DTD/svg11.dtd">
<!-- Generated by graphviz version 2.38.0 (20140413.2041)
 -->
<!-- Title: creeArbreRVB Pages: 1 -->
<svg width="507pt" height="66pt"
 viewBox="0.00 0.00 507.00 66.00" xmlns="http://www.w3.org/2000/svg" xmlns:xlink="http://www.w3.org/1999/xlink">
<g id="graph0" class="graph" transform="scale(1 1) rotate(0) translate(4 62)">
<title>creeArbreRVB</title>
<!-- Node1 -->
<g id="node1" class="node"><title>Node1</title>
<polygon fill="#bfbfbf" stroke="black" points="0,-19.5 0,-38.5 79,-38.5 79,-19.5 0,-19.5"/>
<text text-anchor="middle" x="39.5" y="-26.5" font-family="Helvetica,sans-Serif" font-size="10.00">creeArbreRVB</text>
</g>
<!-- Node2 -->
<g id="node2" class="node"><title>Node2</title>
<g id="a_node2"><a xlink:href="quaternaire_8c.html#a9d875718a998684827d6296dd4dc6908" target="_top" xlink:title="Création d&#39;un nœud de l&#39;arbre quaternaire RGB. ">
<polygon fill="none" stroke="black" points="115,-19.5 115,-38.5 215,-38.5 215,-19.5 115,-19.5"/>
<text text-anchor="middle" x="165" y="-26.5" font-family="Helvetica,sans-Serif" font-size="10.00">creeationArbreRVB</text>
</a>
</g>
</g>
<!-- Node1&#45;&gt;Node2 -->
<g id="edge1" class="edge"><title>Node1&#45;&gt;Node2</title>
<path fill="none" stroke="midnightblue" d="M79.2373,-29C87.3723,-29 96.1292,-29 104.818,-29"/>
<polygon fill="midnightblue" stroke="midnightblue" points="104.946,-32.5001 114.946,-29 104.946,-25.5001 104.946,-32.5001"/>
</g>
<!-- Node3 -->
<g id="node3" class="node"><title>Node3</title>
<g id="a_node3"><a xlink:href="quaternaire_8c.html#a046d445399231ece7aec33a19c57bb1d" target="_top" xlink:title="Allocation d&#39;un nœud de l&#39;arbre quaternaire RGB. ">
<polygon fill="none" stroke="black" points="251,-38.5 251,-57.5 358,-57.5 358,-38.5 251,-38.5"/>
<text text-anchor="middle" x="304.5" y="-45.5" font-family="Helvetica,sans-Serif" font-size="10.00">creeNoeudArbreRVB</text>
</a>
</g>
</g>
<!-- Node2&#45;&gt;Node3 -->
<g id="edge2" class="edge"><title>Node2&#45;&gt;Node3</title>
<path fill="none" stroke="midnightblue" d="M215.252,-35.8058C223.56,-36.9538 232.282,-38.159 240.876,-39.3464"/>
<polygon fill="midnightblue" stroke="midnightblue" points="240.487,-42.8259 250.872,-40.7277 241.445,-35.8918 240.487,-42.8259"/>
</g>
<!-- Node4 -->
<g id="node4" class="node"><title>Node4</title>
<g id="a_node4"><a xlink:href="quaternaire_8c.html#aa861d7500e11f0c67b6140fcddf250cd" target="_top" xlink:title="Vérifie si le carré est homogène RGB. ">
<polygon fill="none" stroke="black" points="252,-0.5 252,-19.5 357,-19.5 357,-0.5 252,-0.5"/>
<text text-anchor="middle" x="304.5" y="-7.5" font-family="Helvetica,sans-Serif" font-size="10.00">carreHomogeneRVB</text>
</a>
</g>
</g>
<!-- Node2&#45;&gt;Node4 -->
<g id="edge3" class="edge"><title>Node2&#45;&gt;Node4</title>
<path fill="none" stroke="midnightblue" d="M215.252,-22.1942C223.874,-21.0028 232.943,-19.7497 241.85,-18.5189"/>
<polygon fill="midnightblue" stroke="midnightblue" points="242.38,-21.9791 251.806,-17.1431 241.421,-15.045 242.38,-21.9791"/>
</g>
<!-- Node5 -->
<g id="node5" class="node"><title>Node5</title>
<g id="a_node5"><a xlink:href="quaternaire_8c.html#a8054b3fc9ddb40f36e48d358bc04e4ba" target="_top" xlink:title="Calcul la valeur médiane d&#39;un carré RGB. ">
<polygon fill="none" stroke="black" points="394,-0.5 394,-19.5 499,-19.5 499,-0.5 394,-0.5"/>
<text text-anchor="middle" x="446.5" y="-7.5" font-family="Helvetica,sans-Serif" font-size="10.00">couleurMedianeRVB</text>
</a>
</g>
</g>
<!-- Node4&#45;&gt;Node5 -->
<g id="edge4" class="edge"><title>Node4&#45;&gt;Node5</title>
<path fill="none" stroke="midnightblue" d="M357.233,-10C365.855,-10 374.874,-10 383.716,-10"/>
<polygon fill="midnightblue" stroke="midnightblue" points="383.98,-13.5001 393.98,-10 383.98,-6.5001 383.98,-13.5001"/>
</g>
</g>
</svg>
