<?xml version="1.0" encoding="UTF-8" standalone="no"?>
<!DOCTYPE svg PUBLIC "-//W3C//DTD SVG 1.1//EN"
 "http://www.w3.org/Graphics/SVG/1.1/DTD/svg11.dtd">
<!-- Generated by graphviz version 2.38.0 (20140413.2041)
 -->
<!-- Title: creeationArbreNB Pages: 1 -->
<svg width="283pt" height="28pt"
 viewBox="0.00 0.00 283.00 28.00" xmlns="http://www.w3.org/2000/svg" xmlns:xlink="http://www.w3.org/1999/xlink">
<g id="graph0" class="graph" transform="scale(1 1) rotate(0) translate(4 24)">
<title>creeationArbreNB</title>
<!-- Node1 -->
<g id="node1" class="node"><title>Node1</title>
<polygon fill="#bfbfbf" stroke="black" points="0,-0.5 0,-19.5 93,-19.5 93,-0.5 0,-0.5"/>
<text text-anchor="middle" x="46.5" y="-7.5" font-family="Helvetica,sans-Serif" font-size="10.00">creeationArbreNB</text>
</g>
<!-- Node2 -->
<g id="node2" class="node"><title>Node2</title>
<g id="a_node2"><a xlink:href="quaternaire_8c.html#abbb4dd828fb06821dd2c6cfc4d939ebd" target="_top" xlink:title="Fonction d&#39;appel de création d&#39;un arbre NB. ">
<polygon fill="none" stroke="black" points="129,-0.5 129,-19.5 201,-19.5 201,-0.5 129,-0.5"/>
<text text-anchor="middle" x="165" y="-7.5" font-family="Helvetica,sans-Serif" font-size="10.00">creeArbreNB</text>
</a>
</g>
</g>
<!-- Node1&#45;&gt;Node2 -->
<g id="edge1" class="edge"><title>Node1&#45;&gt;Node2</title>
<path fill="none" stroke="midnightblue" d="M103.34,-10C112.037,-10 120.806,-10 128.87,-10"/>
<polygon fill="midnightblue" stroke="midnightblue" points="103.21,-6.5001 93.2095,-10 103.209,-13.5001 103.21,-6.5001"/>
</g>
<!-- Node3 -->
<g id="node3" class="node"><title>Node3</title>
<g id="a_node3"><a xlink:href="main_8c.html#a0ddf1224851353fc92bfbff6f499fa97" target="_top" xlink:title="Main du programme. ">
<polygon fill="none" stroke="black" points="237,-0.5 237,-19.5 275,-19.5 275,-0.5 237,-0.5"/>
<text text-anchor="middle" x="256" y="-7.5" font-family="Helvetica,sans-Serif" font-size="10.00">main</text>
</a>
</g>
</g>
<!-- Node2&#45;&gt;Node3 -->
<g id="edge2" class="edge"><title>Node2&#45;&gt;Node3</title>
<path fill="none" stroke="midnightblue" d="M211.36,-10C220.434,-10 229.46,-10 236.929,-10"/>
<polygon fill="midnightblue" stroke="midnightblue" points="211.175,-6.5001 201.175,-10 211.175,-13.5001 211.175,-6.5001"/>
</g>
</g>
</svg>
