<?xml version="1.0" encoding="UTF-8" standalone="no"?>
<!DOCTYPE svg PUBLIC "-//W3C//DTD SVG 1.1//EN"
 "http://www.w3.org/Graphics/SVG/1.1/DTD/svg11.dtd">
<!-- Generated by graphviz version 2.38.0 (20140413.2041)
 -->
<!-- Title: quantificationnb Pages: 1 -->
<svg width="223pt" height="104pt"
 viewBox="0.00 0.00 223.00 104.00" xmlns="http://www.w3.org/2000/svg" xmlns:xlink="http://www.w3.org/1999/xlink">
<g id="graph0" class="graph" transform="scale(1 1) rotate(0) translate(4 100)">
<title>quantificationnb</title>
<!-- Node1 -->
<g id="node1" class="node"><title>Node1</title>
<polygon fill="#bfbfbf" stroke="black" points="0,-38.5 0,-57.5 84,-57.5 84,-38.5 0,-38.5"/>
<text text-anchor="middle" x="42" y="-45.5" font-family="Helvetica,sans-Serif" font-size="10.00">quantificationnb</text>
</g>
<!-- Node2 -->
<g id="node2" class="node"><title>Node2</title>
<g id="a_node2"><a xlink:href="partie1_8c.html#a74146446548f74f43dcabaeea7b55493" target="_top" xlink:title="Retour une matrice de dimension haut * larg. ">
<polygon fill="none" stroke="black" points="122.5,-76.5 122.5,-95.5 212.5,-95.5 212.5,-76.5 122.5,-76.5"/>
<text text-anchor="middle" x="167.5" y="-83.5" font-family="Helvetica,sans-Serif" font-size="10.00">allocationMatrice</text>
</a>
</g>
</g>
<!-- Node1&#45;&gt;Node2 -->
<g id="edge1" class="edge"><title>Node1&#45;&gt;Node2</title>
<path fill="none" stroke="midnightblue" d="M74.1643,-57.589C89.8144,-62.4044 108.971,-68.2988 125.771,-73.468"/>
<polygon fill="midnightblue" stroke="midnightblue" points="124.759,-76.8184 135.346,-76.4141 126.817,-70.1279 124.759,-76.8184"/>
</g>
<!-- Node3 -->
<g id="node3" class="node"><title>Node3</title>
<g id="a_node3"><a xlink:href="transfnb_8c.html#a288139c15b77cb33be8ea40b2c4559e0" target="_top" xlink:title="Donne la nouvelle couleurs du pixel par rapport au niveau du palier. ">
<polygon fill="none" stroke="black" points="121,-38.5 121,-57.5 214,-57.5 214,-38.5 121,-38.5"/>
<text text-anchor="middle" x="167.5" y="-45.5" font-family="Helvetica,sans-Serif" font-size="10.00">getColorByNiveau</text>
</a>
</g>
</g>
<!-- Node1&#45;&gt;Node3 -->
<g id="edge2" class="edge"><title>Node1&#45;&gt;Node3</title>
<path fill="none" stroke="midnightblue" d="M84.1237,-48C92.6886,-48 101.852,-48 110.841,-48"/>
<polygon fill="midnightblue" stroke="midnightblue" points="110.875,-51.5001 120.875,-48 110.875,-44.5001 110.875,-51.5001"/>
</g>
<!-- Node4 -->
<g id="node4" class="node"><title>Node4</title>
<g id="a_node4"><a xlink:href="transfnb_8c.html#a800fc7ad2cc7ef439487f31be7f75d10" target="_top" xlink:title="Donne le niveau du palier sur lequel le pixel se trouve. ">
<polygon fill="none" stroke="black" points="120,-0.5 120,-19.5 215,-19.5 215,-0.5 120,-0.5"/>
<text text-anchor="middle" x="167.5" y="-7.5" font-family="Helvetica,sans-Serif" font-size="10.00">getNiveauByPalier</text>
</a>
</g>
</g>
<!-- Node1&#45;&gt;Node4 -->
<g id="edge3" class="edge"><title>Node1&#45;&gt;Node4</title>
<path fill="none" stroke="midnightblue" d="M74.1643,-38.411C89.8144,-33.5956 108.971,-27.7012 125.771,-22.532"/>
<polygon fill="midnightblue" stroke="midnightblue" points="126.817,-25.8721 135.346,-19.5859 124.759,-19.1816 126.817,-25.8721"/>
</g>
</g>
</svg>
